<svg xmlns="http://www.w3.org/2000/svg" xmlns:xlink="http://www.w3.org/1999/xlink" id="Layer_2" data-name="Layer 2" viewBox="0 0 487.35 345.54"><defs><style> .cls-1, .cls-2 { fill: #e9e9e9; } .cls-3, .cls-4, .cls-5 { fill: #fff; } .cls-6 { stroke-dasharray: 0 0 11.13 11.13; } .cls-6, .cls-7, .cls-8, .cls-9, .cls-10, .cls-11 { fill: none; } .cls-6, .cls-5, .cls-8, .cls-10, .cls-11, .cls-12, .cls-13 { stroke: #263238; stroke-linecap: round; stroke-linejoin: round; } .cls-4 { opacity: .5; } .cls-14 { fill: #a6c479; } .cls-7 { stroke: #92e3a9; stroke-miterlimit: 10; } .cls-2 { opacity: .7; } .cls-15 { clip-path: url(#clippath); } .cls-8 { opacity: .3; } .cls-11 { stroke-dasharray: 0 12; } .cls-12 { fill: #a8a8a8; } .cls-13, .cls-16 { fill: #263238; } </style><clipPath id="clippath"><rect class="cls-9" width="487.35" height="345.54"></rect></clipPath></defs><g id="Bag"><g class="cls-15"><g><g><path class="cls-1" d="m372.65-11.79S-20.65,78.95-34.15,134.45c-13.51,55.5,189.08,204.97,244.94,209.23,55.86,4.26,203.27-48.72,258.78-66.65,55.51-17.93-19.68-240.27-44.51-269.77-24.82-29.5-52.4-19.06-52.4-19.06Z"></path><path class="cls-2" d="m372.65-11.79S-20.65,78.95-34.15,134.45c-13.51,55.5,189.08,204.97,244.94,209.23,55.86,4.26,203.27-48.72,258.78-66.65,55.51-17.93-19.68-240.27-44.51-269.77-24.82-29.5-52.4-19.06-52.4-19.06Z"></path></g><g><g><g><rect class="cls-8" x="-14.22" y="12.79" width="61.59" height="61.59" rx="6.35" ry="6.35"></rect><path class="cls-3" d="m.2,17.96h-6.16c-1.96,0-3.55,1.59-3.55,3.55v7.24L.2,17.96Z"></path></g><g><rect class="cls-8" x="51.74" y="12.79" width="61.59" height="61.59" rx="6.35" ry="6.35"></rect><path class="cls-3" d="m66.16,17.96h-6.16c-1.96,0-3.55,1.59-3.55,3.55v7.24l9.71-10.79Z"></path></g><g><rect class="cls-8" x="117.69" y="12.79" width="61.59" height="61.59" rx="6.35" ry="6.35"></rect><path class="cls-3" d="m132.11,17.96h-6.16c-1.96,0-3.55,1.59-3.55,3.55v7.24l9.71-10.79Z"></path></g><g><rect class="cls-8" x="183.65" y="12.79" width="61.59" height="61.59" rx="6.35" ry="6.35"></rect><path class="cls-3" d="m198.07,17.96h-6.16c-1.96,0-3.55,1.59-3.55,3.55v7.24l9.71-10.79Z"></path></g><g><rect class="cls-8" x="249.61" y="12.79" width="61.59" height="61.59" rx="6.35" ry="6.35"></rect><path class="cls-3" d="m264.03,17.96h-6.16c-1.96,0-3.55,1.59-3.55,3.55v7.24l9.71-10.79Z"></path></g><g><rect class="cls-8" x="315.57" y="12.79" width="61.59" height="61.59" rx="6.35" ry="6.35"></rect><path class="cls-3" d="m329.99,17.96h-6.16c-1.96,0-3.55,1.59-3.55,3.55v7.24l9.71-10.79Z"></path></g><g><rect class="cls-8" x="381.53" y="12.79" width="61.59" height="61.59" rx="6.35" ry="6.35"></rect><path class="cls-3" d="m395.95,17.96h-6.16c-1.96,0-3.55,1.59-3.55,3.55v7.24l9.71-10.79Z"></path></g><g><rect class="cls-8" x="447.49" y="12.79" width="61.59" height="61.59" rx="6.35" ry="6.35"></rect><path class="cls-3" d="m461.91,17.96h-6.16c-1.96,0-3.55,1.59-3.55,3.55v7.24l9.71-10.79Z"></path></g></g><g><g><rect class="cls-8" x="-14.22" y="78.38" width="61.59" height="61.59" rx="6.35" ry="6.35"></rect><path class="cls-3" d="m.2,83.56h-6.16c-1.96,0-3.55,1.59-3.55,3.55v7.24L.2,83.56Z"></path></g><g><rect class="cls-8" x="51.74" y="78.38" width="61.59" height="61.59" rx="6.35" ry="6.35"></rect><path class="cls-3" d="m66.16,83.56h-6.16c-1.96,0-3.55,1.59-3.55,3.55v7.24l9.71-10.79Z"></path></g><g><rect class="cls-8" x="117.69" y="78.38" width="61.59" height="61.59" rx="6.35" ry="6.35"></rect><path class="cls-3" d="m132.11,83.56h-6.16c-1.96,0-3.55,1.59-3.55,3.55v7.24l9.71-10.79Z"></path></g><g><rect class="cls-8" x="183.65" y="78.38" width="61.59" height="61.59" rx="6.35" ry="6.35"></rect><path class="cls-3" d="m198.07,83.56h-6.16c-1.96,0-3.55,1.59-3.55,3.55v7.24l9.71-10.79Z"></path></g><g><rect class="cls-8" x="249.61" y="78.38" width="61.59" height="61.59" rx="6.35" ry="6.35"></rect><path class="cls-3" d="m264.03,83.56h-6.16c-1.96,0-3.55,1.59-3.55,3.55v7.24l9.71-10.79Z"></path></g><g><rect class="cls-8" x="315.57" y="78.38" width="61.59" height="61.59" rx="6.35" ry="6.35"></rect><path class="cls-3" d="m329.99,83.56h-6.16c-1.96,0-3.55,1.59-3.55,3.55v7.24l9.71-10.79Z"></path></g><g><rect class="cls-8" x="381.53" y="78.38" width="61.59" height="61.59" rx="6.35" ry="6.35"></rect><path class="cls-3" d="m395.95,83.56h-6.16c-1.96,0-3.55,1.59-3.55,3.55v7.24l9.71-10.79Z"></path></g><g><rect class="cls-8" x="447.49" y="78.38" width="61.59" height="61.59" rx="6.35" ry="6.35"></rect><path class="cls-3" d="m461.91,83.56h-6.16c-1.96,0-3.55,1.59-3.55,3.55v7.24l9.71-10.79Z"></path></g></g><g><g><rect class="cls-8" x="-14.22" y="143.98" width="61.59" height="61.59" rx="6.35" ry="6.35"></rect><path class="cls-3" d="m.2,149.15h-6.16c-1.96,0-3.55,1.59-3.55,3.55v7.24L.2,149.15Z"></path></g><g><rect class="cls-8" x="51.74" y="143.98" width="61.59" height="61.59" rx="6.35" ry="6.35"></rect><path class="cls-3" d="m66.16,149.15h-6.16c-1.96,0-3.55,1.59-3.55,3.55v7.24l9.71-10.79Z"></path></g><g><rect class="cls-8" x="117.69" y="143.98" width="61.59" height="61.59" rx="6.35" ry="6.35"></rect><path class="cls-3" d="m132.11,149.15h-6.16c-1.96,0-3.55,1.59-3.55,3.55v7.24l9.71-10.79Z"></path></g><g><rect class="cls-8" x="183.65" y="143.98" width="61.59" height="61.59" rx="6.35" ry="6.35"></rect><path class="cls-3" d="m198.07,149.15h-6.16c-1.96,0-3.55,1.59-3.55,3.55v7.24l9.71-10.79Z"></path></g><g><rect class="cls-8" x="249.61" y="143.98" width="61.59" height="61.59" rx="6.35" ry="6.35"></rect><path class="cls-3" d="m264.03,149.15h-6.16c-1.96,0-3.55,1.59-3.55,3.55v7.24l9.71-10.79Z"></path></g><g><rect class="cls-8" x="315.57" y="143.98" width="61.59" height="61.59" rx="6.35" ry="6.35"></rect><path class="cls-3" d="m329.99,149.15h-6.16c-1.96,0-3.55,1.59-3.55,3.55v7.24l9.71-10.79Z"></path></g><g><rect class="cls-8" x="381.53" y="143.98" width="61.59" height="61.59" rx="6.35" ry="6.35"></rect><path class="cls-3" d="m395.95,149.15h-6.16c-1.96,0-3.55,1.59-3.55,3.55v7.24l9.71-10.79Z"></path></g><g><rect class="cls-8" x="447.49" y="143.98" width="61.59" height="61.59" rx="6.35" ry="6.35"></rect><path class="cls-3" d="m461.91,149.15h-6.16c-1.96,0-3.55,1.59-3.55,3.55v7.24l9.71-10.79Z"></path></g></g><g><g><rect class="cls-8" x="-14.22" y="209.57" width="61.59" height="61.59" rx="6.35" ry="6.35"></rect><path class="cls-3" d="m.2,214.74h-6.16c-1.96,0-3.55,1.59-3.55,3.55v7.24L.2,214.74Z"></path></g><g><rect class="cls-8" x="51.74" y="209.57" width="61.59" height="61.59" rx="6.35" ry="6.35"></rect><path class="cls-3" d="m66.16,214.74h-6.16c-1.96,0-3.55,1.59-3.55,3.55v7.24l9.71-10.79Z"></path></g><g><rect class="cls-8" x="117.69" y="209.57" width="61.59" height="61.59" rx="6.35" ry="6.35"></rect><path class="cls-3" d="m132.11,214.74h-6.16c-1.96,0-3.55,1.59-3.55,3.55v7.24l9.71-10.79Z"></path></g><g><rect class="cls-8" x="183.65" y="209.57" width="61.59" height="61.59" rx="6.35" ry="6.35"></rect><path class="cls-3" d="m198.07,214.74h-6.16c-1.96,0-3.55,1.59-3.55,3.55v7.24l9.71-10.79Z"></path></g><g><rect class="cls-8" x="249.61" y="209.57" width="61.59" height="61.59" rx="6.35" ry="6.35"></rect><path class="cls-3" d="m264.03,214.74h-6.16c-1.96,0-3.55,1.59-3.55,3.55v7.24l9.71-10.79Z"></path></g><g><rect class="cls-8" x="315.57" y="209.57" width="61.59" height="61.59" rx="6.35" ry="6.35"></rect><path class="cls-3" d="m329.99,214.74h-6.16c-1.96,0-3.55,1.59-3.55,3.55v7.24l9.71-10.79Z"></path></g><g><rect class="cls-8" x="381.53" y="209.57" width="61.59" height="61.59" rx="6.35" ry="6.35"></rect><path class="cls-3" d="m395.95,214.74h-6.16c-1.96,0-3.55,1.59-3.55,3.55v7.24l9.71-10.79Z"></path></g><g><rect class="cls-8" x="447.49" y="209.57" width="61.59" height="61.59" rx="6.35" ry="6.35"></rect><path class="cls-3" d="m461.91,214.74h-6.16c-1.96,0-3.55,1.59-3.55,3.55v7.24l9.71-10.79Z"></path></g></g></g><g><g><path class="cls-14" d="m9.81,316.37c-3.43-1.07-6.54-2.94-9.12-5.45-1.74-1.69-3.98-3.58-6.32-4.75-5.03-2.52-15.51-4.61-15.51-4.61,0,0,9.22-2.1,16.35-.42,7.13,1.68,12.16,8.81,12.16,8.81,0,0-2.1-2.94-5.03-11.74-2.94-8.81-2.94-27.67-2.94-27.67,0,0,7.13,7.97,10.48,17.61,3.35,9.64,4.19,18.03,4.19,18.03,0,0-.84-14.68,1.68-23.06,2.52-8.39,9.64-18.87,9.64-18.87,0,0,.42,18.45-2.52,28.51-2.93,10.06-4.19,14.68-4.19,14.68,0,0,2.52-7.97,8.81-13.84,6.29-5.87,21.39-10.9,21.39-10.9,0,0-7.13,13-11.74,17.19-4.61,4.19-9.23,8.81-9.23,8.81,0,0,5.03-3.77,13.84-3.77s19.29,5.87,19.29,5.87c0,0-22.41-.14-30.67,3.72-1.67.78-3.4,1.42-5.22,1.75l-4.55.81c-3.6.64-7.31.4-10.8-.69h0Z"></path><g><line class="cls-10" x1="9.71" y1="312.31" x2="4.55" y2="308.74"></line><line class="cls-10" x1="15.28" y1="315.1" x2="8.12" y2="296.02"></line><line class="cls-10" x1="15.28" y1="315.1" x2="19.25" y2="289.66"></line><line class="cls-10" x1="15.28" y1="315.1" x2="28.79" y2="298.41"></line><line class="cls-10" x1="18.1" y1="314.76" x2="32.36" y2="308.34"></line></g></g><path class="cls-5" d="m30.29,368.46H.15c-2.77,0-4.94-2.36-4.73-5.11l3.64-46.78H31.38l3.64,46.78c.21,2.76-1.96,5.11-4.73,5.11Z"></path><path class="cls-7" d="m11.64,343.1c-.72,10.26-3.77,18.4-6.83,18.19-3.06-.21-4.95-8.7-4.24-18.96.72-10.26,3.77-18.4,6.83-18.19,3.06.21,4.95,8.7,4.24,18.96Z"></path><path class="cls-7" d="m17.21,343.1c.72,10.26,3.77,18.4,6.83,18.19,3.06-.21,4.95-8.7,4.24-18.96-.72-10.26-3.77-18.4-6.83-18.19-3.06.21-4.95,8.7-4.24,18.96Z"></path></g><g><g><path class="cls-13" d="m443.37,262.96h-15.35c-1.42,0-2.58,1.14-2.61,2.56l-.49,27.56h21.55l-.49-27.56c-.03-1.42-1.19-2.56-2.61-2.56Z"></path><path class="cls-13" d="m422.65,287.69h26.1c1.3,0,2.35,1.05,2.35,2.35v46.51h-30.8v-46.51c0-1.3,1.05-2.35,2.35-2.35Z"></path><rect class="cls-14" x="417.51" y="304.68" width="36.39" height="63.78"></rect><path class="cls-5" d="m421.91,304.68v47.01c0,3.55,2.87,6.42,6.42,6.42h14.09c3.55,0,6.42-2.87,6.42-6.42v-47.01h-26.93Z"></path></g><g><rect class="cls-5" x="366.94" y="265.04" width="46.31" height="7.6"></rect><path class="cls-14" d="m413.32,272.64l-23.22-.35-23.22.35s2.9,13.12,5.08,28.66c2.18,15.54,1.81,48.33,1.81,48.33h32.65s-.36-32.8,1.81-48.33c2.18-15.54,5.08-28.66,5.08-28.66Z"></path></g><g><rect class="cls-14" x="325.38" y="253.03" width="35.56" height="115.42"></rect><rect class="cls-5" x="325.38" y="253.03" width="35.56" height="34.98"></rect><rect class="cls-13" x="328.89" y="253.03" width="3.63" height="34.98"></rect></g></g><g><circle class="cls-16" cx="394.85" cy="179.64" r="38.74" transform="translate(-23.46 64.76) rotate(-9.11)"></circle><path class="cls-5" d="m394.85,218.39c6.81,0,13.21-1.76,18.77-4.85-.78-1.21-2.02-2.64-3.62-2.82-2.81-.31-5.16,1.88-9.38,3.13-3.84,1.14-7.73,1.13-11.56,0-4.22-1.25-6.56-3.44-9.37-3.12-1.6.18-2.84,1.61-3.62,2.82,5.56,3.09,11.96,4.85,18.77,4.85Z"></path><circle class="cls-5" cx="394.85" cy="179.64" r="29.96" transform="translate(-22.27 60.51) rotate(-8.52)"></circle></g><g><rect class="cls-13" x="368.58" y="11.36" width="59.76" height="81.38" transform="translate(95.86 -212.36) rotate(33.7)"></rect><g><path class="cls-5" d="m404.7,23.46c-2.38,3.56-7.19,4.53-10.76,2.15-3.56-2.38-4.53-7.19-2.15-10.76,2.38-3.56,7.19-4.53,10.76-2.15,3.56,2.38,4.53,7.19,2.15,10.76Z"></path><path class="cls-12" d="m420.03,33.69c-2.38,3.56-7.19,4.53-10.76,2.15-3.56-2.38-4.53-7.19-2.15-10.76,2.38-3.56,7.19-4.53,10.76-2.15,3.56,2.38,4.53,7.19,2.15,10.76Z"></path><path class="cls-12" d="m435.35,43.91c-2.38,3.56-7.19,4.53-10.76,2.15-3.56-2.38-4.53-7.19-2.15-10.76,2.38-3.56,7.19-4.53,10.76-2.15,3.56,2.38,4.53,7.19,2.15,10.76Z"></path></g><g><path class="cls-14" d="m394.48,38.79c-2.38,3.56-7.19,4.53-10.76,2.15-3.56-2.38-4.53-7.19-2.15-10.76,2.38-3.56,7.19-4.53,10.76-2.15,3.56,2.38,4.53,7.19,2.15,10.76Z"></path><path class="cls-12" d="m409.81,49.01c-2.38,3.56-7.19,4.53-10.76,2.15-3.56-2.38-4.53-7.19-2.15-10.76,2.38-3.56,7.19-4.53,10.76-2.15s4.53,7.19,2.15,10.76Z"></path><path class="cls-14" d="m425.13,59.24c-2.38,3.56-7.19,4.53-10.76,2.15-3.56-2.38-4.53-7.19-2.15-10.76,2.38-3.56,7.19-4.53,10.76-2.15,3.56,2.38,4.53,7.19,2.15,10.76Z"></path></g><g><path class="cls-14" d="m384.26,54.12c-2.38,3.56-7.19,4.53-10.76,2.15-3.56-2.38-4.53-7.19-2.15-10.76,2.38-3.56,7.19-4.53,10.76-2.15,3.56,2.38,4.53,7.19,2.15,10.76Z"></path><path class="cls-5" d="m399.58,64.34c-2.38,3.56-7.19,4.53-10.76,2.15-3.56-2.38-4.53-7.19-2.15-10.76,2.38-3.56,7.19-4.53,10.76-2.15,3.56,2.38,4.53,7.19,2.15,10.76Z"></path><path class="cls-12" d="m414.91,74.56c-2.38,3.56-7.19,4.53-10.76,2.15-3.56-2.38-4.53-7.19-2.15-10.76,2.38-3.56,7.19-4.53,10.76-2.15,3.56,2.38,4.53,7.19,2.15,10.76Z"></path></g><g><path class="cls-5" d="m374.03,69.44c-2.38,3.56-7.19,4.53-10.76,2.15-3.56-2.38-4.53-7.19-2.15-10.76,2.38-3.56,7.19-4.53,10.76-2.15,3.56,2.38,4.53,7.19,2.15,10.76Z"></path><path class="cls-14" d="m389.36,79.67c-2.38,3.56-7.19,4.53-10.76,2.15-3.56-2.38-4.53-7.19-2.15-10.76,2.38-3.56,7.19-4.53,10.76-2.15,3.56,2.38,4.53,7.19,2.15,10.76Z"></path><path class="cls-12" d="m404.69,89.89c-2.38,3.56-7.19,4.53-10.76,2.15-3.56-2.38-4.53-7.19-2.15-10.76,2.38-3.56,7.19-4.53,10.76-2.15,3.56,2.38,4.53,7.19,2.15,10.76Z"></path></g></g><g><g><rect class="cls-13" x="40.02" y="28.04" width="3.82" height="47.66" transform="translate(21.3 -11.56) rotate(20.93)"></rect><polygon class="cls-13" points="53.62 31.18 47.04 28.66 55.33 10.92 59.28 12.44 53.62 31.18"></polygon><rect class="cls-14" x="20.71" y="67.18" width="17.78" height="33.86" transform="translate(32 -5.02) rotate(20.93)"></rect><rect class="cls-14" x="23.96" y="71.76" width="19.68" height="2.75" transform="translate(28.36 -7.25) rotate(20.93)"></rect></g><g><rect class="cls-14" x="55.84" y="29.7" width="10.98" height="72.39" transform="translate(27.59 -17.56) rotate(20.93)"></rect><rect class="cls-14" x="49.2" y="38.18" width="17.78" height="72.39" transform="translate(30.41 -15.84) rotate(20.93)"></rect><rect class="cls-14" x="67.08" y="34.97" width="11.71" height="1.19" transform="translate(17.52 -23.71) rotate(20.93)"></rect></g></g><g><path class="cls-16" d="m68.35,291.37h0c-4.53,1.76-9.64-.49-11.4-5.03l-21.28-54.87,16.42-6.37,21.28,54.87c1.76,4.53-.49,9.64-5.03,11.4Z"></path><path class="cls-14" d="m39.8,189.26c.11-2.58.61-13.68.85-15.34.28-1.87-2.32-8.58-9.48-10.45-8.28-2.15-17.37,1.4-22.02,8.54-4.03,6.2-1.43,12.91.04,14.11,1.3,1.06,9.15,8.92,10.97,10.75l19.63-7.61Z"></path><polygon class="cls-5" points="30.07 192.91 20.2 196.74 29.79 215.69 35.76 231.07 43.68 228 51.61 224.93 45.64 209.54 39.94 189.08 30.07 192.91"></polygon><line class="cls-10" x1="22.73" y1="195.2" x2="17.84" y2="189.3"></line><line class="cls-10" x1="27.25" y1="193.45" x2="22.35" y2="183.79"></line><line class="cls-10" x1="33.72" y1="191.52" x2="31.58" y2="185.99"></line><line class="cls-10" x1="36.96" y1="189.81" x2="35.88" y2="181.43"></line></g><g><path class="cls-10" d="m285.93.98s1.48-1.58,4.19-4.29"></path><g><path class="cls-10" d="m300.02,15.48s1.48-1.58,4.19-4.29"></path><path class="cls-6" d="m312.19,3.43c14.13-13.37,39.03-35.05,66.35-50.31"></path></g><path class="cls-11" d="m304.32,18.43s5.98-2.98,12.63-1.17"></path><path class="cls-11" d="m308.88,24.8s3.71.39,5.62,5.3"></path></g><g><g><path class="cls-5" d="m196.19,215.9s-31.38,24.89-36.43,50.86c-5.05,25.97-10.82,80.44-11.18,93.79-.09,3.34-.16,5.84-.21,7.72h110.93c-1.17-7.73-3.33-22.02-3.59-23.59-.36-2.16,18.04-30.66,24.17-41.84,6.13-11.18,21.64-57.71,24.89-64.21,3.25-6.49,3.97-13.71-1.08-37.88-5.05-24.17-11.18-26.33-16.95-43.65-5.77-17.31.36-37.15,0-43.65-.36-6.49-8.3.72-11.18,4.69-2.89,3.97-25.61,24.17-35.35,25.61-9.74,1.44-16.23-8.66-16.23-8.66,0,0,1.8,15.15,1.44,18.76-.36,3.61-6.13,5.41-10.1,5.41s-32.1-3.61-47.61-3.61-50.5-3.97-50.5-3.97c0,0,43.65-36.07,57.71-45.45s18.04-10.46,22.36-12.26c4.33-1.8,5.77-2.89,5.77-2.89,0,0,0-27.05-.36-33.55-.36-6.49,1.44-27.78,1.44-27.78,0,0-6.49,5.41-9.02,12.63s-7.58,25.97-9.02,28.86-27.41,16.59-39.32,22.36c-11.9,5.77-45.81,18.76-66.01,39.32-20.2,20.56-28.14,28.5-25.25,33.91,2.89,5.41,8.3,7.94,15.15,10.1,6.85,2.16,30.3,14.07,64.93,23.81,34.63,9.74,60.6,15.15,60.6,15.15Z"></path><path class="cls-10" d="m225.63,180.41s2.95,1.84,8.84-1.1c5.89-2.95,13.61-8.25,23.94-10.31"></path><path class="cls-10" d="m117.19,151.69s-10.18,6.25-21.6,5.88"></path></g><g><path class="cls-14" d="m212.33,279.69s18.77,10,42.76,15.37c23.99,5.37,26.83,3.47,26.83,3.47,0,0,2.55,3.55-2.04,4.3,0,0-45.1-1.08-70.04-15.29l2.49-7.86Z"></path><path class="cls-14" d="m159.44,297.58s4.1,10.73,28.73,5.05,28.73-28.73,28.73-34.09-57.45,29.04-57.45,29.04Z"></path></g><g><path class="cls-5" d="m131.15,306.11s.88,2.06.59,7.66-2.38,15.4,2.2,15.73c4.58.33,4.08-4.79,3.49-8.62s-1.87-7.11.49-7.7,2.36,5.3,5.6,3.53,1.18-6.77,3.53-7.95,5.3-2.06,5.3-2.06l-21.2-.59Z"></path><path class="cls-5" d="m137.43,337.78c0,2.11-1.29,3.82-2.89,3.82s-2.89-1.71-2.89-3.82,1.29-3.82,2.89-3.82,2.89,1.71,2.89,3.82Z"></path></g><g><path class="cls-5" d="m277.5,239.93s-48.45,29.98-65.17,39.76-46.49,25.63-56.05,26.94c-9.56,1.3-14.99,3.69-22.16,1.96-7.17-1.74-5.65-7.39-2.82-26.72,2.82-19.33,1.4-28.28,27.02-58.31,28.52-33.42,48.15-55.96,48.58-59.22.43-3.26-5.21-22.16-8.91-28.02-3.69-5.87-4.78-7.39-4.34-14.34.43-6.95,4.34-24.33,3.63-27.99-.71-3.66,2.89-4.81,2.89-4.81,0,0,1.35-2.54,2.89,1.93,1.54,4.47,1.22,11.73,6.59,19.62,5.37,7.89,11.94,15.95,14.33,24.39,2.4,8.44,3.97,14.44.19,24.22-3.79,9.79-17.36,53.98-17.36,53.98,0,0,37.88-34.09,52.72-38.2,14.84-4.1,30.93,6.63,31.57,24.94"></path><path class="cls-10" d="m206.79,213.3s-23.04,19.57-32.83,27.15c-9.79,7.58-24.62,12.63-28.73,28.41"></path></g><g><path class="cls-5" d="m233.98,147.88s-3.93,15.86,1.15,16.85c3.26.64,3.88-3.65,3.88-3.65,0-3.2-2.05-8.67,2.28-9.36,2.22-.35,4.11,2.05,7.3-.68,3.2-2.74,1.83-6.16,4.11-6.85,2.28-.68,2.97-.46,3.88-2.28.91-1.83,1.14-4.56,1.14-4.56l-23.74,10.53Z"></path><path class="cls-5" d="m239.37,170.26c0,1.39-1.13,2.51-2.51,2.51s-2.51-1.13-2.51-2.51,1.13-2.51,2.51-2.51,2.51,1.13,2.51,2.51Z"></path></g><g><path class="cls-5" d="m200.68,53.34s-.26,16.59-.26,30.53-.52,18.33,3.61,29.94c4.13,11.62,24.01,33.04,29.94,34.07,5.94,1.03,8.26-.26,12.65-2.32,4.39-2.07,27.1-18.84,30.46-24.26s8.52-11.62,9.55-11.87c1.03-.26,8.52-1.29,11.36-11.62s3.1-12.39,1.81-19.62c-1.29-7.23-10.33-15.23-15.23-20.91-4.9-5.68-11.87-22.97-10.33-28.65,1.55-5.68,4.39-13.42,1.03-16.78s-7.74-2.32-16.52-1.03c-8.78,1.29-17.04,2.84-32.78,9.55-15.75,6.71-19.36,10.84-21.42,16.52-2.06,5.68-3.87,16.45-3.87,16.45Z"></path><g><path class="cls-14" d="m266.8,88.05s-1.9-7.87-10.24-8.57c-5.55-.46-8.54,9.63-8.54,9.63,0,0,13.71,4.49,18.78-1.06Z"></path><path class="cls-4" d="m266.8,88.05s-1.9-7.87-10.24-8.57c-5.55-.46-8.54,9.63-8.54,9.63,0,0,13.71,4.49,18.78-1.06Z"></path><path class="cls-14" d="m225.89,87.4s-3.54-10.47-8.13-11.25c-4.59-.78-7.58,9.79-7.58,9.79,0,0,8.98,3.83,15.7,1.46Z"></path><path class="cls-4" d="m225.89,87.4s-3.54-10.47-8.13-11.25c-4.59-.78-7.58,9.79-7.58,9.79,0,0,8.98,3.83,15.7,1.46Z"></path></g><g><path class="cls-10" d="m225.71,70.83s4.39,10.97,1.83,21.21"></path><path class="cls-10" d="m226.81,109.23s2.19,4.39,5.85,4.02c3.66-.37,4.75-2.56,6.22-4.02"></path><path class="cls-16" d="m248,73.46s6.63-3.91,13.76-1.62c7.13,2.29,7.51,6.15,6.24,6.92-1.27.76-3.48-3.88-7.05-3.88s-11.21,2.08-13.76.81c-2.55-1.27-1.23-1.72.81-2.23Z"></path><path class="cls-16" d="m223.89,70.51s-5.91-5.2-12.7-4.53c-6.79.66-8.67,4.05-7.62,4.86,1.05.82,2.97-3.02,6.2-2.44,3.23.58,12.68,4.44,15.17,3.84s.72-1-1.05-1.74Z"></path><g><line class="cls-10" x1="249.85" y1="82.9" x2="248.02" y2="89.12"></line><path class="cls-13" d="m245.46,88.26s7.75,2.73,10.93,2.73,7.75-.68,7.75-.68c0,0-2.73,2.28-7.29,2.28s-7.97-.68-9.8-.91l-1.82-.23h0l.97-1.2s-1.25-.12-1.87,0c-.62.12-1.47-.98,1.13-1.99Z"></path></g><g><line class="cls-10" x1="212.65" y1="79.54" x2="210.82" y2="85.76"></line><path class="cls-13" d="m208.62,83.97s6.6,3.18,9.4,3.37c2.79.19,6.83-.23,6.83-.23,0,0-2.55,2.11-6.54,1.85-3.99-.27-6.94-1.15-8.52-1.48l-1.58-.33h0l.93-1.14s-1.08-.2-1.64-.11c-.55.09-1.23-1.06,1.13-1.91Z"></path></g><path class="cls-14" d="m221.36,118.73s3.61,1.05,6.06,1.75c2.45.7,4.54,1.86,4.54,1.86,0,0,1.63-.7,6.17-.93,4.54-.23,10.48-.82,10.48-.82,0,0-2.68,2.91-6.17,4.89-3.49,1.98-7.8,2.68-11.42,1.63-3.61-1.05-7.8-4.19-9.67-8.39Z"></path><path class="cls-10" d="m219.51,117.33s5.84,6.24,14.25,6.61c8.41.37,15.36-3.37,18.29-5.2"></path></g></g><g><path class="cls-16" d="m313.93,267.94c.09-.16.13-.27.13-.27,0,0-.05.11-.13.27Z"></path><path class="cls-16" d="m325.65,176.55c1.37-10.57-4.17-17.21-10.03-24.25-4.4-5.28-1.96-8.37,1.42-12.66.94-1.2,2.1-2.33,2.77-3.78,6.84-14.96-1.74-29.9-5.96-33.63-7.17-6.32-7.17-14.96-7.8-17.28-.63-2.32,1.26-4.64,4-20.86,2.74-16.23-.21-27.4-5.06-35.19-4.85-7.8-16.23-13.49-17.7-15.6-1.48-2.11-12.22-12.43-25.29-13.91-13.07-1.48-19.6,2.95-24.45,4.85-4.85,1.9-26.34,9.69-32.24,19.39s-4.64,29.72-4.64,29.72c0,0,.59-2.82,2.46-7.13.31-.02.61-.17.8-.44.04-.06,3.91-5.63,8.88-7.38,1.88-.66,4.21-.96,6.68-1.28,4.46-.58,9.07-1.17,12.3-3.97.72-.62,1.38-1.17,2-1.66,1.07-.58,2.16-1.29,3.27-2.15.11-.09.22-.17.33-.25,1.51-.76,2.87-1.05,4.43-1.05,3.31,0,7.18-2.8,8.84-6.05,8.43-3.85,16.8-8.04,16.8-8.04,1.9-.21,4.43-2.11,4.43,0s-16.65,9.69-16.65,9.69c0,0,0,1.9-1.69,5.06-1.69,3.16-4.64,12.01.42,16.23,5.06,4.21,7.59,3.79,10.75,5.69,3.16,1.9.84,3.37,5.06,7.59,4.21,4.21,8.01,4.43,10.33,10.33s-1.05,8.01,1.69,11.8c2.74,3.79,7.59,4.64,8.43,14.96s-4,13.49-6.32,13.91-5.9,14.75-5.9,17.07.63,8.22-6.74,15.17-8.85,16.44-2.53,25.5c6.32,9.06,14.54,4,24.24,17.7,9.69,13.7,2.53,17.7-2.95,24.66-5.48,6.95-2.74,16.44,1.9,24.24,4.64,7.8,6.53,14.33,3.37,24.45-3.16,10.12-.63,17.7,7.38,17.7,7.15,0,10.59-6.36,11.25-7.73-.34.59-1.51,1.86-5.14,1.2-4.64-.84-7.59-9.69.63-14.75.67-.41,1.29-.85,1.88-1.3.45-.16.9-.32,1.37-.47,2.35-.79,4.79-1.6,6.99-3.8,4.67-4.67,5.59-18.5.09-25.72-4.92-6.45-9.94-18.11-9.99-18.23-.16-.38-.53-.61-.92-.63.56-7.25,4.58-11.35,8.44-15.36,2.91-1.65,7.45-5.29,8.36-12.32ZM238.62,25.48c-.74.55-1.53,1.15-2.37,1.79-1.11.58-2.29,1.37-3.63,2.42-4.52,2.42-8.57,2.4-12.81,2.36-1.27,0-2.58-.02-3.92.04-1.58.07-2.91.26-4.04.52,2.02-1.84,4.36-3.17,7.37-4.15,4.27-1.38,12.04-1.77,19.39-2.99Zm-19.39,9.51c-2.58.33-5.03.65-7.12,1.39-2.25.79-4.25,2.22-5.86,3.66.83-1.45,1.65-2.73,2.49-3.9,1.03-.69,3.23-1.74,7.24-1.92,1.28-.06,2.56-.05,3.81-.04,1.63.01,3.28.02,4.97-.11-1.77.41-3.67.67-5.54.91Zm22.41-9.09c.72-.53,1.38-1,1.98-1.42,1.09-.27,2.13-.57,3.14-.91-1.48,1.36-3.35,2.33-4.92,2.33-.07,0-.13,0-.2,0Zm27.32,24.7s-1.69-3.58-4-4c-2.32-.42-3.79.21-5.9-3.58-2.11-3.79.63-11.59.63-11.59,0,0,5.69,2.32,8.85,7.8,3.16,5.48.42,11.38.42,11.38Zm3.58,114.44c-4.43-4.64-3.16-10.33.84-14.96,4-4.64,5.48-12.86,5.48-12.86,0,0,1.48,2.74.21,14.54-1.26,11.8,3.79,15.6,3.79,15.6,0,0-5.9,2.32-10.33-2.32Zm26.76,74.39s-.21-2.32-1.48-5.27c-1.26-2.95-5.69-5.69-6.32-13.28-.63-7.59,4.43-13.49,4.43-13.49,0,0,1.05,3.37,4.43,11.38,3.37,8.01-1.05,20.65-1.05,20.65Zm18.76-15.04c4.02,5.28,4.76,18.26.09,22.92-.96.96-1.98,1.6-3.05,2.11,3.79-4.69,5.05-10.39,4.43-15.37-1.49-11.96-9.93-13.99-10.7-26.05,1.74,3.8,5.46,11.44,9.23,16.39Zm.47-90.58c-.16.31-.33.62-.52.92-.79,1.25-1.73,2.44-2.64,3.6-3.39,4.3-6.89,8.74-1.39,15.34,4.51,5.41,7.78,9.69,9.1,14.63-3.56-7.02-11.88-11.78-12.82-17.59-1.23-7.57,4.1-10.19,8.27-16.9Z"></path></g><path class="cls-5" d="m283.29,85.16s5.27-8.43,9.48-10.12c4.21-1.69,8.22,10.96,3.79,20.65-4.43,9.69-9.48,12.86-13.49,10.33"></path><path class="cls-5" d="m202.55,133.7s-3.04-13.25-3.04-14.77,1.52-8.91,1.96-12.17c.43-3.26-1.96-7.17.87-6.95,2.82.22,5.43,3.69,5.65,7.17s-.87,8.91-.43,11.3,10.64,15.21,11.95,22.16c1.3,6.95,0,12.6-.65,14.99"></path><g><path class="cls-5" d="m260.79,201.93c0,1.62-1.31,2.93-2.93,2.93s-2.93-1.31-2.93-2.93,1.31-5.11,2.93-5.11,2.93,3.5,2.93,5.11Z"></path><path class="cls-5" d="m239.64,243.07c0,1.55-1.25,2.8-2.8,2.8s-2.8-1.25-2.8-2.8,1.25-4.08,2.8-4.08,2.8,2.53,2.8,4.08Z"></path><path class="cls-5" d="m251.61,314.15c0,1.55-1.25,2.8-2.8,2.8s-2.8-1.25-2.8-2.8,1.25-5.71,2.8-5.71,2.8,4.16,2.8,5.71Z"></path><path class="cls-5" d="m271.49,233.14c0,1.13-.91,2.04-2.04,2.04s-2.04-.91-2.04-2.04.91-4.25,2.04-4.25,2.04,3.12,2.04,4.25Z"></path><path class="cls-5" d="m280.66,260.65c0,1.13-.91,2.04-2.04,2.04s-2.04-.91-2.04-2.04.91-3.98,2.04-3.98,2.04,2.86,2.04,3.98Z"></path><path class="cls-5" d="m180.53,163.33c0,1.13-.91,2.04-2.04,2.04s-2.04-.91-2.04-2.04.91-4.15,2.04-4.15,2.04,3.02,2.04,4.15Z"></path><circle class="cls-5" cx="211.36" cy="49.7" r="2.04"></circle><circle class="cls-5" cx="232.76" cy="39.51" r="1.02"></circle><path class="cls-5" d="m276.07,74.67c0,.56-.46,1.02-1.02,1.02s-1.02-.46-1.02-1.02.46-1.02,1.02-1.02,1.02.46,1.02,1.02Z"></path><path class="cls-5" d="m156.58,177.59c0,1.13-.91,2.04-2.04,2.04s-2.04-.91-2.04-2.04.91-4.02,2.04-4.02,2.04,2.89,2.04,4.02Z"></path><path class="cls-5" d="m161.68,162.84c0,1.13-.91,2.04-2.04,2.04s-2.04-.91-2.04-2.04.91-4.12,2.04-4.12,2.04,2.99,2.04,4.12Z"></path></g></g></g></g></g></svg>