<svg xmlns="http://www.w3.org/2000/svg" xmlns:xlink="http://www.w3.org/1999/xlink" id="Layer_2" data-name="Layer 2" viewBox="0 0 487.35 345.54"><defs><style> .cls-1 { fill: #fff; } .cls-2 { fill: #fafafa; } .cls-3 { fill: #f5f5f5; } .cls-4 { fill: #455a64; } .cls-5 { fill: #e0e0e0; } .cls-6 { opacity: .7; } .cls-6, .cls-7 { fill: #ebebeb; } .cls-8 { fill: #eb996e; } .cls-9 { opacity: .3; } .cls-10 { fill: #ffbe9d; } .cls-11 { clip-path: url(#clippath); } .cls-12 { fill: #9bc675; } .cls-13 { fill: none; } .cls-14 { fill: #263238; } </style><clipPath id="clippath"><rect class="cls-13" width="487.35" height="345.54"></rect></clipPath></defs><g id="Starts"><g class="cls-11"><g><path class="cls-7" d="m410.18,203.48c-10.39,31.49-32.77,66-65.71,77.23-49.76,16.98-54.21,57.79-144.53,57.51-14.08-.04-27.15-1.52-39.21-4.21-6.48-1.45-12.68-3.26-18.57-5.39-53.5-19.3-82.8-65.2-86.98-114.25-5.51-64.51,38.39-97.06,67-116.22,28.61-19.17,61.23-90.42,150.02-90.85,13.54-.06,27.1,1.27,40.31,4.31,30.15,6.92,61.17,23.61,79.81,49.04,1.4,1.91,2.74,3.87,4.03,5.87,25.13,39.11,28,94.03,13.84,136.96Z"></path><path class="cls-6" d="m410.18,203.48c-10.39,31.49-32.77,66-65.71,77.23-49.76,16.98-54.21,57.79-144.53,57.51-14.08-.04-27.15-1.52-39.21-4.21-6.48-1.45-12.68-3.26-18.57-5.39-53.5-19.3-82.8-65.2-86.98-114.25-5.51-64.51,38.39-97.06,67-116.22,28.61-19.17,61.23-90.42,150.02-90.85,13.54-.06,27.1,1.27,40.31,4.31,30.15,6.92,61.17,23.61,79.81,49.04,1.4,1.91,2.74,3.87,4.03,5.87,25.13,39.11,28,94.03,13.84,136.96Z"></path></g><g><rect class="cls-5" x="80.66" y="18.77" width="5.27" height="113.2"></rect><rect class="cls-3" x="4.28" y="19.65" width="75.58" height="112.49" rx=".08" ry=".08"></rect><path class="cls-7" d="m80.66,133.01H3.48s-.08-.03-.08-.08V18.85s.03-.08.08-.08h77.18s.08.03.08.08v114.08s-.03.08-.08.08Zm-75.42-1.75h73.67s.08-.03.08-.08V20.6s-.03-.08-.08-.08H5.23s-.08.03-.08.08v110.58s.03.08.08.08Z"></path><rect class="cls-1" x="11.89" y="26.59" width="60.49" height="98.53" rx=".08" ry=".08"></rect><rect class="cls-7" x="25.09" y="54.52" width="33.96" height="39.81" rx=".05" ry=".05"></rect><path class="cls-5" d="m56.36,89.46c.04.13-1.63.86-4.82.49-1.57-.21-3.53-.78-5.42-2.17-1.85-1.39-3.62-3.63-4.21-6.62-.62-2.97.37-6.68,3.22-9.06.71-.59,1.53-1.09,2.44-1.43.97-.36,2.02-.48,3.06-.35,1.03.13,2.13.49,3.05,1.33.94.85,1.45,2.28,1.2,3.56-.22,1.29-.92,2.27-1.68,3.05-.78.79-1.66,1.38-2.56,1.88-1.83,1.01-3.92,1.64-6.1,1.74-2.18.1-4.48-.34-6.5-1.48-2-1.13-3.72-2.83-4.79-4.96-1.09-2.11-1.43-4.66-.86-6.95.55-2.28,1.85-4.31,3.66-5.73.91-.71,1.94-1.23,3.07-1.55,1.13-.29,2.3-.35,3.46-.11,1.14.24,2.31.8,3.14,1.77.84.96,1.22,2.21,1.23,3.35.02,1.14-.29,2.26-.82,3.19-.51.94-1.21,1.7-1.94,2.33-1.47,1.24-3.12,2.06-4.81,2.56-1.69.49-3.43.61-5.06.39-1.63-.23-3.16-.83-4.41-1.69-2.5-1.7-3.95-4.28-4.21-6.66-.28-2.43.61-4.42,1.56-5.71.98-1.32,2.11-1.99,2.88-2.3.79-.3,1.25-.29,1.27-.21.03.11-.36.28-1,.71-.63.44-1.52,1.18-2.24,2.41-.71,1.21-1.29,2.97-.92,4.88.34,1.91,1.64,3.95,3.74,5.24,2.06,1.31,4.94,1.64,7.72.73,1.37-.44,2.74-1.18,3.86-2.18,1.11-1,1.87-2.28,1.8-3.62-.04-1.34-.88-2.29-2.32-2.57-.7-.14-1.49-.09-2.22.1-.72.22-1.46.59-2.1,1.1-1.28,1.01-2.25,2.54-2.64,4.21-.4,1.67-.16,3.44.65,5.05.8,1.6,2.13,2.94,3.65,3.8,1.52.87,3.29,1.23,5.03,1.17,1.74-.06,3.45-.55,4.94-1.35.75-.41,1.45-.87,1.97-1.39.54-.53.91-1.13,1-1.63.1-.51-.06-.96-.4-1.31-.36-.36-.98-.63-1.64-.72-.66-.1-1.33-.04-1.93.16-.65.22-1.26.56-1.79.98-1.08.84-1.89,2-2.34,3.22-.46,1.23-.57,2.49-.39,3.7.36,2.43,1.73,4.44,3.24,5.73,1.54,1.3,3.24,1.97,4.65,2.32,2.87.67,4.6.34,4.62.58Z"></path></g><g><rect class="cls-5" x="420" y="28.01" width="60.13" height="62.68"></rect><g><rect class="cls-2" x="415.93" y="28.01" width="60.13" height="62.68"></rect><path class="cls-5" d="m476.08,90.71h-60.16V27.99h60.16v62.71Zm-60.13-.04h60.09V28.03h-60.09v62.64Z"></path></g><rect class="cls-1" x="424.01" y="36.44" width="43.96" height="45.82"></rect><path class="cls-5" d="m424.01,82.57s-.38.52-1.08,1.26c-.7.74-1.69,1.74-2.79,2.83-1.11,1.09-2.12,2.06-2.87,2.75-.75.69-1.23,1.1-1.27,1.06-.04-.04.38-.52,1.08-1.26.7-.74,1.69-1.75,2.8-2.84,1.11-1.09,2.13-2.07,2.88-2.75.75-.69,1.23-1.09,1.26-1.05Z"></path><path class="cls-5" d="m467.97,82.45s.52.38,1.26,1.08c.74.7,1.74,1.69,2.83,2.79,1.09,1.11,2.06,2.12,2.75,2.87.69.75,1.1,1.23,1.06,1.27-.04.04-.52-.38-1.26-1.08-.74-.7-1.75-1.69-2.84-2.8-1.09-1.11-2.06-2.13-2.75-2.88-.69-.75-1.09-1.23-1.05-1.26Z"></path><path class="cls-5" d="m467.85,36.56s.38-.52,1.08-1.26c.7-.74,1.69-1.74,2.79-2.83,1.11-1.09,2.12-2.06,2.87-2.75.75-.69,1.23-1.1,1.27-1.06.04.04-.38.52-1.08,1.26-.7.74-1.69,1.75-2.8,2.84-1.11,1.09-2.13,2.06-2.88,2.75-.75.69-1.23,1.09-1.26,1.05Z"></path><path class="cls-5" d="m423.89,36.67s-.52-.38-1.26-1.08c-.74-.7-1.74-1.69-2.83-2.79-1.09-1.11-2.06-2.12-2.75-2.87-.69-.75-1.1-1.23-1.06-1.27.04-.04.51.38,1.26,1.08.74.7,1.75,1.69,2.84,2.8,1.09,1.11,2.07,2.13,2.75,2.88.69.75,1.09,1.23,1.05,1.26Z"></path><path class="cls-5" d="m467.85,82.26s0-.08,0-.22c0-.16,0-.37,0-.64,0-.57-.01-1.4-.02-2.47-.01-2.17-.03-5.33-.04-9.34-.02-8.03-.05-19.46-.09-33.15l.17.17c-12.8,0-27.83.02-43.84.03h0l.19-.19c-.01,16.82-.02,32.55-.03,45.82l-.17-.17c13.14.04,24.07.06,31.74.09,3.83.02,6.85.03,8.92.04,1.02,0,1.81.02,2.36.02.26,0,.46,0,.61,0,.14,0,.21,0,.21,0,0,0-.06,0-.19,0-.15,0-.34,0-.59,0-.54,0-1.32.01-2.33.02-2.06.01-5.06.02-8.88.04-7.69.02-18.67.05-31.85.09h-.17s0-.17,0-.17c0-13.27-.02-29-.03-45.82v-.19s.19,0,.19,0h0c16.01,0,31.04.02,43.84.03h.17v.17c-.04,13.73-.07,25.21-.09,33.26-.02,3.99-.03,7.14-.04,9.3,0,1.06-.02,1.87-.02,2.44,0,.26,0,.47,0,.62,0,.14,0,.21,0,.2Z"></path><rect class="cls-7" x="438.66" y="52.01" width="14.67" height="14.67"></rect></g><g><rect class="cls-5" x="420" y="112.6" width="60.13" height="62.68"></rect><g><rect class="cls-2" x="415.93" y="112.6" width="60.13" height="62.68"></rect><path class="cls-5" d="m476.08,175.3h-60.16v-62.71h60.16v62.71Zm-60.13-.04h60.09v-62.64h-60.09v62.64Z"></path></g><rect class="cls-1" x="424.01" y="121.03" width="43.96" height="45.82"></rect><path class="cls-5" d="m424.01,167.16s-.38.52-1.08,1.26c-.7.74-1.69,1.74-2.79,2.83-1.11,1.09-2.12,2.06-2.87,2.75-.75.69-1.23,1.1-1.27,1.06-.04-.04.38-.52,1.08-1.26.7-.74,1.69-1.75,2.8-2.84,1.11-1.09,2.13-2.07,2.88-2.75.75-.69,1.23-1.09,1.26-1.05Z"></path><path class="cls-5" d="m467.97,167.04s.52.38,1.26,1.08c.74.7,1.74,1.69,2.83,2.79,1.09,1.11,2.06,2.12,2.75,2.87.69.75,1.1,1.23,1.06,1.27-.04.04-.52-.38-1.26-1.08-.74-.7-1.75-1.69-2.84-2.8-1.09-1.11-2.06-2.13-2.75-2.88-.69-.75-1.09-1.23-1.05-1.26Z"></path><path class="cls-5" d="m467.85,121.15s.38-.52,1.08-1.26c.7-.74,1.69-1.74,2.79-2.83,1.11-1.09,2.12-2.06,2.87-2.75.75-.69,1.23-1.1,1.27-1.06.04.04-.38.52-1.08,1.26-.7.74-1.69,1.75-2.8,2.84-1.11,1.09-2.13,2.06-2.88,2.75-.75.69-1.23,1.09-1.26,1.05Z"></path><path class="cls-5" d="m423.89,121.26s-.52-.38-1.26-1.08c-.74-.7-1.74-1.69-2.83-2.79-1.09-1.11-2.06-2.12-2.75-2.87-.69-.75-1.1-1.23-1.06-1.27.04-.04.51.38,1.26,1.08.74.7,1.75,1.69,2.84,2.8,1.09,1.11,2.07,2.13,2.75,2.88.69.75,1.09,1.23,1.05,1.26Z"></path><path class="cls-5" d="m467.85,166.85s0-.08,0-.22c0-.16,0-.37,0-.64,0-.57-.01-1.4-.02-2.47-.01-2.17-.03-5.33-.04-9.34-.02-8.03-.05-19.46-.09-33.15l.17.17c-12.8,0-27.83.02-43.84.03h0l.19-.19c-.01,16.82-.02,32.55-.03,45.82l-.17-.17c13.14.04,24.07.06,31.74.09,3.83.02,6.85.03,8.92.04,1.02,0,1.81.02,2.36.02.26,0,.46,0,.61,0,.14,0,.21,0,.21,0,0,0-.06,0-.19,0-.15,0-.34,0-.59,0-.54,0-1.32.01-2.33.02-2.06.01-5.06.02-8.88.04-7.69.02-18.67.05-31.85.09h-.17s0-.17,0-.17c0-13.27-.02-29-.03-45.82v-.19s.19,0,.19,0h0c16.01,0,31.04.02,43.84.03h.17v.17c-.04,13.73-.07,25.21-.09,33.26-.02,3.99-.03,7.14-.04,9.3,0,1.06-.02,1.87-.02,2.44,0,.26,0,.47,0,.62,0,.14,0,.21,0,.2Z"></path><rect class="cls-7" x="438.66" y="136.6" width="14.67" height="14.67"></rect></g><g><g><g><g><g><path class="cls-7" d="m337.61,71.37c-.66,20.66-17.99,36.87-38.7,36.21-2.24-.07-4.44-.34-6.56-.79-17.47-3.67-30.33-19.41-29.74-37.83.66-20.66,17.99-36.87,38.7-36.21,20.71.66,36.96,17.95,36.3,38.62Z"></path><path class="cls-7" d="m329.71,71.51c-.51,15.74-13.71,28.1-29.49,27.59-15.78-.51-28.17-13.68-27.66-29.43.51-15.75,13.71-28.1,29.49-27.59,15.78.51,28.17,13.68,27.66,29.43Z"></path></g><path class="cls-5" d="m328.69,71.09s-.02-.16-.04-.46c-.01-.33-.03-.78-.05-1.36,0-.3-.02-.63-.03-1-.03-.37-.1-.76-.15-1.2-.11-.86-.21-1.86-.51-2.96-.44-2.22-1.39-4.85-2.94-7.65-1.56-2.79-3.84-5.72-6.98-8.25-3.13-2.5-7.12-4.67-11.76-5.64-4.61-.94-9.85-.97-14.89.76-1.28.37-2.49.95-3.74,1.5-.61.3-1.19.66-1.79.99-.61.32-1.18.71-1.74,1.12-1.17.75-2.21,1.7-3.3,2.62-.99,1.02-2.02,2.02-2.88,3.18-1.76,2.28-3.31,4.82-4.3,7.65-1.01,2.8-1.61,5.8-1.75,8.86-.06,3.07.34,6.1,1.17,8.96.8,2.88,2.19,5.52,3.8,7.91.78,1.22,1.75,2.28,2.67,3.36,1.02.98,2,2,3.12,2.82,1.05.91,2.26,1.6,3.4,2.33,1.21.63,2.38,1.29,3.64,1.74,4.92,2.05,10.15,2.36,14.81,1.72,4.7-.67,8.81-2.58,12.1-4.88,3.3-2.32,5.76-5.1,7.49-7.79,1.72-2.7,2.84-5.26,3.42-7.44.37-1.07.53-2.06.7-2.92.08-.43.17-.82.22-1.18.04-.36.07-.69.1-.99.06-.57.11-1.02.14-1.35.04-.3.06-.46.07-.46.01,0,0,.16,0,.46-.02.33-.05.78-.08,1.36-.02.3-.04.64-.07,1-.04.37-.13.76-.2,1.2-.15.86-.3,1.87-.65,2.95-.55,2.21-1.65,4.81-3.37,7.56-1.73,2.73-4.2,5.57-7.53,7.95-3.32,2.35-7.49,4.32-12.27,5.02-4.74.68-10.07.38-15.09-1.7-1.28-.45-2.48-1.12-3.71-1.76-1.16-.75-2.39-1.45-3.47-2.37-1.15-.84-2.15-1.87-3.19-2.88-.94-1.1-1.93-2.18-2.73-3.43-1.65-2.43-3.07-5.13-3.89-8.07-.85-2.93-1.26-6.02-1.2-9.15.14-3.13.75-6.19,1.79-9.05,1.01-2.88,2.59-5.48,4.4-7.8.88-1.19,1.93-2.2,2.94-3.24,1.11-.93,2.17-1.9,3.37-2.66.58-.41,1.16-.81,1.78-1.14.62-.34,1.21-.7,1.83-1.01,1.27-.56,2.51-1.15,3.82-1.52,5.15-1.75,10.48-1.7,15.17-.72,4.72,1.01,8.76,3.24,11.92,5.8,3.17,2.58,5.46,5.58,7.01,8.42,1.54,2.85,2.47,5.52,2.87,7.76.28,1.11.37,2.12.46,2.99.04.44.1.84.12,1.21,0,.37,0,.7,0,1,0,.58,0,1.03,0,1.36,0,.31-.01.46-.02.46Z"></path></g><path class="cls-5" d="m302.8,87.32l-.09,4.98-4.45-.08.09-4.85c-4.4-.35-8.6-1.8-11.01-3.75l2.54-5.38c2.19,1.69,5.37,2.94,8.57,3.31l.13-7.43c-4.91-1.29-10.4-3.03-10.28-9.39.08-4.71,3.58-8.7,10.62-9.37l.09-4.94,4.45.08-.09,4.85c3.33.33,6.56,1.27,8.98,2.87l-2.32,5.43c-2.25-1.33-4.54-2.13-6.76-2.43l-.13,7.56c4.91,1.24,10.31,2.98,10.2,9.25-.08,4.62-3.53,8.57-10.53,9.29Zm-4.1-19.73l.11-6.31c-2.37.49-3.32,1.77-3.35,3.23-.03,1.56,1.29,2.42,3.24,3.08Zm7.46,10.85c.03-1.56-1.25-2.42-3.15-3.13l-.11,6.14c2.23-.45,3.23-1.59,3.26-3.01Z"></path></g><path class="cls-3" d="m335.72,105.03c-13.25,12.1-32.14,16.51-49.38,11.46-14.17-4.14-26.32-14.55-31.96-28.29-5.73-13.97-4.17-30.09,3.96-42.78,8.17-12.77,22.32-21.12,37.37-22.57,18.91-1.83,37.6,6.82,47.95,22.82,1.54,2.38,5.36.17,3.81-2.23-9.97-15.4-27.04-24.85-45.4-25.24-16.69-.35-33.25,6.93-43.84,19.91-10.49,12.85-14.35,30.22-9.82,46.25,4.46,15.78,16.5,28.48,31.61,34.6,19.9,8.06,43.06,3.61,58.84-10.8,2.1-1.92-1.03-5.04-3.12-3.12h0Z"></path></g><polygon class="cls-3" points="331.63 44.22 349.63 32.1 349.63 50.42 331.63 44.22"></polygon></g><path class="cls-14" d="m472.61,328.45c0,.11-105.73.19-236.13.19s-236.16-.09-236.16-.19,105.71-.19,236.16-.19,236.13.09,236.13.19Z"></path><g><path class="cls-12" d="m263.19,133.02s26.99,7.11,35.52,35.57l-11.47,5.09s-2.63-19.8-29.37-28.42c-14.47-4.67-33.62,1.92-38.93,7.95l-12.87-5.55c8.64-9.48,29.89-22.05,57.12-14.63Z"></path><polygon class="cls-12" points="306.04 161.42 277.52 170.88 299.41 181.85 306.04 161.42"></polygon></g><g><g><g><path class="cls-14" d="m229.53,328.45l-100.87-.06c-12.13,0-21.96-10.35-21.96-23.09l.05-265.75c0-12.76,9.85-23.09,21.98-23.09l100.87.06c12.13,0,21.96,10.35,21.96,23.09l-.05,265.75c0,12.76-9.85,23.09-21.98,23.09Z"></path><path class="cls-1" d="m229.49,25.92h-19.56c-2.62-.01-4.75,2.32-4.75,5.2v3.73c0,2.88-2.13,5.22-4.75,5.21l-38.12-.02c-2.62,0-4.75-2.34-4.75-5.22v-3.73c0-2.88-2.12-5.22-4.75-5.22h-6.88s-17.12-.01-17.12-.01c-8.5,0-15.39,7.23-15.4,16.17l-.05,259.39c0,8.93,6.88,16.17,15.38,16.18l100.67.06c8.5,0,15.39-7.23,15.4-16.17l.05-259.39c0-8.93-6.88-16.17-15.38-16.17Z"></path></g><g><path class="cls-5" d="m134.7,297.13v7.61c0,.66-.73,1.06-1.28.71l-5.98-3.81c-.52-.33-.52-1.09,0-1.41l5.98-3.81c.56-.35,1.28.05,1.28.71Z"></path><path class="cls-5" d="m183.87,300.87c0,2.9-2.35,5.26-5.25,5.26s-5.25-2.35-5.25-5.26,2.35-5.26,5.25-5.26,5.25,2.35,5.25,5.26Z"></path><rect class="cls-5" x="221.54" y="296.29" width="9.68" height="9.7" rx="1.38" ry="1.38"></rect></g></g><g><g><path class="cls-14" d="m149.97,119.59h8.09c-.52-.4-1.05-.8-1.57-1.2,1.19,3.93,2.39,7.86,3.58,11.78,1.89,6.23,3.79,12.46,5.68,18.69.44,1.44.87,2.88,1.31,4.31.21.69.84,1.2,1.57,1.2,7.72-.02,15.44-.04,23.16-.06,1.11,0,2.21,0,3.32,0,2.1,0,2.11-3.27,0-3.27-7.72.02-15.44.04-23.16.06-1.11,0-2.21,0-3.32,0,.52.4,1.05.8,1.57,1.2-1.19-3.93-2.39-7.86-3.58-11.78-1.89-6.23-3.79-12.46-5.68-18.69-.44-1.44-.87-2.88-1.31-4.31-.21-.69-.84-1.2-1.57-1.2h-8.09c-2.1,0-2.11,3.27,0,3.27h0Z"></path><path class="cls-14" d="m200.29,123.75c-1.53,6.83-3.05,13.67-4.58,20.5-.22.98-.44,1.96-.66,2.95.39-.3.79-.6,1.18-.9-3.31-.03-6.61-.06-9.92-.1-5.3-.05-10.6-.1-15.9-.16-1.21-.01-2.42-.02-3.64-.04.39.3.79.6,1.18.9-2.13-6.77-4.25-13.53-6.38-20.3-.3-.95-.6-1.91-.9-2.86-.39.52-.79,1.03-1.18,1.55h41.97c1.58,0,1.58-2.45,0-2.45h-41.97c-.77,0-1.42.79-1.18,1.55,2.13,6.76,4.25,13.53,6.38,20.3.3.95.6,1.91.9,2.86.16.52.63.89,1.18.9,3.31.03,6.61.06,9.92.1,5.3.05,10.6.1,15.9.16,1.21.01,2.42.02,3.64.04.51,0,1.07-.38,1.18-.9,1.53-6.83,3.05-13.67,4.58-20.5.22-.98.44-1.96.66-2.95.34-1.54-2.02-2.19-2.36-.65Z"></path><path class="cls-14" d="m167.85,124.8c1.29,7.48,2.93,14.89,4.22,22.36.27,1.55,2.63.89,2.36-.65-1.29-7.48-2.93-14.89-4.22-22.36-.27-1.55-2.63-.89-2.36.65h0Z"></path><path class="cls-14" d="m180.79,124.47c.12,7.67.27,15.33.39,23,.03,1.57,2.48,1.58,2.45,0-.12-7.67-.27-15.33-.39-23-.03-1.57-2.48-1.58-2.45,0h0Z"></path><path class="cls-14" d="m192.74,147.75c1.04-6.81,2.07-13.62,3.11-20.42.15-.97.3-1.95.44-2.92.1-.66-.17-1.31-.86-1.51-.58-.17-1.41.2-1.51.86-1.04,6.81-2.07,13.62-3.11,20.42-.15.97-.3,1.95-.44,2.92-.1.66.17,1.31.86,1.51.58.17,1.41-.2,1.51-.86h0Z"></path><path class="cls-14" d="m162.17,132.47h37.06c1.58,0,1.58-2.45,0-2.45h-37.06c-1.58,0-1.58,2.45,0,2.45h0Z"></path><path class="cls-14" d="m165.65,141.07h32.09c1.58,0,1.58-2.45,0-2.45h-32.09c-1.58,0-1.58,2.45,0,2.45h0Z"></path><circle class="cls-14" cx="195.11" cy="160.77" r="4.36"></circle><circle class="cls-14" cx="171.14" cy="160.77" r="4.36"></circle></g><path class="cls-12" d="m162.79,102.07s-17.93-.61-28.44,15.35l6.13,5.25s5.27-11.71,23.33-12.08c9.77-.2,16.49,5.5,18.65,10.19l11.08-.19c-3.57-7.43-12.6-18.06-30.75-18.52Z"></path><polygon class="cls-12" points="131.97 112.22 147.79 123.32 133.42 126.23 131.97 112.22"></polygon></g><g><path class="cls-14" d="m236.73,53.24c0,.98-.8,1.78-1.78,1.78s-1.78-.8-1.78-1.78.8-1.78,1.78-1.78,1.78.8,1.78,1.78Z"></path><circle class="cls-14" cx="234.95" cy="58.1" r="1.78"></circle><circle class="cls-14" cx="234.95" cy="62.97" r="1.78"></circle></g><polygon class="cls-14" points="128.85 52.4 121.59 57.84 123.44 57.84 123.44 64.35 127.36 64.37 127.36 59.49 130.44 59.48 130.44 64.35 134.23 64.35 134.23 57.78 136.12 57.76 128.85 52.4"></polygon><path class="cls-5" d="m245.34,71.21c0,.11-29.65.19-66.21.19s-66.22-.09-66.22-.19,29.64-.19,66.22-.19,66.21.09,66.21.19Z"></path><g><path class="cls-5" d="m176.55,193.79h1.18c3.98,0,7.21,3.23,7.21,7.21v58.05c0,3.98-3.23,7.21-7.21,7.21h-1.18c-3.98,0-7.21-3.23-7.21-7.21v-58.05c0-3.98,3.23-7.21,7.21-7.21Z"></path><g><g><g><path class="cls-12" d="m207.53,231.74c.02,13.86-11.23,25.11-25.13,25.13-1.51,0-2.98-.13-4.42-.38-11.79-2.07-20.76-12.33-20.77-24.69-.02-13.86,11.23-25.11,25.13-25.13,13.89-.02,25.17,11.21,25.19,25.07Z"></path><path class="cls-12" d="m202.24,232.01c.01,10.56-8.56,19.14-19.15,19.15-10.59.01-19.18-8.54-19.2-19.1-.01-10.56,8.56-19.14,19.15-19.15,10.59-.01,19.18,8.54,19.2,19.1Z"></path></g><path class="cls-14" d="m201.55,231.75s-.02-.1-.04-.31c-.02-.22-.04-.52-.07-.91-.01-.2-.03-.42-.04-.67-.03-.24-.08-.51-.13-.8-.09-.58-.18-1.24-.41-1.97-.34-1.47-1.04-3.22-2.14-5.06-1.11-1.84-2.7-3.75-4.86-5.37-2.16-1.61-4.87-2.97-8.01-3.52-3.11-.53-6.62-.43-9.96.84-.85.27-1.65.69-2.47,1.09-.4.22-.78.47-1.18.71-.4.23-.77.5-1.14.79-.77.53-1.44,1.19-2.15,1.83-.64.71-1.31,1.4-1.86,2.2-1.13,1.57-2.11,3.31-2.71,5.22-.62,1.9-.95,3.92-.97,5.98.03,2.06.37,4.08.99,5.98.6,1.91,1.59,3.65,2.72,5.22.55.8,1.22,1.49,1.86,2.19.71.64,1.38,1.3,2.16,1.82.73.59,1.55,1.02,2.33,1.49.82.39,1.62.81,2.48,1.08,3.35,1.26,6.86,1.35,9.97.82,3.13-.55,5.85-1.93,8-3.54,2.16-1.63,3.75-3.55,4.85-5.39,1.09-1.85,1.79-3.59,2.13-5.06.22-.73.31-1.4.4-1.97.04-.29.1-.55.12-.8.02-.24.03-.47.04-.67.03-.38.05-.68.06-.91.02-.2.03-.31.04-.31,0,0,0,.11,0,.31,0,.22-.01.53-.03.91,0,.2-.01.43-.02.67-.02.25-.07.51-.11.81-.08.58-.16,1.26-.37,1.99-.32,1.49-1,3.26-2.09,5.14-1.1,1.87-2.69,3.83-4.87,5.5-2.17,1.65-4.92,3.06-8.11,3.64-3.16.56-6.74.48-10.15-.8-.87-.27-1.69-.7-2.53-1.1-.8-.48-1.64-.92-2.38-1.51-.79-.54-1.48-1.21-2.2-1.86-.65-.72-1.34-1.42-1.91-2.23-1.16-1.59-2.17-3.37-2.78-5.32-.64-1.94-.98-4.01-1.01-6.11.02-2.1.36-4.16,1-6.11.61-1.95,1.62-3.73,2.77-5.33.56-.82,1.25-1.52,1.9-2.24.72-.65,1.41-1.32,2.2-1.86.38-.29.76-.57,1.17-.8.4-.24.8-.5,1.21-.72.84-.4,1.66-.83,2.52-1.1,3.41-1.29,6.99-1.38,10.15-.82,3.19.57,5.94,1.97,8.12,3.62,2.18,1.66,3.78,3.62,4.88,5.48,1.09,1.88,1.78,3.64,2.1,5.14.21.74.29,1.41.38,1.99.04.29.09.56.11.81,0,.25.02.47.03.67.01.39.02.69.03.91,0,.21,0,.31,0,.31Z"></path></g><g class="cls-9"><path d="m201.4,231.95c-.12,0-.2-.84-.5-2.31-.31-1.46-.89-3.57-2.2-5.87-.65-1.15-1.48-2.34-2.52-3.48-1.05-1.13-2.29-2.23-3.74-3.16-.72-.47-1.5-.9-2.32-1.27-.82-.37-1.68-.71-2.58-.96-.9-.25-1.83-.46-2.79-.57-.96-.12-1.94-.16-2.93-.14-.99.04-1.97.15-2.91.33-.95.18-1.86.45-2.74.76-.88.31-1.72.7-2.51,1.13-.8.42-1.54.91-2.23,1.42-1.39,1.02-2.56,2.2-3.53,3.4-.96,1.21-1.71,2.45-2.29,3.64-1.15,2.38-1.59,4.53-1.81,6-.21,1.48-.24,2.33-.35,2.33-.09,0-.25-.84-.21-2.38.05-1.54.35-3.81,1.44-6.38.55-1.28,1.29-2.63,2.27-3.95.99-1.31,2.2-2.61,3.67-3.73.73-.57,1.52-1.1,2.37-1.57.85-.47,1.74-.9,2.69-1.25.95-.35,1.93-.64,2.96-.84,1.02-.2,2.07-.32,3.14-.36,1.07-.03,2.12.03,3.16.16,1.03.13,2.04.36,3,.64.97.28,1.89.65,2.77,1.07.88.41,1.7.89,2.47,1.41,1.54,1.03,2.84,2.24,3.91,3.48,1.06,1.25,1.89,2.55,2.52,3.8,1.26,2.5,1.7,4.75,1.85,6.28.14,1.54.03,2.39-.06,2.39Z"></path></g><g class="cls-9"><path d="m184.56,243.21l.05,3.34-2.98.05-.05-3.25c-2.95-.13-5.8-1.01-7.46-2.27l1.58-3.66c1.51,1.08,3.67,1.85,5.82,2.03l-.08-4.98c-3.32-.75-7.04-1.8-7.1-6.06-.05-3.16,2.2-5.91,6.91-6.52l-.05-3.31,2.98-.05.05,3.25c2.24.14,4.42.71,6.08,1.72l-1.43,3.69c-1.53-.84-3.09-1.32-4.59-1.48l.08,5.07c3.32.72,6.98,1.77,7.04,5.97.05,3.1-2.18,5.82-6.85,6.46Zm-3.19-13.13l-.07-4.23c-1.57.38-2.19,1.26-2.17,2.24.02,1.04.92,1.6,2.24,1.99Zm5.24,7.11c-.02-1.04-.89-1.6-2.18-2.02l.06,4.11c1.49-.35,2.13-1.14,2.11-2.09Z"></path></g></g><rect class="cls-1" x="139.73" y="196.69" width="29.04" height="64.91"></rect></g></g><g><g><g><path class="cls-12" d="m329.93,226.07c3.23,14.45-5.89,28.79-20.37,32.04-1.57.35-3.14.56-4.69.63-12.78.58-24.51-8.04-27.39-20.93-3.23-14.45,5.89-28.79,20.37-32.04,14.48-3.24,28.85,5.85,32.08,20.3Z"></path><path class="cls-12" d="m324.47,227.57c2.46,11.01-4.49,21.94-15.53,24.41-11.04,2.47-21.98-4.46-24.45-15.47-2.46-11.01,4.49-21.94,15.52-24.41,11.04-2.47,21.98,4.46,24.45,15.47Z"></path></g><path class="cls-14" d="m323.69,227.46s-.04-.1-.11-.31c-.07-.23-.16-.54-.28-.93-.06-.21-.13-.44-.2-.69-.09-.25-.2-.51-.32-.8-.23-.58-.48-1.26-.88-1.96-.7-1.46-1.83-3.11-3.41-4.78-1.58-1.66-3.68-3.28-6.32-4.47-2.62-1.18-5.77-1.97-9.16-1.81-3.37.17-7,1.09-10.19,3.19-.82.48-1.56,1.11-2.33,1.71-.37.32-.71.67-1.07,1.01-.37.33-.69.71-1.01,1.09-.68.73-1.23,1.58-1.82,2.4-.5.88-1.04,1.76-1.43,2.72-.81,1.89-1.44,3.94-1.61,6.07-.2,2.13-.08,4.31.37,6.46.51,2.14,1.33,4.17,2.42,6.01,1.07,1.86,2.5,3.44,4.05,4.81.76.71,1.62,1.27,2.45,1.85.89.5,1.74,1.03,2.67,1.4.89.44,1.85.7,2.77,1.01.95.22,1.88.47,2.83.55,3.78.54,7.46-.18,10.58-1.46,3.14-1.3,5.65-3.36,7.52-5.55,1.87-2.2,3.08-4.57,3.81-6.74.71-2.18,1.03-4.16,1.04-5.77.06-.81,0-1.53-.04-2.15-.02-.31-.03-.6-.06-.86-.04-.26-.08-.49-.11-.71-.06-.41-.11-.72-.14-.96-.03-.22-.04-.33-.03-.33,0,0,.03.11.08.32.05.24.11.55.19.96.04.21.08.45.13.71.04.26.05.55.08.86.05.63.13,1.35.08,2.16.01,1.63-.28,3.63-.98,5.85-.71,2.21-1.92,4.62-3.8,6.86-1.88,2.23-4.42,4.33-7.61,5.68-3.17,1.32-6.91,2.06-10.77,1.52-.97-.08-1.92-.34-2.89-.56-.94-.31-1.92-.57-2.83-1.03-.95-.38-1.82-.92-2.73-1.42-.85-.6-1.73-1.17-2.51-1.89-1.58-1.39-3.04-3.01-4.14-4.9-1.11-1.88-1.95-3.95-2.47-6.13-.46-2.19-.59-4.43-.38-6.6.18-2.18.82-4.27,1.65-6.2.4-.98.95-1.87,1.46-2.78.6-.84,1.16-1.71,1.86-2.45.33-.39.66-.77,1.03-1.11.37-.34.72-.7,1.09-1.03.78-.61,1.54-1.25,2.38-1.74,3.26-2.13,6.97-3.06,10.39-3.21,3.45-.14,6.65.68,9.3,1.89,2.66,1.23,4.78,2.89,6.36,4.59,1.58,1.7,2.7,3.39,3.38,4.87.39.72.63,1.4.85,1.99.11.29.22.56.3.81.07.25.13.49.18.7.1.4.18.71.24.95.05.21.07.32.07.32Z"></path></g><g class="cls-9"><path d="m323.58,227.71c-.12.03-.4-.83-1.06-2.29-.67-1.45-1.76-3.52-3.65-5.61-.95-1.04-2.09-2.09-3.43-3.05-1.35-.94-2.9-1.8-4.63-2.43-.86-.32-1.77-.59-2.71-.79-.94-.2-1.91-.35-2.91-.4-1-.06-2.01-.06-3.04.05-1.03.1-2.06.28-3.08.54-1.02.27-2.01.61-2.96,1.02-.95.41-1.84.9-2.69,1.43-.85.53-1.63,1.13-2.36,1.76-.73.62-1.39,1.3-2,2-1.21,1.39-2.16,2.89-2.89,4.36-.72,1.48-1.22,2.95-1.54,4.33-.65,2.75-.61,5.09-.5,6.68.12,1.6.29,2.49.17,2.51-.09.02-.46-.81-.77-2.44-.3-1.61-.52-4.05.02-6.99.27-1.46.73-3.04,1.45-4.65.73-1.6,1.69-3.23,2.97-4.75.63-.76,1.33-1.5,2.11-2.19.77-.69,1.61-1.35,2.52-1.92.91-.58,1.87-1.12,2.89-1.56,1.02-.44,2.09-.82,3.19-1.11,1.11-.28,2.22-.47,3.33-.57,1.11-.11,2.21-.1,3.28-.03,1.07.07,2.12.24,3.13.47,1.01.22,1.98.54,2.9.9,1.84.72,3.48,1.68,4.88,2.73,1.4,1.06,2.57,2.22,3.51,3.37,1.89,2.31,2.87,4.55,3.39,6.12.51,1.57.59,2.49.5,2.51Z"></path></g><g class="cls-9"><path d="m308.63,243.35l.83,3.47-3.1.74-.81-3.38c-3.11.55-6.28.29-8.31-.63l.8-4.19c1.82.78,4.25,1.08,6.54.76l-1.24-5.17c-3.64-.01-7.75-.24-8.81-4.67-.78-3.28.93-6.67,5.69-8.4l-.82-3.44,3.1-.74.81,3.38c2.37-.37,4.78-.29,6.74.39l-.64,4.18c-1.79-.52-3.53-.66-5.13-.48l1.26,5.27c3.63-.02,7.69.23,8.73,4.59.77,3.22-.92,6.57-5.64,8.32Zm-6.37-12.95l-1.05-4.4c-1.55.76-1.99,1.82-1.74,2.84.26,1.08,1.33,1.45,2.8,1.56Zm7.11,6.19c-.26-1.09-1.3-1.46-2.74-1.61l1.02,4.28c1.47-.71,1.96-1.68,1.72-2.67Z"></path></g></g><g><g><g><path class="cls-12" d="m271.89,214.3c-7.02,14.89-24.8,21.26-39.72,14.23-1.62-.76-3.14-1.65-4.55-2.65-11.61-8.2-16.03-23.77-9.77-37.04,7.01-14.89,24.8-21.26,39.72-14.23,14.92,7.03,21.33,24.8,14.32,39.69Z"></path><path class="cls-12" d="m266.08,211.9c-5.35,11.35-18.9,16.2-30.27,10.84-11.37-5.36-16.26-18.9-10.91-30.24,5.35-11.35,18.9-16.2,30.27-10.84,11.37,5.36,16.26,18.9,10.91,30.25Z"></path></g><path class="cls-14" d="m265.46,211.27s.03-.12.12-.35c.1-.25.22-.58.39-1.01.09-.22.19-.47.29-.74.09-.28.17-.59.27-.92.19-.67.43-1.43.56-2.32.38-1.76.51-3.98.27-6.52-.26-2.53-.99-5.39-2.49-8.23-1.5-2.82-3.72-5.66-6.81-7.84-3.07-2.14-6.89-3.82-11.12-4.15-1.05-.14-2.12-.09-3.21-.09-.54.03-1.08.11-1.63.16-.55.04-1.09.15-1.63.27-1.1.18-2.15.54-3.24.87-1.04.43-2.11.83-3.11,1.42-2.01,1.11-3.95,2.48-5.56,4.23-1.63,1.73-3.01,3.73-4.08,5.92-1.01,2.22-1.68,4.56-1.97,6.92-.33,2.36-.15,4.73.28,6.98.19,1.14.56,2.22.89,3.3.44,1.04.83,2.09,1.39,3.05.48,1,1.14,1.88,1.74,2.78.68.84,1.33,1.69,2.11,2.42,2.95,3.05,6.67,4.93,10.28,5.94,3.64.99,7.25.9,10.38.26,3.14-.65,5.82-1.91,7.94-3.32,2.11-1.43,3.74-2.95,4.85-4.36.61-.67,1.04-1.34,1.43-1.91.19-.29.39-.55.54-.79.14-.25.27-.49.38-.7.22-.4.4-.71.53-.94.12-.21.19-.32.2-.31,0,0-.04.12-.15.34-.12.24-.28.56-.49.97-.11.21-.23.45-.37.71-.15.25-.33.52-.52.81-.38.58-.81,1.27-1.41,1.95-1.1,1.44-2.73,3-4.85,4.46-2.13,1.45-4.83,2.75-8.01,3.43-3.17.67-6.84.79-10.55-.21-3.68-1-7.47-2.9-10.49-6.01-.79-.74-1.46-1.6-2.16-2.46-.61-.91-1.29-1.81-1.79-2.83-.57-.98-.98-2.05-1.42-3.11-.34-1.1-.72-2.2-.91-3.37-.44-2.3-.62-4.72-.29-7.13.3-2.41.98-4.8,2.01-7.07,1.09-2.24,2.5-4.28,4.17-6.05,1.65-1.79,3.63-3.19,5.68-4.31,1.02-.59,2.11-1,3.17-1.44,1.1-.33,2.18-.7,3.3-.88.55-.12,1.1-.23,1.66-.27.56-.05,1.11-.13,1.66-.16,1.1,0,2.2-.05,3.27.1,4.32.35,8.2,2.07,11.31,4.27,3.13,2.23,5.37,5.13,6.88,8,1.5,2.89,2.22,5.8,2.46,8.36.22,2.57.06,4.81-.35,6.58-.14.9-.4,1.66-.61,2.33-.11.33-.19.64-.29.92-.11.27-.22.51-.31.74-.18.42-.33.75-.43.99-.1.22-.15.33-.16.33Z"></path></g><g class="cls-9"><path d="m265.2,211.41c-.13-.05.21-1,.63-2.73.4-1.73.85-4.28.62-7.42-.12-1.56-.4-3.26-.94-5.01-.55-1.75-1.32-3.56-2.41-5.29-.54-.87-1.15-1.73-1.84-2.54-.69-.82-1.44-1.61-2.28-2.34-.84-.73-1.73-1.42-2.7-2.03-.97-.61-2-1.16-3.07-1.63-1.08-.46-2.19-.83-3.29-1.12-1.11-.29-2.23-.47-3.33-.58-1.1-.12-2.2-.12-3.27-.07-1.07.05-2.11.19-3.12.39-2.01.39-3.86,1.06-5.51,1.86-1.64.81-3.08,1.76-4.3,2.75-2.45,1.97-4.01,4.05-4.99,5.53-.98,1.49-1.44,2.38-1.56,2.32-.09-.04.15-1.03.98-2.67.83-1.62,2.3-3.91,4.78-6.12,1.24-1.1,2.72-2.17,4.44-3.09,1.73-.91,3.69-1.68,5.84-2.14,1.07-.24,2.19-.41,3.34-.48,1.15-.08,2.33-.09,3.52.03,1.19.11,2.4.29,3.6.6,1.2.31,2.39.71,3.56,1.2,1.16.51,2.27,1.11,3.31,1.77,1.04.66,2,1.42,2.9,2.21.9.79,1.7,1.66,2.43,2.55.73.89,1.37,1.82,1.93,2.76,1.13,1.89,1.91,3.84,2.43,5.72.51,1.89.74,3.7.78,5.35.08,3.32-.58,5.96-1.2,7.68-.63,1.73-1.18,2.58-1.27,2.54Z"></path></g><g class="cls-9"><path d="m241.42,214.95l-1.64,3.61-3.22-1.46,1.59-3.51c-3.1-1.64-5.71-4.03-6.86-6.22l3.56-3.13c1.07,1.92,3,3.85,5.22,5.13l2.44-5.38c-3.18-2.49-6.64-5.5-4.55-10.11,1.55-3.42,5.36-5.22,10.72-3.49l1.62-3.58,3.22,1.46-1.59,3.51c2.33,1.29,4.39,3,5.65,4.93l-3.41,3.24c-1.22-1.68-2.65-2.99-4.17-3.91l-2.49,5.48c3.2,2.46,6.59,5.44,4.53,9.98-1.52,3.35-5.29,5.14-10.63,3.46Zm3.24-15.71l2.08-4.58c-1.88-.39-2.98.24-3.47,1.3-.51,1.13.18,2.18,1.39,3.27Zm2.02,10.29c.51-1.13-.15-2.16-1.31-3.28l-2.02,4.45c1.77.38,2.86-.14,3.33-1.17Z"></path></g></g><g><path class="cls-4" d="m82.67,163.27c-8.62,4.47-15.23,12.16-19.99,20.62-4.75,8.47-7.82,17.76-10.85,26.98l-2.66,47.57c10.03-17.07,18.09-37.13,20.26-56.81-2.23-.2-4.45-.4-6.68-.59,4.48-.68,8.23-3.93,10.62-7.77,2.39-3.85,3.62-8.28,4.82-12.65-2.72.4-5.43.81-8.15,1.21,6.38-4.26,11-11.06,12.61-18.56Z"></path><g class="cls-9"><path d="m82.67,163.27c-8.62,4.47-15.23,12.16-19.99,20.62-4.75,8.47-7.82,17.76-10.85,26.98l-2.66,47.57c10.03-17.07,18.09-37.13,20.26-56.81-2.23-.2-4.45-.4-6.68-.59,4.48-.68,8.23-3.93,10.62-7.77,2.39-3.85,3.62-8.28,4.82-12.65-2.72.4-5.43.81-8.15,1.21,6.38-4.26,11-11.06,12.61-18.56Z"></path></g><path class="cls-4" d="m47.69,269.6s-21.78-26.06-21.53-50.95h8.8s-9.55-6.28-8.8-9.8c.76-3.52,1.01-16.84,1.01-16.84l8.04,2.01s-6.03-3.02-6.79-7.79,1.76-26.89,1.76-26.89c0,0,9.8,10.3,12.82,20.86,3.02,10.56,10.93,22.87,8.61,55.04-2.32,32.17-3.92,34.36-3.92,34.36Z"></path><path class="cls-4" d="m58.73,272.06s23.59-15.72,28.83-35.78l-7.07-1.92s9.06-2.96,9.22-5.96c.16-2.99,2.87-13.76,2.87-13.76l-6.91-.14s5.51-1.11,7.16-4.78c1.65-3.67,4.47-22.01,4.47-22.01,0,0-10.14,6.14-14.87,13.97-4.73,7.83-13.79,16-18.96,42.37-5.17,26.37-4.75,28.01-4.75,28.01Z"></path><path class="cls-14" d="m36.13,182.06s.03.09.08.27c.05.2.11.46.19.8.16.73.39,1.77.69,3.09.3,1.34.65,2.99,1.03,4.91.39,1.92.84,4.1,1.28,6.52.93,4.83,1.91,10.61,2.93,17.04.98,6.43,1.96,13.52,2.83,20.98.85,7.46,1.52,14.59,2.03,21.08.48,6.49.84,12.34,1.04,17.26.12,2.46.18,4.68.24,6.64.07,1.95.1,3.64.12,5.01.02,1.36.03,2.42.04,3.17,0,.35,0,.62,0,.82,0,.19,0,.28-.01.28,0,0-.02-.09-.03-.28,0-.2-.02-.48-.04-.82-.03-.75-.06-1.81-.11-3.17-.04-1.38-.09-3.06-.18-5.01-.08-1.95-.16-4.18-.3-6.63-.23-4.91-.62-10.76-1.12-17.24-.53-6.48-1.2-13.6-2.06-21.06-.87-7.45-1.84-14.54-2.8-20.97-.99-6.43-1.95-12.21-2.84-17.04-.42-2.42-.86-4.61-1.22-6.52-.36-1.92-.69-3.57-.97-4.92-.27-1.33-.47-2.38-.62-3.11-.06-.34-.11-.61-.15-.81-.03-.18-.05-.28-.04-.28Z"></path><path class="cls-4" d="m44.66,285.56s-19.93-22.61-26.12-36.28l4.67-2c-3.39.56-6.85-.9-9.48-3.11-2.63-2.21-4.55-5.12-6.44-7.98l6.15-1.04c-5.6-1.57-10.53-5.39-13.45-10.41,7.26,1.19,13.83,5.18,19.24,10.17,4.38,4.04,8.1,8.72,11.66,13.51,1.74,2.34,3.26,4.82,4.53,7.45,3.35,6.92,9.24,21.39,9.23,29.69Z"></path><path class="cls-14" d="m87.87,200.87s-.03.08-.09.23c-.08.17-.18.38-.31.66-.29.6-.7,1.44-1.22,2.51-1.07,2.17-2.58,5.33-4.42,9.25-1.84,3.92-3.95,8.61-6.23,13.86-2.25,5.26-4.65,11.07-7.04,17.22-2.37,6.16-4.51,12.08-6.38,17.48-1.85,5.41-3.44,10.31-4.72,14.44-1.28,4.13-2.28,7.49-2.95,9.81-.34,1.14-.6,2.04-.79,2.67-.09.29-.16.52-.21.69-.05.16-.08.23-.09.23,0,0,0-.08.05-.24.04-.18.1-.41.18-.7.17-.64.41-1.54.72-2.69.62-2.34,1.59-5.71,2.84-9.85,1.24-4.15,2.81-9.06,4.64-14.48,1.85-5.42,3.98-11.34,6.35-17.51,2.39-6.16,4.8-11.97,7.07-17.22,2.29-5.24,4.43-9.93,6.3-13.84,1.86-3.91,3.42-7.05,4.53-9.2.55-1.06.98-1.89,1.28-2.48.14-.27.25-.48.34-.64.08-.14.12-.21.13-.21Z"></path><path class="cls-14" d="m46.36,295.25s-.04-.14-.09-.42c-.05-.32-.11-.71-.19-1.2-.08-.52-.17-1.16-.31-1.9-.13-.74-.26-1.58-.46-2.5-.36-1.85-.87-4.04-1.52-6.44-.67-2.4-1.5-5.01-2.51-7.7-1.02-2.69-2.13-5.19-3.21-7.44-1.1-2.24-2.16-4.21-3.12-5.84-.46-.82-.92-1.54-1.31-2.18-.38-.64-.73-1.19-1.02-1.63-.26-.42-.48-.76-.65-1.03-.14-.24-.22-.37-.2-.37.01,0,.1.11.27.33.19.26.42.59.71.99.31.43.68.96,1.08,1.6.4.63.88,1.34,1.36,2.16.99,1.61,2.08,3.59,3.2,5.82,1.1,2.25,2.22,4.76,3.25,7.46,1.01,2.7,1.83,5.33,2.49,7.75.64,2.42,1.12,4.62,1.45,6.48.18.93.29,1.78.41,2.52.12.74.19,1.38.25,1.91.05.49.09.89.12,1.21.02.28.03.42.02.43Z"></path><rect class="cls-12" x="29.04" y="289.93" width="43.62" height="8.9"></rect><polygon class="cls-12" points="33.19 298.82 37.91 328.75 64.26 328.75 68.66 298.82 33.19 298.82"></polygon><path class="cls-14" d="m69.98,298.82c0,.11-8.25.19-18.43.19s-18.43-.09-18.43-.19,8.25-.19,18.43-.19,18.43.09,18.43.19Z"></path></g><g><rect class="cls-4" x="273.01" y="239.38" width="126.21" height="89.7" rx="5.8" ry="5.8"></rect><g><rect class="cls-4" x="354.88" y="275.99" width="52.3" height="21.24" rx="9.82" ry="9.82"></rect><path class="cls-14" d="m397.37,297.6h-32.67c-5.62,0-10.18-4.57-10.18-10.18v-1.61c0-5.62,4.57-10.18,10.18-10.18h32.67c5.62,0,10.18,4.57,10.18,10.18v1.61c0,5.62-4.57,10.18-10.18,10.18Zm-32.67-21.24c-5.21,0-9.45,4.24-9.45,9.45v1.61c0,5.21,4.24,9.45,9.45,9.45h32.67c5.21,0,9.45-4.24,9.45-9.45v-1.61c0-5.21-4.24-9.45-9.45-9.45h-32.67Z"></path></g><circle class="cls-14" cx="366.61" cy="286.61" r="7.55" transform="translate(-78.74 421.57) rotate(-54.88)"></circle></g><g><g><path class="cls-14" d="m357.41,77.03c-.22,7.75,3.07,15.53,8.78,20.76,1.31-3.79,2.62-7.58,3.92-11.36"></path><path class="cls-14" d="m386.99,54.43c-3.37-1.84-7.44-2.1-11.2-1.35-3.76.75-7.27,2.46-10.59,4.38-1.86,1.08-3.72,2.26-5.06,3.95-2.45,3.08-4.86,8.13-5.1,12.05-.19,3.17,1.02,11.11,2.36,13.99,1.23,2.64,6.99,4.66,9.83,5.31l26.08-30.33c-.92-3.37-3.26-6.33-6.32-8Z"></path><path class="cls-14" d="m391.48,58.52l-6.25-1.12c3.42,8.14,4.34,26.75,6.3,35.36,2.3-3.34,7.66-13.53,7.37-17.58-.29-4.05.01-17.35-7.42-16.66Z"></path><path class="cls-10" d="m395.06,71.79c-.41-6.24-4.56-13.9-10.78-13.23l-14.4,3.67c-4.62,1.18-7.7,5.08-8.03,9.83-.02.24-.04-.05-.04.13l3.21,37.28,10.81,21.45h0l9.54-18.09c0-3.04,0-9.86,0-9.85,0,0,7.98-1.34,9.61-11.76.81-5.18.53-12.5.08-19.44Z"></path><path class="cls-14" d="m390.6,80.33c.03.71-.55,1.31-1.28,1.35-.73.04-1.35-.5-1.38-1.2-.03-.71.55-1.31,1.28-1.35.74-.04,1.35.5,1.38,1.2Z"></path><path class="cls-14" d="m393.49,75.87c-.17.17-1.18-.57-2.62-.56-1.44-.01-2.49.73-2.64.55-.08-.08.09-.39.55-.73.45-.33,1.22-.66,2.12-.66.9,0,1.65.33,2.08.67.44.34.59.65.51.73Z"></path><path class="cls-14" d="m378.55,80.33c.03.7-.55,1.31-1.28,1.35-.73.04-1.35-.5-1.38-1.2-.03-.7.55-1.31,1.28-1.35.74-.04,1.35.5,1.38,1.2Z"></path><path class="cls-14" d="m379.85,75.87c-.17.17-1.18-.57-2.62-.56-1.44-.01-2.49.73-2.64.55-.08-.08.09-.39.55-.73.45-.33,1.22-.66,2.12-.66.89,0,1.65.33,2.08.67.44.34.59.65.51.73Z"></path><path class="cls-14" d="m384.34,87.15c0-.08.89-.24,2.33-.43.37-.04.71-.11.77-.36.09-.27-.07-.66-.25-1.09-.35-.89-.71-1.82-1.09-2.79-1.52-3.97-2.61-7.24-2.45-7.3.16-.06,1.52,3.11,3.04,7.09.36.98.71,1.91,1.05,2.81.14.42.38.89.19,1.44-.1.27-.37.47-.6.54-.23.07-.44.08-.62.09-1.46.08-2.36.09-2.37,0Z"></path><path class="cls-8" d="m371.56,99.28s3.39,7.15,13.81,6.15v-2.45s-6.86.45-13.81-3.7Z"></path><path class="cls-14" d="m379.4,70.67c-.14.39-1.58.21-3.26.42-1.69.17-3.05.67-3.27.32-.1-.17.14-.54.68-.91.54-.38,1.41-.74,2.42-.85,1.01-.11,1.94.05,2.55.29.62.25.93.55.87.74Z"></path><path class="cls-14" d="m393.03,71.47c-.25.33-1.24,0-2.43-.02-1.19-.05-2.2.22-2.43-.12-.1-.17.06-.49.5-.8.43-.31,1.16-.56,1.98-.54.82.02,1.53.32,1.94.65.42.33.56.67.45.83Z"></path><path class="cls-14" d="m392.23,62.28c-.64-1.57-2.36-2.51-4.04-2.59-1.69-.09-3.34.55-4.8,1.4-6.2,3.58-9.39,12.24-15.51,15.95-1.51.91-3.47.08-4.75,1.28-1.28,1.21-2.11,3.14-1.4,4.75-.82-1.13-1.66-2.28-2.13-3.6-.47-1.32-.53-2.85.17-4.06.53-.92,1.47-1.62,1.72-2.65.23-.91-.13-1.85-.09-2.78.04-.95.49-1.83.95-2.66,2.4-4.24,5.7-8.08,9.95-10.47,2.78-1.56,5.95-2.47,9.14-2.36,3.18.11,6.36,1.28,8.69,3.45,1.37,1.28,2.81,2.6,2.1,4.33"></path><path class="cls-10" d="m363.27,79.61c-.11-.3-5.54-2.26-5.61,3.51-.07,5.61,5.59,4.5,5.6,4.34.01-.16.01-7.86.01-7.86Z"></path><path class="cls-8" d="m361.54,85.33s-.1.07-.26.14c-.16.07-.44.12-.73,0-.59-.22-1.08-1.17-1.1-2.18,0-.51.1-1,.29-1.4.18-.41.44-.69.74-.74.3-.07.51.11.57.27.07.16.04.27.07.28.02.01.12-.09.08-.32-.02-.11-.09-.24-.22-.35-.13-.11-.33-.17-.54-.15-.43.03-.83.42-1.03.86-.23.44-.36.99-.35,1.56.03,1.13.59,2.19,1.4,2.44.39.11.72,0,.9-.14.17-.14.21-.26.19-.27Z"></path><path class="cls-4" d="m361.04,76.73s.12-.06.34-.19c.21-.14.55-.32.94-.6.78-.57,1.87-1.46,3.03-2.76,1.16-1.28,2.38-2.95,3.7-4.81,1.32-1.85,2.78-3.91,4.63-5.76.94-.91,1.93-1.72,2.99-2.36,1.05-.65,2.15-1.12,3.23-1.46,2.16-.69,4.23-.85,5.94-.73,1.72.11,3.07.47,3.98.78.46.14.8.29,1.04.39.24.09.36.14.37.13,0,0-.12-.07-.35-.18-.23-.11-.57-.28-1.03-.43-.9-.34-2.27-.73-4-.87-1.73-.14-3.83,0-6.02.69-1.1.34-2.22.82-3.28,1.47-1.07.65-2.08,1.47-3.04,2.39-1.88,1.88-3.33,3.95-4.64,5.81-1.31,1.87-2.51,3.54-3.65,4.83-1.13,1.3-2.19,2.21-2.95,2.8-.38.29-.7.48-.91.63-.21.15-.32.23-.31.23Z"></path><path class="cls-14" d="m362.45,78.31c-.09,1.53-.16,3.15.55,4.51.71,1.36,2.49,2.29,3.82,1.53,1.09-.62,1.41-2.01,1.6-3.25.53-3.57.78-7.18,1.34-10.75l-7.31,7.96Z"></path><path class="cls-4" d="m390.85,59.61s-.5-.09-1.39-.12c-.89-.02-2.21.09-3.71.68-.75.29-1.54.68-2.32,1.2-.79.52-1.59,1.14-2.4,1.83-1.61,1.39-3.28,3.06-4.7,5.06-.71,1-1.34,2.03-2.03,2.98-.68.96-1.43,1.82-2.25,2.53-1.63,1.42-3.31,2.41-4.74,3.17-1.44.76-2.63,1.29-3.46,1.66-.39.17-.71.3-.96.41-.22.09-.34.13-.34.12,0-.01.1-.07.32-.18.24-.12.55-.27.93-.46.81-.4,1.99-.96,3.41-1.74,1.41-.78,3.06-1.79,4.65-3.19.79-.7,1.52-1.54,2.19-2.49.67-.94,1.3-1.97,2.02-2.98,1.44-2.03,3.13-3.71,4.76-5.1.82-.69,1.64-1.31,2.44-1.83.81-.52,1.62-.9,2.39-1.19,1.54-.57,2.89-.65,3.79-.59.46.03.8.09,1.04.14.23.06.35.09.35.1Z"></path><path class="cls-4" d="m362.29,74.85s-.17.13-.5.33c-.38.23-.86.5-1.42.83-.15.09-.31.18-.48.27-.18.1-.38.18-.61.2-.12,0-.26,0-.38-.09-.12-.08-.2-.22-.21-.37-.01-.29.15-.51.26-.71.51-.81,1.06-1.7,1.65-2.64l.22.21c-.53.39-1.14.7-1.8.9-.67.2-1.35.28-2.01.24-.16,0-.34-.03-.51-.09-.16-.06-.35-.17-.44-.38-.08-.2,0-.43.09-.57.1-.14.22-.25.32-.35.83-.81,1.46-1.66,1.91-2.41.9-1.52,1.16-2.6,1.21-2.58.02,0-.03.28-.18.75-.15.47-.41,1.16-.85,1.94-.44.78-1.06,1.67-1.9,2.5-.21.2-.42.43-.34.6.07.18.39.26.68.27.62.03,1.27-.04,1.9-.23.63-.19,1.21-.48,1.71-.85l.67-.49-.45.7c-.6.93-1.17,1.82-1.68,2.62-.13.19-.25.39-.24.55,0,.16.14.25.32.24.36-.02.69-.27,1.01-.42.58-.3,1.07-.55,1.46-.75.35-.17.54-.26.55-.24Z"></path><path class="cls-8" d="m383.1,89.88c-.52-.63-1.4-.96-2.26-.84-.6.08-1.2.38-1.55.88-.35.49-.4,1.18-.06,1.62.39.5,1.17.6,1.83.4.65-.2,1.21-.65,1.74-1.09.15-.12.29-.25.38-.41.09-.16.1-.38-.02-.51"></path><path class="cls-14" d="m379.54,87.65c.22-.02.27,1.46,1.59,2.47,1.32,1.01,2.91.8,2.93,1,.02.09-.35.3-1.02.34-.66.04-1.64-.14-2.44-.75-.8-.62-1.17-1.47-1.24-2.07-.08-.62.08-.99.18-.98Z"></path></g><polygon class="cls-14" points="400.46 187.31 406.48 200.92 377.22 211.88 370.67 197.23 400.46 187.31"></polygon><g><g><path class="cls-4" d="m459.59,270.18l8,17.28s19.99-2.64,21.78.41l-32.68,17.03-13.58-26.41,16.48-8.31Z"></path><path class="cls-5" d="m456.93,291.16c-.55.5-.63,1.45-.15,2.02.48.57,1.44.66,2,.17.56-.49.69-1.63.15-2.14-.54-.52-1.68-.56-2.1.06"></path><path class="cls-14" d="m456.69,304.9l-1.08-2.1,32.05-15.9s1.37.11,1.97,1.06l-32.94,16.94Z"></path><path class="cls-14" d="m467.95,287.42c.08.16-.7.65-1.23,1.58-.56.91-.61,1.82-.79,1.83-.17.04-.42-1.05.25-2.16.65-1.12,1.73-1.42,1.77-1.25Z"></path><path class="cls-14" d="m472.16,287.09c.12.14-.45.77-.65,1.73-.23.96,0,1.77-.16,1.84-.14.1-.73-.79-.46-1.98.26-1.2,1.18-1.75,1.26-1.6Z"></path><path class="cls-14" d="m476.25,290.25c-.13.11-.77-.59-.8-1.68-.04-1.1.54-1.84.68-1.74.16.09-.09.81-.05,1.71.02.9.32,1.61.17,1.71Z"></path><path class="cls-14" d="m465.67,283.66c0,.18-.85.34-1.73.86-.9.51-1.45,1.18-1.61,1.08-.15-.07.24-1.02,1.29-1.63,1.05-.61,2.07-.48,2.05-.32Z"></path><path class="cls-14" d="m464.41,279.7c.04.07-.55.49-1.67.84-.55.17-1.24.31-2.01.35-.39.02-.79.02-1.21-.02-.2-.02-.43-.03-.7-.14-.27-.08-.59-.46-.51-.82.04-.34.29-.6.52-.73.24-.13.46-.18.67-.23.41-.1.82-.15,1.21-.17.78-.03,1.48.07,2.04.23,1.13.32,1.7.79,1.66.85-.05.09-.68-.23-1.76-.42-.54-.09-1.19-.14-1.91-.08-.36.03-.73.09-1.1.19-.4.09-.7.24-.71.44,0,.08,0,.1.13.17.12.06.31.08.51.1.39.04.77.06,1.13.06.72,0,1.38-.09,1.92-.2,1.08-.22,1.73-.49,1.77-.4Z"></path></g><g><path class="cls-4" d="m428.5,297.95l-1.01,19.02s18.9,7.02,19.06,10.55l-36.85-.24.36-29.69,18.45.37Z"></path><path class="cls-5" d="m416.33,315.24c-.72.18-1.23.99-1.08,1.72.15.73.96,1.26,1.69,1.09.73-.17,1.37-1.11,1.13-1.82-.24-.71-1.22-1.28-1.88-.93"></path><path class="cls-14" d="m409.69,327.27l.03-2.37,35.76.95s1.16.74,1.24,1.86l-37.03-.44Z"></path><path class="cls-14" d="m427.82,317.09c0,.18-.92.25-1.82.82-.92.55-1.39,1.32-1.56,1.25-.17-.04.12-1.12,1.23-1.79,1.1-.68,2.2-.44,2.15-.28Z"></path><path class="cls-14" d="m431.69,318.77c.04.18-.75.47-1.38,1.23-.65.74-.82,1.57-1,1.56-.17.03-.28-1.04.52-1.97.79-.93,1.86-.99,1.86-.82Z"></path><path class="cls-14" d="m433.83,323.48c-.17.04-.4-.88.08-1.86.48-.99,1.34-1.37,1.41-1.22.1.15-.46.68-.85,1.49-.4.81-.47,1.57-.65,1.59Z"></path><path class="cls-14" d="m427.56,312.7c-.08.16-.91-.1-1.94-.05-1.03.03-1.83.36-1.93.2-.1-.13.69-.79,1.9-.84,1.21-.05,2.05.54,1.96.68Z"></path><path class="cls-14" d="m428.3,308.61c0,.08-.72.17-1.86-.04-.57-.11-1.24-.31-1.94-.63-.35-.16-.71-.36-1.06-.59-.17-.11-.37-.23-.55-.45-.2-.19-.3-.68-.07-.97.2-.28.53-.4.8-.4.27,0,.5.05.7.11.41.11.8.25,1.15.42.71.34,1.28.75,1.7,1.16.85.81,1.13,1.5,1.07,1.53-.08.06-.49-.52-1.36-1.19-.43-.34-.99-.68-1.65-.97-.33-.14-.69-.26-1.06-.35-.39-.11-.73-.12-.83.05-.04.07-.04.09.04.21.08.11.24.21.41.33.33.22.65.41.97.58.64.33,1.26.56,1.79.72,1.06.32,1.76.38,1.76.48Z"></path></g><g><g><path class="cls-14" d="m344.22,206.65s73.84-9.24,78.19-9.24c10.22,0,16.63,7.78,18.15,13.79,1.13,4.45,23.86,68.65,23.86,68.65l-16.77,8.69-24.66-43.82-12.57-21.86-64.76,10.01-1.44-26.22Z"></path><path class="cls-14" d="m413.47,220.85s10.12,0,15.58,8.1c3.21,4.76,2.08,13.26,2.15,19.68.09,8.74-2.02,61.98-2.02,61.98l-20.7.35-4.34-55.49.26-10.26-41.33-3.36s-3.76-12.53,5.49-22.41c1.19-1.27,44.91,1.42,44.91,1.42Z"></path></g><path class="cls-14" d="m350.53,188.8s-16.32,25.12-6.31,43.99c4.77,9,19.05,8.98,19.05,8.98l14.64-18.33v-30.33l-27.38-4.31Z"></path></g><path class="cls-4" d="m363.27,241.78s.09-.06.27-.14c.2-.1.48-.22.82-.38.75-.34,1.82-.82,3.18-1.44,2.79-1.24,6.8-3.03,11.74-5.23,4.97-2.2,10.88-4.81,17.44-7.71,3.28-1.45,6.73-2.97,10.3-4.54.9-.38,1.77-.82,2.73-1.15.94-.35,1.94-.57,2.94-.75,2.02-.31,4.1-.32,6.17-.05,2.07.26,4.09.81,5.94,1.69.91.46,1.81.97,2.55,1.67.76.67,1.37,1.49,1.87,2.35,1,1.72,1.56,3.63,1.73,5.53.08.96.02,1.88.03,2.8,0,.92-.02,1.83-.03,2.72-.08,7.17-.16,13.63-.22,19.07-.08,5.41-.14,9.8-.18,12.85-.03,1.5-.05,2.67-.07,3.49-.01.38-.02.68-.03.91,0,.2-.02.31-.02.31,0,0-.01-.1-.02-.31,0-.23,0-.53-.01-.91,0-.82,0-2,0-3.5.01-3.06.03-7.44.05-12.85.04-5.43.08-11.89.13-19.07,0-.9.01-1.81.02-2.72,0-.92.05-1.86-.03-2.77-.17-1.84-.71-3.7-1.68-5.36-.49-.82-1.07-1.61-1.8-2.25-.7-.67-1.57-1.16-2.46-1.6-1.8-.85-3.78-1.39-5.81-1.65-2.03-.26-4.08-.25-6.05.05-.98.18-1.95.39-2.87.73-.92.31-1.82.76-2.71,1.14-3.58,1.57-7.03,3.08-10.31,4.52-6.57,2.87-12.49,5.45-17.47,7.63-4.96,2.15-8.99,3.9-11.8,5.11-1.38.59-2.46,1.05-3.22,1.37-.35.15-.63.26-.84.35-.19.08-.29.11-.29.11Z"></path></g><g><line class="cls-4" x1="351.63" y1="204.82" x2="420.95" y2="197.41"></line><path class="cls-4" d="m420.95,197.41c.01.11-15.5,1.85-34.64,3.9-19.15,2.05-34.67,3.62-34.68,3.52-.01-.11,15.5-1.85,34.64-3.9,19.14-2.05,34.67-3.62,34.68-3.52Z"></path></g><g><g><path class="cls-12" d="m402.7,160.8c1.2-3.82,5.4-17.88,4.45-25.29-.75-5.92-6.05-13.51-7.64-17.56-.75-1.91-6.7-3.87-10.26-4.92l-3.53-4.18-.3,2.04c-1.72,2.17-5.16,3.73-8.44,3.44-5.25-.47-9.53-2.61-12.42-5.78-13.63,4.16-13.59,5.09-16.21,6.13-3.37,1.34,6.72,33.65,6.72,33.65,0,0,3.61,20.3.21,27.14-1.92,3.85-4.13,8.24-5.76,11.83,0,0-4.53,8.64-3.56,8.42,2.04-.47,16.2,2.96,29.5,3.66,24.6,1.29,29.3-2.35,29.3-2.35-1.28-6.29-3.44-28.36-3.44-32.64,0-.71,1.16-2.91,1.38-3.58Z"></path><path class="cls-12" d="m386.15,109.87s16.03,4.13,17.6,6.26c4.27,5.8,29.95,45.44,17.34,57.27-8.26,7.75-19.85-8.6-19.85-8.6l-15.08-54.93Z"></path><path class="cls-14" d="m419.54,156.56s-.4-.04-1.12-.19c-.79-.16-1.82-.38-3.07-.63-2.61-.53-6.27-1.28-10.47-1.88l.22-.13c-.41,1-.83,2.04-1.26,3.1-1.08,2.63-2.1,5.11-2.99,7.3l-.03-.18c1.88,2.25,3.47,4.16,4.64,5.56.52.65.95,1.18,1.29,1.59.29.37.44.58.43.59s1.18.54-.52-.52c-.36-.4-.81-.91-1.37-1.53-1.2-1.38-2.84-3.26-4.76-5.47l-.07-.08.04-.1c.88-2.19,1.89-4.68,2.95-7.31.43-1.06.86-2.1,1.26-3.1l.06-.15.16.02c4.22.63,7.87,1.42,10.47,2.02,1.3.3,2.34.56,3.05.75.71.19,1.09.31,1.09.33Z"></path><path class="cls-14" d="m404.13,154.69s.02-.47.12-1.3c.11-.9.26-2.09.45-3.52.34-2.97.82-7.11.39-11.65-.41-4.55-1.97-8.46-3.31-11.14-.67-1.34-1.28-2.4-1.71-3.13-.42-.73-.67-1.13-.64-1.15.01,0,.09.08.22.26.13.18.32.45.56.8.47.71,1.12,1.75,1.83,3.08,1.42,2.66,3.05,6.61,3.46,11.22.43,4.6-.1,8.76-.52,11.73-.22,1.49-.43,2.68-.58,3.51-.15.83-.25,1.28-.28,1.28Z"></path></g><g class="cls-9"><path d="m351.63,184.31l30.34-13.97-2.05-6,4.67-1.78,7.61.99c3.81.5,7.64-.81,10.35-3.54h0l-18.9-4.78-21.56,4.6-5.48-15.88-1.35,4.65,1.13,9.99.76,10.8-5.52,14.93Z"></path></g><path class="cls-12" d="m348.73,114.53s-5.97,2.27-7.76,8.89c0,0-1.29,2.6-2.35,7.25-2.56,11.27-8.08,32.43-8.31,38.04-.4,10.14,7.67,13.02,12.02,13.91,4.35.89,34.62-14.77,34.62-14.77l-6.29-17.09-18.49,7.65s4.22-13.03,5.44-18.36c1.22-5.33-8.89-25.51-8.89-25.51Z"></path><g><path class="cls-10" d="m404.99,151.84c-.37-1.67-.43-3.41-.17-5.1.16-1.02.3-2.07.11-3.09-.19-1.01-1.13-2.08-2.16-2l-1.54,7.43,3.76,2.76Z"></path><g><path class="cls-14" d="m404.28,134.41l-5.44,26.25-12.9-.79,3.82-25.97c.1-.68.69-1.19,1.38-1.19l11.78.02c.88,0,1.54.81,1.36,1.68Z"></path><path class="cls-4" d="m389.77,141.23s.09-.27.2-.77c.11-.55.26-1.26.43-2.12.18-.91.38-1.98.61-3.16.03-.15.05-.31.09-.43.05-.13.12-.24.23-.33.1-.09.23-.16.37-.19.13-.03.29-.02.46-.02.66,0,1.34,0,2.04,0,2.79-.02,5.32-.04,7.15-.08.88-.02,1.61-.04,2.17-.05.51-.02.79-.04.79-.06,0-.02-.28-.03-.79-.05-.56,0-1.29-.02-2.17-.03-1.83-.01-4.36-.02-7.15,0-.7,0-1.38,0-2.04.01-.16,0-.33-.01-.52.03-.18.04-.35.13-.48.25-.13.12-.23.27-.3.44-.06.18-.07.32-.1.47-.21,1.18-.39,2.25-.55,3.17-.14.87-.26,1.59-.35,2.14-.08.51-.11.79-.09.79Z"></path><path class="cls-2" d="m396.66,135.5c.12-.23.38-.51.77-.38.15.02.44.25.46.51.01.26-.13.53-.36.66-.23.13-.54.1-.73-.07-.2-.17-.26-.48-.14-.71Z"></path></g><path class="cls-10" d="m397.02,143.42c.3.08,7.13,3.6,7.13,3.6l3.56,3.76s1.28,2.18.24,5.57c-1.04,3.39-2.74,4.58-6.67,5.55l-7.42-1.17-3.75-3.08c-.74-.61-1.03-1.6-.74-2.51l.05-.16-.43-.71c-.27-.45-.24-1.01.07-1.43h0c.42-.57,1.23-.7,1.8-.28l4.23,3.09,2.91.38.44-.95-4.26-2.21-5.42-4.2c-.72-.55-.83-1.6-.24-2.29h0c.5-.59,1.35-.74,2.02-.34l5.04,2.96,5.26,2.32-.83-2.09-6.18-4.58s-.49-2.19,3.21-1.24Z"></path><g><path class="cls-10" d="m396.4,139.82s-1.42-.81-3.79.16c-2.37.98-5.38,2.46-5.38,2.46l-4.53,1.29.53-1.12s4.47.45,4.26-2.8l-2.69.12-2.31-1.19-4.55,4.43-1.72,6.27-5.02,2.6,3.94,10.72,7.08-3.93,8.87-.17,3.25-2.62.36-3.34,3.18-3.24s.4-1.62-1.06-1.78c-1.47-.16-5,3.35-5,3.35l-3.54.09s-.61-.56-.11-.87c.5-.31,10.93-5.44,11.39-6.59.46-1.15.94-1.9-.1-2.22-1.04-.32-2.76.27-2.76.27,0,0,.48-1.63-.3-1.88Z"></path><path class="cls-8" d="m387.74,146.23c.03.07,2.11-.9,4.65-2.17,2.53-1.26,4.56-2.34,4.53-2.41-.03-.07-2.11.9-4.65,2.17-2.53,1.26-4.56,2.34-4.53,2.41Z"></path><path class="cls-8" d="m385.64,154.56s.18.08.53.17c.35.09.85.22,1.48.33.63.11,1.4.21,2.26.16.86-.04,1.8-.28,2.68-.74,1.78-.92,2.96-2.33,3.75-3.32.39-.51.69-.93.9-1.22.2-.3.31-.46.29-.48-.03-.03-.52.6-1.34,1.58-.82.96-2.01,2.32-3.72,3.2-.85.44-1.75.68-2.58.73-.83.06-1.59-.01-2.22-.1-1.26-.18-2.04-.36-2.04-.31Z"></path></g></g><path class="cls-8" d="m371.17,152.04s.1-.07.32-.19c.23-.13.55-.3.96-.52.86-.46,2.11-1.12,3.7-1.96l-.04.05c.46-1.71,1.03-3.82,1.68-6.28v-.03s.03-.02.03-.02c1.35-1.32,2.88-2.82,4.53-4.45l.07-.07.09.05c.72.37,1.51.77,2.32,1.18l-.08-.02c.83-.04,1.75-.08,2.69-.12h.17s0,.15,0,.15c0,.48-.01,1.01-.29,1.46-.25.45-.66.81-1.12,1.04-.94.45-1.98.54-3.03.48l.17-.1c-.16.34-.35.73-.53,1.12l-.2-.24c1.42-.41,2.96-.85,4.53-1.3h-.03c1.43-.64,2.89-1.31,4.38-1.99,1.41-.72,3.23-1.39,4.96-.62l-.04-.02c.21.07.39.25.46.44.08.19.11.39.11.57,0,.38-.05.74-.15,1.11l-.24-.23c.52-.17,1.05-.29,1.61-.35.55-.04,1.17-.08,1.73.31.14.11.25.28.28.46.03.18,0,.34-.03.49-.07.3-.19.56-.3.82l-.16.39c-.02.06-.06.14-.12.23-.05.07-.11.12-.16.18-.22.21-.45.38-.69.55-1.89,1.28-3.86,2.3-5.78,3.33-.97.5-1.93,1-2.87,1.49-.47.24-.95.49-1.42.73-.21.12-.53.25-.56.35-.06.09.08.33.23.48l-.13-.05c1.2-.03,2.38-.06,3.54-.08l-.12.05c1.08-1.03,2.18-2,3.4-2.77.3-.19.63-.36.97-.49.34-.13.77-.18,1.13-.05.38.11.7.43.81.81.11.37.11.74.03,1.1v.04s-.04.04-.04.04c-1.1,1.12-2.16,2.19-3.19,3.23l.04-.09c-.13,1.15-.25,2.26-.37,3.34v.06s-.06.04-.06.04c-1.14.91-2.22,1.78-3.26,2.61l-.04.03h-.05c-3.43.05-6.41.1-8.87.14h.05c-2.26,1.22-4.04,2.19-5.26,2.85-.59.32-1.05.56-1.38.74-.15.07-.26.13-.36.18-.08.04-.12.06-.12.05,0,0,.04-.03.11-.08.09-.05.2-.12.34-.21.32-.19.78-.45,1.36-.78,1.22-.69,2.97-1.68,5.22-2.95h.02s.03-.01.03-.01c2.46-.06,5.43-.13,8.87-.21l-.08.03c1.03-.83,2.11-1.71,3.24-2.63l-.06.1c.11-1.08.23-2.19.35-3.34v-.06s.04-.04.04-.04c1.02-1.04,2.07-2.12,3.17-3.25l-.04.08c.13-.59,0-1.34-.62-1.5-.58-.21-1.23.17-1.82.51-1.18.75-2.27,1.71-3.33,2.73l-.05.05h-.07c-1.16.03-2.34.06-3.54.09h-.08s-.05-.05-.05-.05c-.11-.11-.2-.22-.28-.36-.07-.14-.13-.34-.05-.54.09-.19.27-.28.37-.34l.35-.19c.47-.24.94-.49,1.42-.73.95-.49,1.9-.99,2.87-1.49,1.91-1.03,3.89-2.06,5.74-3.31.22-.16.45-.33.64-.51.04-.04.09-.09.12-.13.02-.03.05-.07.08-.15l.16-.39c.2-.49.49-1.1.16-1.33-.36-.26-.94-.27-1.45-.23-.52.05-1.04.17-1.53.33l-.34.11.09-.34c.09-.32.15-.67.14-.99,0-.32-.11-.6-.31-.66h0s-.03-.02-.03-.02c-.69-.33-1.57-.36-2.35-.21-.8.13-1.53.49-2.28.84-1.49.68-2.94,1.34-4.36,1.99h-.02s-.01.01-.01.01c-1.57.45-3.11.88-4.53,1.29l-.37.1.17-.35c.19-.39.37-.78.54-1.12l.05-.1h.12c.98.07,2.01-.02,2.85-.42.42-.21.77-.51.98-.9.24-.38.25-.85.25-1.28l.16.15c-.94.04-1.86.08-2.7.11h-.04s-.04-.02-.04-.02c-.81-.42-1.6-.83-2.31-1.2l.17-.02c-1.67,1.61-3.21,3.1-4.57,4.41l.03-.05c-.68,2.44-1.27,4.56-1.75,6.26v.04s-.04.02-.04.02c-1.61.81-2.87,1.45-3.74,1.89-.41.2-.74.36-.98.48-.22.11-.34.16-.34.15Z"></path><path class="cls-14" d="m352.18,179.66s.15-.1.46-.25c.34-.17.79-.39,1.37-.67,1.22-.59,2.96-1.42,5.13-2.46,4.42-2.09,10.6-5.01,17.75-8.39l-.09.23c-1.14-3.14-2.38-6.53-3.66-10.05-.9-2.48-1.78-4.91-2.63-7.25l.25.11c-7.03,2.95-13.28,5.58-18.08,7.59h-.02s-.02,0-.02,0c-1.65.16-3.12.49-4.34.97-1.22.48-2.17,1.11-2.81,1.76-.65.65-1,1.28-1.19,1.73-.09.22-.15.4-.18.52-.03.12-.05.18-.05.18,0,0,0-.07.01-.19.02-.12.07-.31.14-.54.16-.46.5-1.12,1.15-1.8.65-.68,1.61-1.35,2.84-1.86,1.23-.51,2.72-.86,4.39-1.04h-.04c4.79-2.03,11.03-4.69,18.04-7.68l.18-.08.07.19c.85,2.34,1.73,4.76,2.64,7.24,1.28,3.52,2.51,6.91,3.65,10.05l.06.16-.15.07c-7.17,3.33-13.37,6.21-17.8,8.27-2.19,1-3.94,1.8-5.18,2.37-.59.26-1.05.47-1.39.62-.32.14-.49.2-.49.19Z"></path><path class="cls-14" d="m358.35,132.72c-.05.02-.47-.82-1.2-2.17-.73-1.34-1.78-3.17-3.08-5.09-1.31-1.92-2.61-3.58-3.59-4.75-.98-1.17-1.61-1.88-1.57-1.92.02-.02.2.14.51.43.31.29.74.74,1.26,1.31,1.03,1.13,2.38,2.78,3.7,4.72,1.31,1.94,2.34,3.8,3.01,5.18.33.69.59,1.26.75,1.66.16.4.24.62.21.63Z"></path><path class="cls-14" d="m359.08,136.37s-.05.34-.21.93c-.16.59-.4,1.44-.71,2.49-.62,2.09-1.51,4.98-2.53,8.15-1.02,3.17-1.98,6.04-2.71,8.1-.37,1.03-.67,1.86-.89,2.43-.22.57-.36.88-.38.87-.02,0,.06-.34.24-.92.21-.66.47-1.48.78-2.47.69-2.16,1.6-4.99,2.61-8.13,1.02-3.13,1.94-5.96,2.64-8.12.33-.98.61-1.8.83-2.45.2-.58.32-.89.35-.88Z"></path></g></g></g></g></svg>