<svg xmlns="http://www.w3.org/2000/svg" xmlns:xlink="http://www.w3.org/1999/xlink" id="Layer_2" data-name="Layer 2" viewBox="0 0 487.35 345.54"><defs><style> .cls-1, .cls-2 { fill: #e9e9e9; } .cls-3, .cls-4, .cls-5 { fill: #fff; } .cls-6 { stroke-miterlimit: 10; } .cls-6, .cls-7, .cls-8, .cls-5, .cls-9 { stroke: #263238; } .cls-6, .cls-10 { fill: #bfbfbf; } .cls-7, .cls-8, .cls-5, .cls-9 { stroke-linecap: round; stroke-linejoin: round; } .cls-7, .cls-11 { fill: #757575; } .cls-12 { opacity: .4; } .cls-12, .cls-13 { fill: #a6c479; } .cls-14 { isolation: isolate; opacity: .7; } .cls-15 { clip-path: url(#clippath-2); } .cls-16 { opacity: .2; } .cls-17 { clip-path: url(#clippath-6); } .cls-4 { opacity: .5; } .cls-18 { clip-path: url(#clippath-1); } .cls-19 { clip-path: url(#clippath-4); } .cls-2 { opacity: .7; } .cls-8, .cls-20 { fill: #999; } .cls-21 { opacity: .3; } .cls-22 { clip-path: url(#clippath); } .cls-23, .cls-9 { fill: none; } .cls-24 { clip-path: url(#clippath-3); } .cls-25 { clip-path: url(#clippath-5); } .cls-26 { fill: #263238; } </style><clipPath id="clippath"><rect class="cls-23" width="487.35" height="345.54"></rect></clipPath><clipPath id="clippath-1"><path class="cls-13" d="m250.66,310.47c-5.78,8.37-17.26,10.46-25.63,4.68-3.23-2.24-5.52-5.32-6.8-8.74-2.01-5.45-1.43-11.76,2.12-16.9,2.48-3.58,6-6.01,9.87-7.16,5.18-1.56,10.98-.82,15.77,2.49,8.37,5.78,10.46,17.26,4.67,25.63Z"></path></clipPath><clipPath id="clippath-2"><polygon class="cls-5" points="430.55 4.49 416.42 142.37 407.73 227.19 286.29 214.75 262.66 212.33 247.53 210.78 260.94 79.88 270.35 -11.92 430.55 4.49"></polygon></clipPath><clipPath id="clippath-3"><circle class="cls-13" cx="311.66" cy="66.34" r="29.29" transform="translate(29.75 214.85) rotate(-39.8)"></circle></clipPath><clipPath id="clippath-4"><path class="cls-13" d="m394.95,111.03l-3.31,7.53-89.2,118.93-9.94-6.33,13.49-16.92,80.12-100.5,7.07-4.49s1.51.39,1.78,1.78Z"></path></clipPath><clipPath id="clippath-5"><path class="cls-13" d="m331.53,202.27s-9.95,19.76-19.53,33.74l-6.84,1.77s-15.7,15.6-25.28,23.39c0,0-2.46-1.43-4.68-3.93,0,0,13.6-26.12,28.65-42.65,0,0,2.19.67,4.94,2.62,1.63,1.16,3.47,2.76,5.15,4.94l16.77-21.1.83,1.22Z"></path></clipPath><clipPath id="clippath-6"><polygon class="cls-5" points="291.33 183.32 156.77 239.95 142.9 245.79 116.76 183.68 56.06 39.45 204.49 -23.02 291.33 183.32"></polygon></clipPath></defs><g id="Left_hand" data-name="Left hand"><g class="cls-22"><g class="cls-14"><path class="cls-1" d="m221.21-39c124.04-11.05,124.24,58.93,180.13,124.13,55.89,65.2,67.85,94.75,46.78,169.91-21.07,75.15-92.06,134.07-179.89,100.69-87.83-33.38-138.14-1.32-193.54-30.97C19.3,295.12-1.27,237.85,39.28,170.35,79.83,102.85,68.27-25.38,221.21-39Z"></path><path class="cls-2" d="m221.21-39c124.04-11.05,124.24,58.93,180.13,124.13,55.89,65.2,67.85,94.75,46.78,169.91-21.07,75.15-92.06,134.07-179.89,100.69-87.83-33.38-138.14-1.32-193.54-30.97C19.3,295.12-1.27,237.85,39.28,170.35,79.83,102.85,68.27-25.38,221.21-39Z"></path></g><g><rect class="cls-9" x="226.85" y="-32.6" width="31.03" height="31.03" rx="5.09" ry="5.09" transform="translate(8.72 49.58) rotate(-11.89)"></rect><g><rect class="cls-9" x="432.53" y="185.54" width="31.03" height="31.03" rx="5.09" ry="5.09" transform="translate(-31.82 96.65) rotate(-11.89)"></rect><line class="cls-9" x1="451.5" y1="195.75" x2="444.59" y2="206.35"></line><line class="cls-9" x1="453.34" y1="204.51" x2="442.74" y2="197.6"></line></g><g><rect class="cls-9" x="153.4" y="314.81" width="31.03" height="31.03" rx="5.09" ry="5.09" transform="translate(19.32 -9.19) rotate(3.3)"></rect><line class="cls-9" x1="175.24" y1="330.69" x2="162.6" y2="329.96"></line></g><g><rect class="cls-9" x="24.88" y="167.36" width="31.03" height="31.03" rx="5.09" ry="5.09" transform="translate(59.56 -3.43) rotate(18.33)"></rect><line class="cls-9" x1="48.31" y1="178.9" x2="32.48" y2="186.85"></line><g><path class="cls-9" d="m39.23,175.63c.55,1.09.11,2.42-.98,2.97-1.09.55-2.42.11-2.97-.98-.55-1.09-.11-2.42.98-2.97,1.09-.55,2.42-.11,2.97.98Z"></path><path class="cls-9" d="m45.51,188.14c.55,1.09.11,2.42-.98,2.97-1.09.55-2.42.11-2.97-.98-.55-1.09-.11-2.42.98-2.97s2.42-.11,2.97.98Z"></path></g></g></g><g><path class="cls-13" d="m250.66,310.47c-5.78,8.37-17.26,10.46-25.63,4.68-3.23-2.24-5.52-5.32-6.8-8.74-2.01-5.45-1.43-11.76,2.12-16.9,2.48-3.58,6-6.01,9.87-7.16,5.18-1.56,10.98-.82,15.77,2.49,8.37,5.78,10.46,17.26,4.67,25.63Z"></path><g class="cls-18"><path class="cls-21" d="m248.26,308.81c-4.87,7.04-14.52,8.8-21.57,3.93s-8.8-14.52-3.93-21.57c4.87-7.04,14.52-8.8,21.57-3.93,7.04,4.87,8.8,14.52,3.93,21.57Z"></path><path class="cls-9" d="m248.26,308.81c-4.87,7.04-14.52,8.8-21.57,3.93s-8.8-14.52-3.93-21.57c4.87-7.04,14.52-8.8,21.57-3.93,7.04,4.87,8.8,14.52,3.93,21.57Z"></path><path class="cls-13" d="m239.48,292.25l.74-1.08,1.86,1.29-.74,1.08c1.39,1.45,1.35,3.26,0,5.22l-.31.46-2.15-1.49.41-.6c.72-1.03.57-1.71-.15-2.21-.72-.5-1.41-.39-2.12.64-.71,1.03-.8,2.04-.11,4.32.83,2.78.69,4.36-.46,6.01-1.36,1.96-3.08,2.64-4.92,1.85l-.73,1.06-1.86-1.29.73-1.06c-1.41-1.46-1.36-3.29,0-5.26l.69-.99,2.15,1.49-.79,1.14c-.72,1.03-.52,1.72.21,2.22s1.44.44,2.15-.59c.71-1.03.82-2.06.11-4.32-.85-2.76-.69-4.36.46-6.01,1.34-1.94,3.01-2.63,4.84-1.88Z"></path><path class="cls-16" d="m230.37,285.06c0,9.08-4.87,17.02-12.14,21.35-2.01-5.45-1.43-11.76,2.12-16.9,2.48-3.58,6-6.01,9.87-7.16.1.89.15,1.79.15,2.71Z"></path></g></g><g><circle class="cls-13" cx="209.2" cy="284.49" r="18.43"></circle><circle class="cls-21" cx="209.2" cy="284.49" r="15.5"></circle><circle class="cls-9" cx="209.2" cy="284.49" r="15.5"></circle><path class="cls-13" d="m208.07,275.87v-1.31h2.26v1.31c1.96.4,2.97,1.91,2.97,4.3v.55h-2.62v-.73c0-1.26-.5-1.74-1.38-1.74s-1.38.48-1.38,1.74.5,2.14,2.36,3.62c2.26,1.81,3.04,3.19,3.04,5.2,0,2.39-1.03,3.92-2.99,4.32v1.28h-2.26v-1.28c-1.99-.4-2.99-1.94-2.99-4.32v-1.21h2.62v1.38c0,1.26.55,1.71,1.43,1.71s1.43-.45,1.43-1.71-.5-2.16-2.36-3.62c-2.26-1.79-3.04-3.19-3.04-5.21,0-2.36.98-3.87,2.92-4.3Z"></path></g><g><circle class="cls-13" cx="297.12" cy="290.04" r="18.43" transform="translate(-107.39 383.71) rotate(-57.35)"></circle><path class="cls-21" d="m308.47,279.49c5.83,6.27,5.46,16.08-.81,21.91s-16.08,5.46-21.91-.81-5.46-16.08.81-21.91c6.27-5.83,16.08-5.46,21.91.81Z"></path><path class="cls-9" d="m308.47,279.49c5.83,6.27,5.46,16.08-.81,21.91s-16.08,5.46-21.91-.81-5.46-16.08.81-21.91c6.27-5.83,16.08-5.46,21.91.81Z"></path><path class="cls-13" d="m290.42,284.49l-.89-.96,1.66-1.54.89.96c1.71-1.04,3.47-.62,5.1,1.13l.38.41-1.92,1.78-.5-.53c-.86-.92-1.55-.93-2.19-.33-.64.6-.69,1.29.17,2.21.86.92,1.82,1.22,4.2,1.04,2.89-.21,4.4.27,5.77,1.74,1.63,1.75,1.91,3.58.75,5.2l.87.94-1.66,1.54-.87-.94c-1.73,1.06-3.51.62-5.13-1.13l-.82-.88,1.92-1.78.94,1.01c.86.92,1.57.88,2.21.28.64-.6.74-1.31-.11-2.23-.86-.92-1.84-1.24-4.2-1.04-2.87.23-4.4-.27-5.77-1.74-1.61-1.73-1.92-3.5-.79-5.13Z"></path></g><g><path class="cls-16" d="m289.53,209.93s-.08,38.24,0,40.47c.08,2.23,2.97,15.66,2.97,15.66l-9.28,17.11,7.99,6.44,15.55-15.29s13.24,8.18,15.66,19.88,16.83,20.22,31.78,52.62c14.95,32.4,32-72.5,32-72.5l-46.13-58.08-50.55-6.33Z"></path><g><polygon class="cls-3" points="430.55 4.49 416.42 142.37 407.73 227.19 286.29 214.75 262.66 212.33 247.53 210.78 260.94 79.88 270.35 -11.92 430.55 4.49"></polygon><g class="cls-15"><path class="cls-26" d="m384.02,9.64l-69.15-7.09c-1.3-.13-2.46.81-2.59,2.11-.13,1.3.81,2.46,2.11,2.59l69.15,7.09c1.3.13,2.46-.81,2.59-2.11.13-1.3-.81-2.46-2.11-2.59Z"></path><path class="cls-26" d="m365.75,17.53l-34.58-3.54c-.65-.07-1.23.41-1.3,1.05-.07.65.41,1.23,1.05,1.3l34.58,3.54c.65.07,1.23-.41,1.3-1.05.07-.65-.41-1.23-1.05-1.3Z"></path><g><path class="cls-26" d="m403.79,119.29l-112.24-11.5c-.65-.07-1.23.41-1.3,1.05-.07.65.41,1.23,1.05,1.3l112.24,11.5c.65.07,1.23-.41,1.3-1.05s-.41-1.23-1.05-1.3Z"></path><path class="cls-26" d="m402.92,127.74l-130.51-13.37c-.65-.07-1.23.41-1.3,1.05-.07.65.41,1.23,1.05,1.3l130.51,13.37c.65.07,1.23-.41,1.3-1.05.07-.65-.41-1.23-1.05-1.3Z"></path><path class="cls-26" d="m365.51,132.45l-93.96-9.63c-.65-.07-1.23.41-1.3,1.05-.07.65.41,1.23,1.05,1.3l93.96,9.63c.65.07,1.23-.41,1.3-1.05s-.41-1.23-1.05-1.3Z"></path></g><rect class="cls-6" x="315.22" y="91.18" width="37.46" height="132.26" transform="translate(143.42 473.49) rotate(-84.15)"></rect><g><g><g><circle class="cls-13" cx="311.66" cy="66.34" r="29.29" transform="translate(29.75 214.85) rotate(-39.8)"></circle><g class="cls-24"><circle class="cls-4" cx="311.66" cy="66.34" r="29.29" transform="translate(29.75 214.85) rotate(-39.8)"></circle></g></g><g><path class="cls-3" d="m312.5,66.24l24.36,12.26c1.38-2.85,2.29-5.98,2.63-9.31.77-7.52-1.52-14.65-5.85-20.15l-21.14,17.21Z"></path><path class="cls-13" d="m312.67,64.92l20.4-16.6c-3.01-3.57-6.9-6.4-11.39-8.12l-3.68,10.1-5.32,14.62Z"></path><path class="cls-11" d="m314.97,38.56l-2.47,24.14,8.31-22.81c-1.86-.64-3.81-1.09-5.83-1.33Z"></path><path class="cls-20" d="m311.23,66.02l2.82-27.56c-15.18-1.31-28.67,9.8-30.23,25.01-.51,4.96.32,9.74,2.17,14l25.23-11.46Z"></path><path class="cls-10" d="m308.81,94.16c11.72,1.2,22.48-5.02,27.63-14.85l-24.79-12.47-25.27,11.48c4.06,8.54,12.34,14.81,22.43,15.84Z"></path></g></g><g><g><rect class="cls-13" x="354.45" y="47.13" width="4.61" height="4.61" rx=".63" ry=".63" transform="translate(6.9 -36.11) rotate(5.85)"></rect><g><path class="cls-26" d="m405.09,53.76l-43.05-4.41c-.29-.03-.5-.29-.47-.58.03-.29.29-.5.58-.47l43.05,4.41c.29.03.5.29.47.58-.03.29-.29.5-.58.47Z"></path><path class="cls-26" d="m400.64,55.62l-38.84-3.98c-.29-.03-.5-.29-.47-.58.03-.29.29-.5.58-.47l38.84,3.98c.29.03.5.29.47.58-.03.29-.29.5-.58.47Z"></path></g></g><g><rect class="cls-7" x="353.4" y="57.4" width="4.61" height="4.61" rx=".63" ry=".63" transform="translate(7.94 -35.95) rotate(5.85)"></rect><g><path class="cls-26" d="m404.04,64.03l-43.05-4.41c-.29-.03-.5-.29-.47-.58.03-.29.29-.5.58-.47l43.05,4.41c.29.03.5.29.47.58-.03.29-.29.5-.58.47Z"></path><path class="cls-26" d="m399.59,65.9l-38.84-3.98c-.29-.03-.5-.29-.47-.58.03-.29.29-.5.58-.47l38.84,3.98c.29.03.5.29.47.58-.03.29-.29.5-.58.47Z"></path></g></g><g><rect class="cls-8" x="352.35" y="67.68" width="4.61" height="4.61" rx=".63" ry=".63" transform="translate(8.98 -35.79) rotate(5.85)"></rect><g><path class="cls-26" d="m402.98,74.31l-43.05-4.41c-.29-.03-.5-.29-.47-.58.03-.29.29-.5.58-.47l43.05,4.41c.29.03.5.29.47.58-.03.29-.29.5-.58.47Z"></path><path class="cls-26" d="m398.53,76.17l-38.84-3.98c-.29-.03-.5-.29-.47-.58.03-.29.29-.5.58-.47l38.84,3.98c.29.03.5.29.47.58-.03.29-.29.5-.58.47Z"></path></g></g><g><rect class="cls-6" x="351.3" y="77.95" width="4.61" height="4.61" rx=".63" ry=".63" transform="translate(10.02 -35.63) rotate(5.85)"></rect><g><path class="cls-26" d="m401.93,84.58l-43.05-4.41c-.29-.03-.5-.29-.47-.58.03-.29.29-.5.58-.47l43.05,4.41c.29.03.5.29.47.58-.03.29-.29.5-.58.47Z"></path><path class="cls-26" d="m397.48,86.44l-38.84-3.98c-.29-.03-.5-.29-.47-.58.03-.29.29-.5.58-.47l38.84,3.98c.29.03.5.29.47.58-.03.29-.29.5-.58.47Z"></path></g></g><g><rect class="cls-5" x="350.24" y="88.22" width="4.61" height="4.61" rx=".63" ry=".63" transform="translate(11.06 -35.46) rotate(5.85)"></rect><g><path class="cls-26" d="m400.88,94.85l-43.05-4.41c-.29-.03-.5-.29-.47-.58.03-.29.29-.5.58-.47l43.05,4.41c.29.03.5.29.47.58-.03.29-.29.5-.58.47Z"></path><path class="cls-26" d="m396.43,96.71l-38.84-3.98c-.29-.03-.5-.29-.47-.58.03-.29.29-.5.58-.47l38.84,3.98c.29.03.5.29.47.58-.03.29-.29.5-.58.47Z"></path></g></g></g></g><g><g><rect class="cls-7" x="382.44" y="156.13" width="2.47" height="14.13" transform="translate(748.72 364.67) rotate(-174.15)"></rect><rect class="cls-13" x="382.28" y="161.48" width="2.47" height="6.65" transform="translate(748.24 367.83) rotate(-174.15)"></rect></g><g><rect class="cls-7" x="388.34" y="153.15" width="2.47" height="14.13" transform="translate(760.79 359.31) rotate(-174.15)"></rect><rect class="cls-13" x="386.25" y="159" width="6.65" height="2.47" transform="translate(190.45 531.44) rotate(-84.15)"></rect></g><g><rect class="cls-7" x="393.6" y="156.42" width="2.47" height="14.13" transform="translate(770.95 366.36) rotate(-174.15)"></rect><rect class="cls-13" x="393.76" y="158.58" width="2.47" height="6.65" transform="translate(771.42 363.25) rotate(-174.15)"></rect></g><g><rect class="cls-7" x="377.19" y="152.79" width="2.47" height="14.13" transform="translate(738.59 357.46) rotate(-174.15)"></rect><rect class="cls-13" x="377.03" y="158.13" width="2.47" height="6.65" transform="translate(738.1 360.63) rotate(-174.15)"></rect></g><g><rect class="cls-7" x="371.23" y="156.38" width="2.47" height="14.13" transform="translate(726.34 364.01) rotate(-174.15)"></rect><rect class="cls-13" x="371.02" y="162.25" width="2.47" height="6.65" transform="translate(725.68 368.25) rotate(-174.15)"></rect></g><g><rect class="cls-7" x="366.07" y="152.19" width="2.47" height="14.13" transform="translate(716.47 355.11) rotate(-174.15)"></rect><rect class="cls-13" x="365.74" y="159.11" width="2.47" height="6.65" transform="translate(715.49 361.45) rotate(-174.15)"></rect></g><g><rect class="cls-7" x="359.78" y="158.97" width="2.47" height="14.13" transform="translate(703.23 368.01) rotate(-174.15)"></rect><rect class="cls-13" x="359.46" y="165.9" width="2.47" height="6.65" transform="translate(702.25 374.34) rotate(-174.15)"></rect></g><g><rect class="cls-7" x="355.16" y="149.55" width="2.47" height="14.13" transform="translate(694.97 348.74) rotate(-174.15)"></rect><rect class="cls-13" x="354.99" y="154.89" width="2.47" height="6.65" transform="translate(694.48 351.91) rotate(-174.15)"></rect></g><g><rect class="cls-7" x="349.71" y="148.16" width="2.47" height="14.13" transform="translate(684.23 345.43) rotate(-174.15)"></rect><rect class="cls-13" x="349.87" y="150.33" width="2.47" height="6.65" transform="translate(684.72 342.29) rotate(-174.15)"></rect></g><g><rect class="cls-7" x="343.27" y="156.42" width="2.47" height="14.13" transform="translate(670.55 361.22) rotate(-174.15)"></rect><rect class="cls-13" x="343.48" y="158.05" width="2.47" height="6.65" transform="translate(671.2 357.05) rotate(-174.15)"></rect></g><g><rect class="cls-7" x="338.37" y="149.67" width="2.47" height="14.13" transform="translate(661.46 347.27) rotate(-174.15)"></rect><rect class="cls-13" x="338.26" y="154.48" width="2.47" height="6.65" transform="translate(661.14 349.4) rotate(-174.15)"></rect></g><g><rect class="cls-7" x="332.46" y="152.77" width="2.47" height="14.13" transform="translate(649.35 352.86) rotate(-174.15)"></rect><rect class="cls-13" x="332.29" y="158.11" width="2.47" height="6.65" transform="translate(648.87 356.03) rotate(-174.15)"></rect></g><g><rect class="cls-7" x="326.28" y="158.51" width="2.47" height="14.13" transform="translate(636.44 363.69) rotate(-174.15)"></rect><rect class="cls-13" x="325.9" y="165.97" width="2.47" height="6.65" transform="translate(635.31 371.06) rotate(-174.15)"></rect></g><g><rect class="cls-7" x="321.66" y="149.05" width="2.47" height="14.13" transform="translate(628.19 344.32) rotate(-174.15)"></rect><rect class="cls-13" x="321.44" y="154.92" width="2.47" height="6.65" transform="translate(627.54 348.55) rotate(-174.15)"></rect></g><g><rect class="cls-7" x="316.75" y="142.3" width="2.47" height="14.13" transform="translate(619.09 330.38) rotate(-174.15)"></rect><rect class="cls-13" x="316.54" y="148.17" width="2.47" height="6.65" transform="translate(618.45 334.6) rotate(-174.15)"></rect></g><g><rect class="cls-7" x="310.46" y="149.17" width="2.47" height="14.13" transform="translate(605.84 343.43) rotate(-174.15)"></rect><rect class="cls-13" x="310.62" y="151.34" width="2.47" height="6.65" transform="translate(606.32 340.32) rotate(-174.15)"></rect></g><g><rect class="cls-7" x="304.11" y="156.55" width="2.47" height="14.13" transform="translate(592.42 357.5) rotate(-174.15)"></rect><rect class="cls-13" x="304.38" y="157.66" width="2.47" height="6.65" transform="translate(593.23 352.28) rotate(-174.15)"></rect></g><g><rect class="cls-7" x="299.39" y="148.04" width="2.47" height="14.13" transform="translate(583.88 340.04) rotate(-174.15)"></rect><rect class="cls-13" x="299.23" y="153.38" width="2.47" height="6.65" transform="translate(583.38 343.23) rotate(-174.15)"></rect></g><g><rect class="cls-7" x="294.1" y="145.13" width="2.47" height="14.13" transform="translate(573.6 333.72) rotate(-174.15)"></rect><rect class="cls-13" x="294.31" y="146.77" width="2.47" height="6.65" transform="translate(574.26 329.53) rotate(-174.15)"></rect></g><g><rect class="cls-7" x="288.11" y="148.95" width="2.47" height="14.13" transform="translate(561.28 340.72) rotate(-174.15)"></rect><rect class="cls-13" x="287.73" y="156.41" width="2.47" height="6.65" transform="translate(560.15 348.09) rotate(-174.15)"></rect></g><g><rect class="cls-7" x="283.03" y="144" width="2.47" height="14.13" transform="translate(551.65 330.32) rotate(-174.15)"></rect><rect class="cls-13" x="282.75" y="150.4" width="2.47" height="6.65" transform="translate(550.83 335.61) rotate(-174.15)"></rect></g><g><rect class="cls-7" x="277.3" y="145.33" width="2.47" height="14.13" transform="translate(540.09 332.38) rotate(-174.15)"></rect><rect class="cls-13" x="276.97" y="152.26" width="2.47" height="6.65" transform="translate(539.11 338.71) rotate(-174.15)"></rect></g><g><rect class="cls-7" x="271.95" y="142.96" width="2.47" height="14.13" transform="translate(529.66 327.1) rotate(-174.15)"></rect><rect class="cls-13" x="272.27" y="143.53" width="2.47" height="6.65" transform="translate(530.63 320.83) rotate(-174.15)"></rect></g></g><g><path class="cls-26" d="m396.81,187.36l-112.24-11.5c-.65-.07-1.23.41-1.3,1.05-.07.65.41,1.23,1.05,1.3l112.24,11.5c.65.07,1.23-.41,1.3-1.05s-.41-1.23-1.05-1.3Z"></path><path class="cls-26" d="m395.95,195.81l-130.51-13.37c-.65-.07-1.23.41-1.3,1.05-.07.65.41,1.23,1.05,1.3l130.51,13.37c.65.07,1.23-.41,1.3-1.05.07-.65-.41-1.23-1.05-1.3Z"></path><path class="cls-26" d="m340.26,198.64l-75.69-7.76c-.65-.07-1.23.41-1.3,1.05-.07.65.41,1.23,1.05,1.3l75.69,7.76c.65.07,1.23-.41,1.3-1.05s-.41-1.23-1.05-1.3Z"></path></g><path class="cls-16" d="m409.19,123.17c-3.87-.31-5.21,5.86-5.21,5.86,0,0-6.12-8.02-5.15-26.88,0,0-2.99-8.36-11-3.31-8,5.05-16.31,22.85-14.33,42.24l-15.57-51.69c-5.38,1.14-16.31,8.37-13.43,43.28l-16.99-17.96s-4.6-1.48-7.2,2.59c-2.6,4.08-1.36,33.22.79,44.12,2.16,10.91-3.33,32.8-3.33,32.8,0,0-5.86-24.8-16.46-31.08l-40.37-83.26-13.41,130.9,15.13,1.55,24.3-11.83c-.14,5.47-.27,10.5-.67,14.25l121.44,12.44,8.69-84.82c-2.95-10.57-5.77-19.09-7.23-19.2Z"></path></g><polygon class="cls-9" points="430.55 4.49 416.42 142.37 407.73 227.19 286.29 214.75 262.66 212.33 247.53 210.78 260.94 79.88 270.35 -11.92 430.55 4.49"></polygon></g><g><g><path class="cls-3" d="m428.55,359.45l-71,12.08s-12.36-65.65-19.73-75.99c-7.37-10.35-6.02-14.6-9.6-21.57-2.16-4.21-12.99-12.06-21.49-19.81h-.01c-.74-.67-1.46-1.34-2.15-2.01-.3-.27-.58-.56-.86-.83-1.13-1.12-2.18-2.21-3.11-3.28-.34-.38-.66-.76-.96-1.14-1.77-2.19-3.02-4.24-3.44-6.09-.03-.1-.05-.2-.06-.31-.03-.13-.05-.25-.06-.37-.19-1.55-.39-3.32-.59-5.24-.04-.38-.08-.78-.13-1.18-.02-.16-.04-.31-.06-.48-.17-1.6-.36-3.3-.58-5.05-.22-1.83-.46-3.73-.74-5.64-.09-.66-.18-1.32-.29-1.99,0-.01,0-.02-.01-.02-.11-.74-.23-1.48-.35-2.23l-.33-1.92c-.02-.11-.05-.21-.06-.3-.14-.75-.28-1.48-.42-2.22-.03-.08-.04-.16-.05-.25-.14-.65-.27-1.29-.42-1.94-.31-1.45-.66-2.87-1.04-4.25-.75-2.75-1.63-5.32-2.65-7.6-5.12-11.43,1.54-7.3-2.47-36.71,0,0,2.95-6.82,11.36-1.37.65.42,1.27.88,1.88,1.37h.01c1.69,1.36,3.19,2.97,4.47,4.78,1.67,2.35,2.97,5.04,3.86,7.96,1.33,4.35,1.76,9.22,1.14,14.3,0,0,6.32,21.66,9.65,26.59,3.34,4.93,17.1-23.39,16.21-26.69-.18-.66-.43-2.27-.71-4.48-.06-.49-.12-1.01-.19-1.56-.06-.55-.13-1.12-.19-1.71-.04-.28-.07-.58-.11-.87-.01-.12-.02-.24-.04-.35-.12-1.13-.26-2.33-.39-3.57-.03-.35-.07-.68-.11-1.02-.06-.59-.12-1.2-.18-1.8-.02-.09-.02-.19-.03-.3-.04-.34-.08-.69-.11-1.05-.08-.7-.15-1.41-.22-2.12-.07-.61-.12-1.22-.18-1.83-.12-1.15-.23-2.3-.34-3.41-.08-.83-.16-1.65-.23-2.45-.02-.18-.04-.36-.05-.53-.42-4.4-.75-8.02-.87-9.56,0,0-10.01-14.82-11.04-21.8-1.03-6.99-.94-14.33,3.25-17.32,9.92-7.06,7.02,4.32,11.46,9.03,4.44,4.73,11.25,12.43,15.11,14.84,3.56,2.26,6.74,11.04,7.19,12.32-.51-1.92-5.6-20.8-5.71-24.6-.13-4.01-3.19-25.16,2.01-32.75,5.19-7.58,12.11-1.7,12.75-.2s.83,21.99,2.66,27.7c1.84,5.7,9.49,29.47,9.49,29.47,0,0,.32-23.12,2.05-33.47,1.72-10.34,6.22-18.44,10.62-18.9s8.47,4.39,8.47,4.39c0,0-1.74,16.5-1.24,20.31.49,3.8-.72,17.57,1.37,24.97,0,0-.24-19.71,2.82-22.23,3.07-2.52,5.69-3.73,7.41-2.03,1.71,1.7,2.09,13.37,3.84,20.39,1.76,7.03,1.53,16.56,2.68,27.51s5.68,26.15,4.78,34.84c-.9,8.67-3.67,30.24-5.9,42.89-2.23,12.66-7.92,29.98-7.92,29.98,0,0,2.59,9.25,2.09,17.5-.51,8.25,19.79,63.17,19.79,63.17Z"></path><g><path class="cls-12" d="m368.21,120.66c1.36,4.22,5.9,18.34,8.17,25.39,0,0-9.93,7.3-9.68,14.07.26,6.77-1.82,20.46-6.27,20.07-4.45-.38-4.05-28.86-5.51-33.64.9,2.05,1.49,3.73,1.61,4.06-.33-1.23-5.63-20.82-5.74-24.7-.03-.91-.21-2.73-.42-5.08v-.05s9.87-9.44,17.11-3.66h0c.22,1.45.45,2.66.73,3.53Z"></path><path class="cls-12" d="m397.69,128.8c-4.62,4.38-11.59,12.13-12.47,19.6,0,0,2.58,20.85,1.48,29.95l-9.01-28.21s.32-23.12,2.05-33.47c.04-.28.1-.57.15-.86,4.42-2.26,10.48-4.28,18.09-4.42-.35,4.46-.63,9.24-.39,11.07.15,1.24.14,3.54.11,6.34Z"></path><path class="cls-12" d="m401.78,125.2h0s-.02.03-.03.03c-.11.08-.38.29-.77.62.25-.46.51-.9.79-1.3l.02.65Z"></path><path class="cls-12" d="m404.13,182.87s-5.94-22.28-6.04-40.22c-.04-6.64.72-12.69,2.87-16.78h0c.25-.47.51-.91.79-1.31l.02.65c1.27-1.04,2.45-1.86,3.54-2.34-1.67,2.6-3.59,7.69-1.37,15.96,3.48,12.96.45,28.78.18,44.05Z"></path><path class="cls-12" d="m322.2,225.33s1.6,21.23-15.47,28.84h0c-.74-.67-1.45-1.34-2.15-2.01-.3-.28-.58-.56-.86-.83-1.13-1.12-2.18-2.21-3.11-3.28-.34-.39-.66-.77-.96-1.14-1.77-2.19-3.02-4.24-3.44-6.09-.03-.1-.05-.21-.06-.31-.03-.13-.05-.25-.06-.37-.19-1.55-.39-3.32-.59-5.24-.04-.38-.08-.78-.13-1.18-.02-.16-.04-.31-.05-.48-.18-1.6-.37-3.3-.58-5.05-.22-1.83-.46-3.73-.74-5.64-.1-.66-.19-1.33-.29-1.99,0,0,0-.02,0-.02-.11-.74-.23-1.49-.35-2.23-.11-.64-.22-1.28-.33-1.93-.02-.1-.04-.2-.06-.3-.14-.74-.28-1.48-.43-2.22-.02-.08-.04-.17-.05-.25-.13-.65-.27-1.3-.41-1.94-.33-1.45-.67-2.87-1.05-4.25,6.75-6.5,22.33-2.42,14.79-17.47,0,0,3.8-12.88-6.67-26.85h0c7.16,5.78,10.83,15.92,9.47,27.05,0,0,6.32,21.65,9.65,26.59,3.34,4.93,17.1-23.39,16.2-26.69-.17-.65-.42-2.27-.7-4.48-.06-.49-.12-1.01-.19-1.56-.07-.55-.13-1.12-.2-1.71-.04-.28-.07-.57-.1-.86-.01-.12-.02-.24-.04-.35-.12-1.14-.25-2.33-.39-3.58-.03-.34-.07-.68-.11-1.02-.06-.59-.12-1.19-.18-1.8-.01-.09-.02-.19-.03-.3-.03-.34-.08-.69-.11-1.06-.08-.7-.14-1.41-.22-2.12-.06-.61-.12-1.22-.18-1.83-.11-1.15-.23-2.3-.33-3.41-.08-.83-.16-1.66-.24-2.44-.02-.18-.03-.36-.05-.54.28,1.31,5.35,25.45,8.24,31.07,2.97,5.79-9.64,36.26-17.43,31.26Z"></path><path class="cls-12" d="m414.59,248.8c-2.23,12.66-7.91,29.98-7.91,29.98,0,0,2.59,9.25,2.08,17.5-.14,2.22,1.24,7.82,3.3,14.82-.6-1.54-6.97-18.06-6.87-23.82.12-6.05-1.6-7.72-4.97-15.15-3.36-7.44-8.51-6.61-8.51-6.61,0,0-1.98,18.54-6.64,6.36-4.65-12.19-5.55-26.35,6.18-75.55,0,0,1.77,6.17.29,24.5-1.49,18.34,2.9,23.88,2.9,23.88,0,0,9.48-15.61,15.59-36.36,0,0-1.51,21.39-2.87,31.14-1.35,9.74,4.81-11.29,9.11-24.29,4.04-12.19,4.19-16.83,2.65-25.51,1.14,6.12,2,11.95,1.56,16.21-.9,8.68-3.68,30.24-5.91,42.89Z"></path><path class="cls-12" d="m334.36,290.04c3.46,5.5,11.93,12.77,16.98,32.88,5.05,20.11,1.87,42.12,1.87,42.12l-18.85-75.01Z"></path></g><path class="cls-16" d="m307.47,175.85s-17.71,8.97-19.11,23.97c-5.12-11.43,1.54-7.3-2.47-36.71,0,0,2.95-6.82,11.36-1.37.65.42,1.27.88,1.88,1.37h.01c1.69,1.36,3.19,2.97,4.47,4.78l3.86,7.96Z"></path><g><path class="cls-9" d="m357.55,371.53s-12.35-65.65-19.73-75.99c-7.37-10.34-6.02-14.6-9.6-21.57-3.58-6.97-30.93-23.93-32.14-33.84-1.21-9.9-2.6-28.88-7.72-40.31-5.12-11.44,1.54-7.3-2.48-36.71,0,0,2.97-6.81,11.37-1.37,8.4,5.45,12.83,16.35,11.36,28.42,0,0,6.32,21.65,9.65,26.58,3.34,4.94,17.09-23.39,16.2-26.7-.89-3.31-3.53-31.47-3.94-36.6,0,0-10.01-14.83-11.04-21.8-1.03-6.98-.94-14.33,3.25-17.31,9.92-7.06,7.02,4.32,11.46,9.04,4.44,4.72,11.25,12.42,15.11,14.84s7.24,12.47,7.24,12.47c0,0-5.64-20.74-5.76-24.75-.12-4.01-3.19-25.16,2.01-32.74,5.2-7.58,12.12-1.7,12.75-.21s.84,21.99,2.67,27.69c1.83,5.71,9.48,29.48,9.48,29.48,0,0,.33-23.12,2.05-33.47,1.73-10.35,6.23-18.45,10.62-18.9,4.4-.46,8.47,4.39,8.47,4.39,0,0-1.74,16.5-1.25,20.31.49,3.81-.71,17.57,1.38,24.97,0,0-.25-19.71,2.82-22.23,3.07-2.52,5.69-3.73,7.4-2.03,1.72,1.7,2.09,13.37,3.85,20.39,1.75,7.02,1.53,16.56,2.68,27.51s5.68,26.15,4.78,34.83c-.9,8.68-3.68,30.24-5.91,42.9s-7.91,29.98-7.91,29.98c0,0,2.59,9.25,2.08,17.5-.51,8.25,19.79,63.17,19.79,63.17"></path><path class="cls-9" d="m377.68,150.13c2.07,4.86,7.18,25.38,9.01,28.22s3.9,3.7,3.9,3.7"></path><path class="cls-9" d="m398.96,147.43s-.44,4.2,1.83,17.61,3.38,19.11,4.65,22.1"></path><path class="cls-9" d="m356.54,150.66c2.78,8.17,4.34,21.19,5.92,25.11,1.58,3.92,2.99,4.73,2.99,4.73"></path><path class="cls-9" d="m361.03,170.27s2.91,2.16,3.84,4.85"></path><path class="cls-9" d="m318.27,216.74s1.52,10.83,8.31,9.97"></path><path class="cls-9" d="m334.47,190.04s1.76,12.87-1.13,18.34"></path><path class="cls-9" d="m388.7,190.16s4.56,2.79,1.51,10.98c-3.05,8.19-8.35,41.23-8.35,41.23"></path><path class="cls-9" d="m408.55,198.8c1.91,7.4,2.08,7.59-1.02,16.68-3.11,9.09-8.11,31.35-8.11,31.35"></path><path class="cls-9" d="m406.68,278.79s-2.98-6.02-.52-10.97"></path><path class="cls-9" d="m337.82,295.54s7.54,10.59,10.82,22.44"></path></g></g><g><polygon class="cls-7" points="393.3 109.91 395.34 107.9 396.26 107.63 396.2 108.63 394.33 111.02 393.3 109.91"></polygon><g><path class="cls-13" d="m394.95,111.03l-3.31,7.53-89.2,118.93-9.94-6.33,13.49-16.92,80.12-100.5,7.07-4.49s1.51.39,1.78,1.78Z"></path><g class="cls-19"><path class="cls-21" d="m394.95,111.03l-3.31,7.53-89.2,118.93-9.94-6.33,13.49-16.92c6.2-.64,7.23,3.02,7.23,3.02l76.85-100.3c-.75-2.7-3.96-3.22-3.96-3.22l7.07-4.49s1.51.39,1.78,1.78Z"></path></g></g><g><path class="cls-13" d="m331.53,202.27s-9.95,19.76-19.53,33.74l-6.84,1.77s-15.7,15.6-25.28,23.39c0,0-2.46-1.43-4.68-3.93,0,0,13.6-26.12,28.65-42.65,0,0,2.19.67,4.94,2.62,1.63,1.16,3.47,2.76,5.15,4.94l16.77-21.1.83,1.22Z"></path><g class="cls-25"><path class="cls-21" d="m331.53,202.27s-9.95,19.76-19.53,33.74l-6.84,1.77s-15.7,15.6-25.28,23.39l.26-4.24c10.39-15.87,23.59-33.18,28.64-39.72,1.63,1.16,3.47,2.76,5.15,4.94l-9.32,12.44,5.34-.96,20.75-32.58.83,1.22Z"></path></g></g></g><g><path class="cls-3" d="m365.45,180.5l-27.86,27.02-4.45,4.32c3.05-7.84,1.57-19.95,1.38-21.43,0,0,0-.02,0-.02-.01-.08-.02-.13-.02-.13,0-.07,0-.16-.02-.21-.17-.65-.42-2.27-.7-4.48-.06-.49-.12-1.01-.19-1.56-.07-.55-.13-1.12-.2-1.71-.04-.28-.07-.57-.1-.86-.01-.12-.02-.24-.04-.35-.12-1.13-.26-2.33-.39-3.58-.03-.34-.07-.68-.11-1.02-.06-.59-.12-1.19-.18-1.8-.01-.09-.02-.19-.03-.3-.03-.34-.08-.69-.11-1.06-.08-.7-.14-1.41-.22-2.12-.06-.61-.12-1.22-.18-1.83-.11-1.15-.23-2.3-.33-3.41-.09-.83-.17-1.65-.24-2.44-.02-.18-.03-.36-.05-.54-.42-4.4-.75-8.01-.87-9.56,0,0-10-14.82-11.04-21.8-1.03-6.98-.94-14.33,3.25-17.31,9.92-7.07,7.01,4.31,11.45,9.03,4.44,4.73,11.26,12.42,15.11,14.84,3.85,2.43,7.24,12.47,7.24,12.47,2.77,8.17,4.34,21.18,5.92,25.11,1.58,3.92,2.99,4.73,2.99,4.73Z"></path><path class="cls-9" d="m361.03,170.27s2.91,2.16,3.84,4.85"></path><path class="cls-13" d="m334.19,123.36c4.42,4.72,11.21,12.37,15.07,14.82-.54-.27-7.65-3.74-11.62.12-4.13,4.02-7.12,15.15-7.12,15.15,0,0-10-14.82-11.04-21.8-1.03-6.98-.94-14.33,3.25-17.31,9.92-7.07,7.01,4.31,11.45,9.03Z"></path><path class="cls-13" d="m337.58,207.52l-4.45,4.32c3.05-7.84,1.57-19.95,1.38-21.43,0,0,0-.02,0-.02,0-.14-.02-.25-.04-.34-.17-.65-.42-2.27-.7-4.48-.06-.49-.12-1.01-.19-1.56-.07-.55-.13-1.12-.2-1.71-.04-.28-.07-.57-.1-.86-.01-.12-.02-.24-.04-.35-.12-1.14-.25-2.33-.39-3.58-.03-.34-.07-.68-.11-1.02-.06-.59-.12-1.19-.18-1.8-.01-.09-.02-.19-.03-.3-.03-.34-.08-.69-.11-1.06-.08-.7-.14-1.41-.22-2.12-.06-.61-.12-1.22-.18-1.83-.11-1.15-.23-2.3-.33-3.41-.08-.83-.16-1.66-.24-2.44-.02-.18-.03-.36-.05-.54.28,1.31,5.35,25.45,8.24,31.07,1.09,2.13.08,7.61-2.05,13.45Z"></path><path class="cls-9" d="m365.45,180.5s-1.41-.81-2.99-4.73c-1.58-3.92-3.15-16.94-5.92-25.11,0,0-3.39-10.05-7.24-12.47s-10.66-10.12-15.11-14.84c-4.44-4.72-1.54-16.1-11.46-9.04-4.19,2.98-4.27,10.33-3.25,17.31,1.03,6.98,11.04,21.8,11.04,21.8.41,5.14,3.05,33.3,3.94,36.6"></path><path class="cls-9" d="m334.47,190.04s1.76,12.87-1.13,18.34"></path></g></g></g><g><path class="cls-16" d="m163.43,205.8s6.33,29.39-7.38,50.78c-13.71,21.38-24.26,27.09-29.01,33.47-4.75,6.38-23.32,42.05-23.32,42.05l-21.7-64.27,21.7-79.51,59.72,17.49Z"></path><g><polygon class="cls-3" points="291.33 183.32 156.77 239.95 142.9 245.79 116.76 183.68 56.06 39.45 204.49 -23.02 291.33 183.32"></polygon><g class="cls-17"><path class="cls-26" d="m166.14,3.83l-64.07,26.96c-1.2.51-1.77,1.89-1.26,3.09.51,1.2,1.89,1.77,3.09,1.26l64.07-26.96c1.2-.51,1.77-1.89,1.26-3.09-.51-1.2-1.89-1.77-3.09-1.26Z"></path><path class="cls-26" d="m153.89,19.52l-32.04,13.48c-.6.25-.88.95-.63,1.55.25.6.95.88,1.55.63l32.04-13.48c.6-.25.88-.95.63-1.55-.25-.6-.95-.88-1.55-.63Z"></path><g><g><path class="cls-6" d="m206.6,101.65s1.35,10.61-2.6,12.28c-3.61,1.52-8.36-4.18-12.51-2.43-4.15,1.75-.88,16.79-4.88,18.48-4,1.68-8.82-4.5-12.27-3.05-3.45,1.45-1.36,9.19-4.92,10.69-2.94,1.24-7.14-4.92-10.5-6.27-.71-.29-1.38-.36-2-.1-3.52,1.48-1.77,17.65-4.81,18.92-1.01.43-1.89.5-2.7.44-1.2-.08-2.26-.44-3.43-.32-.41.04-.83.14-1.28.33-2.59,1.09-2.24,9.6-4.61,10.6-2.37,1-4.71-.24-7.24.83-2.53,1.07-2.49,5.49-6.27,7.08l1.6,3.79,92.11-38.76"></path><polyline class="cls-9" points="109.52 128.6 128.17 172.91 224.61 132.33"></polyline><path class="cls-7" d="m214.01,119.26s-.45-.56-1.14-1.22c-1.19-1.15-3.08-2.61-4.52-2.01-1.41.59-1.53,2.93-1.5,5.42.03,3.04.3,6.3-1.23,6.95-1.3.55-2.46-.28-3.66-1.17-1.37-1.02-2.77-2.14-4.46-1.43-2.84,1.2-1.98,4.9-2.98,8.07-.51,1.62-1.51,3.1-3.74,4.04-2.46,1.03-4.95.02-7.29-1.58-3.96-2.7-7.52-7.08-9.82-6.11-3.67,1.54.38,11.47-3.57,13.13-2.2.93-6.76-6.02-11.19-11.99-3.5-4.73-6.92-8.84-9.03-7.96-4.76,2,3.08,25.73-.38,27.19-.03.01-.07.03-.11.04-1.44.57-2.5.21-3.43-.32-1.25-.71-2.26-1.71-3.64-1.13-2.55,1.07-1.05,10.37-3.86,11.56-2.81,1.18-4.49-.53-7.65.8-2.67,1.12-4.26,7.6-4.26,7.6l1.6,3.79,92.11-38.76"></path></g><path class="cls-26" d="m194.52,150.89l-32.04,13.48c-.6.25-.88.95-.63,1.55.25.6.95.88,1.55.63l32.04-13.48c.6-.25.88-.95.63-1.55-.25-.6-.95-.88-1.55-.63Z"></path><g><g><rect class="cls-6" x="216.93" y="98.27" width="4.61" height="4.61" rx=".63" ry=".63" transform="translate(-21.85 92.92) rotate(-22.82)"></rect><g><path class="cls-26" d="m236.63,92.58l-12.8,5.39c-.27.11-.58-.01-.69-.28-.11-.27.01-.58.28-.69l12.8-5.39c.27-.11.58.01.69.28s-.01.58-.28.69Z"></path><path class="cls-26" d="m233.62,96.35l-8.9,3.74c-.27.11-.58-.01-.69-.28s.01-.58.28-.69l8.9-3.74c.27-.11.58.01.69.28.11.27-.01.58-.28.69Z"></path></g></g><g><rect class="cls-7" x="220.94" y="107.79" width="4.61" height="4.61" rx=".63" ry=".63" transform="translate(-25.22 95.22) rotate(-22.82)"></rect><g><path class="cls-26" d="m240.64,102.1l-12.8,5.39c-.27.11-.58-.01-.69-.28-.11-.27.01-.58.28-.69l12.8-5.39c.27-.11.58.01.69.28s-.01.58-.28.69Z"></path><path class="cls-26" d="m237.62,105.87l-8.9,3.74c-.27.11-.58-.01-.69-.28-.11-.27.01-.58.28-.69l8.9-3.74c.27-.11.58.01.69.28.11.27-.01.58-.28.69Z"></path></g></g></g></g><g><path class="cls-26" d="m257.47,141.34l-103.99,43.76c-.6.25-.88.95-.63,1.55.25.6.95.88,1.55.63l103.99-43.76c.6-.25.88-.95.63-1.55-.25-.6-.95-.88-1.55-.63Z"></path><path class="cls-26" d="m260.77,149.17l-120.92,50.89c-.6.25-.88.95-.63,1.55.25.6.95.88,1.55.63l120.92-50.89c.6-.25.88-.95.63-1.55-.25-.6-.95-.88-1.55-.63Z"></path><path class="cls-26" d="m264.06,157l-120.92,50.89c-.6.25-.88.95-.63,1.55.25.6.95.88,1.55.63l120.92-50.89c.6-.25.88-.95.63-1.55-.25-.6-.95-.88-1.55-.63Z"></path><path class="cls-26" d="m267.36,164.83l-120.92,50.89c-.6.25-.88.95-.63,1.55.25.6.95.88,1.55.63l120.92-50.89c.6-.25.88-.95.63-1.55-.25-.6-.95-.88-1.55-.63Z"></path><path class="cls-26" d="m219.86,194.03l-70.13,29.51c-.6.25-.88.95-.63,1.55.25.6.95.88,1.55.63l70.13-29.51c.6-.25.88-.95.63-1.55-.25-.6-.95-.88-1.55-.63Z"></path></g><g><g><g><path class="cls-6" d="m181.24,41.39s1.35,10.61-2.6,12.28c-3.61,1.52-8.36-4.18-12.51-2.43-4.15,1.75-.88,16.79-4.88,18.48-4,1.68-8.82-4.5-12.27-3.05-3.45,1.45-1.36,9.19-4.92,10.69-2.94,1.24-7.14-4.92-10.5-6.27-.71-.29-1.38-.36-2-.1-3.52,1.48-1.77,17.65-4.81,18.92-1.01.43-1.89.5-2.7.44-1.2-.08-2.26-.44-3.43-.32-.41.04-.83.14-1.28.33-2.59,1.09-2.24,9.6-4.61,10.6-2.37,1-4.71-.24-7.24.83-2.53,1.07-2.49,5.49-6.26,7.08l1.6,3.79,92.11-38.76"></path><path class="cls-13" d="m187.19,55.53s.84,5.14-1.19,6c-1.69.71-2.73-.28-4.51-.34-.71-.03-1.54.09-2.58.53-1.63.68-2.02,2.88-2.31,5.25-.36,2.91-.54,6.06-2.67,6.96-1.49.63-3.1.26-4.76-.32-2.64-.92-5.43-2.38-8.11-1.25-1.3.55-2.21,1.96-2.92,3.71-1.67,4.13-2.19,10.11-4,10.87-2.57,1.08-7.28-3.34-9.56-2.38-2.28.96-1.35,4.93-3.2,5.71-1.85.78-2.91-1.52-6.17-.15-3.26,1.37-1.67,6.19-6.27,8.12-4.6,1.93-6.61-1.62-11.06.25-4.45,1.87-3.64,5.24-6.77,6.56s-4.46-.97-6.7-.03c-2.18.92-2.77,4.49-2.81,4.72l1.23,2.92,92.11-38.76"></path></g><polyline class="cls-9" points="84.16 68.34 102.81 112.65 199.25 72.07"></polyline></g><path class="cls-26" d="m168.87,89.94l-32.04,13.48c-.6.25-.88.95-.63,1.55.25.6.95.88,1.55.63l32.04-13.48c.6-.25.88-.95.63-1.55-.25-.6-.95-.88-1.55-.63Z"></path><g><g><rect class="cls-6" x="189.95" y="34.16" width="4.61" height="4.61" rx=".63" ry=".63" transform="translate(.91 77.44) rotate(-22.82)"></rect><g><path class="cls-26" d="m209.65,28.47l-12.8,5.39c-.27.11-.58-.01-.69-.28s.01-.58.28-.69l12.8-5.39c.27-.11.58.01.69.28s-.01.58-.28.69Z"></path><path class="cls-26" d="m206.64,32.24l-8.9,3.74c-.27.11-.58-.01-.69-.28-.11-.27.01-.58.28-.69l8.9-3.74c.27-.11.58.01.69.28.11.27-.01.58-.28.69Z"></path></g></g><g><rect class="cls-13" x="193.96" y="43.68" width="4.61" height="4.61" rx=".63" ry=".63" transform="translate(-2.47 79.73) rotate(-22.82)"></rect><g><path class="cls-26" d="m213.66,37.99l-12.8,5.39c-.27.11-.58-.01-.69-.28-.11-.27.01-.58.28-.69l12.8-5.39c.27-.11.58.01.69.28s-.01.58-.28.69Z"></path><path class="cls-26" d="m210.64,41.76l-8.9,3.74c-.27.11-.58-.01-.69-.28-.11-.27.01-.58.28-.69l8.9-3.74c.27-.11.58.01.69.28s-.01.58-.28.69Z"></path></g></g></g></g><path class="cls-16" d="m156.77,239.95l-13.87,5.84-26.14-62.11c1.64-1.56,3.56-4.23,4.37-8.57,1.56-8.32.46-35.07,21.29-37.83,20.82-2.76,3.26,44.08,4.22,53.01.88,8.13,12.75,31.76,10.13,49.66Z"></path></g><polygon class="cls-9" points="291.33 183.32 156.77 239.95 142.9 245.79 116.76 183.68 56.06 39.45 204.49 -23.02 291.33 183.32"></polygon></g><g><path class="cls-3" d="m148.39,193.68c2.33-7.98,11.45-33.61,10.26-44.94-.11-1.02-.33-1.94-.64-2.76-3.2-8.46-16.28-7.64-21.31-.63-5.52,7.71-10.02,21.59-10.41,30.03-.21,4.67-2.21,8.95-3.96,11.86,0,.02,0,.03-.02.04-1.41,2.34-2.65,3.76-2.65,3.76l-29.85-70.82s-4.82,3.9-7.81,8.72c-1.21,1.93-2.11,4.03-2.29,6.07-.61,6.97-8.51,35.63-11.8,47.73-.06.26-.14.5-.2.74-3.16,11.62,5.18,54.78,2.8,67.32-2.39,12.53-3.87,12.26-4.21,21.16-.25,6.5-9.55,26.26-19.97,46.55-5.97,11.63-12.32,23.42-17.55,32.97l76.32-3.17c1.32-9.27,2.68-19.06,3.92-28.53.51-3.9,1.34-7.91,2.28-11.71h0c1.68-6.81,3.74-12.96,4.98-16.56,1.95-5.62,3.98-16.1,3.98-16.1,8.88-9.4,20.52-24.16,23.89-34.17,0-.02.02-.05.02-.07.85-2.53,1.16-4.75.76-6.49-.34-1.44-.52-3.31-.6-5.46t0-.02c-.39-10.83,2.09-28.86,4.05-35.51Z"></path><path class="cls-13" d="m122.32,187.27c-2.37,4.75-5.22,9.36-7.04,14.69-1.82,5.32-3.77,6.08-9.12,10.24-5.34,4.17-9.24-2.7-9.24-2.7,0,0,7.07-7.34,4.72-11.43-2.36-4.09-11.14-14.26-10.62-19.87.51-5.61-5.33-18.19-5.33-18.19,0,0,13.33-7.82,10.74-16.96-1.41-5.01-8.39-10.33-14.41-14.12,2.99-4.82,7.81-8.72,7.81-8.72l29.85,70.82s1.24-1.42,2.65-3.76Z"></path><path class="cls-13" d="m73.92,230.71c.18.6,4.52,14.93.86,20.9-3.75,6.1-7.42,13.89-5.63,21.99,1.43,6.48-10.57,29.88-22.81,44.9,10.42-20.29,19.72-40.05,19.97-46.55.35-8.9,1.82-8.63,4.21-21.16,2.38-12.54-5.95-55.7-2.8-67.32.06-.24.14-.48.2-.74,2.33,13.17,7.76,39.4,9.25,47.83,1.9,10.74-3.06.58-3.26.15Z"></path><path class="cls-13" d="m101.4,317.18c8.87-38.19,38.72-67.47,42.76-75.95-3.37,10-15.01,24.77-23.89,34.17,0,0-2.03,10.47-3.98,16.1-1.25,3.6-3.3,9.75-4.98,16.55h0c-8.67,10.22-9.91,9.14-9.91,9.14Z"></path><path class="cls-13" d="m148.39,193.68c-1.96,6.65-4.44,24.68-4.05,35.51-1.57-6.8-4.59-15.44-5.09-27.47-.85-20.4,10.71-13.08,6.68-23.13-4.03-10.04-15.52,2.83-9.86-18.44,4.13-15.53,15.9-15.39,21.94-14.18.31.82.53,1.74.64,2.76,1.2,11.33-7.92,36.96-10.26,44.94Z"></path><g><path class="cls-9" d="m40.4,330.41c9.57-17.49,18.88-35.48,25.58-54.88.8-2.79-.27-6.42.54-9.21,9.07-25.2-1.22-51.43.47-77.23,1.42-10.17,4.67-20.42,7.92-30.66,1.53-7.42,2.11-15.71,4.55-23.17,2.52-5.62,5.01-12.16,10.37-15.04,10.2,23.38,20.37,46.85,29.85,70.82,4.28-2.48,4.97-8.02,5.7-12.65,2.3-11.13,4.63-21.33,8.84-30.7,4.28-7.53,15.18-10.74,21.87-4.59,1.91,1.76,2.94,4.47,3.06,7.23-1.3,12.92-5.36,25.96-9.45,38.08-1.61,5.58-3.25,10.25-3.94,15.79.08,1.84.11,2.75.19,4.59-2.37,9.29-.19,17.47-.73,26.69-2.07,16.63-15.37,28.22-24.97,40.56-2.37,9.29-4.74,18.58-8.03,27.91-4.02,13.96-5.28,27.8-6.65,41.25"></path><path class="cls-9" d="m119.68,191.03s-3.14,6.03-4.39,10.93c-1.25,4.9-7.58,4.19-10.85,7.24"></path><path class="cls-9" d="m95.8,182.4s8.61,3.04,13.62,6.95c5.01,3.91,8.72,4.87,8.72,4.87"></path><path class="cls-9" d="m90.31,161.05s6.95,1.95,12.1-.5c0,0,.38-4.26,1.31-7.39"></path><path class="cls-9" d="m104.07,161.56s.07.97,3.62,1.01"></path><path class="cls-9" d="m120.27,275.4s-6.78,6.15-10.92,17.23"></path><path class="cls-9" d="m67.32,185.6c-.31,5.99,6.72,27.28,8.86,37.85,2.14,10.58,2.93,18.06,2.93,18.06"></path></g></g></g></g></g></svg>