<svg xmlns="http://www.w3.org/2000/svg" xmlns:xlink="http://www.w3.org/1999/xlink" id="Layer_2" data-name="Layer 2" viewBox="0 0 487.35 345.54"><defs><style> .cls-1, .cls-2 { fill: #e9e9e9; } .cls-3 { fill: #e8e8e8; } .cls-3, .cls-4, .cls-5, .cls-6, .cls-7, .cls-8, .cls-9, .cls-10, .cls-11 { stroke-linecap: round; stroke-linejoin: round; } .cls-3, .cls-4, .cls-5, .cls-6, .cls-7, .cls-8, .cls-10, .cls-11 { stroke: #263238; } .cls-12 { fill: #a6c479; } .cls-2 { opacity: .7; } .cls-4 { fill: #a6a6a6; } .cls-5, .cls-7 { fill: #fff; } .cls-6, .cls-7 { stroke-width: .25px; } .cls-6, .cls-9, .cls-10, .cls-11, .cls-13 { fill: #263238; } .cls-14 { clip-path: url(#clippath); } .cls-15, .cls-8 { fill: none; } .cls-9 { stroke: #9e9e9e; } .cls-9, .cls-10 { stroke-width: .5px; } </style><clipPath id="clippath"><rect class="cls-15" width="487.35" height="345.54"></rect></clipPath></defs><g id="Bag"><g class="cls-14"><g><g><path class="cls-1" d="m438.58,310.36c-1.61,2.54-3.29,5.03-5.03,7.46-23.23,32.34-61.05,53.91-97.51,63.17-15.97,4.07-32.31,5.98-48.57,6.16-106.68,1.1-143.55-87.94-177.29-111.53-33.75-23.59-85.44-63.73-76.7-144.99C40.1,68.84,76.81,10.55,141.74-14.72c7.15-2.79,14.65-5.18,22.49-7.12,14.58-3.61,30.34-5.71,47.26-6.02,48.61-.9,87.73,11.85,125.53,42.38,8.79,7.1,17.5,15.07,29.11,16.22,8.44.84,16.54-2,7.91-10.41-10.14-9.89,2.34-28.5,28.37-14.67,43.47,23.1,60.36,70.95,67.64,119.34,8.94,59.4,1.94,132.8-31.46,185.36Z"></path><path class="cls-2" d="m438.58,310.36c-1.61,2.54-3.29,5.03-5.03,7.46-23.23,32.34-61.05,53.91-97.51,63.17-15.97,4.07-32.31,5.98-48.57,6.16-106.68,1.1-143.55-87.94-177.29-111.53-33.75-23.59-85.44-63.73-76.7-144.99C40.1,68.84,76.81,10.55,141.74-14.72c7.15-2.79,14.65-5.18,22.49-7.12,14.58-3.61,30.34-5.71,47.26-6.02,48.61-.9,87.73,11.85,125.53,42.38,8.79,7.1,17.5,15.07,29.11,16.22,8.44.84,16.54-2,7.91-10.41-10.14-9.89,2.34-28.5,28.37-14.67,43.47,23.1,60.36,70.95,67.64,119.34,8.94,59.4,1.94,132.8-31.46,185.36Z"></path></g><g><rect class="cls-11" x="230.61" y="-26.58" width="82.53" height="59.1"></rect><rect class="cls-5" x="235.94" y="-21.72" width="71.87" height="49.37"></rect><line class="cls-8" x1="255.97" y1="3.05" x2="287.77" y2="3.05"></line><path class="cls-12" d="m277.93,17.19c0,3.35-2.71,6.06-6.06,6.06s-6.06-2.71-6.06-6.06,2.71-6.06,6.06-6.06,6.06,2.71,6.06,6.06Z"></path></g><g><rect class="cls-11" x="157.97" y="22.15" width="50.86" height="36.42"></rect><rect class="cls-5" x="161.26" y="25.15" width="44.29" height="30.43"></rect><line class="cls-8" x1="166.14" y1="36.84" x2="200.67" y2="36.84"></line><line class="cls-8" x1="173.6" y1="40.42" x2="193.2" y2="40.42"></line><line class="cls-8" x1="179.59" y1="28.91" x2="187.21" y2="28.91"></line><path class="cls-12" d="m187.13,49.13c0,2.06-1.67,3.73-3.73,3.73s-3.73-1.67-3.73-3.73,1.67-3.73,3.73-3.73,3.73,1.67,3.73,3.73Z"></path></g><g><rect class="cls-11" x="157.97" y="68.48" width="50.86" height="36.42"></rect><rect class="cls-5" x="161.26" y="71.48" width="44.29" height="30.43"></rect><line class="cls-8" x1="166.14" y1="83.17" x2="200.67" y2="83.17"></line><line class="cls-8" x1="173.6" y1="86.75" x2="193.2" y2="86.75"></line><line class="cls-8" x1="179.59" y1="75.24" x2="187.21" y2="75.24"></line><path class="cls-12" d="m187.13,95.46c0,2.06-1.67,3.73-3.73,3.73s-3.73-1.67-3.73-3.73,1.67-3.73,3.73-3.73,3.73,1.67,3.73,3.73Z"></path></g><g><rect class="cls-11" x="332.69" y="22.15" width="50.86" height="36.42"></rect><rect class="cls-5" x="335.98" y="25.15" width="44.29" height="30.43"></rect><line class="cls-8" x1="340.86" y1="36.84" x2="375.39" y2="36.84"></line><line class="cls-8" x1="348.32" y1="40.42" x2="367.92" y2="40.42"></line><line class="cls-8" x1="354.31" y1="28.91" x2="361.93" y2="28.91"></line><path class="cls-12" d="m361.85,49.13c0,2.06-1.67,3.73-3.73,3.73s-3.73-1.67-3.73-3.73,1.67-3.73,3.73-3.73,3.73,1.67,3.73,3.73Z"></path></g><g><rect class="cls-11" x="332.69" y="68.48" width="50.86" height="36.42"></rect><rect class="cls-5" x="335.98" y="71.48" width="44.29" height="30.43"></rect><line class="cls-8" x1="340.86" y1="83.17" x2="375.39" y2="83.17"></line><line class="cls-8" x1="348.32" y1="86.75" x2="367.92" y2="86.75"></line><line class="cls-8" x1="354.31" y1="75.24" x2="361.93" y2="75.24"></line><path class="cls-12" d="m361.85,95.46c0,2.06-1.67,3.73-3.73,3.73s-3.73-1.67-3.73-3.73,1.67-3.73,3.73-3.73,3.73,1.67,3.73,3.73Z"></path></g><g><g><g><path class="cls-4" d="m419.17,111.23s0,26.45.57,29.28c.57,2.83,2.23,3.99,2.23,3.99l2.15,163.25,4.67.28-2.83-118.87-1.06-44.66s1.91.11,2.05-4.56c.14-4.67,2.69-23.48,2.69-23.48l-1.84-.57s-2.83,23.34-3.39,24.04c-.57.71-2.12-1.41-2.4-3.68-.28-2.26,0-25.17,0-25.17l-2.83.14Z"></path><path class="cls-11" d="m424.89,144.5c.2-.08.43-.16.67-.26.57-.41,1.3-1.48,1.38-4.3.14-4.67,2.69-23.48,2.69-23.48l-1.84-.57s-2.83,23.34-3.39,24.04c-.57.71-2.12-1.41-2.4-3.68-.28-2.26,0-25.17,0-25.17l-2.83.14s0,26.45.57,29.28c.57,2.83,2.23,3.99,2.23,3.99,0,0,.69.86,2.93,0Z"></path><path class="cls-11" d="m423.99,110.79s5.37-7.5,14-11.03c8.63-3.54,24.18-5.8,24.75-5.8s-14.57,4.81-19.23,6.93c-4.67,2.12-10.75,5.37-12.59,7.35-1.84,1.98-10.47,15.84-10.47,15.84,0,0,.28-5.66,3.54-13.29Z"></path><path class="cls-12" d="m409.25,86.38s-5.37-7.5-14-11.03c-8.63-3.54-24.18-5.8-24.75-5.8s14.57,4.81,19.23,6.93c4.67,2.12,10.75,5.37,12.59,7.35,1.84,1.98,10.47,15.84,10.47,15.84,0,0-.28-5.66-3.54-13.29Z"></path><path class="cls-12" d="m421.13,107.45s-14.71-21.78-18.81-23.62c-4.1-1.84-7.35-3.54-12.87-2.12-5.52,1.41-16.97,7.64-19.09,8.77-2.12,1.13-4.95,3.11-6.08,3.68-1.13.57,14.57-8.77,23.34-9.9,8.77-1.13,10.32,3.11,19.8,10.47,9.48,7.35,13.72,12.73,13.72,12.73Z"></path><path class="cls-12" d="m421.13,107.45s-9.76-15.56-16.41-17.25c-6.65-1.7-14.57,1.98-17.25,3.54s-6.65,10.32-7.5,13.72c-.85,3.39-1.41,5.94-1.41,5.94,0,0,8.49-13.86,11.88-15.98,3.39-2.12,8.63-5.37,10.18-5.66,1.56-.28,17.11,9.19,20.51,15.7Z"></path><path class="cls-12" d="m417.17,99.39s-18.95-12.73-28.85-12.59c-9.9.14-22.2,3.82-25.46,4.38s-6.51,36.42-6.51,36.42c0,0,14-32.46,18.67-32.32,4.67.14,19.94-4.24,25.03-2.55,5.09,1.7,17.11,6.65,17.11,6.65Z"></path><path class="cls-12" d="m420.84,112.4s-6.08-11.46-11.17-14c-5.09-2.55-10.18,1.98-18.24,5.09-8.06,3.11-14.14,5.23-14.14,5.23,0,0,13.29.71,18.39-1.13,5.09-1.84,13.15-5.37,14.99-5.09,1.84.28,10.18,9.9,10.18,9.9Z"></path><path class="cls-11" d="m425.25,116.18s-5.37-28.99-5.37-39.6.14-15.13.14-15.13c0,0,3.54,13.86,3.96,15.56.42,1.7.42,4.53.42,4.53,0,0,2.55-14.99,5.8-18.67,3.25-3.68,7.35-5.52,7.35-5.52,0,0-3.68,6.93-4.38,8.91-.71,1.98,2.97-2.69,6.93-3.82,3.96-1.13,13.72-3.25,13.72-3.25,0,0-13.01,5.23-14.57,6.93s-5.37,7.92-5.66,8.63c-.28.71-4.95,8.77-6.22,13.44-1.27,4.67-2.12,28-2.12,28Z"></path><path class="cls-12" d="m428.5,80.97l11.03-7.35s13.58-2.12,15.84-1.41c2.26.71,5.37,2.83,5.37,2.83,0,0-8.77-.85-12.59.99-3.82,1.84-12.16,5.09-17.11,11.74-4.95,6.65-6.79,14-7.35,16.41s-1.7,6.93-1.7,6.93c0,0-2.55-12.3-1.56-17.25.99-4.95,8.06-12.87,8.06-12.87Z"></path><path class="cls-12" d="m414.64,73.05s6.51,8.77,7.5,11.6c.99,2.83,2.55-7.07,9.48-13.15,6.93-6.08,29.28-9.76,29.28-9.76,0,0-27.15,13.15-31.26,18.39-4.1,5.23-8.06,14.14-8.06,14.57v5.23l-6.93-26.87Z"></path><path class="cls-11" d="m419.32,91.45s-9.05-15.56-13.72-20.93c-4.67-5.37-20.08-17.4-20.08-17.4,0,0,6.36,7.92,14.57,19.09,8.2,11.17,21.21,27.58,21.21,27.58l-1.98-8.34Z"></path><path class="cls-12" d="m418.04,121.84s-14.71-12.02-22.49-9.05c-7.78,2.97-16.69,12.45-16.69,12.45l-1.98,10.75s10.47-15.13,14.99-17.25c4.53-2.12,10.89-2.97,14-2.26,3.11.71,12.3,8.49,12.73,9.48.42.99-.57-4.1-.57-4.1Z"></path><path class="cls-12" d="m414.22,86.2s-2.83-2.55-4.67-12.73c-1.84-10.18.28-19.38.28-19.38,0,0,.99,6.08,3.25,13.15,2.26,7.07,2.26,9.62,5.66,20.08,3.39,10.47,3.82,29.28,3.68,29.7-.14.42-8.2-30.83-8.2-30.83Z"></path><path class="cls-11" d="m437.41,89.17s4.38-5.66,10.04-7.35c5.66-1.7,11.46-1.56,11.46-1.56,0,0-8.49-2.4-14.14-1.27-5.66,1.13-10.04,7.78-12.02,14-1.98,6.22-1.98,20.79-1.98,20.79,0,0,3.11-19.09,6.65-24.61Z"></path><path class="cls-12" d="m416.14,94.65s.31-5.95-4.43-12.83c-4.73-6.87-14.35-10.69-21.07-13.59s-10.69-4.12-10.69-4.12c0,0,15.12,11.91,19.09,13.59,3.97,1.68,6.87,3.97,9.62,7.18,2.75,3.21,7.63,14.96,7.63,15.73s-.15-5.95-.15-5.95Z"></path><path class="cls-12" d="m433.17,103.17s5.37-7.5,14-11.03c8.63-3.54,24.18-5.8,24.75-5.8s-14.57,4.81-19.23,6.93c-4.67,2.12-10.75,5.37-12.59,7.35-1.84,1.98-10.47,15.84-10.47,15.84,0,0,.28-5.66,3.54-13.29Z"></path><path class="cls-12" d="m421.29,124.25s14.71-21.78,18.81-23.62c4.1-1.84,7.35-3.54,12.87-2.12,5.52,1.41,16.97,7.64,19.09,8.77,2.12,1.13,4.95,3.11,6.08,3.68s-14.57-8.77-23.34-9.9-10.32,3.11-19.8,10.47c-9.48,7.35-13.72,12.73-13.72,12.73Z"></path><path class="cls-11" d="m421.29,124.25s9.76-15.56,16.41-17.25c6.65-1.7,14.57,1.98,17.25,3.54,2.69,1.56,6.65,10.32,7.5,13.72.85,3.39,1.41,5.94,1.41,5.94,0,0-8.49-13.86-11.88-15.98s-8.63-5.37-10.18-5.66c-1.56-.28-17.11,9.19-20.51,15.7Z"></path><path class="cls-12" d="m425.25,116.18s18.95-12.73,28.85-12.59c9.9.14,22.2,3.82,25.46,4.38,3.25.57,6.51-.28,6.51-.28,0,0-14,4.24-18.67,4.38-4.67.14-19.94-4.24-25.03-2.55-5.09,1.7-17.11,6.65-17.11,6.65Z"></path><path class="cls-12" d="m430.34,110.53s-3.25-9.9.14-17.11c3.39-7.21,7.78-17.11,7.78-17.11,0,0,1.56,12.59-1.13,21.07-2.69,8.49-6.79,13.15-6.79,13.15Z"></path><path class="cls-12" d="m422.14,117.74s0-12.3-8.49-18.1c-8.49-5.8-17.96-7.64-21.36-5.8-3.39,1.84-13.58,7.5-16.55,11.31-2.97,3.82-5.37,6.79-5.37,6.79,0,0,14.99-9.9,19.66-13.29,4.67-3.39,6.93-4.24,8.63-3.82,1.7.42,11.46,4.95,15.27,7.92,3.82,2.97,8.2,14.99,8.2,14.99Z"></path><path class="cls-11" d="m422.42,119.72c-.14-.42.28-3.68-5.52-4.1s-10.18,2.12-11.17,4.24,0,7.78.14,8.34c.14.57.85-7.5,7.64-9.05,6.79-1.56,8.91.57,8.91.57Z"></path><path class="cls-12" d="m420.16,124.95s-1.84-3.96-5.52-8.2-11.6-8.2-15.42-5.8c-3.82,2.4-8.2,12.45-9.62,15.27-1.41,2.83-4.67,11.46-4.95,11.88-.28.42,8.34-7.64,12.02-12.45,3.68-4.81,6.22-11.46,8.34-12.02,2.12-.57,6.51,3.68,6.51,3.68l10.47,15.13-1.84-7.5Z"></path><path class="cls-12" d="m420.72,114.63s-1.84-8.49-8.2-10.75c-6.36-2.26-14-3.11-16.97-1.41-2.97,1.7-15.98,13.72-15.98,13.72l-1.7,4.38s19.09-14,23.48-15.42q4.38-1.41,9.05,1.41c4.67,2.83,10.32,8.06,10.32,8.06Z"></path><path class="cls-12" d="m419.59,114.63s-18.53-11.17-22.49-12.59c-3.96-1.41-12.87,2.12-15.42,5.37s-11.46,20.93-11.88,22.2c-.42,1.27,5.94-13.72,15.56-18.1,9.62-4.38,15.84-3.54,21.5-2.97,5.66.57,12.73,10.04,12.73,10.04v-3.96Z"></path><path class="cls-12" d="m421.57,129.2s6.08-11.46,11.17-14c5.09-2.55,10.18,1.98,18.24,5.09,8.06,3.11,14.14,5.23,14.14,5.23,0,0-13.29.71-18.39-1.13-5.09-1.84-13.15-5.37-14.99-5.09-1.84.28-10.18,9.9-10.18,9.9Z"></path><path class="cls-12" d="m422.14,117.74s3.11-8.91,4.95-20.51c1.84-11.6-1.27-32.39-4.24-38.61-2.97-6.22-11.74-16.41-11.74-16.41,0,0,15.56,13.58,18.95,26.31,3.39,12.73,3.96,19.52,2.55,26.45s-10.47,22.77-10.47,22.77Z"></path><g><path class="cls-12" d="m418.43,99.84s-1.37-5.19-2.9-6.26c-1.53-1.07-4.58.15-4.58.15,0,0,5.34,4.73,5.34,6.87s5.43,15.01,5.43,15.01l-3.29-15.77Z"></path><path class="cls-12" d="m415.53,93.58s-2.29,1.6-4.08,3.22c-1.79,1.62-10.3,10.05-10.81,10.56-.51.51,4.43-10.73,5.53-12.85,1.11-2.13,3.06-3.66,3.66-3.58.6.09,5.86,1.31,5.7,2.65Z"></path></g></g><g><path class="cls-4" d="m447.82,151.33s0,23.18-.5,25.65c-.5,2.48-1.96,3.5-1.96,3.5l-1.89,147.59-4.09.25,2.48-108.71.93-39.13s-1.68.1-1.8-3.99c-.12-4.09-2.35-20.57-2.35-20.57l1.61-.5s2.48,20.45,2.97,21.07,1.86-1.24,2.11-3.22c.25-1.98,0-22.06,0-22.06l2.48.12Z"></path><path class="cls-11" d="m442.81,180.49c-.18-.07-.38-.14-.59-.22-.5-.36-1.14-1.3-1.21-3.77-.12-4.09-2.35-20.57-2.35-20.57l1.61-.5s2.48,20.45,2.97,21.07,1.86-1.24,2.11-3.22c.25-1.98,0-22.06,0-22.06l2.48.12s0,23.18-.5,25.65c-.5,2.48-1.96,3.5-1.96,3.5,0,0-.6.75-2.56,0Z"></path><path class="cls-11" d="m443.6,150.94s-4.71-6.57-12.27-9.67c-7.56-3.1-21.19-5.08-21.69-5.08s12.76,4.21,16.85,6.07,9.42,4.71,11.03,6.44c1.61,1.74,9.17,13.88,9.17,13.88,0,0-.25-4.96-3.1-11.65Z"></path><path class="cls-12" d="m456.52,129.55s4.71-6.57,12.27-9.67c7.56-3.1,21.19-5.08,21.69-5.08s-12.76,4.21-16.85,6.07c-4.09,1.86-9.42,4.71-11.03,6.44-1.61,1.74-9.17,13.88-9.17,13.88,0,0,.25-4.96,3.1-11.65Z"></path><path class="cls-12" d="m446.11,148.02s12.89-19.09,16.48-20.7c3.59-1.61,6.44-3.1,11.28-1.86s14.87,6.69,16.73,7.68c1.86.99,4.34,2.73,5.33,3.22.99.5-12.76-7.68-20.45-8.68-7.68-.99-9.05,2.73-17.35,9.17-8.3,6.44-12.02,11.15-12.02,11.15Z"></path><path class="cls-12" d="m446.11,148.02s8.55-13.63,14.38-15.12,12.76,1.74,15.12,3.1,5.82,9.05,6.57,12.02c.74,2.97,1.24,5.21,1.24,5.21,0,0-7.44-12.15-10.41-14-2.97-1.86-7.56-4.71-8.92-4.96-1.36-.25-15,8.06-17.97,13.76Z"></path><path class="cls-12" d="m449.58,140.96s16.61-11.15,25.28-11.03c8.68.12,19.46,3.35,22.31,3.84s5.7-.25,5.7-.25c0,0-12.27,3.72-16.36,3.84-4.09.12-17.47-3.72-21.94-2.23-4.46,1.49-15,5.82-15,5.82Z"></path><path class="cls-12" d="m446.35,152.36s5.33-10.04,9.79-12.27c4.46-2.23,8.92,1.74,15.99,4.46,7.06,2.73,12.39,4.59,12.39,4.59,0,0-11.65.62-16.11-.99s-11.53-4.71-13.14-4.46c-1.61.25-8.92,8.68-8.92,8.68Z"></path><path class="cls-11" d="m442.49,155.67s4.71-25.41,4.71-34.7-.12-13.26-.12-13.26c0,0-3.1,12.15-3.47,13.63-.37,1.49-.37,3.97-.37,3.97,0,0-2.23-13.14-5.08-16.36-2.85-3.22-6.44-4.83-6.44-4.83,0,0,3.22,6.07,3.84,7.81.62,1.73-2.6-2.35-6.07-3.35s-12.02-2.85-12.02-2.85c0,0,11.4,4.59,12.76,6.07,1.36,1.49,4.71,6.94,4.96,7.56.25.62,4.34,7.68,5.45,11.77,1.12,4.09,1.86,24.54,1.86,24.54Z"></path><path class="cls-12" d="m439.64,124.81l-9.67-6.44s-11.9-1.86-13.88-1.24-4.71,2.48-4.71,2.48c0,0,7.68-.74,11.03.87,3.35,1.61,10.66,4.46,15,10.29,4.34,5.82,5.95,12.27,6.44,14.38.5,2.11,1.49,6.07,1.49,6.07,0,0,2.23-10.78,1.36-15.12s-7.06-11.28-7.06-11.28Z"></path><path class="cls-12" d="m451.79,117.87s-5.7,7.68-6.57,10.16c-.87,2.48-2.23-6.2-8.3-11.53-6.07-5.33-25.65-8.55-25.65-8.55,0,0,23.79,11.53,27.39,16.11,3.59,4.59,7.06,12.39,7.06,12.76v4.59l6.07-23.55Z"></path><path class="cls-11" d="m447.69,134s7.93-13.63,12.02-18.34c4.09-4.71,17.6-15.24,17.6-15.24,0,0-5.58,6.94-12.76,16.73-7.19,9.79-18.59,24.17-18.59,24.17l1.73-7.31Z"></path><path class="cls-12" d="m448.81,160.63s12.89-10.53,19.71-7.93c6.82,2.6,14.62,10.91,14.62,10.91l1.73,9.42s-9.17-13.26-13.14-15.12c-3.97-1.86-9.54-2.6-12.27-1.98-2.73.62-10.78,7.44-11.15,8.3-.37.87.5-3.59.5-3.59Z"></path><path class="cls-12" d="m452.16,129.4s2.48-2.23,4.09-11.15c1.61-8.92-.25-16.98-.25-16.98,0,0-.87,5.33-2.85,11.53-1.98,6.2-1.98,8.43-4.96,17.6-2.97,9.17-3.35,25.65-3.22,26.03.12.37,7.19-27.02,7.19-27.02Z"></path><path class="cls-11" d="m431.84,132s-3.84-4.96-8.8-6.44c-4.96-1.49-10.04-1.36-10.04-1.36,0,0,7.44-2.11,12.39-1.12,4.96.99,8.8,6.82,10.53,12.27,1.74,5.45,1.74,18.22,1.74,18.22,0,0-2.73-16.73-5.82-21.56Z"></path><path class="cls-12" d="m450.48,136.81s-.27-5.22,3.88-11.24c4.15-6.02,12.58-9.37,18.46-11.91,5.89-2.54,9.37-3.61,9.37-3.61,0,0-13.25,10.44-16.73,11.91-3.48,1.47-6.02,3.48-8.43,6.29-2.41,2.81-6.69,13.11-6.69,13.78s.13-5.22.13-5.22Z"></path><path class="cls-12" d="m435.55,144.27s-4.71-6.57-12.27-9.67c-7.56-3.1-21.19-5.08-21.69-5.08s12.76,4.21,16.85,6.07c4.09,1.86,9.42,4.71,11.03,6.44,1.61,1.74,9.17,13.88,9.17,13.88,0,0-.25-4.96-3.1-11.65Z"></path><path class="cls-12" d="m445.96,162.74s-12.89-19.09-16.48-20.7c-3.59-1.61-6.44-3.1-11.28-1.86-4.83,1.24-14.87,6.69-16.73,7.68-1.86.99-4.34,2.73-5.33,3.22-.99.5,12.76-7.68,20.45-8.68,7.68-.99,9.05,2.73,17.35,9.17,8.3,6.44,12.02,11.15,12.02,11.15Z"></path><path class="cls-11" d="m445.96,162.74s-8.55-13.63-14.38-15.12c-5.82-1.49-12.76,1.74-15.12,3.1-2.35,1.36-5.82,9.05-6.57,12.02s-1.24,5.21-1.24,5.21c0,0,7.44-12.15,10.41-14,2.97-1.86,7.56-4.71,8.92-4.96,1.36-.25,15,8.06,17.97,13.76Z"></path><path class="cls-12" d="m442.49,155.67s-16.61-11.15-25.28-11.03c-8.68.12-19.46,3.35-22.31,3.84-2.85.5-5.7-.25-5.7-.25,0,0,12.27,3.72,16.36,3.84,4.09.12,17.47-3.72,21.94-2.23,4.46,1.49,15,5.82,15,5.82Z"></path><path class="cls-12" d="m438.03,150.72s2.85-8.68-.12-15c-2.97-6.32-6.82-15-6.82-15,0,0-1.36,11.03.99,18.47,2.35,7.44,5.95,11.53,5.95,11.53Z"></path><path class="cls-12" d="m445.22,157.04s0-10.78,7.44-15.86,15.74-6.69,18.71-5.08c2.97,1.61,11.9,6.57,14.5,9.91,2.6,3.35,4.71,5.95,4.71,5.95,0,0-13.14-8.68-17.23-11.65-4.09-2.97-6.07-3.72-7.56-3.35-1.49.37-10.04,4.34-13.38,6.94-3.35,2.6-7.19,13.14-7.19,13.14Z"></path><path class="cls-11" d="m444.97,158.77c.12-.37-.25-3.22,4.83-3.59,5.08-.37,8.92,1.86,9.79,3.72.87,1.86,0,6.82-.12,7.31-.12.5-.74-6.57-6.69-7.93-5.95-1.36-7.81.5-7.81.5Z"></path><path class="cls-12" d="m446.95,163.36s1.61-3.47,4.83-7.19c3.22-3.72,10.16-7.19,13.51-5.08,3.35,2.11,7.19,10.91,8.43,13.38,1.24,2.48,4.09,10.04,4.34,10.41.25.37-7.31-6.69-10.53-10.91s-5.45-10.04-7.31-10.53c-1.86-.5-5.7,3.22-5.7,3.22l-9.17,13.26,1.61-6.57Z"></path><path class="cls-12" d="m446.46,154.31s1.61-7.44,7.19-9.42c5.58-1.98,12.27-2.73,14.87-1.24,2.6,1.49,14,12.02,14,12.02l1.49,3.84s-16.73-12.27-20.57-13.51q-3.84-1.24-7.93,1.24c-4.09,2.48-9.05,7.06-9.05,7.06Z"></path><path class="cls-12" d="m447.45,154.31s16.24-9.79,19.71-11.03c3.47-1.24,11.28,1.86,13.51,4.71,2.23,2.85,10.04,18.34,10.41,19.46s-5.21-12.02-13.63-15.86c-8.43-3.84-13.88-3.1-18.84-2.6-4.96.5-11.15,8.8-11.15,8.8v-3.47Z"></path><path class="cls-12" d="m445.72,167.07s-5.33-10.04-9.79-12.27c-4.46-2.23-8.92,1.74-15.99,4.46-7.06,2.73-12.39,4.59-12.39,4.59,0,0,11.65.62,16.11-.99,4.46-1.61,11.53-4.71,13.14-4.46s8.92,8.68,8.92,8.68Z"></path><path class="cls-12" d="m445.22,157.04s-2.73-7.81-4.34-17.97c-1.61-10.16,1.12-28.38,3.72-33.83,2.6-5.45,10.29-14.38,10.29-14.38,0,0-13.63,11.9-16.61,23.05-2.97,11.15-3.47,17.1-2.23,23.18s9.17,19.95,9.17,19.95Z"></path><g><path class="cls-12" d="m448.47,141.35s1.2-4.55,2.54-5.49c1.34-.94,4.01.13,4.01.13,0,0-4.68,4.15-4.68,6.02s-4.76,13.15-4.76,13.15l2.88-13.82Z"></path><path class="cls-12" d="m451.01,135.87s2.01,1.4,3.57,2.82c1.57,1.42,9.03,8.8,9.47,9.25s-3.88-9.4-4.85-11.26c-.97-1.87-2.69-3.21-3.21-3.13-.52.07-5.13,1.15-4.99,2.33Z"></path></g></g><g><path class="cls-11" d="m447.22,201.49s11.41-4.16,18.36-6.48c6.94-2.31,12.19,3.39,12.19,3.39,0,0-8.64,1.23-11.72,1.39-3.09.15-7.71.31-10.49,1.39-2.78,1.08,5.55.93,8.33,3.7,2.78,2.78,8.64,9.87,9.56,12.03.93,2.16-9.41-10.18-16.66-12.03-7.25-1.85-12.96,2.01-12.96,2.01l3.39-5.4Z"></path><path class="cls-4" d="m435.96,218.46s1.08,5.09,0,19.28c-1.08,14.19-2.16,71.1-2.16,71.1l3.7.46s1.85-76.5,1.85-79.12.15-12.03.15-12.03l-3.55.31Z"></path><path class="cls-12" d="m438.89,203.5c-.29-.63-4.63-9.87-6.94-11.41-2.31-1.54-8.18-3.7-10.8-3.7s-9.41.77-9.41.77c0,0,12.03,2.78,15.43,5.4,3.39,2.62,9.26,8.64,9.41,9.72.15,1.08,1.39,3.55,1.39,3.55,0,0,2.62-.62.93-4.32Z"></path><path class="cls-11" d="m435.49,209.51s-9.26-1.08-12.65,1.39c-3.39,2.47-9.41,9.41-9.41,13.11s.31,12.19.31,11.41,1.7-12.8,5.55-16.5c3.86-3.7,5.55-5.86,10.64-6.48l5.09-.62,5.24,2.78-4.78-5.09Z"></path><path class="cls-12" d="m442.58,207.27s1.85-1.54,8.48-2.47c6.63-.93,8.48-1.54,12.65-.77,4.16.77,8.64,2.47,8.64,2.47,0,0-13.27-.31-14.5-.31s8.02,6.02,9.72,7.87c1.7,1.85,3.24,5.71,3.24,5.71,0,0-13.27-9.56-15.58-10.64-2.31-1.08-3.24-1.7-3.24-1.7,0,0-3.7-.62-5.24-.15-1.54.46-2.78.93-3.24,1.08-.46.15-2.16.62-2.16.62l1.23-1.7Z"></path><path class="cls-12" d="m440.58,202.26s.77-8.95,5.09-12.96,19.13-11.72,19.13-11.72l9.1-4.47s-2.62,5.86-8.18,8.18c-5.55,2.31-7.4.62-10.03,3.39s-6.79,8.48-7.56,11.11c-.77,2.62-5.86,9.87-6.17,11.57-.31,1.7-1.39-5.09-1.39-5.09Z"></path><path class="cls-12" d="m441.2,204.73s.93-13.88-.62-17.43c-1.54-3.55-6.32-11.72-7.4-13.57-1.08-1.85-2.47-3.39-2.47-3.39,0,0,3.86,12.19,4.94,18.51,1.08,6.32,1.23,8.33,1.54,10.95.31,2.62.62,4.94.62,4.94h3.39Z"></path><path class="cls-12" d="m439.2,209.82s2.01-5.55,5.09-10.49c3.09-4.94,7.56-6.02,8.33-6.02h3.39s-6.02,2.93-6.79,5.71c-.77,2.78-2.47,8.48-3.7,9.72-1.23,1.23-4.32,7.71-5.09,9.26-.77,1.54-2.78,2.31-2.78,2.31,0,0-2.78-4.16,1.54-10.49Z"></path><path class="cls-12" d="m441.66,210.28l-4.01,10.03,1.23,1.08s1.85-2.16,3.24-4.16,2.47-3.55,2.47-4.47-2.93-2.47-2.93-2.47Z"></path><path class="cls-12" d="m440.06,218.74s-5.86-12.8-7.71-15.58c-1.85-2.78-3.86-5.09-7.87-6.17-4.01-1.08-10.8-3.09-16.81-2.01-6.02,1.08-16.35,2.47-16.35,2.47,0,0,7.4,3.39,16.35,2.78,8.95-.62,16.81-.15,16.81-.15,0,0,1.85.77,3.24,5.24,1.39,4.47,4.32,8.48,6.17,10.18,1.85,1.7,4.94,5.86,4.94,5.86l1.23-2.62Z"></path><path class="cls-12" d="m441.2,204.73s-6.48-2.62-8.02-.31c-1.54,2.31-4.01,14.35-4.01,14.35,0,0-1.23,6.32-1.54,6.94-.31.62,8.18-5.86,10.18-11.41,2.01-5.55,3.39-9.56,3.39-9.56Z"></path><path class="cls-12" d="m447.37,208.74s-5.71.15-5.71,1.54.77,3.86.46,6.94c-.31,3.09-.62,5.86-.62,5.86,0,0,6.17-2.62,6.48-6.17.31-3.55-.62-8.18-.62-8.18Z"></path><path class="cls-11" d="m450.12,208.73s5.86,4.01,7.87,7.71,3.55,11.41,3.55,11.41c0,0-4.01-7.71-7.1-11.88-3.09-4.16-7.71-7.56-8.64-6.48s2.16-1.7,4.32-.77Z"></path></g></g><polygon class="cls-11" points="447.66 349.55 415.87 349.55 409.06 306.11 454.48 306.11 447.66 349.55"></polygon></g><g><polygon class="cls-3" points="303.29 195.06 341.29 195.06 339.57 198.36 303.29 198.36 303.29 195.06"></polygon><polygon class="cls-3" points="347.05 153.86 415.25 153.86 407.59 198.36 339.38 198.36 347.05 153.86"></polygon><path class="cls-5" d="m382.56,177.34c-.69,3-3.12,5.01-5.44,4.48-2.32-.53-3.64-3.39-2.96-6.4s3.12-5.01,5.44-4.48c2.32.53,3.64,3.39,2.96,6.4Z"></path></g><g><path class="cls-12" d="m197.45,187.46h32.25v10.43h-32.25c-.63,0-1.15-.52-1.15-1.15v-8.13c0-.63.52-1.15,1.15-1.15Z"></path><rect class="cls-11" x="223.23" y="187.46" width="2.79" height="10.43"></rect><rect class="cls-11" x="198.62" y="187.46" width="2.31" height="10.43"></rect><rect class="cls-3" x="230.54" y="188.59" width="31.34" height="8.17"></rect><path class="cls-12" d="m230.97,196.23v-7.11h31.16c.46,0,.83-.37.83-.83h0c0-.46-.37-.83-.83-.83h-32.56v10.43h32.56c.46,0,.83-.37.83-.83h0c0-.46-.37-.83-.83-.83h-31.16Z"></path></g><g><path class="cls-12" d="m194.92,177.82h32.25v10.43h-32.25c-.63,0-1.15-.52-1.15-1.15v-8.13c0-.63.52-1.15,1.15-1.15Z"></path><rect class="cls-11" x="220.7" y="177.82" width="2.79" height="10.43"></rect><rect class="cls-11" x="196.09" y="177.82" width="2.31" height="10.43"></rect><rect class="cls-3" x="228" y="178.95" width="31.34" height="8.17"></rect><path class="cls-12" d="m228.43,186.59v-7.11h31.16c.46,0,.83-.37.83-.83h0c0-.46-.37-.83-.83-.83h-32.56v10.43h32.56c.46,0,.83-.37.83-.83h0c0-.46-.37-.83-.83-.83h-31.16Z"></path></g><g><path class="cls-10" d="m165.63,147.19h0c-.64,0-1.16.52-1.16,1.16v11.06h2.31v-11.06c0-.64-.52-1.16-1.16-1.16Z"></path><path class="cls-10" d="m165.62,194.19h0c-.51,0-.92-.41-.92-.92v-35.65h1.84v35.65c0,.51-.41.92-.92.92Z"></path><path class="cls-10" d="m165.84,155.96h-17.11s.33,1.56-1.26,1.56c-1.07,0-1.48-.66-.96-1.77.36-.76-1.2.21-1.26,1.26-.07,1.22,1.47,1.79,2.73,1.57s1.63-1.33,1.63-1.33l16.22,1.66v-2.96Z"></path><path class="cls-10" d="m165.84,155.96h17.11s-.33,1.56,1.26,1.56c1.07,0,1.48-.66.96-1.77-.36-.76,1.2.21,1.26,1.26.07,1.22-1.47,1.79-2.73,1.57-1.26-.21-1.63-1.33-1.63-1.33l-16.22,1.66v-2.96Z"></path><path class="cls-10" d="m164.45,161.15h0l1.27,1.84,1.07-1.84h0c-.09-1.46-2.24-1.46-2.34,0Z"></path><circle class="cls-9" cx="165.62" cy="157.63" r="1.42"></circle><path class="cls-9" d="m166.16,157.63c0-.3-.24-.54-.54-.54s-.54.24-.54.54.24.54.54.54.54-.24.54-.54Z"></path><g><g><path class="cls-7" d="m148.1,159.09h0c-.19.07-.39-.03-.46-.22l-.12-.34c-.07-.19.03-.39.22-.46h0c.19-.07.39.03.46.22l.12.34c.07.19-.03.39-.22.46Z"></path><line class="cls-7" x1="147.53" y1="157.47" x2="147.87" y2="158.45"></line><path class="cls-7" d="m148.58,160.46h0c-.19.07-.39-.03-.46-.22l-.12-.34c-.07-.19.03-.39.22-.46h0c.19-.07.39.03.46.22l.12.34c.07.19-.03.39-.22.46Z"></path><line class="cls-7" x1="148.01" y1="158.84" x2="148.35" y2="159.82"></line><path class="cls-7" d="m149.06,161.83h0c-.19.07-.39-.03-.46-.22l-.12-.34c-.07-.19.03-.39.22-.46h0c.19-.07.39.03.46.22l.12.34c.07.19-.03.39-.22.46Z"></path><line class="cls-7" x1="148.49" y1="160.2" x2="148.83" y2="161.18"></line><path class="cls-7" d="m149.54,163.19h0c-.19.07-.39-.03-.46-.22l-.12-.34c-.07-.19.03-.39.22-.46h0c.19-.07.39.03.46.22l.12.34c.07.19-.03.39-.22.46Z"></path><line class="cls-7" x1="148.97" y1="161.57" x2="149.31" y2="162.55"></line><path class="cls-7" d="m150.02,164.56h0c-.19.07-.39-.03-.46-.22l-.12-.34c-.07-.19.03-.39.22-.46h0c.19-.07.39.03.46.22l.12.34c.07.19-.03.39-.22.46Z"></path><line class="cls-7" x1="149.45" y1="162.93" x2="149.79" y2="163.91"></line><path class="cls-7" d="m150.5,165.92h0c-.19.07-.39-.03-.46-.22l-.12-.34c-.07-.19.03-.39.22-.46h0c.19-.07.39.03.46.22l.12.34c.07.19-.03.39-.22.46Z"></path><line class="cls-7" x1="149.93" y1="164.3" x2="150.27" y2="165.28"></line><path class="cls-7" d="m150.98,167.29h0c-.19.07-.39-.03-.46-.22l-.12-.34c-.07-.19.03-.39.22-.46h0c.19-.07.39.03.46.22l.12.34c.07.19-.03.39-.22.46Z"></path><line class="cls-7" x1="150.41" y1="165.66" x2="150.75" y2="166.64"></line><path class="cls-7" d="m151.46,168.65h0c-.19.07-.39-.03-.46-.22l-.12-.34c-.07-.19.03-.39.22-.46h0c.19-.07.39.03.46.22l.12.34c.07.19-.03.39-.22.46Z"></path><line class="cls-7" x1="150.89" y1="167.03" x2="151.23" y2="168.01"></line><path class="cls-7" d="m151.94,170.02h0c-.19.07-.39-.03-.46-.22l-.12-.34c-.07-.19.03-.39.22-.46h0c.19-.07.39.03.46.22l.12.34c.07.19-.03.39-.22.46Z"></path><line class="cls-7" x1="151.37" y1="168.4" x2="151.72" y2="169.37"></line><path class="cls-7" d="m152.42,171.38h0c-.19.07-.39-.03-.46-.22l-.12-.34c-.07-.19.03-.39.22-.46h0c.19-.07.39.03.46.22l.12.34c.07.19-.03.39-.22.46Z"></path><line class="cls-7" x1="151.85" y1="169.76" x2="152.2" y2="170.74"></line><path class="cls-7" d="m152.9,172.75h0c-.19.07-.39-.03-.46-.22l-.12-.34c-.07-.19.03-.39.22-.46h0c.19-.07.39.03.46.22l.12.34c.07.19-.03.39-.22.46Z"></path><line class="cls-7" x1="152.33" y1="171.13" x2="152.68" y2="172.1"></line><path class="cls-7" d="m153.38,174.12h0c-.19.07-.39-.03-.46-.22l-.12-.34c-.07-.19.03-.39.22-.46h0c.19-.07.39.03.46.22l.12.34c.07.19-.03.39-.22.46Z"></path><line class="cls-7" x1="152.81" y1="172.49" x2="153.16" y2="173.47"></line><path class="cls-7" d="m153.86,175.48h0c-.19.07-.39-.03-.46-.22l-.12-.34c-.07-.19.03-.39.22-.46h0c.19-.07.39.03.46.22l.12.34c.07.19-.03.39-.22.46Z"></path><line class="cls-7" x1="153.29" y1="173.86" x2="153.64" y2="174.84"></line><path class="cls-7" d="m154.35,176.85h0c-.19.07-.39-.03-.46-.22l-.12-.34c-.07-.19.03-.39.22-.46h0c.19-.07.39.03.46.22l.12.34c.07.19-.03.39-.22.46Z"></path><line class="cls-7" x1="153.77" y1="175.22" x2="154.12" y2="176.2"></line></g><g><path class="cls-7" d="m146.74,159.08h0c.19.07.39-.03.46-.22l.12-.34c.07-.19-.03-.39-.22-.46h0c-.19-.07-.39.03-.46.22l-.12.34c-.07.19.03.39.22.46Z"></path><line class="cls-7" x1="147.32" y1="157.46" x2="146.97" y2="158.44"></line><path class="cls-7" d="m146.25,160.45h0c.19.07.39-.03.46-.22l.12-.34c.07-.19-.03-.39-.22-.46h0c-.19-.07-.39.03-.46.22l-.12.34c-.07.19.03.39.22.46Z"></path><line class="cls-7" x1="146.83" y1="158.82" x2="146.48" y2="159.8"></line><path class="cls-7" d="m145.77,161.81h0c.19.07.39-.03.46-.22l.12-.34c.07-.19-.03-.39-.22-.46h0c-.19-.07-.39.03-.46.22l-.12.34c-.07.19.03.39.22.46Z"></path><line class="cls-7" x1="146.35" y1="160.19" x2="146" y2="161.16"></line><path class="cls-7" d="m145.28,163.17h0c.19.07.39-.03.46-.22l.12-.34c.07-.19-.03-.39-.22-.46h0c-.19-.07-.39.03-.46.22l-.12.34c-.07.19.03.39.22.46Z"></path><line class="cls-7" x1="145.86" y1="161.55" x2="145.51" y2="162.53"></line><path class="cls-7" d="m144.8,164.54h0c.19.07.39-.03.46-.22l.12-.34c.07-.19-.03-.39-.22-.46h0c-.19-.07-.39.03-.46.22l-.12.34c-.07.19.03.39.22.46Z"></path><line class="cls-7" x1="145.38" y1="162.92" x2="145.03" y2="163.89"></line><path class="cls-7" d="m144.31,165.9h0c.19.07.39-.03.46-.22l.12-.34c.07-.19-.03-.39-.22-.46h0c-.19-.07-.39.03-.46.22l-.12.34c-.07.19.03.39.22.46Z"></path><line class="cls-7" x1="144.89" y1="164.28" x2="144.54" y2="165.26"></line><path class="cls-7" d="m143.83,167.26h0c.19.07.39-.03.46-.22l.12-.34c.07-.19-.03-.39-.22-.46h0c-.19-.07-.39.03-.46.22l-.12.34c-.07.19.03.39.22.46Z"></path><line class="cls-7" x1="144.41" y1="165.64" x2="144.06" y2="166.62"></line><path class="cls-7" d="m143.34,168.63h0c.19.07.39-.03.46-.22l.12-.34c.07-.19-.03-.39-.22-.46h0c-.19-.07-.39.03-.46.22l-.12.34c-.07.19.03.39.22.46Z"></path><line class="cls-7" x1="143.92" y1="167.01" x2="143.57" y2="167.98"></line><path class="cls-7" d="m142.86,169.99h0c.19.07.39-.03.46-.22l.12-.34c.07-.19-.03-.39-.22-.46h0c-.19-.07-.39.03-.46.22l-.12.34c-.07.19.03.39.22.46Z"></path><line class="cls-7" x1="143.43" y1="168.37" x2="143.09" y2="169.35"></line><path class="cls-7" d="m142.37,171.36h0c.19.07.39-.03.46-.22l.12-.34c.07-.19-.03-.39-.22-.46h0c-.19-.07-.39.03-.46.22l-.12.34c-.07.19.03.39.22.46Z"></path><line class="cls-7" x1="142.95" y1="169.73" x2="142.6" y2="170.71"></line><path class="cls-7" d="m141.89,172.72h0c.19.07.39-.03.46-.22l.12-.34c.07-.19-.03-.39-.22-.46h0c-.19-.07-.39.03-.46.22l-.12.34c-.07.19.03.39.22.46Z"></path><line class="cls-7" x1="142.46" y1="171.1" x2="142.12" y2="172.08"></line><path class="cls-7" d="m141.4,174.08h0c.19.07.39-.03.46-.22l.12-.34c.07-.19-.03-.39-.22-.46h0c-.19-.07-.39.03-.46.22l-.12.34c-.07.19.03.39.22.46Z"></path><line class="cls-7" x1="141.98" y1="172.46" x2="141.63" y2="173.44"></line><path class="cls-7" d="m140.92,175.45h0c.19.07.39-.03.46-.22l.12-.34c.07-.19-.03-.39-.22-.46h0c-.19-.07-.39.03-.46.22l-.12.34c-.07.19.03.39.22.46Z"></path><line class="cls-7" x1="141.49" y1="173.83" x2="141.15" y2="174.8"></line><path class="cls-7" d="m140.43,176.81h0c.19.07.39-.03.46-.22l.12-.34c.07-.19-.03-.39-.22-.46h0c-.19-.07-.39.03-.46.22l-.12.34c-.07.19.03.39.22.46Z"></path><line class="cls-7" x1="141.01" y1="175.19" x2="140.66" y2="176.17"></line></g><g><path class="cls-7" d="m147.28,159.24h0c.2,0,.36-.15.36-.35v-.36c0-.2-.15-.36-.35-.36h0c-.2,0-.36.15-.36.35v.36c0,.2.15.36.35.36Z"></path><line class="cls-7" x1="147.31" y1="157.52" x2="147.29" y2="158.55"></line><path class="cls-7" d="m147.26,160.68h0c.2,0,.36-.15.36-.35v-.36c0-.2-.15-.36-.35-.36h0c-.2,0-.36.15-.36.35v.36c0,.2.15.36.35.36Z"></path><line class="cls-7" x1="147.29" y1="158.96" x2="147.27" y2="160"></line><path class="cls-7" d="m147.24,162.13h0c.2,0,.36-.15.36-.35v-.36c0-.2-.15-.36-.35-.36h0c-.2,0-.36.16-.36.35v.36c0,.2.15.36.35.36Z"></path><line class="cls-7" x1="147.27" y1="160.41" x2="147.25" y2="161.45"></line><path class="cls-7" d="m147.22,163.58h0c.2,0,.36-.15.36-.35v-.36c0-.2-.15-.36-.35-.36h0c-.2,0-.36.15-.36.35v.36c0,.2.15.36.35.36Z"></path><line class="cls-7" x1="147.24" y1="161.86" x2="147.23" y2="162.9"></line><path class="cls-7" d="m147.2,165.03h0c.2,0,.36-.15.36-.35v-.36c0-.2-.15-.36-.35-.36h0c-.2,0-.36.15-.36.35v.36c0,.2.15.36.35.36Z"></path><line class="cls-7" x1="147.22" y1="163.31" x2="147.21" y2="164.34"></line><path class="cls-7" d="m147.18,166.47h0c.2,0,.36-.15.36-.35v-.36c0-.2-.15-.36-.35-.36h0c-.2,0-.36.15-.36.35v.36c0,.2.15.36.35.36Z"></path><line class="cls-7" x1="147.2" y1="164.75" x2="147.19" y2="165.79"></line><path class="cls-7" d="m147.16,167.92h0c.2,0,.36-.15.36-.35v-.36c0-.2-.15-.36-.35-.36h0c-.2,0-.36.15-.36.35v.36c0,.2.15.36.35.36Z"></path><line class="cls-7" x1="147.18" y1="166.2" x2="147.17" y2="167.24"></line><path class="cls-7" d="m147.14,169.37h0c.2,0,.36-.16.36-.35v-.36c0-.2-.15-.36-.35-.36h0c-.2,0-.36.15-.36.35v.36c0,.2.15.36.35.36Z"></path><line class="cls-7" x1="147.16" y1="167.65" x2="147.15" y2="168.69"></line><path class="cls-7" d="m147.11,170.82h0c.2,0,.36-.15.36-.35v-.36c0-.2-.15-.36-.35-.36h0c-.2,0-.36.15-.36.35v.36c0,.2.15.36.35.36Z"></path><line class="cls-7" x1="147.14" y1="169.1" x2="147.12" y2="170.13"></line><path class="cls-7" d="m147.09,172.26h0c.2,0,.36-.15.36-.35v-.36c0-.2-.15-.36-.35-.36h0c-.2,0-.36.15-.36.35v.36c0,.2.15.36.35.36Z"></path><line class="cls-7" x1="147.12" y1="170.54" x2="147.1" y2="171.58"></line><path class="cls-7" d="m147.07,173.71h0c.2,0,.36-.15.36-.35v-.36c0-.2-.15-.36-.35-.36h0c-.2,0-.36.15-.36.35v.36c0,.2.15.36.35.36Z"></path><line class="cls-7" x1="147.1" y1="171.99" x2="147.08" y2="173.03"></line><path class="cls-7" d="m147.05,175.16h0c.2,0,.36-.15.36-.35v-.36c0-.2-.15-.36-.35-.36h0c-.2,0-.36.15-.36.35v.36c0,.2.15.36.35.36Z"></path><line class="cls-7" x1="147.08" y1="173.44" x2="147.06" y2="174.47"></line><path class="cls-7" d="m147.03,176.61h0c.2,0,.36-.15.36-.35v-.36c0-.2-.15-.36-.35-.36h0c-.2,0-.36.15-.36.35v.36c0,.2.15.36.35.36Z"></path><line class="cls-7" x1="147.05" y1="174.89" x2="147.04" y2="175.92"></line><path class="cls-7" d="m147.01,178.05h0c.2,0,.36-.15.36-.35v-.36c0-.2-.15-.36-.35-.36h0c-.2,0-.36.15-.36.35v.36c0,.2.15.36.35.36Z"></path><line class="cls-7" x1="147.03" y1="176.33" x2="147.02" y2="177.37"></line></g><path class="cls-6" d="m147.55,178.75c4.16,0,7.54-.94,7.72-2.12h-15.44c.18,1.18,3.56,2.12,7.72,2.12Z"></path></g><g><g><path class="cls-7" d="m184.89,159.09h0c-.19.07-.39-.03-.46-.22l-.12-.34c-.07-.19.03-.39.22-.46h0c.19-.07.39.03.46.22l.12.34c.07.19-.03.39-.22.46Z"></path><line class="cls-7" x1="184.32" y1="157.47" x2="184.66" y2="158.45"></line><path class="cls-7" d="m185.37,160.46h0c-.19.07-.39-.03-.46-.22l-.12-.34c-.07-.19.03-.39.22-.46h0c.19-.07.39.03.46.22l.12.34c.07.19-.03.39-.22.46Z"></path><line class="cls-7" x1="184.8" y1="158.84" x2="185.14" y2="159.82"></line><path class="cls-7" d="m185.85,161.83h0c-.19.07-.39-.03-.46-.22l-.12-.34c-.07-.19.03-.39.22-.46h0c.19-.07.39.03.46.22l.12.34c.07.19-.03.39-.22.46Z"></path><line class="cls-7" x1="185.28" y1="160.2" x2="185.62" y2="161.18"></line><path class="cls-7" d="m186.33,163.19h0c-.19.07-.39-.03-.46-.22l-.12-.34c-.07-.19.03-.39.22-.46h0c.19-.07.39.03.46.22l.12.34c.07.19-.03.39-.22.46Z"></path><line class="cls-7" x1="185.76" y1="161.57" x2="186.11" y2="162.55"></line><path class="cls-7" d="m186.81,164.56h0c-.19.07-.39-.03-.46-.22l-.12-.34c-.07-.19.03-.39.22-.46h0c.19-.07.39.03.46.22l.12.34c.07.19-.03.39-.22.46Z"></path><line class="cls-7" x1="186.24" y1="162.93" x2="186.59" y2="163.91"></line><path class="cls-7" d="m187.29,165.92h0c-.19.07-.39-.03-.46-.22l-.12-.34c-.07-.19.03-.39.22-.46h0c.19-.07.39.03.46.22l.12.34c.07.19-.03.39-.22.46Z"></path><line class="cls-7" x1="186.72" y1="164.3" x2="187.07" y2="165.28"></line><path class="cls-7" d="m187.77,167.29h0c-.19.07-.39-.03-.46-.22l-.12-.34c-.07-.19.03-.39.22-.46h0c.19-.07.39.03.46.22l.12.34c.07.19-.03.39-.22.46Z"></path><line class="cls-7" x1="187.2" y1="165.66" x2="187.55" y2="166.64"></line><path class="cls-7" d="m188.25,168.65h0c-.19.07-.39-.03-.46-.22l-.12-.34c-.07-.19.03-.39.22-.46h0c.19-.07.39.03.46.22l.12.34c.07.19-.03.39-.22.46Z"></path><line class="cls-7" x1="187.68" y1="167.03" x2="188.03" y2="168.01"></line><path class="cls-7" d="m188.74,170.02h0c-.19.07-.39-.03-.46-.22l-.12-.34c-.07-.19.03-.39.22-.46h0c.19-.07.39.03.46.22l.12.34c.07.19-.03.39-.22.46Z"></path><line class="cls-7" x1="188.16" y1="168.4" x2="188.51" y2="169.37"></line><path class="cls-7" d="m189.22,171.38h0c-.19.07-.39-.03-.46-.22l-.12-.34c-.07-.19.03-.39.22-.46h0c.19-.07.39.03.46.22l.12.34c.07.19-.03.39-.22.46Z"></path><line class="cls-7" x1="188.64" y1="169.76" x2="188.99" y2="170.74"></line><path class="cls-7" d="m189.7,172.75h0c-.19.07-.39-.03-.46-.22l-.12-.34c-.07-.19.03-.39.22-.46h0c.19-.07.39.03.46.22l.12.34c.07.19-.03.39-.22.46Z"></path><line class="cls-7" x1="189.12" y1="171.13" x2="189.47" y2="172.1"></line><path class="cls-7" d="m190.18,174.12h0c-.19.07-.39-.03-.46-.22l-.12-.34c-.07-.19.03-.39.22-.46h0c.19-.07.39.03.46.22l.12.34c.07.19-.03.39-.22.46Z"></path><line class="cls-7" x1="189.61" y1="172.49" x2="189.95" y2="173.47"></line><path class="cls-7" d="m190.66,175.48h0c-.19.07-.39-.03-.46-.22l-.12-.34c-.07-.19.03-.39.22-.46h0c.19-.07.39.03.46.22l.12.34c.07.19-.03.39-.22.46Z"></path><line class="cls-7" x1="190.09" y1="173.86" x2="190.43" y2="174.84"></line><path class="cls-7" d="m191.14,176.85h0c-.19.07-.39-.03-.46-.22l-.12-.34c-.07-.19.03-.39.22-.46h0c.19-.07.39.03.46.22l.12.34c.07.19-.03.39-.22.46Z"></path><line class="cls-7" x1="190.57" y1="175.22" x2="190.91" y2="176.2"></line></g><g><path class="cls-7" d="m183.53,159.08h0c.19.07.39-.03.46-.22l.12-.34c.07-.19-.03-.39-.22-.46h0c-.19-.07-.39.03-.46.22l-.12.34c-.07.19.03.39.22.46Z"></path><line class="cls-7" x1="184.11" y1="157.46" x2="183.76" y2="158.44"></line><path class="cls-7" d="m183.05,160.45h0c.19.07.39-.03.46-.22l.12-.34c.07-.19-.03-.39-.22-.46h0c-.19-.07-.39.03-.46.22l-.12.34c-.07.19.03.39.22.46Z"></path><line class="cls-7" x1="183.62" y1="158.82" x2="183.28" y2="159.8"></line><path class="cls-7" d="m182.56,161.81h0c.19.07.39-.03.46-.22l.12-.34c.07-.19-.03-.39-.22-.46h0c-.19-.07-.39.03-.46.22l-.12.34c-.07.19.03.39.22.46Z"></path><line class="cls-7" x1="183.14" y1="160.19" x2="182.79" y2="161.16"></line><path class="cls-7" d="m182.08,163.17h0c.19.07.39-.03.46-.22l.12-.34c.07-.19-.03-.39-.22-.46h0c-.19-.07-.39.03-.46.22l-.12.34c-.07.19.03.39.22.46Z"></path><line class="cls-7" x1="182.65" y1="161.55" x2="182.31" y2="162.53"></line><path class="cls-7" d="m181.59,164.54h0c.19.07.39-.03.46-.22l.12-.34c.07-.19-.03-.39-.22-.46h0c-.19-.07-.39.03-.46.22l-.12.34c-.07.19.03.39.22.46Z"></path><line class="cls-7" x1="182.17" y1="162.92" x2="181.82" y2="163.89"></line><path class="cls-7" d="m181.11,165.9h0c.19.07.39-.03.46-.22l.12-.34c.07-.19-.03-.39-.22-.46h0c-.19-.07-.39.03-.46.22l-.12.34c-.07.19.03.39.22.46Z"></path><line class="cls-7" x1="181.68" y1="164.28" x2="181.34" y2="165.26"></line><path class="cls-7" d="m180.62,167.26h0c.19.07.39-.03.46-.22l.12-.34c.07-.19-.03-.39-.22-.46h0c-.19-.07-.39.03-.46.22l-.12.34c-.07.19.03.39.22.46Z"></path><line class="cls-7" x1="181.2" y1="165.64" x2="180.85" y2="166.62"></line><path class="cls-7" d="m180.14,168.63h0c.19.07.39-.03.46-.22l.12-.34c.07-.19-.03-.39-.22-.46h0c-.19-.07-.39.03-.46.22l-.12.34c-.07.19.03.39.22.46Z"></path><line class="cls-7" x1="180.71" y1="167.01" x2="180.37" y2="167.98"></line><path class="cls-7" d="m179.65,169.99h0c.19.07.39-.03.46-.22l.12-.34c.07-.19-.03-.39-.22-.46h0c-.19-.07-.39.03-.46.22l-.12.34c-.07.19.03.39.22.46Z"></path><line class="cls-7" x1="180.23" y1="168.37" x2="179.88" y2="169.35"></line><path class="cls-7" d="m179.17,171.36h0c.19.07.39-.03.46-.22l.12-.34c.07-.19-.03-.39-.22-.46h0c-.19-.07-.39.03-.46.22l-.12.34c-.07.19.03.39.22.46Z"></path><line class="cls-7" x1="179.74" y1="169.73" x2="179.39" y2="170.71"></line><path class="cls-7" d="m178.68,172.72h0c.19.07.39-.03.46-.22l.12-.34c.07-.19-.03-.39-.22-.46h0c-.19-.07-.39.03-.46.22l-.12.34c-.07.19.03.39.22.46Z"></path><line class="cls-7" x1="179.26" y1="171.1" x2="178.91" y2="172.08"></line><path class="cls-7" d="m178.19,174.08h0c.19.07.39-.03.46-.22l.12-.34c.07-.19-.03-.39-.22-.46h0c-.19-.07-.39.03-.46.22l-.12.34c-.07.19.03.39.22.46Z"></path><line class="cls-7" x1="178.77" y1="172.46" x2="178.42" y2="173.44"></line><path class="cls-7" d="m177.71,175.45h0c.19.07.39-.03.46-.22l.12-.34c.07-.19-.03-.39-.22-.46h0c-.19-.07-.39.03-.46.22l-.12.34c-.07.19.03.39.22.46Z"></path><line class="cls-7" x1="178.29" y1="173.83" x2="177.94" y2="174.8"></line><path class="cls-7" d="m177.22,176.81h0c.19.07.39-.03.46-.22l.12-.34c.07-.19-.03-.39-.22-.46h0c-.19-.07-.39.03-.46.22l-.12.34c-.07.19.03.39.22.46Z"></path><line class="cls-7" x1="177.8" y1="175.19" x2="177.45" y2="176.17"></line></g><g><path class="cls-7" d="m184.08,159.24h0c.2,0,.36-.15.36-.35v-.36c0-.2-.15-.36-.35-.36h0c-.2,0-.36.15-.36.35v.36c0,.2.15.36.35.36Z"></path><line class="cls-7" x1="184.1" y1="157.52" x2="184.09" y2="158.55"></line><path class="cls-7" d="m184.05,160.68h0c.2,0,.36-.15.36-.35v-.36c0-.2-.15-.36-.35-.36h0c-.2,0-.36.15-.36.35v.36c0,.2.15.36.35.36Z"></path><line class="cls-7" x1="184.08" y1="158.96" x2="184.06" y2="160"></line><path class="cls-7" d="m184.03,162.13h0c.2,0,.36-.15.36-.35v-.36c0-.2-.15-.36-.35-.36h0c-.2,0-.36.16-.36.35v.36c0,.2.15.36.35.36Z"></path><line class="cls-7" x1="184.06" y1="160.41" x2="184.04" y2="161.45"></line><path class="cls-7" d="m184.01,163.58h0c.2,0,.36-.15.36-.35v-.36c0-.2-.15-.36-.35-.36h0c-.2,0-.36.15-.36.35v.36c0,.2.15.36.35.36Z"></path><line class="cls-7" x1="184.04" y1="161.86" x2="184.02" y2="162.9"></line><path class="cls-7" d="m183.99,165.03h0c.2,0,.36-.15.36-.35v-.36c0-.2-.15-.36-.35-.36h0c-.2,0-.36.15-.36.35v.36c0,.2.15.36.35.36Z"></path><line class="cls-7" x1="184.02" y1="163.31" x2="184" y2="164.34"></line><path class="cls-7" d="m183.97,166.47h0c.2,0,.36-.15.36-.35v-.36c0-.2-.15-.36-.35-.36h0c-.2,0-.36.15-.36.35v.36c0,.2.15.36.35.36Z"></path><line class="cls-7" x1="184" y1="164.75" x2="183.98" y2="165.79"></line><path class="cls-7" d="m183.95,167.92h0c.2,0,.36-.15.36-.35v-.36c0-.2-.15-.36-.35-.36h0c-.2,0-.36.15-.36.35v.36c0,.2.15.36.35.36Z"></path><line class="cls-7" x1="183.97" y1="166.2" x2="183.96" y2="167.24"></line><path class="cls-7" d="m183.93,169.37h0c.2,0,.36-.16.36-.35v-.36c0-.2-.15-.36-.35-.36h0c-.2,0-.36.15-.36.35v.36c0,.2.15.36.35.36Z"></path><line class="cls-7" x1="183.95" y1="167.65" x2="183.94" y2="168.69"></line><path class="cls-7" d="m183.91,170.82h0c.2,0,.36-.15.36-.35v-.36c0-.2-.15-.36-.35-.36h0c-.2,0-.36.15-.36.35v.36c0,.2.15.36.35.36Z"></path><line class="cls-7" x1="183.93" y1="169.1" x2="183.92" y2="170.13"></line><path class="cls-7" d="m183.89,172.26h0c.2,0,.36-.15.36-.35v-.36c0-.2-.15-.36-.35-.36h0c-.2,0-.36.15-.36.35v.36c0,.2.15.36.35.36Z"></path><line class="cls-7" x1="183.91" y1="170.54" x2="183.9" y2="171.58"></line><path class="cls-7" d="m183.86,173.71h0c.2,0,.36-.15.36-.35v-.36c0-.2-.15-.36-.35-.36h0c-.2,0-.36.15-.36.35v.36c0,.2.15.36.35.36Z"></path><line class="cls-7" x1="183.89" y1="171.99" x2="183.87" y2="173.03"></line><path class="cls-7" d="m183.84,175.16h0c.2,0,.36-.15.36-.35v-.36c0-.2-.15-.36-.35-.36h0c-.2,0-.36.15-.36.35v.36c0,.2.15.36.35.36Z"></path><line class="cls-7" x1="183.87" y1="173.44" x2="183.85" y2="174.47"></line><path class="cls-7" d="m183.82,176.61h0c.2,0,.36-.15.36-.35v-.36c0-.2-.15-.36-.35-.36h0c-.2,0-.36.15-.36.35v.36c0,.2.15.36.35.36Z"></path><line class="cls-7" x1="183.85" y1="174.89" x2="183.83" y2="175.92"></line><path class="cls-7" d="m183.8,178.05h0c.2,0,.36-.15.36-.35v-.36c0-.2-.15-.36-.35-.36h0c-.2,0-.36.15-.36.35v.36c0,.2.15.36.35.36Z"></path><line class="cls-7" x1="183.83" y1="176.33" x2="183.81" y2="177.37"></line></g><path class="cls-6" d="m184.34,178.75c4.16,0,7.54-.94,7.72-2.12h-15.44c.18,1.18,3.56,2.12,7.72,2.12Z"></path></g><rect class="cls-10" x="158.32" y="193.99" width="14.12" height="1.75"></rect><rect class="cls-10" x="148.48" y="195.45" width="34.48" height="2.44"></rect></g><g><path class="cls-11" d="m247.47,260.34h12.22v88.04s-.02.04-.04.04h-12.15s-.04-.02-.04-.04v-88.04h0Z" transform="translate(507.16 608.76) rotate(180)"></path><rect class="cls-11" x="244.22" y="319.02" width="18.73" height="29.4" transform="translate(507.16 667.44) rotate(180)"></rect><path class="cls-11" d="m266.09,216.21h15.64s.04.02.04.04v33.62h-15.71v-33.62s.02-.04.04-.04Z" transform="translate(547.82 466.08) rotate(180)"></path><path class="cls-11" d="m242.98,216.23h61.17c6.03,0,10.87-4.96,10.72-10.99l-1.48-59.72c-.14-5.82-4.9-10.46-10.72-10.46h-50.51c-5.29,0-9.8,3.86-10.6,9.1l-9.18,59.72c-1,6.5,4.03,12.35,10.6,12.35Z"></path><line class="cls-8" x1="262.96" y1="262.53" x2="289.8" y2="280.2"></line><path class="cls-11" d="m290.82,277.53l4.57,3.08c1.57,1.06,1.78,3.3.42,4.62l-.32.31c-1.09,1.07-2.82,1.14-4,.17l-4.2-3.46c-1.33-1.1-1.44-3.09-.24-4.33h0c.99-1.03,2.58-1.19,3.77-.39Z"></path><path class="cls-11" d="m203.83,265.58h99.5c5.3,0,9.6-4.3,9.6-9.6h0c0-5.3-4.3-9.6-9.6-9.6h-99.5c-5.3,0-9.6,4.3-9.6,9.6h0c0,5.3,4.3,9.6,9.6,9.6Z"></path><path class="cls-11" d="m194.3,254.81c.58-4.9,5-8.44,9.93-8.44h51.56c4.93,0,9.36,3.54,9.94,8.44.69,5.82-3.85,10.77-9.53,10.77h-52.37c-5.69,0-10.22-4.94-9.53-10.77Z"></path></g><g><rect class="cls-4" x="116.94" y="203.24" width="298.86" height="157.48"></rect><rect class="cls-11" x="116.94" y="203.24" width="298.86" height="8.5"></rect><rect class="cls-4" x="110.9" y="197.89" width="310.94" height="9.45"></rect></g><g><path class="cls-11" d="m52.14,189.06s-1.45,62.28-1.45,64.7-2.9,42.02-1.93,53.13.48,38.16.48,38.16l1.11,8.83s4.68-3.04,6.61-3.04,15.94,5.31,15.94,5.31c0,0,3.86-12.56,4.35-17.39.48-4.83-1.45-18.35-1.45-18.35l14.97-97.09s.87,92.72.87,100.45c0,6.75-.45,13.62.95,20.45.26,1.25,2.01,5.54,1.38,6.49-.63.95.4,2.13,1.43,1.62l10.35-2.94,10.33.86s2.38-7.24,3.35-9.17c.97-1.93-3.06-14.39-3.06-14.39,0,0,6.76-54.1,6.76-70.52s-3.38-69.05-3.38-69.05l-67.62,1.93Z"></path><polygon class="cls-12" points="120.59 73.88 127.05 116.47 135.53 127.41 117.75 134.66 119.39 104.44 120.59 73.88"></polygon><path class="cls-5" d="m142.03,143.05l2.14,9.16-5.56.43s-2.23-2.05-2.14-4.02c.09-1.97.26-2.65.26-2.65l5.31-2.91Z"></path><polygon class="cls-5" points="144.17 152.2 146.31 146.9 142.03 143.05 144.17 152.2"></polygon><path class="cls-12" d="m137.84,145.19s0,1.97.26,3.77c.26,1.8,1.2,3.51,1.2,3.51l2.31-.09s-1.63,1.8-1.8,2.4c-.17.6-.86,2.14-.86,2.14,0,0-2.4-.34-8.82-3.34-6.42-3-7.02-3.42-7.02-3.42l14.72-4.96Z"></path><path class="cls-12" d="m68.03,58.79l-30.82,17.08,14.89,75.44-7.77,52.22s10.77,6.26,23.27,9.24c12.51,2.98,29.58.6,31.56-1.59,1.99-2.18,3.57-7.15,3.57-7.15l1.19,6.15s10.64,2.66,16.4-1.51,5.77-7.41,5.77-7.41l-8.48-61.27,2.98-66.11-23.82-13.1-28.74-1.99Z"></path><path class="cls-8" d="m59.85,176.8s7.68,2.99,13.02,3.41c5.33.43,8.11.43,8.11.43l-.43,5.76s-3.63.64-9.81-.21c-6.19-.85-11.52-2.99-11.52-2.99"></path><path class="cls-8" d="m121.51,174.03s-2.99,1.92-4.69,2.35-4.05.43-4.05.43l.85,6.4s5.76-1.07,8.75-3.63"></path><path class="cls-5" d="m71.89,44.91l-.51,9.38s6.81,7.32,11.18,10.15c4.37,2.83,7.97,3.08,8.74,2.18.77-.9,3.73-8.35,3.73-8.35l-.39-8.61-22.74-4.75Z"></path><polygon class="cls-11" points="87.99 56.5 92.57 62.26 95.01 58.27 95.23 54.28 87.99 56.5"></polygon><path class="cls-5" d="m70.47,52.36l-2.44,6.42,32.38,49.98s-.26-28.27-.77-35.46c-.36-5.03-1.54-10.38-2.21-13.14-.27-1.11-1.27-1.89-2.41-1.89h0s-3.47,5.91-4.75,7.07c-1.28,1.16-19.79-12.98-19.79-12.98Z"></path><path class="cls-5" d="m81.91,79.22s7.32-11.82,8.61-11.69c1.28.13,8.09,6.42,8.09,6.42"></path><polygon class="cls-11" points="85.25 73.69 89.36 80.24 88.2 90.01 100.41 108.77 99.9 86.67 96.43 79.34 95.91 71.76 90.52 67.52 85.25 73.69"></polygon><polygon class="cls-5" points="147.54 125.24 90.32 109.93 62.15 150.09 98.13 123.22 147.54 125.24"></polygon><path class="cls-5" d="m156.82,133.22s-1.16-1.49-1.58-2.49.08-2.32-1-2.16c-1.08.17-4.23,3.4-3.74,4.4l1.41,2.82,4.9-2.57Z"></path><path class="cls-5" d="m147.54,125.24s-1.01-3.18.58-4.19c1.59-1.01,12.57-.58,12.57-.58l-11.7,7.08-1.44-2.31Z"></path><polygon class="cls-11" points="95.09 116.28 62.44 148.79 110.55 166.56 147.54 125.24 95.09 116.28"></polygon><path class="cls-11" d="m147.54,125.24s4.33-4.48,7.22-4.33c2.89.14,5.92-.43,5.92-.43,0,0-10.69,16.76-16.33,22.39-5.63,5.63-25.14,13.15-25.14,13.15l28.32-30.77Z"></path><g><path class="cls-5" d="m94.95,143.59l2.6-4.62s3.9-2.46,5.06-4.91,1.73-5.2,3.18-4.19c1.44,1.01,1.73,3.03,1.16,5.35s-2.75,8.24-2.75,8.24l13-.87s5.49-1.59,8.52-3.76c3.03-2.17,5.78-4.05,6.07-2.17.29,1.88-2.46,4.91-2.46,4.91l-8.24,5.2-2.6,2.02s2.02-.58,4.05-1.01c2.02-.43,8.09-3.18,8.09-3.18,0,0,5.06-4.19,3.76-.72-1.3,3.47-4.62,5.35-5.63,6.5-1.01,1.16-2.02,3.76-5.49,6.5s-10.84,2.75-13.58,3.47c-2.75.72-6.36,1.3-6.36,1.3l-8.96,1.88s-3.18-3.76-3.18-9.25,1.16-8.52,1.16-8.52l2.6-2.17Z"></path><path class="cls-5" d="m128.76,150.38s-3.03,1.88-4.19,2.31c-1.16.43-7.08.72-7.08.72"></path><path class="cls-5" d="m124.86,155.58s-4.19,1.16-6.65,1.3"></path></g><path class="cls-5" d="m92.35,145.76l-7.66.43s-2.31,3.18-2.31,9.54,2.46,10.84,2.46,10.84l10.98-1.01-1.88-3.47s-3.32-7.37-1.59-16.33Z"></path><path class="cls-12" d="m53.05,87.82c-1.88-6.65-14.74-11.12-15.83-11.95-1.1-.83-3.96,5.88-3.09,18.45.87,12.57,2.46,59.67,3.18,61.55.72,1.88,3.32,4.77,9.68,6.79,6.36,2.02,39.88,8.81,39.88,8.81l-.87-2.89c-2.31-6.21-1.3-22.39-1.3-22.39l-25.28-8.09-1.16-39.15"></path><path class="cls-8" d="m41.06,140.56s1.3-3.61,6.07-3.32c4.77.29,8.52.72,8.52.72"></path><path class="cls-8" d="m57.09,135.21s-5.35-1.59-9.54,0"></path><g><path class="cls-5" d="m156.82,133.22s-10.54,2.74-11.29,3.15c-.75.42-1.33,1.83-.75,2.57.58.75,1.49.75,1.49.75,0,0-3.98.42-5.98,1s-2.16,1.33-1.74,2.24c.42.91,3.24,1.08,3.24,1.08,0,0-.5.83.91,2.08,1.41,1.25,6.81,2.74,9.71,1.49,2.91-1.25,3.82-4.32,3.82-4.32,0,0,.75-.33,1-2.08.25-1.74-.17-2.74-.17-2.74,0,0,1.58-1.58,1-3.07s-1.25-2.16-1.25-2.16Z"></path><path class="cls-5" d="m146.27,139.7s7.89.33,10.79-1.25"></path><path class="cls-8" d="m141.79,144.01s7.39,1.83,14.44-.75"></path></g><path class="cls-8" d="m89.79,99.75c3.06,4.17,5.54,7.98,5.54,7.98"></path><path class="cls-8" d="m64.12,63.77l-.44,8.57,8.13,2.86-4.62,4.62s9.45,6.59,14.29,10.33c1.71,1.32,3.94,3.91,6.11,6.7"></path><path class="cls-8" d="m109.93,87.3c-.84,4.69-2,10.47-3.17,13.84-2.2,6.37-3.3,8.35-3.3,8.35"></path><path class="cls-8" d="m107.42,69.27l1.1,4.4-4.18,1.1,6.81,5.06s-.29,1.98-.77,4.8"></path><g><path class="cls-11" d="m68.03,28.21s.39-6.55-.77-10.28c-1.16-3.73-.39-10.54,4.24-12.08,4.63-1.54,5.14-6.94,15.29-5.14,10.15,1.8,14.13,7.71,14.13,7.71,0,0,2.57-.13,3.73,2.44,1.16,2.57.39,4.63.39,4.63,0,0,2.06.39,1.16,3.21s-4.75,3.85-4.75,3.85c0,0-.51-6.94-4.37-7.2-3.85-.26-8.35,1.67-11.82,1.03-3.47-.64-7.97-4.24-9.76-2.31-1.8,1.93.13,3.85.26,5.91.13,2.06-1.67,3.47-2.06,5.27-.39,1.8.51,5.14.26,5.91-.26.77-1.54,2.83-3.85,1.8-2.31-1.03-2.06-4.75-2.06-4.75Z"></path><path class="cls-5" d="m69.45,30.14s-3.08-4.5-4.5-2.06c-1.41,2.44-.26,7.71,1.28,9.25s4.11,1.03,4.11,1.03c0,0-.13,4.63,1.16,7.58,1.28,2.96,6.94,8.99,11.69,10.66,4.75,1.67,11.56-1.28,11.56-1.28,0,0,4.5-10.79,5.14-13.36.64-2.57,2.06-14.39,2.06-15.93s-.39-8.48-1.41-10.28c-1.03-1.8-2.18-4.63-5.65-3.85-3.47.77-4.5,2.96-9.89,1.8-2.26-.49-8.35-4.24-11.18-1.93-2.83,2.31-3.21,6.94-2.06,8.74,1.16,1.8,1.93,1.16.51,3.08-1.41,1.93-1.54,4.5-1.41,5.52.13,1.03-.26,3.08-1.41,1.03Z"></path><path class="cls-8" d="m90.9,30.78s1.03,8.87.64,9.89c-.39,1.03-3.6.64-4.88.51-1.28-.13-1.8-1.93-1.8-1.93"></path><path class="cls-8" d="m82.42,45.68s5.4,2.96,10.92.13"></path><path class="cls-8" d="m91.93,28.47s5.14-2.44,7.45-.77"></path><path class="cls-8" d="m85.51,27.69s-6.81-2.31-10.02-.51"></path><path class="cls-13" d="m82.55,30.14c0,.78-.58,1.41-1.28,1.41s-1.28-.63-1.28-1.41.58-1.41,1.28-1.41,1.28.63,1.28,1.41Z"></path><ellipse class="cls-13" cx="95.01" cy="30.91" rx="1.28" ry="1.41"></ellipse></g><line class="cls-8" x1="103.12" y1="195.19" x2="103.42" y2="198.97"></line><line class="cls-8" x1="100.98" y1="168.15" x2="102.79" y2="191.09"></line></g></g></g></g></svg>