<svg xmlns="http://www.w3.org/2000/svg" xmlns:xlink="http://www.w3.org/1999/xlink" id="Layer_2" data-name="Layer 2" viewBox="0 0 519.99 368.68"><defs><style> .cls-1, .cls-2, .cls-3, .cls-4, .cls-5, .cls-6, .cls-7, .cls-8 { stroke-linecap: round; stroke-linejoin: round; } .cls-1, .cls-3, .cls-4, .cls-6, .cls-7, .cls-8 { stroke: #263238; } .cls-1, .cls-4 { stroke-width: 3px; } .cls-1, .cls-5, .cls-9, .cls-7, .cls-8 { fill: none; } .cls-2, .cls-5 { stroke: #000; } .cls-3 { fill: #ffbe9d; } .cls-4, .cls-6 { fill: #fff; } .cls-10 { opacity: .7; } .cls-10, .cls-11 { fill: #ebebeb; } .cls-12 { opacity: .3; } .cls-13 { clip-path: url(#clippath); } .cls-14 { fill: #9bc675; } .cls-7 { stroke-width: 2px; } .cls-15 { fill: #ababab; } .cls-16 { fill: #263238; } </style><clipPath id="clippath"><rect class="cls-9" width="519.99" height="368.68"></rect></clipPath></defs><g id="Starts"><g class="cls-13"><g><g><path class="cls-11" d="m434.61,217.46c-10.95,33.19-34.54,69.56-69.25,81.4-52.45,17.9-57.14,60.91-152.33,60.62-14.84-.04-28.62-1.6-41.33-4.44-6.83-1.53-13.36-3.43-19.57-5.68-56.39-20.34-87.27-68.72-91.67-120.42-5.81-67.99,40.46-102.29,70.62-122.5,30.15-20.2,64.53-95.3,158.12-95.75,14.27-.06,28.56,1.34,42.48,4.54,31.78,7.3,64.47,24.89,84.11,51.69,1.47,2.01,2.89,4.08,4.24,6.18,26.49,41.22,29.51,99.11,14.58,144.35Z"></path><path class="cls-10" d="m434.61,217.46c-10.95,33.19-34.54,69.56-69.25,81.4-52.45,17.9-57.14,60.91-152.33,60.62-14.84-.04-28.62-1.6-41.33-4.44-6.83-1.53-13.36-3.43-19.57-5.68-56.39-20.34-87.27-68.72-91.67-120.42-5.81-67.99,40.46-102.29,70.62-122.5,30.15-20.2,64.53-95.3,158.12-95.75,14.27-.06,28.56,1.34,42.48,4.54,31.78,7.3,64.47,24.89,84.11,51.69,1.47,2.01,2.89,4.08,4.24,6.18,26.49,41.22,29.51,99.11,14.58,144.35Z"></path></g><g class="cls-12"><g><rect class="cls-5" x="73.41" y="-22.36" width="266.56" height="194.49"></rect><g><rect class="cls-5" x="83.28" y="-15.45" width="114.52" height="180.67"></rect><rect class="cls-5" x="214.58" y="-15.45" width="115.51" height="180.67"></rect></g><line class="cls-5" x1="205.7" y1="-20.39" x2="205.7" y2="170.15"></line></g><path class="cls-2" d="m202.11,102.87h0c-.9,0-1.62-.73-1.62-1.62v-19.45c0-.9.73-1.62,1.62-1.62h0c.9,0,1.62.73,1.62,1.62v19.45c0,.9-.73,1.62-1.62,1.62Z"></path><path class="cls-2" d="m209.98,102.87h0c-.9,0-1.62-.73-1.62-1.62v-19.45c0-.9.73-1.62,1.62-1.62h0c.9,0,1.62.73,1.62,1.62v19.45c0,.9-.73,1.62-1.62,1.62Z"></path></g><g><g><rect class="cls-6" x="358.19" y="44.46" width="3.4" height="318.56" transform="translate(719.79 407.48) rotate(180)"></rect><g><rect class="cls-6" x="340.8" y="362.9" width="38.49" height="2.21" transform="translate(720.09 728.01) rotate(180)"></rect><path class="cls-16" d="m340.22,367.77c0-1.51,1.22-2.73,2.73-2.73s2.73,1.22,2.73,2.73-1.22,2.73-2.73,2.73-2.73-1.22-2.73-2.73Z"></path><circle class="cls-16" cx="376.93" cy="367.77" r="2.73"></circle></g></g><path class="cls-1" d="m391.04,45.14v.85c0,2.97-2.41,5.38-5.38,5.38h-1.13c-2.97,0-5.38-2.41-5.38-5.38v-.85h-39.08v1.42c0,2.97-2.41,5.38-5.38,5.38h0c-2.97,0-5.38-2.41-5.38-5.38v-.85"></path><line class="cls-7" x1="333.94" y1="98.59" x2="333.94" y2="218.22"></line><g><g><path class="cls-6" d="m330.86,49.86c1.46-1.37,3.73-1.41,5.23-.09,1.8,1.59,4.11,3.62,5.54,4.87,2.62,2.3,3.94,3.28,3.94,3.28h-23.28l8.57-8.07Z"></path><path class="cls-6" d="m327.1,57.93h13.63c2.67,0,4.84,2.17,4.84,4.84v28.28h-23.31v-28.28c0-2.67,2.17-4.84,4.84-4.84Z" transform="translate(667.83 148.98) rotate(180)"></path><path class="cls-14" d="m328.21,72.46h11.41c2.67,0,4.84,2.17,4.84,4.84v12.17h-21.09v-12.17c0-2.67,2.17-4.84,4.84-4.84Z" transform="translate(667.83 161.94) rotate(180)"></path><rect class="cls-14" x="332.43" y="91.15" width="2.97" height="7.22" transform="translate(667.83 189.53) rotate(180)"></rect><rect class="cls-6" x="324.82" y="60.33" width="18.06" height="26.68" transform="translate(667.71 147.34) rotate(180)"></rect></g><path class="cls-4" d="m332.66,51.53c-1.96-.8-3.34-2.73-3.34-4.98v-.85"></path></g></g><g><g><path class="cls-16" d="m90.02,255.68h0s0-.1-.05-.12c-.04-.02-.1,0-.12.05-2.66,6.14-4.53,12.58-6.09,19.08-1.51,6.52-2.6,13.13-3.36,19.79l-.48,5c-.07.83-.16,1.67-.22,2.5l-.14,2.51c-.07,1.67-.17,3.35-.22,5.02l.05,5.03.06,2.51c.04.84.1,1.67.15,2.51.13,1.67.23,3.34.38,5.01.32,3.33.82,6.65,1.34,9.94,0,.04.04.07.09.07.05,0,.09-.04.09-.09h0c0-1.68-.08-3.35-.12-5.01-.05-1.67-.19-3.32-.17-4.99,0-1.67-.04-3.33-.05-4.99l-.05-2.49.04-2.49.02-4.98.13-4.98.05-2.49c.03-.83.09-1.66.14-2.49l.31-4.97c.58-6.62,1.49-13.21,2.82-19.73,1.32-6.51,2.96-13,5.39-19.2Z"></path><path class="cls-16" d="m90.73,281.72s-.01-.09-.05-.11c-.05-.02-.1,0-.11.05-1.43,4.14-2.58,8.37-3.54,12.65-.92,4.28-1.65,8.62-2.09,13-.44,4.36-.93,8.72-.99,13.1-.07,4.38,0,8.76.47,13.14,0,.04.04.07.08.08.05,0,.09-.03.1-.08.51-4.36.82-8.71,1.12-13.06.31-4.35.35-8.71.63-13.06.26-4.34.81-8.66,1.55-12.95.73-4.29,1.64-8.57,2.85-12.76Z"></path><path class="cls-16" d="m105.17,290.88s-.08-.05-.12-.03c-3.61,2.29-6.84,5.17-9.65,8.42-1.38,1.65-2.67,3.37-3.77,5.25l-.78,1.46-.61,1.52c-.22.5-.37,1.02-.53,1.54-.16.52-.33,1.04-.47,1.56-1.08,4.18-1.8,8.45-2,12.73-.17,4.28-.09,8.57.48,12.83,0,.04.04.07.08.08.05,0,.09-.03.09-.08l1.1-12.7c.44-4.2.71-8.42,1.61-12.52.11-.51.26-1.01.39-1.52.13-.51.26-1.01.45-1.5l.52-1.47.66-1.39c.98-1.83,2.17-3.59,3.46-5.25,2.58-3.33,5.61-6.36,9.06-8.82h0s.05-.08.02-.12Z"></path><path class="cls-16" d="m98.18,307.19c-1.97,1.27-3.28,3.27-4.39,5.28-1.05,2.05-1.89,4.23-2.46,6.46-.17.55-.31,1.11-.43,1.68l-.4,1.69c-.2,1.13-.36,2.28-.43,3.43-.02,1.15-.05,2.3.03,3.45.1,1.15.23,2.29.45,3.43,0,.03.04.06.07.07.05,0,.1-.02.11-.07.28-1.13.46-2.26.61-3.38.18-1.12.35-2.23.49-3.34.16-1.11.31-2.21.4-3.33.15-1.1.24-2.23.48-3.31.39-2.2,1.02-4.35,1.88-6.4.86-2.04,1.97-4.07,3.69-5.5h.01s.04-.09.02-.13c-.03-.04-.08-.05-.12-.03Z"></path><path class="cls-16" d="m77.93,319.91c-.47-5.64-1.4-11.22-2.28-16.79-.88-5.58-1.85-11.14-2.87-16.69-1.06-5.54-2.16-11.08-3.36-16.59-.01-.05-.06-.08-.1-.07-.05,0-.08.05-.07.1.96,5.56,1.84,11.13,2.66,16.7.85,5.57,1.64,11.15,2.35,16.74.69,5.59,1.23,11.2,1.93,16.78l2.06,16.78s.04.08.08.08c.05,0,.09-.04.09-.08.06-1.41.07-2.83.1-4.24.01-1.42-.06-2.83-.08-4.24-.05-2.83-.29-5.65-.51-8.47Z"></path><path class="cls-16" d="m74.55,319.83c-.3-2.23-.71-4.45-1.14-6.66l-.79-3.29c-.26-1.1-.5-2.2-.83-3.28-1.12-4.37-2.56-8.66-4.31-12.82l-.68-1.55-.75-1.52c-.48-1.02-1.06-2-1.6-2.98-1.18-1.92-2.4-3.84-4.07-5.39-.03-.03-.09-.03-.12,0-.03.03-.04.09,0,.12h0c1.54,1.61,2.66,3.58,3.72,5.52.49,1,1.01,1.99,1.43,3.02l.66,1.53.59,1.57c1.56,4.17,2.81,8.46,3.76,12.82.51,2.17.85,4.38,1.27,6.56l.53,3.3c.19,1.1.43,2.19.58,3.29.35,2.2.76,4.4,1.14,6.61.34,2.21.75,4.42,1.21,6.63,0,.04.04.07.09.07.05,0,.09-.04.09-.09,0-2.25-.04-4.5-.16-6.75-.13-2.25-.4-4.48-.63-6.73Z"></path><path class="cls-16" d="m69.89,320.12c-1.04-2.96-2.25-5.85-3.57-8.69-1.35-2.82-2.81-5.59-4.49-8.23-.03-.04-.08-.05-.12-.03-.04.02-.06.08-.03.12,1.47,2.74,2.71,5.6,3.83,8.49,1.14,2.88,2.18,5.81,3.04,8.78.88,2.97,1.51,5.99,2.3,8.98.83,2.98,1.5,5.99,2.42,9.01.01.04.04.06.08.07.05,0,.09-.04.09-.09.04-3.15-.26-6.29-.88-9.38-.55-3.1-1.64-6.07-2.68-9.02Z"></path><path class="cls-15" d="m69.7,329.97c-.53-1.85-1.45-3.58-2.48-5.2-1.02-1.63-2.2-3.18-3.61-4.49-.73-.63-1.47-1.24-2.3-1.73-.81-.51-1.67-.94-2.61-1.18-.04-.01-.08,0-.1.05-.02.04,0,.1.04.12h.01c1.69.76,3.12,2,4.32,3.36,1.22,1.36,2.2,2.93,3.01,4.56.85,1.62,1.3,3.41,2.04,5.08.33.86.65,1.72,1.03,2.57.32.87.68,1.74,1.13,2.6h0s.04.05.08.05c.05,0,.09-.04.09-.09.04-.96-.02-1.92-.11-2.88-.14-.95-.34-1.89-.56-2.82Z"></path></g><path class="cls-14" d="m70.04,277.91s-9.24-2.13-11.37-12.08c-2.13-9.95,4.74-5.68-1.42-21.31-6.16-15.63-4.74-19.18-2.6-23.68,2.13-4.5,3.32-3.08,5.21,2.84,1.89,5.92,8.76,15.16,11.37,32.44,2.6,17.29-1.18,21.79-1.18,21.79Z"></path><path class="cls-14" d="m88.28,261.09s-6.16-2.13-6.39-13.73c-.24-11.6,4.5-9.24,5.21-23.68.71-14.45,1.66-24.63,4.26-24.86,2.6-.24,9.47,7.1,11.84,23.21,2.37,16.1-3.08,26.76-7.81,31.49-4.74,4.74-7.1,7.58-7.1,7.58Z"></path><path class="cls-14" d="m66.73,291.88s-1.42-8.52-4.26-12.55c-2.84-4.03-9-7.58-13.02-15.39-4.03-7.81-8.52-11.6-8.29-.47.24,11.13,5.21,16.81,11.37,20.6,6.16,3.79,14.21,7.81,14.21,7.81Z"></path><path class="cls-14" d="m64.12,306.56s-5.68-10.89-13.97-18.94c-8.29-8.05-14.92-12.08-12.55-8.05,2.37,4.03,5.21,3.79,9.24,10.89,4.03,7.1,2.84,12.31,8.53,16.34,5.68,4.03,8.76-.24,8.76-.24Z"></path><path class="cls-14" d="m63.41,320.53c-.24-.71-.47-5.92-8.52-10.18-8.05-4.26-15.63-2.6-14.68-.47.95,2.13,5.92,5.68,10.89,7.81s12.31,2.84,12.31,2.84Z"></path><path class="cls-14" d="m87.81,292.35s-3.55-4.5-1.66-13.97c1.89-9.47,6.16-7.1,10.89-12.08,4.74-4.97,3.79-5.68,8.52-10.89,4.74-5.21,9-8.05,10.89-5.92,1.89,2.13-.95,8.76-3.79,12.55-2.84,3.79-7.34,5.68-9.47,10.42-2.13,4.74-1.18,12.31-6.63,15.87-5.45,3.55-8.76,4.03-8.76,4.03Z"></path><path class="cls-14" d="m99.65,294.96s8.53-9.71,14.68-16.81c6.16-7.1,8.52-12.55,8.76-7.81.24,4.74,2.13,8.53-2.84,14.68-4.97,6.16-20.6,9.95-20.6,9.95Z"></path><path class="cls-14" d="m95.15,310.58s-.24-3.79,13.26-12.55c13.5-8.76,19.18-10.42,17.76-6.87-1.42,3.55-7.34,7.1-13.73,13.5-6.39,6.39-17.29,5.92-17.29,5.92Z"></path><path class="cls-8" d="m70.61,276.9s-3.17-16.99-6.48-29.07c-3.32-12.08-5.45-19.42-5.45-19.42"></path><path class="cls-8" d="m87.73,261.27s5.75-18.41,7.65-29.54c1.89-11.13-.24-19.42-1.18-24.39"></path><path class="cls-8" d="m65.98,291.52s-3.52-6.28-8.73-12.43c-5.21-6.16-9.24-9.47-11.6-15.39"></path><path class="cls-8" d="m87.81,292.35s1.89-11.37,6.39-17.29c4.5-5.92,13.5-15.16,17.05-21.08"></path><path class="cls-8" d="m62.86,320.27s-7.97-5.19-13.65-8.03"></path><path class="cls-16" d="m86.03,370.5h-10.42c-1.85,0-3.51-1.11-4.22-2.81-3.41-8.16-12.5-31.72-7.02-38.4,5.22-6.36,27.7-6.36,32.92,0,5.48,6.68-3.62,30.23-7.02,38.4-.71,1.7-2.38,2.81-4.22,2.81Z"></path></g><g><g><path class="cls-6" d="m266.66,352.84l3.76,4.13,12.02,7.89s.75,1.5.75,3.01v.95c0,.93-.75,1.68-1.68,1.68h-34.24c-.3,0-.56-.22-.6-.52-.19-1.27-.67-4.61-.67-7,0-3.01,1.88-12.77,1.88-12.77l17.66-.75,1.13,3.38Z"></path><path class="cls-6" d="m246.67,369.98c.05.3.3.52.6.52h34.24c.93,0,1.68-.75,1.68-1.68v-.95c0-.16-.01-.31-.03-.47h-36.84c.13,1.09.27,2.03.35,2.58Z"></path></g><g><path class="cls-6" d="m209.58,349.94l-.59,4.73s-5.77,11.39-6.21,12.57,0,3.25,0,3.25h25.29s1.04-5.92-.3-9.17c-1.33-3.25-.93-8.69-.93-8.69l-.69-2.7s-12.87-1.63-16.57,0Z"></path><path class="cls-6" d="m202.78,370.5h25.29s.25-1.42.34-3.25h-25.64c-.44,1.18,0,3.25,0,3.25Z"></path></g><path class="cls-14" d="m271.92,214.6s-4.88,76.63-4.13,90.53c.75,13.9-1.13,47.71-1.13,47.71,0,0-6.39,1.13-8.26,1.88s-11.34,1.51-11.34,1.51c0,0-1.06-6.77-1.06-9.77s.38-8.26.75-10.52c.38-2.25-6.01-99.55-6.01-99.55l-3.76,1.88-9.77,110.07-.38,7.51-11.27-1.5-7.32,1.62s-1.32-10.26-.94-12.51c.38-2.25,2.25-13.15,2.25-13.15l-3.38-116.08s48.46,2.25,65.74.38Z"></path><polygon class="cls-3" points="285.9 134.39 290.29 161.52 288.48 164.62 275.31 155.06 272.47 138.79 285.9 134.39"></polygon><polygon class="cls-16" points="273.72 142.34 286.32 140.09 286.32 137.16 275.05 139.3 273.72 142.34"></polygon><path class="cls-14" d="m237.34,80.92s-.77,10.33-.77,12.14-14.47,4.65-21.44,10.07c-3.92,3.05-8.78,9.56-8.78,13.43s2.07,55.54,2.07,55.54l-3.73,45.12s17.08,4.55,30.51,5.84c13.43,1.29,38.98-6.21,38.98-6.21,0,0-1.96-41.38-1.96-44.23s-.52-10.33-.52-10.33l2.32-21.7,1.03-1.29,15.76-3.1s-4.19-14.59-11.11-25.31c-5.17-8.01-20.92-13.17-22.47-13.69l-1.55-.52-.52-5.42s-13.95-5.42-17.82-10.33Z"></path><path class="cls-3" d="m255.68,96.68l-.52-5.42s-13.95-5.42-17.82-10.33c0,0-.77,10.33-.77,12.14,0,.71-2.23,1.58-5.36,2.7,3.25,4.61,11.42,16.12,13.88,19,3.1,3.62,6.2,9.56,6.2,9.56l9.3-25.92c-1.74-.66-2.98-1.08-3.36-1.2l-1.55-.52Z"></path><path class="cls-16" d="m255.62,96.09l-.46-4.84s-13.95-5.42-17.82-10.33c0,0-.12,1.58-.26,3.62,1,2.08,7,14.12,12.08,13.92,2.57-.1,4.81-1.21,6.47-2.36Z"></path><path class="cls-3" d="m269.89,144.47s16.53,12.66,19.12,14.72c2.58,2.07,2.32,5.42.52,8.52-1.81,3.1-10.33,6.46-13.17,4.13-2.84-2.32-9.3-14.98-10.07-16.53s-3.36-8.27-3.36-8.27l6.97-2.58Z"></path><path class="cls-3" d="m268.59,139.56s-5.42-2.84-8.52-3.62-6.72,6.46-6.72,6.46l16.27-.26-1.03-2.58Z"></path><polygon class="cls-16" points="244.83 139.3 232.17 169.78 261.1 169.78 274.02 139.04 244.83 139.3"></polygon><g><path class="cls-3" d="m222.87,158.16s11.88-8.52,13.43-9.04c1.55-.52,5.68-1.55,5.68-1.55l-1.81,3.62,8.52.26s1.55-.26,1.29,2.32c-.26,2.58-4.65,3.1-4.65,3.1,0,0-2.07,8.01-5.68,8.78-3.62.77-16.02,0-16.02,0,0,0-24.02,15.5-27.12,11.11-3.1-4.39-.52-41.59-.52-41.59l17.31,3.87-.52,19.89,10.07-.77Z"></path><polygon class="cls-16" points="195.86 140.31 213.19 143.01 213.19 141.66 196.08 136.94 195.86 140.31"></polygon><line class="cls-6" x1="212.8" y1="158.93" x2="202.21" y2="159.19"></line></g><path class="cls-14" d="m221.32,100.56s-11.62,1.03-18.86,6.97c-2.12,1.74-11.37,28.16-11.37,28.16l23.51,5.94,1.81-9.04"></path><g><path class="cls-3" d="m235.34,65.8s-3.23-4.84-4.52,0c-1.29,4.84,0,6.86,1.93,8.15s2.59,1.21,2.59,1.21c0,0,.32,6.45,2.58,10.65,2.26,4.2,7.42,9.04,12.26,9.36,4.84.32,8.07-3.23,9.68-5.49,1.61-2.26,6.78-14.85,6.78-20.98s-.65-17.43-3.87-20.98-13.88-6.78-21.62-3.55c-7.75,3.23-6.78,18.4-5.81,21.62Z"></path><path class="cls-16" d="m250.34,70.59c0,1.18-.54,2.14-1.2,2.14s-1.2-.96-1.2-2.14.54-2.14,1.2-2.14,1.2.96,1.2,2.14Z"></path><path class="cls-16" d="m263.17,70.59c0,1.18-.54,2.14-1.2,2.14s-1.2-.96-1.2-2.14.54-2.14,1.2-2.14,1.2.96,1.2,2.14Z"></path><g><path class="cls-16" d="m257.15,55.62c3.39,0,6.64-.8,8.27-1.27-.59-2.85-1.44-5.29-2.65-6.63-3.23-3.55-13.88-6.78-21.62-3.55-7.75,3.23-6.78,18.39-5.81,21.62h0c1.37.38,2.71-.72,2.59-2.14l-.02-.28s3.78-2.51,3.78-5.18-.04-5.24-.04-5.24c0,0,10.69,2.67,15.51,2.67Z"></path><path class="cls-16" d="m234.31,64.58l1.03,1.22s-.43-.64-1.03-1.22Z"></path></g><path class="cls-8" d="m256.5,67.7s1.25,7.71,1.04,9.38-2.29,2.5-4.38,2.5-3.96-1.67-3.96-1.67"></path><path class="cls-8" d="m248.38,82.9s3.75,2.92,8.33,0"></path><path class="cls-7" d="m251.54,65.78s-3.75-2.29-7.92-.42"></path><path class="cls-7" d="m258.12,66.1s3.33-2.08,6.25.21"></path></g></g><g><g><rect class="cls-16" x="182.51" y="198.11" width="3.3" height="67.6"></rect><rect class="cls-16" x="217.13" y="198.11" width="3.3" height="67.6"></rect><rect class="cls-16" x="251.75" y="198.11" width="3.3" height="67.6"></rect><rect class="cls-16" x="286.38" y="198.11" width="3.3" height="67.6"></rect><rect class="cls-16" x="321" y="198.11" width="3.3" height="67.6"></rect><rect class="cls-16" x="171.79" y="191.52" width="176.41" height="6.59"></rect></g><g><g><path class="cls-6" d="m477.57,198.8c-41.34-11.71-85.08-11.72-126.36-.08-3.58,1.01-6.04,4.28-6.04,7.99v67.24h15.66v-4.07c0-4.12,3.34-7.47,7.47-7.47h86.46c4.12,0,7.47,3.34,7.47,7.47v4.07h21.38v-67.17c0-3.71-2.46-6.97-6.03-7.98Zm-121.74,24.22v-11.02c0-2.94,2.09-5.52,5.11-6.32,4.03-1.06,8.09-1.99,12.17-2.8-5.54,10.8-12.1,16.83-17.29,20.14Zm80.84-13.37c-20.61-4.95-51.11,0-51.11,0v-8.86c16.93-2.34,34.11-2.59,51.11-.77v9.63Zm36.27,14.77c-12.15-6.6-18.37-15.04-21.53-22.28,5.51.99,10.99,2.18,16.42,3.62,3.02.8,5.1,3.38,5.1,6.31v12.36Z"></path><path class="cls-6" d="m471.78,198.8c-41.34-11.71-85.08-11.72-126.36-.08-3.58,1.01-6.04,4.28-6.04,7.99v67.24h15.66v-4.07c0-4.12,3.34-7.47,7.47-7.47h86.46c4.12,0,7.47,3.34,7.47,7.47v4.07h21.38v-67.17c0-3.71-2.46-6.97-6.03-7.98Zm-121.74,24.22v-11.02c0-2.94,2.09-5.52,5.11-6.32,4.03-1.06,8.09-1.99,12.17-2.8-5.54,10.8-12.1,16.83-17.29,20.14Zm80.84-13.37c-20.61-4.95-51.11,0-51.11,0v-8.86c16.93-2.34,34.11-2.59,51.11-.77v9.63Zm36.27,14.77c-12.15-6.6-18.37-15.04-21.53-22.28,5.51.99,10.99,2.18,16.42,3.62,3.02.8,5.1,3.38,5.1,6.31v12.36Z"></path><rect class="cls-14" x="356.69" y="228.61" width="96.45" height="24.73"></rect></g><g><polygon class="cls-14" points="462.88 147.07 351.56 147.07 291.64 254.35 409.89 250.79 462.88 147.07"></polygon><rect class="cls-14" x="199.15" y="250.79" width="212.38" height="14.01"></rect><polygon class="cls-14" points="462.88 161.09 409.89 264.8 409.89 250.79 462.88 147.07 462.88 161.09"></polygon></g></g><path class="cls-6" d="m373.36,135.31s42.12-3.86,53.33-1.51l4.24.51s4.39-1.11,6.16.31c1.76,1.42-.01,2.9-.19,4.21-.18,1.31-.65,2.97-.65,2.97,0,0,.83,13.77-2.04,23.1-2.87,9.33-11.45,22.49-11.45,22.49,0,0,1.01,3.44.19,4.81-.82,1.38-2.68-1-2.68-1,0,0-19.64.17-37.01.41-17.37.25-25.96-1.73-25.96-1.73,0,0-4.32,1.75-5.35,1.22-1.02-.54,1.6-3.07,1.6-3.07,0,0,1.08-4.95,3.53-15.2,2.45-10.25,10.92-30.49,10.92-30.49,0,0-1.2-8.25,2.08-7.63l3.29.61Z"></path><g><path class="cls-16" d="m347.69,200.54c7.73.59,15.67,1.12,21.82,1.35,8.09.3,20.36,2.85,31.25,5.51,1.31-4.08,2.32-7.26,2.32-7.26l7.78-2.33s10.12-1.04,10.12-2.34.78-23.87-.52-26.72c-1.3-2.85-10.38-5.45-27.76-4.67-4.41.2-12.45-1.3-12.45-1.3,0,0-11.03,1.82-14.92,1.82s-7.78-.52-10.9,2.85c-.14.15-.29.34-.45.54l-20.16,24.16,10.38,2,3.49,6.39Z"></path><g><path class="cls-3" d="m382.6,122.72c-1.06,1.64-2.68,5.79-3.62,7.5-1.77,3.25-.69,4.13-2.11,7.3,0,0-5.89,2.74-5.21,3.89.68,1.15,1.94,4.08,1.94,4.08,0,0-1.67,11.59-.94,12.33.74.74,6.62.96,6.62.96l-1.51,5.35s-6.27,4.39-6.06,11.08c.21,6.69,12.54,2.51,17.14-.21,4.6-2.72,8.15-10.03,8.15-10.03,0,0-.79-2.05-.38-3.47.42-1.42,3.65-6.23,3.65-6.23,0,0,9.38-7.94,10.99-13.2,1.61-5.26-1.64-12.06-7.89-16.98-6.26-4.92-18.38-4.35-20.78-2.37Z"></path><path class="cls-16" d="m384.94,117.15c-2.47.53-4.34,1.6-4.17,3.62.32,3.64,3.81,4.35,3.81,4.35,0,0,12.44,3.07,12.2,4.72-.24,1.66-5.65,4.04-5,5.4.65,1.36,2.48,1.84,2.48,1.84,0,0-2.08,4.14-.3,5.03,1.77.89,1.95-.35,3.31-1,1.36-.65,5.14.95,4.51,5.3-.63,4.34-6.19,4.81-6.19,4.81l3.51,4.94s6.63-4.96,10.83-7.73c4.2-2.77,8.03-10.25,5.35-18.02-2.68-7.78-16.36-12.5-20.47-13.31-1.71-.33-6.39-.69-9.88.06Z"></path><path class="cls-8" d="m374.52,147.95s2.33,1.39,5.94-.2"></path><path class="cls-16" d="m382.25,138.22c-.26.77-.77,1.28-1.16,1.16s-.49-.85-.23-1.62c.26-.77.77-1.28,1.16-1.16s.49.85.23,1.62Z"></path><path class="cls-8" d="m380.63,133.42s2.81-1.92,4.97.72"></path><path class="cls-16" d="m372.67,157.82s6.33.07,8.28-.28c1.95-.35,8.01-1.38,8.01-1.38l-10.35,4.42.68-1.8s-5.32.29-6.62-.96Z"></path></g><path class="cls-6" d="m425.25,234.04l-1.88-2.13c-1.88-2.13-.33-6.72-5.12-10.4-4.79-3.69-11.43-10.69-11.43-10.69,0,0-11.79-4.05-18.8-5.9-7-1.84-29.49-8.48-44.97-3.32,0,0-3.32,1.84-3.69,3.32s-3.69,5.53-3.69,5.53c0,0-48.65,2.95-57.13,4.05-8.48,1.11-24.33,5.9-29.86,8.11-5.53,2.21-21.38,5.16-21.38,5.16,0,0-8.85-2.95-11.79-2.21-2.95.74-9.95,8.48-11.06,9.95-1.11,1.47-4.79,4.42-4.79,4.42v11.06h21.33c-.62,4.59-.57,10.32-.57,10.32,0,0,204.82,1.84,205.19,0,.37-1.84-.37-27.28-.37-27.28Z"></path><path class="cls-8" d="m388.7,250.36c1.92.33,3.64.77,4.48,1.38,2.58,1.84,2.58,6.63,2.58,6.63"></path><path class="cls-8" d="m379.92,249.52s1.27.04,3.05.18"></path><path class="cls-8" d="m338.27,249.52s10.69.37,13.27,2.21c2.58,1.84,2.58,6.63,2.58,6.63"></path><path class="cls-8" d="m266.39,249.52s10.69.37,13.27,2.21c2.58,1.84,2.58,6.63,2.58,6.63"></path><path class="cls-8" d="m334.58,249.52s7.95.37,9.87,2.21c1.92,1.84,1.92,6.63,1.92,6.63"></path><g><path class="cls-3" d="m399.02,201.17s-26.39-4.08-27.4-4.08-8.65,1.57-11.76,3.19-2.61,2.74-.75,3.73c1.87,1,3.61,1.12,5.1,1.49,1.49.37,4.85.62,4.85.62,0,0,2.49-.12,4.23-.37,1.74-.25,3.23-1.12,3.23-1.12,0,0,19.6,8.93,22.09,9.67l.4-13.13Z"></path><path class="cls-16" d="m406.58,179.08l-3.5,21.06-4.06,1.03-.4,13.13s12.54,2.79,14.33,2.98c1.79.2,7.16,1,7.36-4.78.2-5.77,1.19-32.24,1.19-32.24"></path><g><path class="cls-3" d="m369.75,197.16s3.34.61,4.35.2c1.01-.4,1.82.1,1.72,1.11-.1,1.01-2.22,1.52-2.22,1.52l-3.84-2.83Z"></path><path class="cls-3" d="m359.54,196.88s7.41-.99,8.8-.44c1.38.55,9.41,4.7,9.55,5.4.14.69-.83,1.11-.83,1.11,0,0-.14.97-1.8,1.8l-1.66.83s-1.79.76-2.49,1.11c-.7.35-1.52,0-3.32-.55-1.8-.55-4.43-1.8-4.84-1.8s-4.15-.55-5.81-1.25c-1.66-.69-3.45-.68-3.45-.68,0,0-8.59,1.51-11.35,2.47-2.77.97-9.41-1.11-11.35-3.46-1.94-2.35-.14-9.13,4.43-10.38s16.97,3.38,17.94,3.66c.97.28,6.2,2.18,6.2,2.18Z"></path><line class="cls-3" x1="368.13" y1="198.88" x2="377.06" y2="202.95"></line><line class="cls-3" x1="366.51" y1="200.8" x2="375.26" y2="204.75"></line><line class="cls-3" x1="365.2" y1="202.62" x2="372.48" y2="205.96"></line></g></g><path class="cls-8" d="m395.71,226.85c3.04,2.36,4.48,3.87,4.48,3.87"></path><path class="cls-8" d="m341.21,210.82s18.43-3.32,35.02,4.42c6.03,2.81,10.84,5.63,14.52,8.07"></path><path class="cls-8" d="m355.96,214.5s25.43,6.63,40.54,18.8c15.11,12.16,14.74,15.85,13.64,15.85"></path></g><g><g><g><rect class="cls-6" x="128.72" y="268.17" width="7.77" height="78.36"></rect><rect class="cls-6" x="131.26" y="268.17" width="7.77" height="78.36"></rect><rect class="cls-6" x="131.31" y="318.69" width="113.33" height="8.42"></rect><g><circle class="cls-16" cx="129.23" cy="357.54" r="12.95" transform="translate(-214.97 196.1) rotate(-45)"></circle><path class="cls-6" d="m139.22,351.76v-10.94h-12.79v8.37c-2.88,1.7-4.82,4.83-4.82,8.42,0,5.4,4.38,9.78,9.78,9.78s9.78-4.38,9.78-9.78c0-2.19-.73-4.21-1.95-5.84Z"></path></g><rect class="cls-6" x="243.35" y="268.17" width="7.77" height="78.36"></rect><rect class="cls-6" x="245.89" y="268.17" width="7.77" height="78.36"></rect><g><circle class="cls-16" cx="244.36" cy="357.54" r="12.95" transform="translate(-181.25 277.51) rotate(-45)"></circle><path class="cls-6" d="m254.35,351.76v-10.94h-12.79v8.37c-2.88,1.7-4.82,4.83-4.82,8.42,0,5.4,4.38,9.78,9.78,9.78s9.78-4.38,9.78-9.78c0-2.19-.73-4.21-1.95-5.84Z"></path></g></g><g><rect class="cls-6" x="325.73" y="268.17" width="7.77" height="78.36"></rect><rect class="cls-6" x="328.27" y="268.17" width="7.77" height="78.36"></rect><rect class="cls-6" x="328.32" y="318.69" width="113.33" height="8.42"></rect><g><circle class="cls-16" cx="326.24" cy="357.54" r="12.95" transform="translate(-73.78 85.05) rotate(-13.36)"></circle><path class="cls-6" d="m336.24,351.76v-10.94h-12.79v8.37c-2.88,1.7-4.82,4.83-4.82,8.42,0,5.4,4.38,9.78,9.78,9.78s9.78-4.38,9.78-9.78c0-2.19-.73-4.21-1.95-5.84Z"></path></g><rect class="cls-6" x="440.36" y="268.17" width="7.77" height="78.36"></rect><rect class="cls-6" x="442.9" y="268.17" width="7.77" height="78.36"></rect><g><circle class="cls-16" cx="441.37" cy="357.54" r="12.95" transform="translate(-123.55 416.82) rotate(-45)"></circle><path class="cls-6" d="m451.36,351.76v-10.94h-12.79v8.37c-2.88,1.7-4.82,4.83-4.82,8.42,0,5.4,4.38,9.78,9.78,9.78s9.78-4.38,9.78-9.78c0-2.19-.73-4.21-1.95-5.84Z"></path></g></g></g><rect class="cls-6" x="199.15" y="259.94" width="276.16" height="14.01"></rect><g><rect class="cls-6" x="106.82" y="259.94" width="118.71" height="14.01"></rect><g><rect class="cls-6" x="283.23" y="198.11" width="3.3" height="67.6"></rect><rect class="cls-6" x="317.85" y="198.11" width="3.3" height="67.6"></rect><rect class="cls-6" x="352.47" y="198.11" width="3.3" height="67.6"></rect><rect class="cls-6" x="387.1" y="198.11" width="3.3" height="67.6"></rect><rect class="cls-6" x="421.72" y="198.11" width="3.3" height="67.6"></rect><rect class="cls-6" x="272.51" y="191.52" width="176.41" height="6.59"></rect></g><g><path class="cls-6" d="m236.77,198.8c-41.34-11.71-85.08-11.72-126.36-.08-3.58,1.01-6.04,4.28-6.04,7.99v67.24h15.66v-4.07c0-4.12,3.34-7.47,7.47-7.47h86.46c4.12,0,7.47,3.34,7.47,7.47v4.07h21.38v-67.17c0-3.71-2.46-6.97-6.03-7.98Zm-121.74,24.22v-11.02c0-2.94,2.09-5.52,5.11-6.32,4.03-1.06,8.09-1.99,12.17-2.8-5.54,10.8-12.1,16.83-17.29,20.14Zm80.84-13.37c-20.61-4.95-51.11,0-51.11,0v-8.86c16.93-2.34,34.11-2.59,51.11-.77v9.63Zm36.27,14.77c-12.15-6.6-18.37-15.04-21.53-22.28,5.51.99,10.99,2.18,16.42,3.62,3.02.8,5.1,3.38,5.1,6.31v12.36Z"></path><path class="cls-6" d="m230.98,198.8c-41.34-11.71-85.08-11.72-126.36-.08-3.58,1.01-6.04,4.28-6.04,7.99v67.24s15.66,0,15.66,0v-4.07c0-4.12,3.34-7.47,7.47-7.47h86.46c4.12,0,7.47,3.34,7.47,7.47v4.07h21.38v-67.17c0-3.71-2.46-6.97-6.03-7.98Zm-121.74,24.22v-11.02c0-2.94,2.09-5.52,5.11-6.32,4.03-1.06,8.09-1.99,12.17-2.8-5.54,10.8-12.1,16.83-17.29,20.14Zm80.84-13.37c-20.61-4.95-51.11,0-51.11,0v-8.86c16.93-2.34,34.11-2.59,51.11-.77v9.63Zm36.27,14.77c-12.15-6.6-18.37-15.04-21.53-22.28,5.51.99,10.99,2.18,16.42,3.62,3.02.8,5.1,3.38,5.1,6.31v12.36Z"></path><rect class="cls-14" x="115.89" y="228.61" width="96.45" height="24.73"></rect></g><g><rect class="cls-14" x="471.81" y="257.5" width="11.8" height="16.45"></rect><rect class="cls-14" x="234.16" y="257.5" width="11.8" height="16.45"></rect></g></g></g></g></g></g></g></svg>