<svg xmlns="http://www.w3.org/2000/svg" xmlns:xlink="http://www.w3.org/1999/xlink" id="Layer_2" data-name="Layer 2" viewBox="0 0 487.35 345.54"><defs><style> .cls-1, .cls-2 { fill: #e9e9e9; } .cls-3, .cls-4 { fill: #fff; } .cls-5 { fill: #a6a6a6; } .cls-5, .cls-6, .cls-7, .cls-4, .cls-8, .cls-9 { stroke: #263238; stroke-miterlimit: 10; stroke-width: .9px; } .cls-6, .cls-10 { fill: #ccc; } .cls-11 { fill: #a6c479; } .cls-2 { opacity: .7; } .cls-7 { fill: #b8b8b8; } .cls-12 { clip-path: url(#clippath); } .cls-13, .cls-9 { fill: none; } .cls-8, .cls-14 { fill: #263238; } </style><clipPath id="clippath"><rect class="cls-13" width="487.35" height="345.54"></rect></clipPath></defs><g id="Bag"><g class="cls-12"><g><g><path class="cls-1" d="m486.43,126.98c-17.05-34.32-38.07-65.83-62.37-93.64-26.22-30-52.94-50.28-87.42-63.41-23.34-8.89-47.69-13.97-72.15-14.92-45.48-1.76-82.99,10.62-120.36,41.85C104.08,30.34,66.72,68.23,27.68,103.39c-4.07,3.67-8.16,7.31-12.28,10.92-68.08,59.73-101.14,165.82-55.11,191.76H490s48.18-2.91,36.31-62.09c-8.31-41.42-21.88-80.78-39.88-117.01Z"></path><path class="cls-2" d="m486.43,126.98c-17.05-34.32-38.07-65.83-62.37-93.64-26.22-30-52.94-50.28-87.42-63.41-23.34-8.89-47.69-13.97-72.15-14.92-45.48-1.76-82.99,10.62-120.36,41.85C104.08,30.34,66.72,68.23,27.68,103.39c-4.07,3.67-8.16,7.31-12.28,10.92-68.08,59.73-101.14,165.82-55.11,191.76H490s48.18-2.91,36.31-62.09c-8.31-41.42-21.88-80.78-39.88-117.01Z"></path></g><line class="cls-9" x1="312.96" y1="3.49" x2="312.96" y2="340.86"></line><line class="cls-9" x1="-82.45" y1="340.86" x2="550.35" y2="340.86"></line><g><circle class="cls-8" cx="-21.07" cy="39.62" r="36.36" transform="translate(-12.38 -4.41) rotate(-16.85)"></circle><circle class="cls-4" cx="-21.07" cy="39.62" r="33.59" transform="translate(-49.61 4.99) rotate(-67.5)"></circle></g><g><rect class="cls-14" x="33.1" y="11.99" width="216.78" height="151.6"></rect><rect class="cls-3" x="38.6" y="18.48" width="205.77" height="138.62"></rect><rect class="cls-10" x="54.85" y="30.62" width="173.28" height="114.34"></rect><rect class="cls-3" x="64.1" y="39.4" width="154.77" height="96.78"></rect><rect class="cls-10" x="91.68" y="58.81" width="99.62" height="57.96"></rect><rect class="cls-3" x="99.24" y="65.16" width="84.5" height="45.25"></rect><rect class="cls-10" x="119.63" y="76.09" width="43.71" height="23.4"></rect></g><g><rect class="cls-8" x="353.77" y="-7.88" width="130.54" height="349.1"></rect><g><rect class="cls-4" x="357.81" y="170.03" width="58.62" height="51.47"></rect><rect class="cls-4" x="357.81" y="226.72" width="58.62" height="51.47"></rect><rect class="cls-4" x="421.66" y="-1.73" width="58.62" height="53.15"></rect><rect class="cls-4" x="357.81" y="56.65" width="58.62" height="51.47"></rect><rect class="cls-4" x="421.66" y="226.72" width="58.62" height="51.47"></rect><rect class="cls-4" x="357.81" y="113.34" width="58.62" height="51.47"></rect><rect class="cls-4" x="357.81" y="-1.73" width="58.62" height="53.15"></rect><rect class="cls-4" x="421.66" y="170.03" width="58.62" height="51.47"></rect><rect class="cls-4" x="421.66" y="283.42" width="58.62" height="51.66"></rect><rect class="cls-4" x="357.81" y="283.42" width="58.62" height="51.66"></rect><rect class="cls-4" x="421.66" y="113.34" width="58.62" height="51.47"></rect><rect class="cls-4" x="421.66" y="56.65" width="58.62" height="51.47"></rect></g></g><g><polygon class="cls-14" points="22.38 281.53 -22.12 281.53 -17.67 340.86 17.93 340.86 22.38 281.53"></polygon><polygon class="cls-14" points="-2.48 160.67 -2.48 290.53 2.07 285.99 2.07 210.46 16.16 177.17 1.2 205.09 .64 164.79 -2.48 160.67"></polygon><g><polygon class="cls-11" points="-11.33 154.95 -37.23 138.55 -21.69 155.38 -46.73 149.34 -29.03 157.97 -59.25 157.97 -34.21 161.86 -63.57 167.47 -39.82 166.61 -61.84 175.67 -38.1 171.79 -69.61 193.37 -32.05 175.24 -51.91 195.1 -33.78 183.44 -46.73 206.32 -27.74 184.31 -37.23 204.16 -20.4 183.01 -20.4 197.69 -12.63 179.99 -12.63 189.92 -4.86 169.2 -4.86 179.56 .64 164.79 2.05 161 -14.79 138.12 -9.61 151.93 -14.79 147.61 -11.33 154.95"></polygon><polygon class="cls-11" points="-14.61 195.56 -45.04 199.34 -22.34 202.48 -45.52 213.71 -26.36 209.14 -49.7 228.33 -27.9 215.43 -47.01 238.41 -29.22 222.66 -40.46 243.64 -24.59 225.57 -35.23 262.25 -17.73 224.39 -20.46 252.34 -13.86 231.83 -9.33 257.72 -8.64 228.66 -3.36 250.03 -3.79 222.99 5.53 234.33 .29 215.73 6.6 223.39 -.56 202.45 6.02 210.46 .88 195.56 -.44 191.73 -27.97 184.75 -15.2 192.13 -21.94 192.09 -14.61 195.56"></polygon><polygon class="cls-11" points="-14.61 195.56 -45.04 199.34 -22.34 202.48 -45.52 213.71 -26.36 209.14 -49.7 228.33 -27.9 215.43 -47.01 238.41 -29.22 222.66 -40.46 243.64 -24.59 225.57 -35.23 262.25 -17.73 224.39 -20.46 252.34 -13.86 231.83 -9.33 257.72 -8.64 228.66 -3.36 250.03 -3.79 222.99 5.53 234.33 .29 215.73 6.6 223.39 -.56 202.45 6.02 210.46 .88 195.56 -.44 191.73 -27.97 184.75 -15.2 192.13 -21.94 192.09 -14.61 195.56"></polygon><polygon class="cls-11" points="13.12 147.01 53.34 141.36 25.39 153.19 58.91 159.57 32.83 160.33 69.3 176.83 36.96 167.84 69.33 190.65 41.14 176.64 62.76 199.6 36.23 181.95 62.48 225.21 27.05 182.82 40.17 217.63 24.65 193.66 27.79 228.35 16.89 191.4 17.51 220.55 8.74 185.83 .72 203.55 1.01 177.94 -4.41 189.92 -2.48 160.67 -8.13 173.18 -6.7 152.35 -6.33 147 26.48 128.58 12.68 142.42 21.29 140.04 13.12 147.01"></polygon><polygon class="cls-11" points="7.9 139.93 24.3 114.03 7.47 129.57 13.51 104.53 4.88 122.23 4.88 92.01 .99 117.05 -4.62 87.69 -3.76 111.44 -12.82 89.42 -8.94 113.16 -30.52 81.65 -12.39 119.21 -32.25 99.35 -20.59 117.48 -43.47 104.53 -21.46 123.52 -41.31 114.03 -20.16 130.86 -34.84 130.86 -17.14 138.63 -27.07 138.63 -6.35 146.4 -16.71 146.4 -1.94 151.9 1.85 153.31 24.73 136.47 10.92 141.65 15.24 136.47 7.9 139.93"></polygon></g></g><g><g><rect class="cls-4" x="366.07" y="225.91" width="45.83" height="2.7" transform="translate(149.2 608.64) rotate(-88.14)"></rect><rect class="cls-4" x="349.4" y="227.1" width="45.37" height="2.7" transform="translate(130.46 592.12) rotate(-87.95)"></rect><path class="cls-8" d="m372.88,207.18h0c-1.24-.04-2.21-1.09-2.17-2.33l.15-4.02c.11-2.98,2.5-5.37,5.48-5.47l9.92-.34c1.56-.07,3.1.55,4.21,1.66,1.11,1.11,1.71,2.64,1.66,4.2l-.09,2.74c-.04,1.24-1.08,2.21-2.32,2.17h0c-1.24-.04-2.21-1.08-2.17-2.32l.09-2.74c.01-.45-.21-.74-.35-.87-.14-.13-.43-.33-.87-.34l-9.92.34c-.62.02-1.12.52-1.14,1.14l-.15,4.02c-.04,1.24-1.09,2.21-2.33,2.17Z"></path></g><g><g><path class="cls-8" d="m382.22,345.27c0,2.59-2.1,4.68-4.68,4.68s-4.68-2.1-4.68-4.68,2.1-4.68,4.68-4.68,4.68,2.1,4.68,4.68Z"></path><path class="cls-4" d="m380.34,345.27c0,1.55-1.25,2.8-2.8,2.8s-2.8-1.25-2.8-2.8,1.25-2.8,2.8-2.8,2.8,1.25,2.8,2.8Z"></path></g><g><path class="cls-8" d="m419.23,345.27c0,2.59-2.1,4.68-4.68,4.68s-4.68-2.1-4.68-4.68,2.1-4.68,4.68-4.68,4.68,2.1,4.68,4.68Z"></path><path class="cls-4" d="m417.35,345.27c0,1.55-1.25,2.8-2.8,2.8s-2.8-1.25-2.8-2.8,1.25-2.8,2.8-2.8,2.8,1.25,2.8,2.8Z"></path></g><g><path class="cls-8" d="m407.69,345.27c0,2.59-2.1,4.68-4.68,4.68s-4.68-2.1-4.68-4.68,2.1-4.68,4.68-4.68,4.68,2.1,4.68,4.68Z"></path><circle class="cls-4" cx="403.01" cy="345.27" r="2.8"></circle></g><g><path class="cls-8" d="m365.37,345.27c0,2.59-2.1,4.68-4.68,4.68s-4.68-2.1-4.68-4.68,2.1-4.68,4.68-4.68,4.68,2.1,4.68,4.68Z"></path><path class="cls-4" d="m363.49,345.27c0,1.55-1.25,2.8-2.8,2.8s-2.8-1.25-2.8-2.8,1.25-2.8,2.8-2.8,2.8,1.25,2.8,2.8Z"></path></g></g><g><g><rect class="cls-11" x="353.94" y="249.39" width="55.72" height="91.97" rx="5.33" ry="5.33"></rect><path class="cls-8" d="m363.58,336.02v-81.3c0-2.95,2.39-5.33,5.33-5.33h-3.28c-2.95,0-5.33,2.39-5.33,5.33v81.3c0,2.95,2.39,5.33,5.33,5.33h3.28c-2.95,0-5.33-2.39-5.33-5.33Z"></path><rect class="cls-11" x="367.63" y="249.39" width="55.72" height="91.97" rx="5.33" ry="5.33"></rect><path class="cls-9" d="m376.52,254.08c.97-.97,2.3-1.56,3.77-1.56h38.24"></path><line class="cls-9" x1="374.96" y1="300.67" x2="374.96" y2="259.99"></line><line class="cls-9" x1="374.96" y1="333.45" x2="374.96" y2="306.07"></line></g><path class="cls-8" d="m372.64,269.53c0,1.33-.65,2.41-1.45,2.41s-1.45-1.08-1.45-2.41.65-2.41,1.45-2.41,1.45,1.08,1.45,2.41Z"></path><path class="cls-8" d="m358.76,269.53c0,1.33-.65,2.41-1.45,2.41s-1.45-1.08-1.45-2.41.65-2.41,1.45-2.41,1.45,1.08,1.45,2.41Z"></path><ellipse class="cls-8" cx="371.2" cy="323.33" rx="1.45" ry="2.41"></ellipse><ellipse class="cls-8" cx="357.32" cy="323.33" rx="1.45" ry="2.41"></ellipse></g><path class="cls-8" d="m399.06,246.88h-22.56c-.75,0-1.35.6-1.35,1.35h0c0,.75.6,1.35,1.35,1.35h22.56c.75,0,1.35-.6,1.35-1.35h0c0-.75-.6-1.35-1.35-1.35Z"></path></g><g><g><rect class="cls-7" x="124.2" y="142.91" width="48.72" height="41.07"></rect><rect class="cls-8" x="122.27" y="142.91" width="48.72" height="41.07"></rect></g><g><path class="cls-11" d="m210.27,120.16s-22.33,8.62-22.33,11.39-1.88,48.64-1.88,48.64l60.58-2.35s-.55-47.86-1.52-49.38c-.97-1.52-19.09-9.41-19.09-9.41l-15.77,1.11Z"></path><path class="cls-4" d="m210.79,117.45s-2.9,1.85-1.45,5.47c1.45,3.62,15.25,34.53,15.25,34.53,0,0,3.38-18.17,4.01-24.76.62-6.59-.62-11.67-1.34-13.18-.71-1.51-2.76-3.3-2.76-3.3l-13.72,1.25Z"></path><path class="cls-4" d="m210.44,109.88s.36,7.57.45,8.73c.09,1.16,10.33,7.84,10.33,7.84,0,0,2.85-2.67,3.56-5.79.71-3.12.18-7.21.18-7.21l-14.52-3.56Z"></path><g><path class="cls-8" d="m202.12,100.9s1.58,3.5-.23,5.42c-1.81,1.92-5.31.45-8.35,5.19-3.05,4.74,1.92,4.85,2.37,6.21.45,1.35-.9,2.03-.23,4.18.68,2.15,4.85,1.81,5.76,1.35.9-.45,1.24,2.15,3.5,2.26,2.26.11,4.06-1.47,4.4-2.6s2.26-.56,3.05-2.6c.79-2.03.79-4.97-.45-7.11-1.24-2.15-1.35-3.61-2.71-6.89-1.35-3.27-6.32-7.79-7.11-5.42Z"></path><path class="cls-4" d="m208.89,89.16s-2.94.9-3.39,6.1c-.45,5.19.79,7.9.79,7.9,0,0-3.05-1.47-3.16.45-.11,1.92,1.47,5.19,2.48,5.53,1.02.34,2.94-.68,2.94-.68,0,0,2.03,3.73,3.39,4.74,1.35,1.02,6.32,3.5,9.6,3.05,3.27-.45,5.65-3.73,5.98-8.81.34-5.08-.56-13.44-2.26-16.15-1.69-2.71-10.39-7.34-16.37-2.15Z"></path><path class="cls-8" d="m206.3,103.16s-.79-3.16,2.37-6.32c3.16-3.16,8.02-3.95,9.71-5.42,1.69-1.47,2.48-3.27,2.48-3.27,0,0,.23,2.26,1.81,3.39,1.58,1.13,3.73,2.26,3.73,2.26,0,0,.11-2.48-1.35-5.87-1.47-3.39-6.21-5.19-6.21-5.19,0,0-4.29-2.82-11.18.56-6.89,3.39-7.68,13.44-6.55,15.69,1.13,2.26,2.03,4.63,2.03,4.63,0,0,1.92-1.69,3.16-.45Z"></path><path class="cls-14" d="m215.76,101.8c.21.75-.03,1.47-.53,1.61s-1.07-.36-1.28-1.11c-.21-.75.03-1.47.53-1.61.5-.14,1.07.36,1.28,1.11Z"></path><path class="cls-14" d="m224.53,99.21c.21.75-.03,1.47-.53,1.61-.5.14-1.07-.36-1.28-1.11-.21-.75.03-1.47.53-1.61s1.07.36,1.28,1.11Z"></path><path class="cls-9" d="m222.55,103.91s.53,1.07.18,1.6c-.36.53-1.16,1.07-1.96.71"></path><path class="cls-9" d="m224.15,108.01s-2.49,2.76-6.68,1.25"></path><path class="cls-9" d="m211.33,100.17s1.96-1.69,4.36-1.69"></path><path class="cls-9" d="m221.22,97.05s2.05-2.23,4.28-1.34"></path></g><path class="cls-9" d="m243.88,132.19s-7.75,39.28-9.27,45.51"></path><path class="cls-9" d="m193.61,136.67s7.67,37.99,7.25,41.45"></path><path class="cls-9" d="m205.29,124.31l2.9,11.34,3.73.83-2.21,3.04s7.47,16.46,10.1,21.16c2.63,4.7,6.78,12.45,6.78,12.45l-1.8-13.83"></path><path class="cls-9" d="m231.16,123.06l2.21,10.93-2.63.97,2.35,2.77s-.14,4.01-2.35,12.45c-2.21,8.44-3.87,12.17-3.87,12.17"></path><rect class="cls-4" x="232.95" y="147.13" width="8.16" height="3.32"></rect></g><g><path class="cls-4" d="m185.45,167.72h.85c3.16,0,5.73,2.57,5.73,5.73v.64h-12.31v-.64c0-3.16,2.57-5.73,5.73-5.73Z"></path><rect class="cls-4" x="179.7" y="173.02" width="12.35" height="3.15"></rect><circle class="cls-4" cx="185.82" cy="166.99" r=".85"></circle></g><g><rect class="cls-6" x="66.2" y="183.97" width="250.99" height="156.89"></rect><rect class="cls-8" x="66.2" y="183.97" width="250.99" height="30.59"></rect><rect class="cls-5" x="66.2" y="183.97" width="79.17" height="156.89"></rect><rect class="cls-8" x="66.2" y="183.97" width="79.17" height="29.89"></rect><rect class="cls-4" x="62.51" y="193.2" width="258.4" height="14.77"></rect><rect class="cls-4" x="149.48" y="193.2" width="171.43" height="14.77"></rect><rect class="cls-4" x="62.51" y="176.13" width="258.4" height="14.77"></rect><rect class="cls-4" x="149.48" y="176.13" width="171.43" height="14.77"></rect></g></g><g><g><path class="cls-4" d="m342.56,331.07s.77,9.83-.39,10.8c-1.16.96-12.92.58-12.92.58l.19-12.92,13.11,1.54Z"></path><path class="cls-4" d="m342.17,341.86c.35-.29.53-1.42.6-2.84l-13.47.63-.04,2.79s11.76.39,12.92-.58Z"></path></g><path class="cls-8" d="m336.78,253.75l4.05,71.15,1.35,1.54.39,4.63s-4.24.58-9.06.77l-4.82.19,1.54-70.76,4.63-17.55,1.93,10.03Z"></path><g><path class="cls-4" d="m313.25,328.75l-9.06,5.4-9.45,2.7s-4.43,1.16-4.63,2.12c-.19.96-.58,2.89.77,3.66,1.35.77,11.76,2.12,19.86,2.12s20.25-.39,21.02-1.16c.77-.77-.19-12.92-.19-12.92l-18.32-1.93Z"></path><path class="cls-4" d="m331.76,343.6c.19-.19.27-1.04.29-2.23-2.61.33-7.16.76-14.56,1.08-10.68.46-22.93-1.14-27.57-1.82,0,.79.21,1.58.97,2.02,1.35.77,11.76,2.12,19.86,2.12s20.25-.39,21.02-1.16Z"></path></g><path class="cls-8" d="m309.4,212.1s5.01,53.02,5.4,56.69c.39,3.66.58,56.3.58,56.3l-2.31.77-1.16,2.89s10.41,5.98,14.46,6.17c4.05.19,5.21-1.54,5.21-1.54,0,0,1.54-5.59,1.54-6.56v-4.43l2.7-59.19,5.4-44.15,3.86-10.99-36.25-.19.58,4.24Z"></path><path class="cls-8" d="m308.59,119.84s-5.89,9.46-6.25,14.29c-.36,4.82,0,25.36-1.07,24.82s14.64-38.39,14.64-38.39l-7.32-.71Z"></path><g><path class="cls-4" d="m284.19,99.4s1.27,7.3,2.06,8.42c.79,1.11,2.06,1.75,2.86,3.18.79,1.43.95,5.72,1.91,6.19.95.48,3.81-.48,3.81-.48,0,0,3.49,4.13,4.45,5.24.95,1.11,2.38.64,3.65.16,1.27-.48,3.33-2.54,3.33-2.54l3.02,2.06,11.27-16.67s-3.81-3.97-4.13-4.92c-.32-.95-.46-1.77-.46-1.77,0,0-4.14-5.38-11.61-7.44-7.46-2.06-13.5-.32-15.56,1.91-2.06,2.22-4.61,6.67-4.61,6.67Z"></path><path class="cls-8" d="m287.66,85.91s-1.37,4.29-2.74,5.32-4.29-.51-5.15,3.6c-.86,4.12,2.06,3.6,2.06,3.6,0,0-1.89,2.06.86,2.74,2.74.69,6.52-4.97,6.52-4.97,0,0,1.2,1.37,2.06,3.09.86,1.72,2.57,1.89,4.12,1.72,1.54-.17,2.57-.51,2.57-.51,0,0,.86,3.6,1.89,3.77,1.03.17,2.4,0,2.57-.51.17-.51-.17-6.18,2.74-6.52s5.66,3.43,6.86,3.6c1.2.17,3.95-2.06,3.95-2.57s-1.54-4.8-1.72-6.69c-.17-1.89-1.37-6.52-6-9.44-4.63-2.92-9.95-1.54-9.95-1.54,0,0-7.2-1.54-10.64,5.32Z"></path><path class="cls-4" d="m304.04,101.78s-2.53-4.96,1.12-4.55c3.65.42,4.6,3.44,4.44,6.61-.16,3.18-2.86,3.18-2.86,3.18"></path><path class="cls-9" d="m288.98,109.01s1.05-1.47,3.25-1.68"></path><path class="cls-9" d="m291.6,110.68s1.5.13,2.45-2.17"></path><path class="cls-9" d="m297.05,116.98s1.05-1.57.52-3.36"></path><polygon class="cls-8" points="306.26 119.57 308.82 116.1 309.28 121.63 306.26 119.57"></polygon></g><g><path class="cls-11" d="m321.09,102.52s-13.57,21.96-14.82,25.54c-1.25,3.57-6.07,21.61-6.25,27.86-.18,6.25-3.75,58.57-3.75,58.57,0,0,12.32,1.79,18.04.36s10-3.93,11.25-4.11c1.25-.18,10.54,3.57,12.5,3.75,1.96.18,10.36-2.14,10.36-2.14,0,0,.89-17.5-.54-27.14-1.43-9.64-2.68-15.36-2.68-15.36,0,0-.36-29.11-4.46-41.25-4.11-12.14-13.93-21.61-14.46-21.96-.54-.36-3.75-5.18-5.18-4.11Z"></path><path class="cls-9" d="m324.84,106.98s-10.71,14.11-12.68,17.5c-1.96,3.39-6.43,18.04-8.21,23.04"></path><path class="cls-9" d="m321.31,165.92s11.66,7.24,18.9,6.84"></path><path class="cls-9" d="m324.12,173.56s8.04,6.44,10.06,8.85"></path><line class="cls-9" x1="325.31" y1="198.61" x2="326.13" y2="206.14"></line><path class="cls-9" d="m325.73,159.88l.4,8.45s2.82,3.22,1.61,6.44-4.42,5.63-4.42,5.63l1.52,13.87"></path></g><g><path class="cls-4" d="m270.85,162.48s1.47-.62,2.78-.46,7.94,3.62,8.25,3.93,4.09,1.16,4.09,1.16l.23,1.93-18.82-1.39s.46-2.24.93-2.7c.46-.46.93-.77.93-.77l1.62-1.7Z"></path><polygon class="cls-4" points="272.09 168.34 270.98 167.91 276.23 156.43 277.34 156.87 272.09 168.34"></polygon><path class="cls-4" d="m276.99,162.16s-4.64,3.75-3.93,4.29q.71.54,1.61.54c.89,0,4.64-2.14,4.82-2.68.18-.54-1.79-2.32-2.5-2.14Z"></path><path class="cls-4" d="m270.85,162.48s-2.62.54-2.54,1.23c.08.69,1.47,3.01,1.77,3.47.31.46,1.47.93,1.77.39s-.93-3.47-.85-4.01l-.15-1.08Z"></path></g><g><path class="cls-4" d="m247.64,166.55s-2.9.68-5.6,2.22-6.38,2.32-6.38,2.32c0,0,4.73,2.32,8.31,3,3.58.68,7.73-.1,7.73-.1,0,0-1.93-6.38-4.06-7.44Z"></path><g><path class="cls-4" d="m284.84,167.16l-19.29-.36-11.25-1.96s-7.68,1.25-8.39,2.5c-.71,1.25.54,1.96.54,1.96l1.61-.18s1.25,4.82,2.14,5.71,3.57,1.43,4.29,1.43,11.96-.89,11.96-.89l26.07,2.68-7.68-10.89Z"></path><path class="cls-11" d="m311.99,126.09s-3.21,4.64-3.57,7.68c-.36,3.04-1.79,12.14-1.79,12.14l-5.36,13.04-9.29,4.29s-1.61,4.29-.18,8.04c1.43,3.75,4.46,6.07,4.46,6.07,0,0,13.75-1.61,16.96-4.11,3.21-2.5,13.39-20.18,13.75-21.07.36-.89,8.39-18.39,8.39-18.39"></path><path class="cls-4" d="m294.49,163.95s-.36-3.39-2.86-2.14c-2.5,1.25-7.5,1.96-6.79,5.36.71,3.39,3.57,8.21,5.71,10.18,2.14,1.96,5,1.96,8.04.71,3.04-1.25-4.46-4.29-4.11-14.11Z"></path></g></g></g><g><polygon class="cls-11" points="161.57 .38 136.11 .38 145.03 -32 152.66 -32 161.57 .38"></polygon><polygon class="cls-11" points="204.94 .38 179.47 .38 188.39 -32 196.02 -32 204.94 .38"></polygon><polygon class="cls-11" points="248.3 .38 222.84 .38 231.75 -32 239.38 -32 248.3 .38"></polygon><polygon class="cls-11" points="291.66 .38 266.2 .38 275.11 -32 282.75 -32 291.66 .38"></polygon></g></g></g></g></svg>