<svg xmlns="http://www.w3.org/2000/svg" xmlns:xlink="http://www.w3.org/1999/xlink" id="Layer_2" data-name="Layer 2" viewBox="0 0 487.35 345.54"><defs><style> .cls-1 { fill: #e9e9e9; } .cls-2 { clip-path: url(#clippath-11); } .cls-3, .cls-4 { fill: #fff; } .cls-5, .cls-6, .cls-7, .cls-8, .cls-4, .cls-9, .cls-10 { stroke-linecap: round; stroke-linejoin: round; } .cls-5, .cls-6, .cls-8, .cls-4, .cls-9, .cls-10 { stroke: #263238; } .cls-5, .cls-11 { fill: #edbc9c; } .cls-6 { fill: #757575; } .cls-12 { opacity: .5; } .cls-13 { clip-path: url(#clippath-2); } .cls-14 { clip-path: url(#clippath-13); } .cls-15 { isolation: isolate; } .cls-16 { opacity: .2; } .cls-17 { clip-path: url(#clippath-6); } .cls-18 { fill: #a6c479; } .cls-7 { stroke: #fff; } .cls-7, .cls-19, .cls-9, .cls-10 { fill: none; } .cls-20 { clip-path: url(#clippath-7); } .cls-21 { clip-path: url(#clippath-1); } .cls-22 { clip-path: url(#clippath-4); } .cls-23 { opacity: .4; } .cls-8 { fill: #999; } .cls-24 { clip-path: url(#clippath-12); } .cls-25 { opacity: .3; } .cls-26 { clip-path: url(#clippath-9); } .cls-27 { clip-path: url(#clippath); } .cls-28 { fill: #2e353a; } .cls-9 { stroke-width: 2px; } .cls-29 { clip-path: url(#clippath-3); } .cls-30 { clip-path: url(#clippath-8); } .cls-31 { clip-path: url(#clippath-5); } .cls-32 { clip-path: url(#clippath-10); } </style><clipPath id="clippath"><rect class="cls-19" width="487.35" height="345.54"></rect></clipPath><clipPath id="clippath-1"><polygon class="cls-4" points="238.38 139.55 231.79 265.03 148.3 260.64 148.99 247.35 154.89 135.17 207.46 137.93 238.38 139.55"></polygon></clipPath><clipPath id="clippath-2"><polygon class="cls-4" points="182.9 229.52 102.35 251.9 68.71 130.84 102.06 121.57 149.26 108.46 179.78 218.3 182.9 229.52"></polygon></clipPath><clipPath id="clippath-3"><path class="cls-18" d="m402.93,175.62l-12.24,45.18c-1.01,3.73-4.96,6.75-8.82,6.75h-69.84c-3.86,0-6.17-3.02-5.16-6.75l12.25-45.18c1.01-3.72,4.96-6.75,8.82-6.75h69.83c3.86,0,6.17,3.03,5.16,6.75Z"></path></clipPath><clipPath id="clippath-4"><path class="cls-18" d="m367.92,263.61v8.24h-89.92v-8.24c0-3.35,2.71-6.06,6.06-6.06h77.79c2.8,0,5.16,1.89,5.86,4.47.14.5.21,1.04.21,1.59Z"></path></clipPath><clipPath id="clippath-5"><path class="cls-28" d="m275.08,269.61c-4.31,4.39,16.58,73.37,16.58,73.37-2.28,1.98-5.64,2.92-8.82,3.34-4.6.61-8.81.13-8.81.13,0,0-29.94-72.62-21.7-90.64s59.37-26.27,59.37-26.27l2.18-5.4,26.45-3.72,4.37,32.39s-4.34.42-10.87,1.26c-17.51,2.25-50.83,7.48-58.75,15.54Z"></path></clipPath><clipPath id="clippath-6"><path class="cls-4" d="m260.28,204.28c-4.39-.76,26.86-28.15,26.86-28.15l15.07,10.14s-25.64,18.06-29.67,18.55c-4.03.49-12.25-.54-12.25-.54Z"></path></clipPath><clipPath id="clippath-7"><path class="cls-18" d="m287.44,335.65l8.31,21.86s1.38,5.63-23.74,3.85l-13.85-1.19,29.27-24.53Z"></path></clipPath><clipPath id="clippath-8"><path class="cls-5" d="m315.13,177.96s-1.24-2.95-1.02-7.43c.04-.81.12-1.66.27-2.55l-1.69-2.68-2.17-3.45,2.51-10.05s15.98,3.08,17.2,7.54c1.21,4.48-15.1,18.62-15.1,18.62Z"></path></clipPath><clipPath id="clippath-9"><path class="cls-18" d="m372.01,297.54s-12.39,7.32-21.19,22.02c-8.8,14.7-15.78,35.38-4.94,37.96l10.31-.39,19.84-6.81-2.08-4.03s-17.38,9.21-20.35,9.21-6.83.74-8.46-.45c-1.63-1.19,5.71-27.92,21.42-36.83,15.71-8.91,5.46-20.68,5.46-20.68Z"></path></clipPath><clipPath id="clippath-10"><path class="cls-18" d="m373.64,357.52c-13.81,0-11.19-61.93-9.6-65.02s41.66-4.6,45.61-3.3c3.95,1.3,19.79,63.03,11.05,67.93l-47.05.39Z"></path></clipPath><clipPath id="clippath-11"><path class="cls-18" d="m400.46,304.15l5.88,4.8c.35.28.39.81.08,1.14l-4.57,4.94c-.3.32-.8.34-1.11.04l-5.84-5.53c-.33-.31-.32-.83,0-1.14l4.53-4.21c.29-.27.72-.28,1.03-.03Z"></path></clipPath><clipPath id="clippath-12"><path class="cls-18" d="m381.07,329.36s26.58,2.19,39.63-1.19c0,0,2.55,1.78,3.74,5.35,1.19,3.56,3.67,15.74-3.74,18.86-7.4,3.12-33.99,2.52-37.55-1.04s-2.08-21.98-2.08-21.98Z"></path></clipPath><clipPath id="clippath-13"><path class="cls-18" d="m369.93,327.57s.89,17.67,2.67,21.68c0,0-4.06,2.38-8.57,0-4.5-2.38-3.76-17.6-2.87-17.56.89.04,8.76-4.12,8.76-4.12Z"></path></clipPath></defs><g id="Bag"><g class="cls-27"><g class="cls-15"><path class="cls-1" d="m358.55,188.33c-.04-56.91,8.52-71.98-22.29-120.06-30.81-48.08-106.44-58.72-163.61-23.06-57.17,35.66-72.57,81.52-72.57,81.52,0,0-20.74,53.56,8.41,107.52,26.66,49.35,79.16,77.39,124.7,100.46h116.43c6.88-5.78,12.9-12.82,17.8-21.06,23.71-39.91-8.81-68.4-8.85-125.31Z"></path><path class="cls-1" d="m358.55,188.33c-.04-56.91,8.52-71.98-22.29-120.06-30.81-48.08-106.44-58.72-163.61-23.06-57.17,35.66-72.57,81.52-72.57,81.52,0,0-20.74,53.56,8.41,107.52,26.66,49.35,79.16,77.39,124.7,100.46h116.43c6.88-5.78,12.9-12.82,17.8-21.06,23.71-39.91-8.81-68.4-8.85-125.31Z"></path></g><g><g><path class="cls-10" d="m62.08,192.99s-13.93-.21-13.95,11.82"></path><path class="cls-10" d="m60.93,200.56c-.29-1.77-6.36-3.96-7.4.62-1.05,4.58,6.48,1.84,8.81-.32,0,0-4.32,4.2-2.96,5.39"></path><path class="cls-10" d="m61.79,207.58s-1.83,2.3-3.82,1.21"></path><path class="cls-10" d="m73.96,199.52l-10.45,10.66s5.22-5.33,8.3-3.64c3.8,2.09-1.13,7.78-5.19,3.7"></path><path class="cls-10" d="m79.24,202.42s2.76,12.7-11.53,13.15"></path></g><line class="cls-10" x1="283.86" y1="-12.34" x2="291.52" y2="1.18"></line><g><path class="cls-10" d="m196.93,7.08c-1.29-1.64-8.72-.47-7.21,4.8,1.5,5.27,7.65-1.76,8.82-5.27,0,0-2.05,6.72,0,7.16"></path><path class="cls-10" d="m202.62,1.67l-1.66,5.94s.83-2.97,2.28-2.97c1.79,0,1.14,3.04-1.14,2.37"></path></g><g><polyline class="cls-10" points="342.7 74.39 339.19 87.04 346.85 95.41"></polyline><line class="cls-10" x1="347.08" y1="79.53" x2="355.84" y2="86.86"></line><line class="cls-10" x1="353.11" y1="77.73" x2="349.32" y2="87.03"></line><path class="cls-10" d="m359.27,85.84s.08,2.64-1.06,2.98"></path><line class="cls-10" x1="360.38" y1="76.62" x2="365.67" y2="80.55"></line><line class="cls-10" x1="367.63" y1="73.38" x2="362.41" y2="92.18"></line><polyline class="cls-10" points="367.89 66.86 376.37 76.46 372.76 86.96"></polyline></g><g><polygon class="cls-10" points="134.35 314.58 146.62 278.06 161.5 294.67 134.35 314.58"></polygon><polyline class="cls-10" points="157.85 297.34 154.71 293.74 158.06 290.84"></polyline></g><g><circle class="cls-10" cx="57.04" cy="97.85" r="12.49" transform="translate(-33.11 29.28) rotate(-22.5)"></circle><circle class="cls-10" cx="70.9" cy="86.92" r="13.86"></circle><line class="cls-10" x1="59.5" y1="85.6" x2="57.81" y2="91.48"></line><line class="cls-10" x1="61.9" y1="86.34" x2="59.5" y2="94.8"></line><line class="cls-10" x1="64.4" y1="87.76" x2="61.9" y2="97.32"></line><line class="cls-10" x1="67.19" y1="90.57" x2="65.4" y2="99.65"></line><line class="cls-10" x1="68.76" y1="93.53" x2="67.19" y2="100.27"></line><path class="cls-10" d="m45.1,81.85c-1.09-.34-4.08,2.5-1.76,4.41,2.32,1.91,2.91-3.18,2.34-5.13,0,0,1.17,3.67,2.23,3.23"></path><path class="cls-10" d="m61.22,65.81l3.97,7.28s-1.99-3.64-.59-5.01c1.73-1.68,3.96,1.86,1.13,3.36"></path></g><g><line class="cls-10" x1="134.31" y1="64.95" x2="139.96" y2="70.3"></line><line class="cls-10" x1="139.96" y1="63.55" x2="135.23" y2="70.62"></line><line class="cls-10" x1="145.52" y1="65.58" x2="151.17" y2="63.48"></line><line class="cls-10" x1="153.88" y1="57.59" x2="157.32" y2="60.63"></line><line class="cls-10" x1="159.95" y1="53.93" x2="155.6" y2="68.87"></line></g><path class="cls-10" d="m406.91,50.93l-.23-11.42h8.63s-4.78,2.63-2.59,8.78,5.75,2.63,5.75,2.63"></path><g><polygon class="cls-10" points="392.29 245.73 402.11 238.98 415.11 239.89 415.92 256.37 406.38 263.2 394.6 262.34 392.29 245.73"></polygon><polyline class="cls-10" points="394.6 262.34 404.11 255.49 415.92 256.37"></polyline><line class="cls-10" x1="404.11" y1="255.49" x2="402.11" y2="238.98"></line><polyline class="cls-10" points="392.29 245.73 405.26 247.24 415.11 239.89"></polyline><line class="cls-10" x1="405.26" y1="247.24" x2="406.38" y2="263.2"></line></g><g><polygon class="cls-10" points="394.08 121.95 393.66 143.93 412.91 135.19 394.08 121.95"></polygon><line class="cls-10" x1="394.08" y1="121.95" x2="403.25" y2="139.44"></line><polyline class="cls-10" points="401.78 136.64 404.01 135.56 405.51 138.55"></polyline></g><g><line class="cls-10" x1="226.24" y1="119.87" x2="234.2" y2="128.41"></line><line class="cls-10" x1="234.26" y1="118.73" x2="227.57" y2="127.88"></line><path class="cls-10" d="m237.52,114.26s1.85-.72,2.24,1.2-2.76,4.42-2.76,4.42h4.49"></path></g><g><path class="cls-10" d="m124.42,22.55c-7.45-1.78-13.7-6.4-17.65-12.57"></path><path class="cls-10" d="m160.07-3.32c-1.27,15.95-15.24,27.85-31.19,26.58"></path><path class="cls-10" d="m143.69,16.68c-4.27,2.4-9.28,3.6-14.53,3.18-14.07-1.12-24.57-13.44-23.45-27.52"></path><path class="cls-10" d="m107.33-14.82c3.96-10.29,14.34-17.2,25.89-16.28,14.07,1.12,24.57,13.44,23.45,27.52-.46,5.79-2.82,10.97-6.41,14.99"></path></g><g><path class="cls-10" d="m351.67,30.14c-8.34.08-16.18-5.09-19.11-13.4-2.76-7.84-.36-16.24,5.42-21.5"></path><path class="cls-10" d="m370.46,16.55c-1.92,5.61-6.3,10.32-12.32,12.45"></path><path class="cls-10" d="m344.82-8.84c10.45-3.68,21.9,1.81,25.58,12.26"></path><path class="cls-10" d="m361.38-4.59c3.04,2.05,5.48,5.06,6.79,8.79,3.25,9.22-1.6,19.32-10.81,22.57-6.91,2.43-14.32.32-18.97-4.78"></path><path class="cls-10" d="m334.79,15.95c-3.25-9.22,1.6-19.32,10.81-22.57,3.46-1.22,7.04-1.3,10.34-.43"></path><polyline class="cls-10" points="344.72 -.85 351.48 10.08 345.32 18.07"></polyline></g><g><path class="cls-10" d="m209.74,309c0-5.54,2.8-10.43,7.07-13.32"></path><path class="cls-10" d="m237.48,320.08c-2.93,3.08-7.07,5-11.66,5-7.07,0-13.08-4.56-15.23-10.9"></path><path class="cls-10" d="m225.82,292.91c8.88,0,16.09,7.2,16.09,16.09"></path><path class="cls-10" d="m225.82,323.19c-7.84,0-14.19-6.35-14.19-14.19"></path><path class="cls-10" d="m214.77,300.09c2.6-3.22,6.59-5.29,11.05-5.29,7.84,0,14.19,6.35,14.19,14.19,0,5.33-2.94,9.98-7.29,12.4"></path><polyline class="cls-10" points="223.62 318.64 225.82 309 222.75 301.11"></polyline></g></g><g><g><g><polygon class="cls-3" points="238.38 139.55 231.79 265.03 148.3 260.64 148.99 247.35 154.89 135.17 207.46 137.93 238.38 139.55"></polygon><g class="cls-21"><polygon class="cls-16" points="212.32 213.07 193.51 214.62 199 238.31 148.99 247.35 154.89 135.17 207.46 137.93 212.32 213.07"></polygon></g><polygon class="cls-10" points="238.38 139.55 231.79 265.03 148.3 260.64 148.99 247.35 154.89 135.17 207.46 137.93 238.38 139.55"></polygon></g><line class="cls-9" x1="160.78" y1="143.75" x2="182.51" y2="144.89"></line><line class="cls-9" x1="160.56" y1="147.92" x2="175.34" y2="148.7"></line><g><line class="cls-9" x1="165.34" y1="158.05" x2="227.83" y2="161.33"></line><line class="cls-9" x1="165.12" y1="162.22" x2="227.61" y2="165.5"></line><line class="cls-9" x1="164.86" y1="167.08" x2="218.17" y2="169.88"></line></g><g><rect class="cls-10" x="164.76" y="171.66" width="5.09" height="5.09" transform="translate(9.37 -8.54) rotate(3.01)"></rect><rect class="cls-10" x="173.97" y="172.14" width="5.09" height="5.09" transform="translate(9.41 -9.02) rotate(3.01)"></rect><rect class="cls-10" x="183.19" y="172.63" width="5.09" height="5.09" transform="translate(9.44 -9.5) rotate(3.01)"></rect><rect class="cls-10" x="192.4" y="173.11" width="5.09" height="5.09" transform="translate(9.48 -9.98) rotate(3.01)"></rect></g><path class="cls-28" d="m162.01,157.87c-.04.7-.64,1.24-1.34,1.21-.7-.04-1.24-.64-1.21-1.34.04-.7.64-1.24,1.34-1.2.7.04,1.24.64,1.2,1.34Z"></path><g><line class="cls-9" x1="164.06" y1="182.38" x2="226.56" y2="185.66"></line><line class="cls-9" x1="163.84" y1="186.55" x2="226.34" y2="189.83"></line><line class="cls-9" x1="163.59" y1="191.41" x2="216.89" y2="194.21"></line></g><g><rect class="cls-10" x="163.48" y="195.99" width="5.09" height="5.09" transform="translate(10.64 -8.43) rotate(3.01)"></rect><rect class="cls-10" x="172.7" y="196.47" width="5.09" height="5.09" transform="translate(10.68 -8.92) rotate(3.01)"></rect><rect class="cls-10" x="181.91" y="196.95" width="5.09" height="5.09" transform="translate(10.72 -9.4) rotate(3.01)"></rect><rect class="cls-10" x="191.12" y="197.44" width="5.09" height="5.09" transform="translate(10.76 -9.88) rotate(3.01)"></rect></g><path class="cls-28" d="m160.73,182.2c-.04.7-.64,1.24-1.34,1.2-.7-.04-1.24-.64-1.21-1.34.04-.7.64-1.24,1.34-1.21.7.04,1.24.64,1.21,1.34Z"></path><g><line class="cls-9" x1="162.78" y1="206.71" x2="225.28" y2="209.99"></line><line class="cls-9" x1="162.56" y1="210.88" x2="225.06" y2="214.16"></line><line class="cls-9" x1="162.31" y1="215.74" x2="215.61" y2="218.54"></line></g><g><rect class="cls-10" x="162.21" y="220.32" width="5.09" height="5.09" transform="translate(11.92 -8.34) rotate(3.01)"></rect><rect class="cls-10" x="171.42" y="220.8" width="5.09" height="5.09" transform="translate(11.96 -8.82) rotate(3.01)"></rect><rect class="cls-10" x="180.63" y="221.28" width="5.09" height="5.09" transform="translate(11.99 -9.3) rotate(3.01)"></rect><rect class="cls-10" x="189.84" y="221.77" width="5.09" height="5.09" transform="translate(12.03 -9.79) rotate(3.01)"></rect></g><path class="cls-28" d="m159.46,206.53c-.04.7-.64,1.24-1.34,1.21-.7-.04-1.24-.64-1.21-1.34.04-.7.64-1.24,1.34-1.2.7.04,1.24.64,1.21,1.34Z"></path><g><line class="cls-9" x1="161.47" y1="231.73" x2="223.96" y2="235.01"></line><line class="cls-9" x1="161.25" y1="235.9" x2="223.74" y2="239.18"></line><line class="cls-9" x1="160.99" y1="240.77" x2="214.3" y2="243.57"></line></g><g><rect class="cls-10" x="160.89" y="245.34" width="5.09" height="5.09" transform="translate(13.23 -8.23) rotate(3.01)"></rect><rect class="cls-10" x="170.1" y="245.83" width="5.09" height="5.09" transform="translate(13.27 -8.72) rotate(3.01)"></rect><rect class="cls-10" x="179.32" y="246.31" width="5.09" height="5.09" transform="translate(13.31 -9.2) rotate(3.01)"></rect><rect class="cls-10" x="188.53" y="246.79" width="5.09" height="5.09" transform="translate(13.35 -9.68) rotate(3.01)"></rect></g><path class="cls-28" d="m158.14,231.56c-.04.7-.64,1.24-1.34,1.21s-1.24-.64-1.21-1.34c.04-.7.64-1.24,1.34-1.21s1.24.64,1.21,1.34Z"></path><polyline class="cls-9" points="166.62 173.65 167.28 174.79 169.99 171.79"></polyline><polyline class="cls-9" points="183.78 198.64 184.44 199.78 187.15 196.79"></polyline><polyline class="cls-9" points="192.39 224.32 193.05 225.45 195.76 222.46"></polyline><polyline class="cls-9" points="171.99 247.24 172.65 248.37 175.36 245.38"></polyline></g><g><g><polygon class="cls-3" points="182.9 229.52 102.35 251.9 68.71 130.84 102.06 121.57 149.26 108.46 179.78 218.3 182.9 229.52"></polygon><g class="cls-13"><polygon class="cls-16" points="179.78 218.3 117.5 222.33 102.06 121.57 149.26 108.46 179.78 218.3"></polygon></g><polygon class="cls-10" points="182.9 229.52 102.35 251.9 68.71 130.84 102.06 121.57 149.26 108.46 179.78 218.3 182.9 229.52"></polygon></g><line class="cls-9" x1="77.02" y1="137.1" x2="97.99" y2="131.28"></line><line class="cls-9" x1="78.14" y1="141.13" x2="92.4" y2="137.17"></line><g><line class="cls-9" x1="85.89" y1="149.21" x2="146.19" y2="132.45"></line><line class="cls-9" x1="87.01" y1="153.23" x2="147.3" y2="136.48"></line><line class="cls-9" x1="88.31" y1="157.93" x2="139.74" y2="143.64"></line></g><g><rect class="cls-10" x="90.35" y="161.35" width="5.09" height="5.09" transform="translate(-40.49 30.85) rotate(-15.53)"></rect><rect class="cls-10" x="99.24" y="158.88" width="5.09" height="5.09" transform="translate(-39.5 33.14) rotate(-15.53)"></rect><rect class="cls-10" x="108.12" y="156.41" width="5.09" height="5.09" transform="translate(-38.52 35.43) rotate(-15.53)"></rect><rect class="cls-10" x="117.01" y="153.94" width="5.09" height="5.09" transform="translate(-37.53 37.72) rotate(-15.53)"></rect></g><path class="cls-28" d="m82.68,150.1c.19.68-.21,1.38-.89,1.57s-1.38-.21-1.57-.89c-.19-.68.21-1.38.89-1.57.68-.19,1.38.21,1.57.89Z"></path><g><line class="cls-9" x1="92.41" y1="172.68" x2="152.71" y2="155.93"></line><line class="cls-9" x1="93.53" y1="176.71" x2="153.83" y2="159.95"></line><line class="cls-9" x1="94.84" y1="181.4" x2="146.26" y2="167.11"></line></g><g><rect class="cls-10" x="96.87" y="184.83" width="5.09" height="5.09" transform="translate(-46.54 33.46) rotate(-15.53)"></rect><rect class="cls-10" x="105.76" y="182.36" width="5.09" height="5.09" transform="translate(-45.55 35.75) rotate(-15.53)"></rect><rect class="cls-10" x="114.65" y="179.89" width="5.09" height="5.09" transform="translate(-44.57 38.04) rotate(-15.53)"></rect><rect class="cls-10" x="123.54" y="177.42" width="5.09" height="5.09" transform="translate(-43.58 40.32) rotate(-15.53)"></rect></g><path class="cls-28" d="m89.2,173.57c.19.68-.21,1.38-.89,1.57-.68.19-1.38-.21-1.57-.89-.19-.68.21-1.38.89-1.57.68-.19,1.38.21,1.57.89Z"></path><g><line class="cls-9" x1="98.94" y1="196.16" x2="159.23" y2="179.4"></line><line class="cls-9" x1="100.05" y1="200.18" x2="160.35" y2="183.43"></line><line class="cls-9" x1="101.36" y1="204.87" x2="152.78" y2="190.58"></line></g><g><rect class="cls-10" x="103.39" y="208.3" width="5.09" height="5.09" transform="translate(-52.58 36.06) rotate(-15.53)"></rect><rect class="cls-10" x="112.28" y="205.83" width="5.09" height="5.09" transform="translate(-51.6 38.35) rotate(-15.53)"></rect><rect class="cls-10" x="121.17" y="203.36" width="5.09" height="5.09" transform="translate(-50.61 40.64) rotate(-15.53)"></rect><rect class="cls-10" x="130.06" y="200.89" width="5.09" height="5.09" transform="translate(-49.63 42.93) rotate(-15.53)"></rect></g><path class="cls-28" d="m95.73,197.05c.19.68-.21,1.38-.89,1.57-.68.19-1.38-.21-1.57-.89s.21-1.38.89-1.57c.68-.19,1.38.21,1.57.89Z"></path><g><line class="cls-9" x1="105.64" y1="220.3" x2="165.94" y2="203.55"></line><line class="cls-9" x1="106.76" y1="224.32" x2="167.06" y2="207.57"></line><line class="cls-9" x1="108.07" y1="229.02" x2="159.49" y2="214.73"></line></g><g><rect class="cls-10" x="110.1" y="232.45" width="5.09" height="5.09" transform="translate(-58.8 38.74) rotate(-15.53)"></rect><rect class="cls-10" x="118.99" y="229.98" width="5.09" height="5.09" transform="translate(-57.82 41.03) rotate(-15.53)"></rect><rect class="cls-10" x="127.88" y="227.51" width="5.09" height="5.09" transform="translate(-56.83 43.32) rotate(-15.53)"></rect><rect class="cls-10" x="136.77" y="225.04" width="5.09" height="5.09" transform="translate(-55.84 45.61) rotate(-15.53)"></rect></g><path class="cls-28" d="m102.44,221.19c.19.68-.21,1.38-.89,1.57-.68.19-1.38-.21-1.57-.89-.19-.68.21-1.38.89-1.57.68-.19,1.38.21,1.57.89Z"></path><polyline class="cls-9" points="100.43 161.26 101.42 162.12 103.04 158.43"></polyline><polyline class="cls-9" points="98.02 187.45 99.01 188.32 100.62 184.62"></polyline><polyline class="cls-9" points="104.54 210.68 105.52 211.55 107.14 207.85"></polyline><polyline class="cls-9" points="129.01 229.71 130 230.58 131.61 226.88"></polyline></g><g><rect class="cls-4" x="113.36" y="84.22" width="83.6" height="125.65" transform="translate(-13.35 15.51) rotate(-5.49)"></rect><line class="cls-9" x1="114.64" y1="96.12" x2="136.3" y2="94.04"></line><line class="cls-9" x1="115.04" y1="100.28" x2="129.77" y2="98.86"></line><g><line class="cls-9" x1="121.26" y1="109.58" x2="183.55" y2="103.6"></line><line class="cls-9" x1="121.66" y1="113.74" x2="183.95" y2="107.76"></line><line class="cls-9" x1="122.13" y1="118.59" x2="175.25" y2="113.49"></line></g><g><rect class="cls-10" x="123.05" y="122.73" width="5.09" height="5.09" transform="translate(-11.4 12.58) rotate(-5.49)"></rect><rect class="cls-10" x="132.23" y="121.85" width="5.09" height="5.09" transform="translate(-11.28 13.46) rotate(-5.49)"></rect><rect class="cls-10" x="141.41" y="120.96" width="5.09" height="5.09" transform="translate(-11.15 14.33) rotate(-5.49)"></rect><rect class="cls-10" x="150.6" y="120.08" width="5.09" height="5.09" transform="translate(-11.02 15.2) rotate(-5.49)"></rect></g><path class="cls-28" d="m117.94,109.9c.07.7-.45,1.32-1.15,1.39-.7.07-1.32-.45-1.39-1.15-.07-.7.45-1.32,1.15-1.39.7-.07,1.32.45,1.39,1.15Z"></path><g><line class="cls-9" x1="123.59" y1="133.84" x2="185.88" y2="127.85"></line><line class="cls-9" x1="123.99" y1="137.99" x2="186.28" y2="132.01"></line><line class="cls-9" x1="124.45" y1="142.84" x2="177.58" y2="137.74"></line></g><g><rect class="cls-10" x="125.38" y="146.98" width="5.09" height="5.09" transform="translate(-13.71 12.92) rotate(-5.49)"></rect><rect class="cls-10" x="134.56" y="146.1" width="5.09" height="5.09" transform="translate(-13.58 13.79) rotate(-5.49)"></rect><rect class="cls-10" x="143.74" y="145.22" width="5.09" height="5.09" transform="translate(-13.46 14.66) rotate(-5.49)"></rect><rect class="cls-10" x="152.93" y="144.33" width="5.09" height="5.09" transform="translate(-13.33 15.54) rotate(-5.49)"></rect></g><path class="cls-28" d="m120.27,134.16c.07.7-.45,1.32-1.15,1.39s-1.32-.45-1.39-1.15c-.07-.7.45-1.32,1.15-1.39.7-.07,1.32.45,1.39,1.15Z"></path><g><line class="cls-9" x1="125.92" y1="158.09" x2="188.21" y2="152.11"></line><line class="cls-9" x1="126.32" y1="162.25" x2="188.61" y2="156.26"></line><line class="cls-9" x1="126.78" y1="167.1" x2="179.91" y2="161.99"></line></g><g><rect class="cls-10" x="127.71" y="171.23" width="5.09" height="5.09" transform="translate(-16.02 13.25) rotate(-5.49)"></rect><rect class="cls-10" x="136.89" y="170.35" width="5.09" height="5.09" transform="translate(-15.9 14.13) rotate(-5.49)"></rect><rect class="cls-10" x="146.07" y="169.47" width="5.09" height="5.09" transform="translate(-15.76 14.99) rotate(-5.49)"></rect><rect class="cls-10" x="155.26" y="168.59" width="5.09" height="5.09" transform="translate(-15.64 15.87) rotate(-5.49)"></rect></g><path class="cls-28" d="m122.6,158.41c.07.7-.45,1.32-1.15,1.39-.7.07-1.32-.45-1.39-1.15-.07-.7.45-1.32,1.15-1.39.7-.07,1.32.45,1.39,1.15Z"></path><g><line class="cls-9" x1="128.31" y1="183.03" x2="190.61" y2="177.05"></line><line class="cls-9" x1="128.71" y1="187.19" x2="191.01" y2="181.21"></line><line class="cls-9" x1="129.18" y1="192.04" x2="182.31" y2="186.94"></line></g><g><rect class="cls-10" x="130.1" y="196.18" width="5.09" height="5.09" transform="translate(-18.39 13.59) rotate(-5.49)"></rect><rect class="cls-10" x="139.29" y="195.29" width="5.09" height="5.09" transform="translate(-18.27 14.47) rotate(-5.49)"></rect><rect class="cls-10" x="148.47" y="194.41" width="5.09" height="5.09" transform="translate(-18.14 15.34) rotate(-5.49)"></rect><rect class="cls-10" x="157.65" y="193.53" width="5.09" height="5.09" transform="translate(-18.01 16.21) rotate(-5.49)"></rect></g><path class="cls-28" d="m125,183.35c.07.7-.45,1.32-1.15,1.39-.7.07-1.32-.45-1.39-1.15-.07-.7.45-1.32,1.15-1.39.7-.07,1.32.45,1.39,1.15Z"></path><polyline class="cls-9" points="124.83 124.83 125.65 125.85 127.89 122.5"></polyline><polyline class="cls-9" points="145.5 147.01 146.32 148.04 148.55 144.68"></polyline><polyline class="cls-9" points="138.69 172.65 139.51 173.68 141.75 170.32"></polyline><polyline class="cls-9" points="159.32 195.64 160.14 196.67 162.38 193.31"></polyline></g></g><g><path class="cls-4" d="m297.92,38.28h-51.66c-3.8,0-6.88,3.08-6.88,6.88v44.38c0,3.8,3.08,6.88,6.88,6.88h22.9l13.12,15.82-3.29-15.82h18.93c3.8,0,6.88-3.08,6.88-6.88v-44.38c0-3.8-3.08-6.88-6.88-6.88Z"></path><g><path class="cls-18" d="m276.22,62.64v-4.7l-3.52-.3c-.21-.74-.5-1.45-.87-2.11l2.27-2.7-3.32-3.32-2.7,2.27c-.66-.37-1.37-.66-2.11-.87l-.3-3.52h-4.7l-.3,3.52c-.74.21-1.45.5-2.11.87l-2.7-2.27-3.32,3.32,2.27,2.7c-.37.66-.66,1.37-.87,2.11l-3.52.3v4.7l3.52.3c.21.74.5,1.45.87,2.11l-2.27,2.7,3.32,3.32,2.7-2.27c.66.37,1.37.66,2.11.87l.3,3.52h4.7l.3-3.52c.74-.21,1.45-.5,2.11-.87l2.7,2.27,3.32-3.32-2.27-2.7c.37-.66.66-1.37.87-2.11l3.52-.3Zm-12.91,3.11c-3.02,0-5.46-2.45-5.46-5.46s2.45-5.46,5.46-5.46,5.46,2.45,5.46,5.46-2.45,5.46-5.46,5.46Z"></path><path class="cls-18" d="m291.77,73.13v-3.34l-2.51-.22c-.15-.53-.36-1.03-.62-1.5l1.62-1.92-2.36-2.36-1.92,1.62c-.47-.26-.97-.47-1.5-.62l-.22-2.51h-3.34l-.22,2.51c-.53.15-1.03.36-1.5.62l-1.92-1.62-2.36,2.36,1.62,1.92c-.26.47-.47.97-.62,1.5l-2.51.22v3.34l2.51.22c.15.53.36,1.03.62,1.5l-1.62,1.92,2.36,2.36,1.92-1.62c.47.26.97.47,1.5.62l.22,2.51h3.34l.22-2.51c.53-.15,1.03-.36,1.5-.62l1.92,1.62,2.36-2.36-1.62-1.92c.26-.47.47-.97.62-1.5l2.51-.22Zm-9.18,2.21c-2.15,0-3.89-1.74-3.89-3.89s1.74-3.89,3.89-3.89,3.89,1.74,3.89,3.89-1.74,3.89-3.89,3.89Z"></path><path class="cls-18" d="m275.41,80.92v-2.38l-1.78-.15c-.11-.38-.25-.73-.44-1.07l1.15-1.37-1.68-1.68-1.37,1.15c-.33-.19-.69-.33-1.07-.44l-.15-1.78h-2.38l-.15,1.78c-.38.11-.73.25-1.07.44l-1.37-1.15-1.68,1.68,1.15,1.37c-.19.33-.33.69-.44,1.07l-1.78.15v2.38l1.78.15c.11.38.25.73.44,1.07l-1.15,1.37,1.68,1.68,1.37-1.15c.33.19.69.33,1.07.44l.15,1.78h2.38l.15-1.78c.38-.11.73-.25,1.07-.44l1.37,1.15,1.68-1.68-1.15-1.37c.19-.33.33-.69.44-1.07l1.78-.15Zm-6.54,1.58c-1.53,0-2.77-1.24-2.77-2.77s1.24-2.77,2.77-2.77,2.77,1.24,2.77,2.77-1.24,2.77-2.77,2.77Z"></path></g></g><g><g><polygon class="cls-6" points="270.7 208.93 310.98 357.52 317 357.52 276.73 208.93 270.7 208.93"></polygon><rect class="cls-8" x="285.07" y="315.4" width="76.35" height="6.22"></rect><path class="cls-6" d="m402.15,175.56l-49.32,181.96h-6.02l49.32-181.96c1.82-6.71-2.35-12.17-9.3-12.17h-42.5c-6.94,0-14.08,5.45-15.9,12.17l-49.32,181.96h-6.02l49.32-181.96c2.69-9.93,13.21-17.98,23.5-17.98h42.5c10.29,0,16.44,8.05,13.75,17.98Z"></path><g><path class="cls-18" d="m402.93,175.62l-12.24,45.18c-1.01,3.73-4.96,6.75-8.82,6.75h-69.84c-3.86,0-6.17-3.02-5.16-6.75l12.25-45.18c1.01-3.72,4.96-6.75,8.82-6.75h69.83c3.86,0,6.17,3.03,5.16,6.75Z"></path><g class="cls-29"><path class="cls-16" d="m402.93,175.62l-12.24,45.18c-1.01,3.73-4.96,6.75-8.82,6.75h-69.84c-3.86,0-6.17-3.02-5.16-6.75l12.25-45.18c1.01-3.72,4.96-6.75,8.82-6.75h36.11c15.61,16.03,13.62,45.49,12.6,54.39,3.2-.76,6.12-3.39,6.97-6.52l12.25-45.18c.26-.96.3-1.87.15-2.69h1.75c3.86,0,6.17,3.03,5.16,6.75Z"></path></g></g><polygon class="cls-6" points="361.87 273.27 384.71 357.52 390.73 357.52 367.9 273.27 361.87 273.27"></polygon><g><path class="cls-18" d="m367.92,263.61v8.24h-89.92v-8.24c0-3.35,2.71-6.06,6.06-6.06h77.79c2.8,0,5.16,1.89,5.86,4.47.14.5.21,1.04.21,1.59Z"></path><g class="cls-22"><path class="cls-16" d="m367.71,262.02c-2.91,3.42-8.13,6.9-17.11,9.83h-72.6v-8.24c0-3.35,2.71-6.06,6.06-6.06h77.79c2.8,0,5.16,1.89,5.86,4.47Z"></path></g></g><rect class="cls-8" x="274.02" y="269.32" width="98.66" height="7.73" rx="1.71" ry="1.71"></rect></g><g><g><path class="cls-28" d="m275.08,269.61c-4.31,4.39,16.58,73.37,16.58,73.37-2.28,1.98-5.64,2.92-8.82,3.34-4.6.61-8.81.13-8.81.13,0,0-29.94-72.62-21.7-90.64s59.37-26.27,59.37-26.27l2.18-5.4,26.45-3.72,4.37,32.39s-4.34.42-10.87,1.26c-17.51,2.25-50.83,7.48-58.75,15.54Z"></path><g class="cls-31"><path class="cls-25" d="m291.66,342.98c-2.28,1.98-5.64,2.92-8.82,3.34-5.81-21.6-20.6-79.24-14.99-86.29,6.91-8.7,41.11-16.61,41.11-16.61.14-4.44,12.13-8.44,12.13-8.44l12.74,19.09c-17.51,2.25-50.83,7.48-58.75,15.54-4.31,4.39,16.58,73.37,16.58,73.37Z"></path></g></g><g><path class="cls-3" d="m260.28,204.28c-4.39-.76,26.86-28.15,26.86-28.15l15.07,10.14s-25.64,18.06-29.67,18.55c-4.03.49-12.25-.54-12.25-.54Z"></path><g class="cls-17"><path class="cls-11" d="m260.28,204.28c-4.39-.76,26.86-28.15,26.86-28.15l15.07,10.14s-25.64,18.06-29.67,18.55c-4.03.49-12.25-.54-12.25-.54Z"></path></g><path class="cls-10" d="m260.28,204.28c-4.39-.76,26.86-28.15,26.86-28.15l15.07,10.14s-25.64,18.06-29.67,18.55c-4.03.49-12.25-.54-12.25-.54Z"></path></g><g><path class="cls-4" d="m265.79,192.76s6.55,1.63,8.55,3.03c2,1.4,1.44,6.33,1.44,6.33,0,0-8.75-2.5-9.99-9.35Z"></path><polygon class="cls-28" points="261.59 180.21 273.77 203.57 275.21 203.57 263.64 179.06 261.59 180.21"></polygon><path class="cls-11" d="m272.57,197.1s-7.68-5.46-9.56-5.46-7.51,6.65-7.51,9.98,12.27,5.18,14.68,2.35c1.19-1.41-1.18-4.81-1.18-4.81,0,0,3.57,3.7,4.59,4.25,1.02.55,2.9-.17,2.9-.17,0,0-2.56-4.08-3.93-6.14Z"></path><path class="cls-10" d="m269,204.75s-2.92-3.79-6.41-5.6"></path><path class="cls-10" d="m269,199.16s-2.66-2.32-4.45-2.83"></path><path class="cls-10" d="m260.63,202.11s4.3,2.26,5.37,3.22"></path></g><g><path class="cls-18" d="m296.93,164.15c-3.94,2.75-21.58,20.89-21.58,20.89,0,0,8.27,9.41,15.52,10.77l19.65-9.54-13.58-22.12Z"></path><path class="cls-18" d="m296.93,164.15c-3.94,2.75-21.58,20.89-21.58,20.89,0,0,8.27,9.41,15.52,10.77l19.65-9.54-13.58-22.12Z"></path></g><g><path class="cls-18" d="m287.44,335.65l8.31,21.86s1.38,5.63-23.74,3.85l-13.85-1.19,29.27-24.53Z"></path><g class="cls-20"><path class="cls-25" d="m287.44,335.65l8.31,21.86s1.38,5.63-23.74,3.85l-13.85-1.19,29.27-24.53Z"></path></g></g><path class="cls-18" d="m284.28,346.14s1.78,8.51,0,14.84c0,0-26.51,4.15-32.44,2.57-5.93-1.58-9.53-4.54-9.71-6.03,0,0,.21-4.06,6.15-5.25,5.93-1.19,17.76-1.98,22.43-8.7s13.57,2.57,13.57,2.57Z"></path><path class="cls-28" d="m319.26,223.29c8.47-12.08,47.41,2.46,47.41,2.46,0,0,3.72,29.08-11.79,36.83-15.51,7.75-37.87,7.34-43.91,13.63l-24.58,72.58s-8.83,3.69-21.67-2.12c0,0,15.61-54.81,20.19-74.27,4.53-19.25,33.87-32.33,33.87-32.33,0,0-2.47-2.79-3.38-6.08"></path><path class="cls-7" d="m358.68,251.09c-1.25,1.11-2.56,2.13-3.93,3.08"></path><path class="cls-7" d="m361.87,226.46c3.18,6.9,3.42,15.66-1.03,22.05"></path><path class="cls-7" d="m353,227.55s-.81,5.32,1.56,7.43,9.64,3.19,9.64,3.19"></path><path class="cls-7" d="m321.08,227.8s.33,5.3-1.82,5.05c-2.15-.25-2.26,2.12-2.26,2.12"></path><g><path class="cls-18" d="m297.45,168.22c-.33-1.41-.51-2.78-.51-4.08,0,0,12.03-10.12,27.45-10.06,18.4.06,29.65,5.85,34.15,13.89,7.13,12.72,8.13,57.78,8.13,57.78,0,0-46.16,7.12-52.79-1.62-1.15-1.51-.27-12.25-.27-12.25,0,0-5.17-13.55-6.26-24.07,0,0-1.99-2.68-4.23-6.5-1.48-2.52-3.06-5.54-4.26-8.61"></path><path class="cls-18" d="m297.45,168.22c-.33-1.41-.51-2.78-.51-4.08,0,0,12.03-10.12,27.45-10.06,18.4.06,29.65,5.85,34.15,13.89,7.13,12.72,8.13,57.78,8.13,57.78,0,0-46.16,7.12-52.79-1.62-1.15-1.51-.27-12.25-.27-12.25,0,0-5.17-13.55-6.26-24.07,0,0-1.99-2.68-4.23-6.5-1.48-2.52-3.06-5.54-4.26-8.61"></path><path class="cls-10" d="m315.13,179.06s7.05,27.35,5.96,33.36c-.54,2.98,1.03,6.07,1.03,6.07,0,0-3.22,3.17-1.03,7.38"></path><path class="cls-10" d="m333.83,201.68c-1.38-.12-2.64-.44-3.54-1.12l-2.09-9.16s6.45.71,12.38-.87l2.24,10.03s-1.66.49-3.84.83"></path><path class="cls-18" d="m310.12,182.61s-5.96-25.56,9.14-28.53c15.1-2.97,18.25,4.1,17.36,8.9-1.19,6.39-13.73,22.06-13.73,22.06l-7.75-5.98-5.01,3.55Z"></path><path class="cls-11" d="m310.12,182.61s-5.96-25.56,9.14-28.53c15.1-2.97,18.25,4.1,17.36,8.9-1.19,6.39-13.73,22.06-13.73,22.06l-7.75-5.98-5.01,3.55Z"></path></g><path class="cls-7" d="m290.26,261.52s9.77-11.29,31.86-19.82c0,0-5.72-1.75-6.99-4.13"></path><line class="cls-7" x1="278.76" y1="296.12" x2="269.82" y2="328.58"></line><path class="cls-18" d="m347.84,202.57s4.02,6.76,20.47,6.13c0,0-4.52-5.15-11.24-6.97-6.73-1.83-9.23.84-9.23.84Z"></path><path class="cls-11" d="m283.94,205.28s3.82-5.92,7.33-7.11c3.51-1.19,13.78-1.29,15.36-1.33,1.58-.04,29.85,7.14,43.1,11.55l-1.15-22.12,17.82,1.4s-.72,27.01-3.49,34.15-6.74,5.41-13.51,2.49c-26.63-11.47-42.23-19.47-43.68-19.04-1.45.43-21.77,0-21.77,0Z"></path><g><path class="cls-18" d="m344.12,173.41c-.47,1.93-.64,3.89-.44,5.62.79,6.92,4.15,23.54,4.15,23.54,0,0,16.62,2.37,20.47,6.13,0,0,2.74-22.03-2.84-33.17-5.57-11.14-11.35-12.4-11.35-12.4-3.65-.9-6.96,2.5-8.85,6.87"></path><path class="cls-18" d="m344.12,173.41c-.47,1.93-.64,3.89-.44,5.62.79,6.92,4.15,23.54,4.15,23.54,0,0,16.62,2.37,20.47,6.13,0,0,2.74-22.03-2.84-33.17-5.57-11.14-11.35-12.4-11.35-12.4-3.65-.9-6.96,2.5-8.85,6.87"></path></g><path class="cls-10" d="m295.32,181.96s3.26,2.95,8.5,4.31"></path><path class="cls-10" d="m347.84,181.96s6.04,11.34,13.58,13.85"></path><path class="cls-7" d="m308.96,269.32s1.11.84,1.55,3.87"></path><path class="cls-7" d="m304.85,273.19s3.06.19,4.89,2.82"></path><path class="cls-7" d="m271.78,261.52s3.2,1.62,2.51,6.21"></path><path class="cls-7" d="m268.4,265.46s4.37,2.59,4.68,4.92"></path><path class="cls-7" d="m319.05,237.48s9.73,1.37,11.91,0"></path></g><g><g><path class="cls-11" d="m315.13,177.96s-1.24-2.95-1.02-7.43c.04-.81.12-1.66.27-2.55l-1.69-2.68-2.17-3.45,2.51-10.05s15.98,3.08,17.2,7.54c1.21,4.48-15.1,18.62-15.1,18.62Z"></path><g class="cls-30"><path class="cls-16" d="m314.11,170.53c.04-.81.12-1.66.27-2.55l-1.69-2.68c2.77-.55,5.8-1.78,7.81-4.38,0,0,.53,6.93-6.39,9.61Z"></path></g><path class="cls-10" d="m315.13,177.96s-1.24-2.95-1.02-7.43c.04-.81.12-1.66.27-2.55l-1.69-2.68-2.17-3.45,2.51-10.05s15.98,3.08,17.2,7.54c1.21,4.48-15.1,18.62-15.1,18.62Z"></path></g><path class="cls-11" d="m325.17,152.69c4.95-13.04,1.68-35.13-22.33-30.89-14.13,2.5-15.77,19.52-11.06,27.07,4.72,7.55-.29,7.8,6.78,13.41,2.86,2.27,5.18,6.12,8.6,6.36,4.06.29,9.28-3.57,13.17-7.72"></path><path class="cls-10" d="m301.52,148.87s3.54-3.21,7.74-1.88"></path><path class="cls-10" d="m294.89,148.87s-1.2-2.55-4.58-3.1"></path><path class="cls-5" d="m297.23,153.51s-.51,2.6-1.17,5.22c-.65,2.54,4.2,1.19,3.98.78"></path><path class="cls-10" d="m302.56,162.84s3.1-.74,5.27-3.45"></path><path class="cls-28" d="m306.45,152.17c.2.73-.1,1.44-.67,1.6-.57.15-1.19-.31-1.39-1.04-.2-.73.1-1.44.67-1.6.57-.15,1.19.31,1.39,1.04Z"></path><path class="cls-28" d="m295.74,151.94c.2.73.05,1.4-.33,1.5-.38.1-.85-.4-1.04-1.13-.2-.73-.05-1.4.33-1.5.38-.1.85.4,1.04,1.13Z"></path><path class="cls-28" d="m310.37,135.48s-3.72,9.73-12.92,9.51c0,0,3.19-2.43,4.07-4.75,0,0-7.08,7.01-14.16,3.45-7.08-3.56-3.64-20.1,7.25-26.66,10.89-6.56,21.95-4.79,25.71,1.46,0,0,7.6-.7,10.95,10.47,2.99,9.98-1.79,25.15-6.49,25.33-7.27.27-8.73-7.62-8.73-7.62,0,0-4.36-3.88-5.68-11.18Z"></path><path class="cls-5" d="m318.34,152.74s-.22-9.18,4.98-8.07c5.2,1.11,1.44,11.72-2.49,11.61"></path></g><rect class="cls-18" x="219.93" y="204.28" width="83.89" height="6.07" rx="1.63" ry="1.63"></rect></g><g><polygon class="cls-28" points="102.56 326.43 68.55 326.43 72.11 357.52 99 357.52 102.56 326.43"></polygon><g><path class="cls-18" d="m106.59,304.78s-14.85,1.17-15.47,12.13c0,0,15.04,6.93,15.47-12.13Z"></path><path class="cls-18" d="m77.21,307.5s-8.3-11.22-21.71-5.47c0,0,8.19,13.56,21.71,5.47Z"></path><path class="cls-18" d="m56.64,272.08s-2.39,21.58,17.26,15.64c0,0-6.24-15.87-17.26-15.64Z"></path><path class="cls-18" d="m80.76,260.07s-15.54,8.38-4.11,21.09c0,0,10.9-9.08,4.11-21.09Z"></path><path class="cls-18" d="m99.88,279.36s-16.89-1.7-16.89,13.93c0,0,16.89.67,16.89-13.93Z"></path><path class="cls-10" d="m83.95,339.24s7.7-16.16.31-32.62c-7.39-16.46-9.89-30.32-6.03-40.1"></path><path class="cls-10" d="m94.33,283.56s-10.13,4.02-13.57,14.45"></path><path class="cls-10" d="m61.98,280.72s5.85,7.97,15.77,7.11"></path><path class="cls-10" d="m61.98,304.33s16.21,4.67,22.65,3.14"></path><path class="cls-10" d="m101.75,309.72s-7.24,7.95-14.53,7.83"></path></g><rect class="cls-28" x="67.09" y="325.74" width="36.93" height="4.39" transform="translate(171.11 655.87) rotate(180)"></rect></g><g><g><path class="cls-18" d="m372.01,297.54s-12.39,7.32-21.19,22.02c-8.8,14.7-15.78,35.38-4.94,37.96l10.31-.39,19.84-6.81-2.08-4.03s-17.38,9.21-20.35,9.21-6.83.74-8.46-.45c-1.63-1.19,5.71-27.92,21.42-36.83,15.71-8.91,5.46-20.68,5.46-20.68Z"></path><g class="cls-26"><path class="cls-12" d="m372.01,297.54s-12.39,7.32-21.19,22.02c-8.8,14.7-15.78,35.38-4.94,37.96l10.31-.39,19.84-6.81-2.08-4.03s-17.38,9.21-20.35,9.21-6.83.74-8.46-.45c-1.63-1.19,5.71-27.92,21.42-36.83,15.71-8.91,5.46-20.68,5.46-20.68Z"></path></g></g><path class="cls-18" d="m383.3,287.92s0-4.31,6.53-4.9c6.53-.59,7.46,5.7,7.46,5.7h-2.25s.05-3.77-4.75-4.06c-4.8-.29-4.62,4.06-4.62,4.06l-2.38-.8Z"></path><g><path class="cls-18" d="m373.64,357.52c-13.81,0-11.19-61.93-9.6-65.02s41.66-4.6,45.61-3.3c3.95,1.3,19.79,63.03,11.05,67.93l-47.05.39Z"></path><g class="cls-32"><path class="cls-16" d="m373.64,357.52c-13.81,0-11.19-61.93-9.6-65.02s41.66-4.6,45.61-3.3c3.95,1.3,19.79,63.03,11.05,67.93l-47.05.39Z"></path></g></g><path class="cls-18" d="m364.04,292.5c5,1.07,7.88,21.34,14.61,26.5,6.73,5.16,38.46,4.05,42.05,0,3.59-4.05-3.43-26.8-8.53-30.27-5.11-3.48-8.73-.1-23.07-1.69-21.28-2.37-25.05,5.46-25.05,5.46Z"></path><g><path class="cls-18" d="m400.46,304.15l5.88,4.8c.35.28.39.81.08,1.14l-4.57,4.94c-.3.32-.8.34-1.11.04l-5.84-5.53c-.33-.31-.32-.83,0-1.14l4.53-4.21c.29-.27.72-.28,1.03-.03Z"></path><g class="cls-2"><path class="cls-16" d="m400.46,304.15l5.88,4.8c.35.28.39.81.08,1.14l-4.57,4.94c-.3.32-.8.34-1.11.04l-5.84-5.53c-.33-.31-.32-.83,0-1.14l4.53-4.21c.29-.27.72-.28,1.03-.03Z"></path></g></g><g><path class="cls-18" d="m381.07,329.36s26.58,2.19,39.63-1.19c0,0,2.55,1.78,3.74,5.35,1.19,3.56,3.67,15.74-3.74,18.86-7.4,3.12-33.99,2.52-37.55-1.04s-2.08-21.98-2.08-21.98Z"></path><g class="cls-24"><path class="cls-23" d="m381.07,329.36s26.58,2.19,39.63-1.19c0,0,2.55,1.78,3.74,5.35,1.19,3.56,3.67,15.74-3.74,18.86-7.4,3.12-33.99,2.52-37.55-1.04s-2.08-21.98-2.08-21.98Z"></path></g></g><path class="cls-18" d="m381.07,329.36s3.12,8.41,4.75,9.7c1.63,1.29,36.16,1.29,39.98-1.83,3.83-3.12-1.42-8.76-5.11-9.06,0,0-24.18,2.82-39.63,1.19Z"></path><g><path class="cls-18" d="m369.93,327.57s.89,17.67,2.67,21.68c0,0-4.06,2.38-8.57,0-4.5-2.38-3.76-17.6-2.87-17.56.89.04,8.76-4.12,8.76-4.12Z"></path><g class="cls-14"><path class="cls-23" d="m369.93,327.57s.89,17.67,2.67,21.68c0,0-4.06,2.38-8.57,0-4.5-2.38-3.76-17.6-2.87-17.56.89.04,8.76-4.12,8.76-4.12Z"></path></g></g><path class="cls-18" d="m369.93,327.57l-6.69,1.34s-6.38,4.9-3.56,6.53c2.82,1.63,10.1-2.38,10.25-7.87Z"></path></g></g></g></svg>