<svg xmlns="http://www.w3.org/2000/svg" xmlns:xlink="http://www.w3.org/1999/xlink" id="Layer_2" data-name="Layer 2" viewBox="0 0 487.35 345.54"><defs><style> .cls-1 { fill: #fff; } .cls-2 { fill: #fafafa; } .cls-3 { fill: #f5f5f5; } .cls-4 { fill: #e0e0e0; } .cls-5 { opacity: .7; } .cls-5, .cls-6 { fill: #ebebeb; } .cls-7 { opacity: .4; } .cls-8 { fill: #eb996e; } .cls-9 { opacity: .3; } .cls-10 { fill: #ffbe9d; } .cls-11 { clip-path: url(#clippath); } .cls-12 { fill: #9bc675; } .cls-13 { fill: none; } .cls-14 { fill: #263238; } </style><clipPath id="clippath"><rect class="cls-13" width="487.35" height="345.54"></rect></clipPath></defs><g id="Starts"><g class="cls-11"><g><path class="cls-6" d="m421.11,215.52c-10.39,31.49-32.77,66-65.71,77.23-49.76,16.98-54.21,57.79-144.53,57.51-14.08-.04-27.15-1.52-39.21-4.21-6.48-1.45-12.68-3.26-18.57-5.39-53.5-19.3-82.8-65.2-86.98-114.25-5.51-64.51,38.39-97.06,67-116.22,28.61-19.17,61.23-90.42,150.02-90.85,13.54-.06,27.1,1.27,40.31,4.31,30.15,6.92,61.17,23.61,79.81,49.04,1.4,1.91,2.74,3.87,4.03,5.87,25.13,39.11,28,94.03,13.84,136.96Z"></path><path class="cls-5" d="m421.11,215.52c-10.39,31.49-32.77,66-65.71,77.23-49.76,16.98-54.21,57.79-144.53,57.51-14.08-.04-27.15-1.52-39.21-4.21-6.48-1.45-12.68-3.26-18.57-5.39-53.5-19.3-82.8-65.2-86.98-114.25-5.51-64.51,38.39-97.06,67-116.22,28.61-19.17,61.23-90.42,150.02-90.85,13.54-.06,27.1,1.27,40.31,4.31,30.15,6.92,61.17,23.61,79.81,49.04,1.4,1.91,2.74,3.87,4.03,5.87,25.13,39.11,28,94.03,13.84,136.96Z"></path></g><g><g><g><path class="cls-6" d="m430.05,287.03c4.38-2.26,9.53-2.55,14.39-1.75,2.61.43,5.33,1.21,7.11,3.17,1.78,1.96,2.11,5.41.07,7.1-1.21,1-2.91,1.16-4.48,1.14-3.8-.04-8.03-.71-11.07,1.57-1.73,1.31-2.89,3.48-4.96,4.12-2.03.63-4.32-.57-5.39-2.4-1.08-1.83-1.11-4.12-.61-6.18,0,0,.53-4.5,4.94-6.77Z"></path><path class="cls-6" d="m420.02,267.66c2.68,3.82,7.88,2.56,10.29.22,2.41-2.33,3.43-5.72,4.36-8.94,2.12-7.37,4.26-15.1,2.68-22.6-.47-2.24-1.31-4.48-2.89-6.15-1.58-1.66-4-2.65-6.22-2.07-2.62.69-4.25,3.26-5.43,5.71-3.46,7.18-5.3,15.15-5.32,23.12-.01,3.72.43,7.63,2.53,10.71"></path><path class="cls-6" d="m412.67,273.15c2.91-3.45,3.46-8.48,2.16-12.8-1.29-4.32-4.22-8-7.58-11-3.95-3.52-8.59-6.26-13.58-8.01-1.96-.69-4.03-1.24-6.11-1.04-2.07.2-4.16,1.26-5.12,3.1-1.43,2.73-.06,6.03,1.42,8.73,2.61,4.75,5.6,9.3,8.92,13.58,2.67,3.45,5.73,6.85,9.81,8.4,4.07,1.56,8.31,1.37,10.46-1.45"></path><path class="cls-4" d="m419.84,325.34c.05,0,.13-.62.24-1.74.12-1.26.28-2.85.46-4.74.22-2,.51-4.37,1.07-6.95.55-2.58,1.42-5.37,2.53-8.21,1.15-2.82,2.55-5.38,4.19-7.43,1.63-2.06,3.52-3.55,5.3-4.41,1.77-.88,3.36-1.23,4.46-1.39,1.11-.11,1.73-.2,1.73-.25,0-.05-.62-.06-1.76-.03-1.13.08-2.78.36-4.65,1.21-1.87.83-3.88,2.34-5.59,4.44-1.72,2.09-3.17,4.71-4.34,7.58-1.13,2.88-1.98,5.71-2.51,8.34-.53,2.63-.77,5.03-.92,7.04-.15,2.01-.21,3.64-.23,4.77-.03,1.13-.01,1.75.04,1.75Z"></path><path class="cls-4" d="m420.16,321.69s.04-.28.05-.81c0-.61,0-1.37,0-2.31,0-2,0-4.9.1-8.47.18-7.15.79-14.84,1.98-25.69,1.13-10.2,2.64-22.07,4.23-29.79.34-1.76.69-3.34,1.01-4.72.31-1.39.57-2.58.83-3.55.22-.91.4-1.65.54-2.24.12-.51.16-.79.14-.8-.02,0-.12.25-.28.76-.18.58-.4,1.31-.67,2.21-.3.96-.6,2.15-.95,3.53-.36,1.38-.74,2.95-1.12,4.71-1.58,6.99-3.25,16.77-4.45,27.64-1.19,10.87-1.73,20.77-1.78,27.94-.04,3.58.03,6.49.13,8.49.06.94.1,1.7.14,2.3.04.53.07.8.1.8Z"></path><path class="cls-4" d="m420.21,302.6s.04-.86-.02-2.41c-.09-1.55-.3-3.78-.74-6.52-.46-2.73-1.11-5.98-2.12-9.51-.44-1.61-1.47-5.48-3.97-11.25-3.3-7.82-7.78-14.22-11.67-18.18-.91-1.05-1.93-1.81-2.75-2.55-.42-.36-.79-.71-1.17-.99-.38-.26-.74-.51-1.07-.73-1.28-.88-2-1.34-2.03-1.3-.12.16,2.87,1.91,6.64,5.93,3.76,4,8.11,10.35,11.38,18.11,1.82,4.21,3.1,7.96,4,11.14,1.04,3.49,1.73,6.7,2.26,9.41.5,2.71.79,4.93.96,6.46.14,1.54.25,2.39.29,2.39Z"></path></g><polygon class="cls-4" points="401.76 336.27 403.67 362.48 437.34 362.48 439.25 336.27 401.76 336.27"></polygon><rect class="cls-4" x="398.51" y="325.94" width="44.76" height="10.33"></rect><path class="cls-3" d="m438.63,344.84s-.05.09-.16.24c-.13.18-.3.4-.5.67-.48.61-1.14,1.45-1.96,2.51l-.09.11-.08-.12c-1.23-1.71-2.88-3.98-4.82-6.66h.28c-1.43,2.03-3.03,4.29-4.74,6.72l-.15.21-.17-.2c-1.75-2.08-3.65-4.35-5.63-6.69h.32c-.1.12-.2.25-.31.38-1.74,2.19-3.43,4.3-5.03,6.31l-.17.21-.15-.22c-1.71-2.42-3.3-4.67-4.75-6.72h.28c-2.34,2.68-4.32,4.94-5.85,6.67l-.1.12-.08-.13c-.77-1.29-1.38-2.33-1.83-3.08-.19-.33-.35-.6-.47-.82-.1-.19-.15-.29-.14-.29,0,0,.08.08.2.26.14.21.31.47.52.79.47.73,1.11,1.75,1.92,3.02h-.18c1.5-1.77,3.45-4.06,5.75-6.76l.15-.17.13.18c1.46,2.03,3.07,4.28,4.79,6.69h-.32c1.59-2.01,3.28-4.13,5.02-6.33.11-.13.21-.27.31-.39l.16-.2.16.2c1.97,2.35,3.86,4.62,5.61,6.71h-.31c1.73-2.4,3.34-4.65,4.79-6.67l.14-.2.14.2c1.9,2.71,3.51,5.01,4.72,6.74h-.17c.86-1.04,1.54-1.85,2.04-2.45.22-.26.4-.46.55-.63.13-.14.19-.21.2-.2Z"></path><path class="cls-3" d="m439.72,336.1c0,.12-8.44.21-18.84.21s-18.84-.09-18.84-.21,8.43-.21,18.84-.21,18.84.09,18.84.21Z"></path></g><g><rect class="cls-4" x="388.47" y="-14.81" width="68.19" height="71.08"></rect><g><rect class="cls-2" x="383.85" y="-14.81" width="68.19" height="71.08"></rect><path class="cls-4" d="m452.06,56.3h-68.23V-14.83h68.23V56.3Zm-68.19-.04h68.15V-14.78h-68.15V56.26Z"></path></g><rect class="cls-2" x="393.02" y="-5.25" width="49.86" height="51.97"></rect><path class="cls-4" d="m393.02,47.07s-.43.59-1.23,1.43c-.8.84-1.92,1.98-3.17,3.21-1.25,1.24-2.41,2.34-3.26,3.12-.85.78-1.4,1.24-1.44,1.2-.04-.04.43-.58,1.22-1.42.8-.84,1.92-1.98,3.18-3.22,1.26-1.24,2.41-2.34,3.26-3.12.85-.78,1.4-1.24,1.43-1.19Z"></path><path class="cls-4" d="m442.88,46.94s.59.43,1.43,1.23c.84.8,1.98,1.92,3.21,3.17,1.24,1.25,2.34,2.41,3.12,3.26.78.85,1.24,1.4,1.2,1.44-.04.04-.58-.43-1.42-1.22-.84-.8-1.98-1.92-3.22-3.18-1.24-1.26-2.34-2.41-3.12-3.26-.78-.85-1.24-1.4-1.19-1.43Z"></path><path class="cls-4" d="m442.74,46.72s0-.09-.01-.25c0-.18,0-.42-.01-.73,0-.65-.01-1.59-.02-2.81-.01-2.46-.03-6.04-.05-10.59-.02-9.1-.06-22.07-.1-37.6l.19.19c-14.51,0-31.56.02-49.72.03h0l.22-.22c-.01,19.08-.02,36.92-.03,51.97l-.19-.19c14.9.04,27.3.07,36,.1,4.35.02,7.76.04,10.11.05,1.16,0,2.05.02,2.68.02.29,0,.52,0,.69.01.16,0,.24,0,.24.01,0,0-.07,0-.22.01-.16,0-.39,0-.67.01-.61,0-1.49.01-2.64.02-2.34.01-5.74.03-10.07.05-8.73.02-21.17.06-36.12.1h-.19s0-.19,0-.19c0-15.05-.02-32.9-.03-51.97v-.22s.22,0,.22,0h0c18.16.01,35.2.02,49.72.03h.19v.19c-.04,15.58-.07,28.59-.1,37.72-.02,4.53-.04,8.1-.05,10.55,0,1.2-.02,2.13-.02,2.77,0,.3,0,.53-.01.7,0,.16,0,.23-.01.23Z"></path><rect class="cls-6" x="409.63" y="12.42" width="16.64" height="16.64"></rect></g><g><rect class="cls-4" x="388.47" y="73.14" width="68.19" height="71.08"></rect><g><rect class="cls-2" x="383.85" y="73.14" width="68.19" height="71.08"></rect><path class="cls-4" d="m452.06,144.24h-68.23v-71.13h68.23v71.13Zm-68.19-.04h68.15v-71.04h-68.15v71.04Z"></path></g><rect class="cls-2" x="393.02" y="82.69" width="49.86" height="51.97"></rect><path class="cls-4" d="m393.02,135.01s-.43.59-1.23,1.43c-.8.84-1.92,1.98-3.17,3.21-1.25,1.24-2.41,2.34-3.26,3.12-.85.78-1.4,1.24-1.44,1.2-.04-.04.43-.58,1.22-1.42.8-.84,1.92-1.98,3.18-3.22,1.26-1.24,2.41-2.34,3.26-3.12.85-.78,1.4-1.24,1.43-1.19Z"></path><path class="cls-4" d="m442.88,134.88s.59.43,1.43,1.23c.84.8,1.98,1.92,3.21,3.17,1.24,1.25,2.34,2.41,3.12,3.26.78.85,1.24,1.4,1.2,1.44-.04.04-.58-.43-1.42-1.22-.84-.8-1.98-1.92-3.22-3.18-1.24-1.26-2.34-2.41-3.12-3.26-.78-.85-1.24-1.4-1.19-1.43Z"></path><path class="cls-4" d="m442.74,82.83s.43-.59,1.23-1.43c.8-.84,1.91-1.98,3.17-3.21,1.25-1.24,2.41-2.34,3.26-3.12.85-.78,1.4-1.24,1.44-1.2.04.04-.43.58-1.22,1.42-.8.84-1.92,1.98-3.18,3.22-1.26,1.24-2.41,2.34-3.26,3.12-.85.78-1.39,1.24-1.43,1.19Z"></path><path class="cls-4" d="m392.88,82.96s-.59-.43-1.43-1.23c-.84-.8-1.98-1.92-3.21-3.17-1.24-1.25-2.34-2.41-3.12-3.26-.78-.85-1.24-1.4-1.2-1.44.04-.04.58.43,1.42,1.22.84.8,1.98,1.92,3.22,3.18,1.24,1.26,2.34,2.41,3.12,3.26s1.24,1.39,1.19,1.43Z"></path><path class="cls-4" d="m442.74,134.66s0-.09-.01-.25c0-.18,0-.42-.01-.73,0-.65-.01-1.59-.02-2.81-.01-2.46-.03-6.04-.05-10.59-.02-9.1-.06-22.07-.1-37.6l.19.19c-14.51,0-31.56.02-49.72.03h0l.22-.22c-.01,19.08-.02,36.92-.03,51.97l-.19-.19c14.9.04,27.3.07,36,.1,4.35.02,7.76.04,10.11.05,1.16,0,2.05.02,2.68.02.29,0,.52,0,.69.01.16,0,.24,0,.24.01,0,0-.07,0-.22.01-.16,0-.39,0-.67.01-.61,0-1.49.01-2.64.02-2.34.01-5.74.03-10.07.05-8.73.02-21.17.06-36.12.1h-.19s0-.19,0-.19c0-15.05-.02-32.9-.03-51.97v-.22s.22,0,.22,0h0c18.16.01,35.2.02,49.72.03h.19v.19c-.04,15.58-.07,28.59-.1,37.72-.02,4.53-.04,8.1-.05,10.55,0,1.2-.02,2.13-.02,2.77,0,.3,0,.53-.01.7,0,.16,0,.23-.01.23Z"></path><rect class="cls-6" x="409.63" y="100.36" width="16.64" height="16.64"></rect></g><path class="cls-4" d="m240.98,33.43l.59.98c.66,1.1,1.63,1.99,2.78,2.56l1.03.51-.98.59c-1.1.66-1.99,1.63-2.56,2.78l-.51,1.03-.59-.98c-.66-1.1-1.63-1.99-2.78-2.56l-1.03-.51.98-.59c1.1-.66,1.99-1.63,2.56-2.78l.51-1.03Z"></path><path class="cls-4" d="m346.41,5.88l.59.98c.66,1.1,1.63,1.99,2.78,2.56l1.03.51-.98.59c-1.1.66-1.99,1.63-2.56,2.78l-.51,1.03-.59-.98c-.66-1.1-1.63-1.99-2.78-2.56l-1.03-.51.98-.59c1.1-.66,1.99-1.63,2.56-2.78l.51-1.03Z"></path><path class="cls-4" d="m333.51,6.24l.3.49c.33.55.82,1,1.39,1.28l.51.25-.49.3c-.55.33-1,.82-1.28,1.39l-.25.51-.3-.49c-.33-.55-.82-1-1.39-1.28l-.51-.25.49-.3c.55-.33,1-.82,1.28-1.39l.25-.51Z"></path><path class="cls-4" d="m294.83,42.3l.3.49c.33.55.82,1,1.39,1.28l.51.25-.49.3c-.55.33-1,.82-1.28,1.39l-.25.51-.3-.49c-.33-.55-.82-1-1.39-1.28l-.51-.25.49-.3c.55-.33,1-.82,1.28-1.39l.25-.51Z"></path><path class="cls-6" d="m341.96,72.26c.36-2.64-3.36-4.81-6.16-5.03-1.33-.11-2.72.1-3.98-.34-2.74-.95-3.83-4.49-6.5-5.62-2-.84-4.3-.09-6.23.88-1.94.97-3.85,2.2-6.01,2.34-1.88.12-3.93-.58-5.57.34-1.23.68-1.87,2.1-3,2.93-1.11.82-2.55.99-3.92,1.06-1.37.07-2.79.09-4.04.66-1.25.57-2.28,1.89-2.02,3.24l47.45-.47Z"></path><g><rect class="cls-4" x="34.8" y="-33.1" width="115.73" height="191.56"></rect><rect class="cls-6" x="30.95" y="-33.1" width="115.73" height="191.56"></rect><rect class="cls-2" x="35.88" y="-29.21" width="105.87" height="183.79"></rect><g><rect class="cls-6" x="56.04" y="-5.33" width="65.1" height="136.03"></rect><path class="cls-4" d="m56.04,82.56c-.15-12.71,11.27-25.11,23.86-26.89,6-.85,12.38.34,17.98-1.95,10.01-4.1,13.19-17.4,23.26-21.34l.46,98.32H56.04v-48.14Z"></path></g></g><g><path class="cls-14" d="m73.92,29.4s.04.09.09.27c.05.2.13.46.22.8.09.36.21.79.4,1.29.18.51.37,1.1.66,1.73.14.32.29.66.44,1.01.18.34.37.7.56,1.08.19.38.42.76.66,1.15.25.39.47.81.77,1.2,1.11,1.63,2.58,3.36,4.46,4.99,1.87,1.63,4.18,3.14,6.87,4.26,1.34.59,2.79,1,4.31,1.35,1.52.31,3.12.5,4.76.66,3.26.32,6.8.5,10.19,1.86,3.38,1.36,6.33,3.82,8.88,6.65,2.54,2.84,4.77,5.91,6.12,9.29.67,1.68,1.1,3.43,1.23,5.17.13,1.74-.03,3.45-.32,5.08-.61,3.27-1.74,6.22-2.7,8.99-.97,2.76-1.79,5.38-2.14,7.84-.37,2.46-.27,4.74.25,6.64.49,1.91,1.32,3.43,2.17,4.52.85,1.1,1.72,1.77,2.34,2.16.62.39.98.54.96.57,0,0-.37-.13-1-.51-.63-.37-1.53-1.03-2.4-2.13-.88-1.09-1.74-2.62-2.25-4.56-.54-1.92-.66-4.24-.3-6.72.34-2.49,1.15-5.13,2.12-7.9.95-2.77,2.06-5.72,2.66-8.95.29-1.61.44-3.3.31-5.01-.13-1.71-.55-3.42-1.21-5.07-1.33-3.32-3.54-6.36-6.06-9.18-2.53-2.81-5.44-5.23-8.76-6.57-3.32-1.34-6.83-1.53-10.1-1.86-1.64-.16-3.25-.35-4.79-.67-1.53-.36-3-.78-4.35-1.39-2.72-1.15-5.04-2.69-6.92-4.34-1.89-1.65-3.35-3.41-4.46-5.06-.3-.4-.52-.83-.77-1.22-.24-.39-.47-.77-.65-1.16-.19-.38-.38-.74-.55-1.09-.15-.36-.29-.7-.43-1.02-.29-.64-.47-1.23-.64-1.75-.18-.51-.29-.95-.37-1.31-.08-.35-.15-.62-.19-.81-.04-.18-.06-.28-.05-.28Z"></path><path class="cls-14" d="m94.25,18.81s.08.06.22.2c.15.15.36.34.62.6.27.27.57.63.95,1.04.34.44.76.92,1.16,1.53.83,1.18,1.73,2.72,2.47,4.63.76,1.91,1.34,4.2,1.5,6.79.07,1.29.03,2.65-.14,4.06-.19,1.4-.52,2.84-.94,4.29-.83,2.92-2.05,5.93-2.89,9.22-.41,1.64-.69,3.36-.72,5.13-.04,1.77.14,3.58.54,5.37.8,3.59,2.5,7.11,4.94,10.15,2.44,3.05,5.53,5.42,8.77,7.17,3.25,1.74,6.67,2.86,10,3.48,3.34.61,6.58.78,9.58,1.24,3,.44,5.78,1.19,8.06,2.44,2.27,1.25,4.04,2.86,5.33,4.45,1.29,1.6,2.15,3.17,2.71,4.5.56,1.34.81,2.43.98,3.17.06.36.1.65.14.85.03.19.03.29.03.29,0,0-.03-.1-.07-.29-.04-.2-.1-.48-.17-.84-.19-.73-.46-1.82-1.03-3.14-.57-1.32-1.44-2.86-2.73-4.43-1.29-1.57-3.05-3.14-5.3-4.36-2.26-1.21-5.01-1.95-7.99-2.37-2.99-.44-6.23-.6-9.59-1.21-3.36-.61-6.82-1.74-10.1-3.49-3.28-1.76-6.4-4.15-8.88-7.24-2.47-3.08-4.2-6.65-5-10.29-.41-1.82-.59-3.66-.54-5.45.04-1.8.33-3.54.74-5.2.85-3.32,2.08-6.32,2.92-9.22.42-1.45.76-2.87.95-4.25.18-1.39.22-2.73.16-4.01-.15-2.56-.7-4.84-1.44-6.73-.72-1.9-1.6-3.44-2.41-4.63-.39-.61-.8-1.09-1.13-1.54-.36-.42-.66-.78-.92-1.06-.25-.26-.45-.47-.6-.62-.13-.14-.2-.22-.2-.22Z"></path><path class="cls-14" d="m143.94,90.45s-.27.27-.79.71c-.52.44-1.29,1.06-2.25,1.81-1.93,1.49-4.68,3.46-7.85,5.41-3.17,1.95-6.16,3.53-8.36,4.58-1.1.53-2,.93-2.63,1.2-.63.27-.98.4-.99.38,0-.02.32-.2.93-.5.66-.33,1.53-.77,2.58-1.29,2.17-1.1,5.13-2.7,8.29-4.65,3.16-1.95,5.92-3.88,7.88-5.32.94-.7,1.72-1.28,2.31-1.72.54-.41.85-.63.87-.61Z"></path><path class="cls-14" d="m138.57,86.27s-.27.19-.79.47c-.57.31-1.3.71-2.18,1.18-1.84,1-4.36,2.42-7.09,4.09-2.72,1.68-5.13,3.29-6.85,4.48-.82.57-1.51,1.04-2.04,1.41-.48.33-.76.51-.77.49-.01-.02.23-.23.69-.6.46-.37,1.13-.88,1.98-1.5,1.69-1.24,4.08-2.89,6.82-4.57,2.73-1.68,5.28-3.07,7.15-4.02.94-.48,1.7-.85,2.24-1.09.53-.24.83-.37.84-.35Z"></path><path class="cls-14" d="m130.86,84.65s-.56.47-1.54,1.13c-.98.66-2.35,1.53-3.89,2.46-1.54.93-2.96,1.73-4,2.28-1.04.56-1.7.87-1.72.83-.02-.04.59-.43,1.6-1.04,1.1-.66,2.45-1.47,3.94-2.36,1.49-.9,2.84-1.71,3.94-2.37,1.01-.6,1.64-.96,1.67-.92Z"></path><path class="cls-14" d="m123.69,76.14s-.43.36-1.17.85c-.85.57-1.82,1.22-2.89,1.94-1.06.73-2.03,1.39-2.87,1.97-.73.51-1.2.81-1.23.77-.03-.04.38-.41,1.08-.96.7-.56,1.69-1.29,2.82-2.06,1.13-.77,2.18-1.42,2.96-1.86.78-.45,1.27-.69,1.3-.65Z"></path><path class="cls-14" d="m123.11,68.56s-.84.51-2.21,1.3c-1.37.79-3.24,1.94-5.21,3.32-1.98,1.39-3.68,2.76-4.9,3.78-1.21,1.02-1.94,1.68-1.98,1.64-.02-.02.15-.2.46-.52.31-.32.77-.76,1.36-1.3,1.18-1.07,2.87-2.48,4.86-3.87,1.99-1.39,3.89-2.51,5.29-3.26.7-.37,1.28-.66,1.69-.84.4-.18.63-.28.64-.26Z"></path><path class="cls-14" d="m119.36,62.68c.05.08-3.45,2.61-7.83,5.67-4.38,3.05-7.97,5.47-8.03,5.39-.05-.08,3.45-2.61,7.83-5.67,4.38-3.05,7.97-5.47,8.02-5.39Z"></path><path class="cls-14" d="m116.38,56.06s-.23.2-.67.5c-.5.34-1.14.76-1.89,1.27-1.6,1.07-3.8,2.56-6.19,4.27-2.39,1.71-4.52,3.3-6.05,4.46-.73.55-1.33,1.01-1.82,1.38-.43.32-.68.49-.69.47-.01-.02.2-.22.61-.58.41-.35,1-.85,1.75-1.46,1.5-1.21,3.61-2.84,6-4.55,2.39-1.71,4.62-3.17,6.25-4.19.82-.51,1.48-.91,1.95-1.18.47-.27.73-.41.74-.39Z"></path><path class="cls-14" d="m110.21,52.38c.05.08-2.92,2.23-6.65,4.82-3.73,2.59-6.79,4.62-6.84,4.54-.05-.08,2.92-2.23,6.65-4.82,3.72-2.58,6.79-4.62,6.84-4.54Z"></path><path class="cls-14" d="m103.74,48.69c.06.07-1.47,1.39-3.42,2.95-1.95,1.56-3.57,2.76-3.63,2.69s1.47-1.39,3.42-2.95c1.95-1.56,3.57-2.76,3.63-2.69Z"></path><path class="cls-14" d="m99.38,39.39s-.52.56-1.46,1.35c-.93.79-2.25,1.86-3.75,2.98-1.5,1.12-2.89,2.08-3.92,2.75-1.03.67-1.68,1.05-1.71,1.01-.03-.04.58-.49,1.57-1.21.99-.72,2.36-1.71,3.86-2.82,1.49-1.12,2.83-2.15,3.8-2.89.97-.75,1.58-1.2,1.61-1.17Z"></path><path class="cls-14" d="m101.26,33.08s-.22.2-.66.52c-.44.32-1.08.76-1.89,1.29-1.61,1.07-3.87,2.49-6.42,3.97-2.55,1.48-4.92,2.72-6.65,3.59-.86.43-1.57.77-2.06.99-.49.22-.77.34-.78.32s.25-.17.72-.43c.53-.29,1.21-.65,2.01-1.09,1.7-.91,4.04-2.19,6.59-3.67,2.55-1.47,4.82-2.86,6.46-3.88.78-.48,1.43-.88,1.94-1.2.46-.28.72-.43.74-.41Z"></path><path class="cls-14" d="m98.25,26.32s-.25.22-.73.56c-.48.34-1.18.82-2.06,1.4-1.75,1.17-4.19,2.74-6.92,4.43-2.73,1.69-5.23,3.17-7.05,4.21-.91.52-1.65.94-2.17,1.22-.52.28-.81.42-.82.4-.01-.02.26-.2.76-.52.55-.34,1.27-.78,2.12-1.31,1.85-1.13,4.29-2.63,7-4.29,2.69-1.68,5.13-3.2,6.96-4.35.85-.53,1.56-.97,2.12-1.31.5-.31.79-.46.8-.45Z"></path></g><g><path class="cls-14" d="m361.38,225.68s-.79-.69-2.23-1.92c-.72-.61-1.61-1.35-2.69-2.14-1.08-.78-2.35-1.64-3.84-2.41-.74-.38-1.54-.75-2.4-1.04-.85-.28-1.78-.51-2.71-.48-.46.02-.92.11-1.31.31-.4.2-.7.54-.9.95-.2.41-.27.91-.27,1.42,0,.51.08,1.03.2,1.56.25,1.05.66,2.1,1.17,3.14.51,1.03,1.1,2.06,1.77,3.06,1.33,2.01,2.93,3.95,4.71,5.79,1.79,1.83,3.68,3.49,5.65,4.88.98.7,1.99,1.32,3.01,1.86,1.02.54,2.06.98,3.1,1.26.52.13,1.04.23,1.55.24.51.02,1-.04,1.42-.23.42-.18.77-.48.98-.87.22-.39.32-.84.35-1.3.06-.93-.14-1.86-.4-2.72-.26-.86-.61-1.67-.97-2.43-.73-1.51-1.54-2.8-2.29-3.91-.76-1.1-1.46-2.02-2.06-2.76-1.19-1.47-1.9-2.24-1.85-2.29.02-.02.22.15.59.49.36.35.88.87,1.52,1.58.63.71,1.38,1.6,2.19,2.7.8,1.1,1.66,2.39,2.44,3.92.39.77.76,1.59,1.05,2.49.28.9.52,1.88.48,2.95-.03.53-.14,1.09-.42,1.61-.27.52-.76.95-1.31,1.19-.55.25-1.16.32-1.74.31-.58-.01-1.16-.11-1.72-.25-1.13-.29-2.22-.75-3.28-1.3-1.06-.55-2.1-1.19-3.11-1.9-2.03-1.41-3.95-3.1-5.78-4.97-1.81-1.88-3.44-3.86-4.79-5.92-.68-1.03-1.29-2.09-1.81-3.16-.52-1.08-.94-2.18-1.2-3.31-.12-.57-.2-1.15-.2-1.73,0-.58.09-1.18.36-1.73.26-.54.7-1.02,1.23-1.27.53-.27,1.09-.36,1.62-.37,1.07-.02,2.04.25,2.94.56.89.32,1.71.72,2.46,1.12,1.51.82,2.77,1.72,3.84,2.55,1.07.84,1.94,1.61,2.63,2.27.69.65,1.2,1.19,1.54,1.56.33.37.5.58.48.6Z"></path><path class="cls-14" d="m351.79,228.07c.07.02-.23.99-.61,2.78-.19.89-.4,1.99-.57,3.28-.16,1.28-.29,2.76-.24,4.37.03.81.09,1.65.26,2.51.17.85.42,1.74.89,2.5.24.38.53.72.9.95.36.24.79.35,1.23.33.45-.01.9-.16,1.34-.38.44-.22.86-.51,1.26-.85.8-.67,1.52-1.49,2.18-2.38.66-.9,1.27-1.86,1.83-2.89,1.12-2.04,2.05-4.29,2.81-6.65.74-2.36,1.28-4.74,1.54-7.05.13-1.16.19-2.3.17-3.41-.03-1.11-.14-2.2-.41-3.21-.13-.5-.31-.98-.54-1.42-.23-.43-.52-.81-.88-1.08-.35-.27-.77-.43-1.2-.44-.43-.02-.87.09-1.28.26-.83.35-1.54.93-2.17,1.52-.63.6-1.17,1.26-1.66,1.9-.97,1.29-1.72,2.57-2.33,3.71-.6,1.15-1.06,2.17-1.42,3.01-.72,1.68-1.04,2.65-1.11,2.62-.03,0,.02-.26.15-.73.13-.47.34-1.15.66-2.02.32-.87.74-1.91,1.31-3.1.58-1.18,1.3-2.5,2.27-3.85.49-.67,1.03-1.36,1.69-2.01.65-.64,1.4-1.28,2.35-1.7.47-.21,1.01-.35,1.58-.34.57,0,1.15.22,1.61.57.47.35.83.81,1.1,1.31.27.5.47,1.03.62,1.57.3,1.09.43,2.23.47,3.39.03,1.16-.02,2.34-.15,3.53-.26,2.38-.8,4.8-1.56,7.22-.77,2.41-1.73,4.7-2.89,6.79-.58,1.05-1.21,2.04-1.91,2.97-.7.92-1.46,1.78-2.33,2.5-.44.36-.9.68-1.41.93-.51.25-1.07.42-1.65.44-.58.01-1.18-.15-1.65-.47-.47-.32-.83-.74-1.09-1.19-.53-.89-.78-1.84-.94-2.74-.16-.91-.21-1.78-.22-2.61-.01-1.67.16-3.16.37-4.45.22-1.3.47-2.4.72-3.29.24-.89.46-1.57.63-2.03.17-.46.27-.69.3-.68Z"></path><path class="cls-14" d="m355.07,223.45c.02.07-.96.33-2.69.95-.86.31-1.91.71-3.09,1.24-1.18.54-2.5,1.2-3.85,2.1-.67.45-1.36.95-2,1.54-.64.59-1.26,1.27-1.65,2.07-.2.4-.33.83-.34,1.26-.01.43.12.85.37,1.22.25.37.61.69,1.03.94.42.26.89.46,1.38.62.99.33,2.07.51,3.18.6,1.11.09,2.25.1,3.42.04,2.33-.12,4.73-.51,7.13-1.11,2.4-.61,4.7-1.4,6.81-2.4,1.06-.49,2.06-1.05,2.99-1.65.93-.61,1.79-1.28,2.51-2.04.36-.38.67-.78.92-1.2.25-.42.42-.87.46-1.32.04-.44-.04-.88-.26-1.25-.21-.38-.53-.69-.9-.95-.73-.52-1.6-.83-2.44-1.04-.84-.22-1.69-.34-2.49-.41-1.61-.15-3.09-.11-4.38-.02-1.29.09-2.4.23-3.31.37-1.81.27-2.8.5-2.82.44,0-.03.23-.11.7-.25.47-.13,1.16-.32,2.06-.5.9-.19,2.02-.38,3.32-.52,1.31-.13,2.81-.21,4.47-.1.83.06,1.7.16,2.6.38.89.22,1.82.52,2.68,1.1.42.29.83.67,1.12,1.16.29.49.42,1.09.37,1.67-.05.58-.26,1.13-.54,1.62-.28.49-.63.94-1.01,1.36-.77.83-1.67,1.54-2.64,2.18-.97.64-2,1.21-3.08,1.72-2.16,1.03-4.51,1.85-6.96,2.47-2.45.61-4.9,1.01-7.3,1.12-1.19.06-2.38.04-3.53-.06-1.15-.11-2.28-.31-3.35-.67-.53-.18-1.05-.41-1.53-.71-.48-.3-.92-.68-1.24-1.18-.32-.49-.49-1.08-.47-1.65.02-.57.2-1.09.43-1.55.48-.92,1.16-1.63,1.84-2.24.69-.61,1.41-1.11,2.11-1.56,1.41-.89,2.77-1.52,3.98-2.03,1.22-.5,2.29-.86,3.17-1.12.88-.27,1.58-.43,2.05-.53.48-.1.73-.13.73-.11Z"></path><path class="cls-14" d="m360.11,229.24c.36,1.44-.51,2.89-1.95,3.26-1.44.36-2.89-.51-3.26-1.95s.51-2.89,1.95-3.26c1.44-.36,2.89.51,3.26,1.95Z"></path></g><g><path class="cls-12" d="m414.74,183.32s-.11-.04-.3-.14c-.21-.11-.5-.25-.87-.44-.78-.4-1.9-.99-3.34-1.74-2.91-1.53-7.11-3.74-12.31-6.47h.11c-9.8,3.75-23.11,8.84-37.92,14.5l-.34.13.1-.35c.37-1.33.76-2.75,1.16-4.19,2.65-9.56,5.16-18.61,7.37-26.58v-.05s.06-.03.06-.03c8.62-6.45,15.89-11.9,21.02-15.74,2.56-1.9,4.58-3.4,5.98-4.44.68-.5,1.22-.89,1.59-1.16.17-.12.31-.22.41-.29.09-.06.14-.1.14-.09,0,0-.04.04-.13.11-.1.08-.23.18-.4.32-.37.28-.89.69-1.56,1.21-1.38,1.06-3.39,2.58-5.92,4.51-5.11,3.87-12.35,9.35-20.94,15.85l.06-.09c-2.2,7.97-4.69,17.02-7.33,26.59-.4,1.44-.79,2.86-1.16,4.19l-.24-.22c14.82-5.62,28.15-10.67,37.96-14.39l.05-.02.05.03c5.18,2.78,9.35,5.02,12.25,6.57,1.43.77,2.54,1.38,3.31,1.8.36.2.65.36.86.47.19.11.29.17.29.17Z"></path><polygon class="cls-12" points="364.96 188.56 362.7 189.23 361.97 191.48 360.63 189.54 358.26 189.54 359.7 187.66 358.97 185.41 361.2 186.2 363.11 184.81 363.05 187.17 364.96 188.56"></polygon><polygon class="cls-12" points="371.52 157.31 370.09 157.84 369.7 159.32 368.76 158.11 367.23 158.21 368.09 156.94 367.53 155.51 369 155.94 370.18 154.96 370.23 156.49 371.52 157.31"></polygon><polygon class="cls-12" points="400.23 135.29 399.19 136.85 399.88 138.6 398.07 138.09 396.63 139.29 396.55 137.41 394.97 136.4 396.73 135.75 397.19 133.93 398.36 135.41 400.23 135.29"></polygon><polygon class="cls-12" points="417.03 181.35 415.99 182.91 416.68 184.66 414.88 184.15 413.43 185.35 413.36 183.47 411.77 182.46 413.53 181.81 414 179.99 415.16 181.47 417.03 181.35"></polygon><polygon class="cls-12" points="399.4 173.63 398.73 174.63 399.18 175.74 398.02 175.42 397.1 176.18 397.05 174.99 396.04 174.34 397.17 173.93 397.46 172.77 398.2 173.71 399.4 173.63"></polygon></g><g><g><circle class="cls-12" cx="282.56" cy="11.61" r="19.2" transform="translate(225.56 288.61) rotate(-80.73)"></circle><g class="cls-9"><path class="cls-1" d="m280.06,17.61c0,1.73-1.4,3.13-3.13,3.13s-3.13-1.4-3.13-3.13,1.4-3.13,3.13-3.13,3.13,1.4,3.13,3.13Z"></path></g><g class="cls-9"><path class="cls-1" d="m275.62,8.57c0,1.01-.82,1.82-1.82,1.82s-1.82-.82-1.82-1.82.82-1.82,1.82-1.82,1.82.82,1.82,1.82Z"></path></g></g><path class="cls-12" d="m263.93,16.28c.09.33-16.43,16.18-12.17,19.56,4.26,3.38,22.17-5.29,37.44-17.62,15.27-12.33,29.22-27.31,25.4-31.27-3.82-3.96-22.9,7.77-22.9,7.77l2.28,1.45s11.54-7.4,15.19-4.53c3.65,2.87-6.75,14.09-21.43,24.81-14.68,10.72-28.87,18.24-31.07,15.3-2.2-2.94,8.19-12.73,8.19-12.73l-.91-2.75Z"></path><g class="cls-9"><path d="m263.93,16.28c.09.33-16.43,16.18-12.17,19.56,4.26,3.38,22.17-5.29,37.44-17.62,15.27-12.33,29.22-27.31,25.4-31.27-3.82-3.96-22.9,7.77-22.9,7.77l2.28,1.45s11.54-7.4,15.19-4.53c3.65,2.87-6.75,14.09-21.43,24.81-14.68,10.72-28.87,18.24-31.07,15.3-2.2-2.94,8.19-12.73,8.19-12.73l-.91-2.75Z"></path></g><g class="cls-9"><path class="cls-1" d="m271.98-1.91c.15.19-1.15,1.29-2.62,3.51-1.47,2.18-3.02,5.64-3.1,9.65-.08,4.01,1.33,7.53,2.71,9.77,1.38,2.27,2.64,3.43,2.48,3.61-.1.13-1.64-.76-3.35-3.02-.85-1.12-1.7-2.6-2.33-4.37-.64-1.76-1.03-3.83-1-6.01.05-2.18.53-4.23,1.24-5.97.7-1.74,1.61-3.18,2.5-4.27,1.8-2.19,3.37-3.02,3.47-2.88Z"></path></g></g><g><path class="cls-12" d="m311.6,28.54c.15-6.16,5.25-11.03,11.41-10.88,6.16.15,11.03,5.25,10.88,11.41-.15,6.16-5.25,11.03-11.41,10.88-6.16-.15-11.03-5.25-10.88-11.41Z"></path><g class="cls-7"><path d="m326.38,24.53c.02-1,.86-1.8,1.86-1.77s1.8.86,1.77,1.86-.86,1.8-1.86,1.77c-1-.02-1.8-.86-1.77-1.86Z"></path></g><g class="cls-7"><path d="m330.01,28.78c.01-.58.5-1.05,1.08-1.03.58.01,1.05.5,1.03,1.08-.01.58-.5,1.05-1.08,1.03-.58-.01-1.05-.5-1.03-1.08Z"></path></g><g class="cls-7"><path d="m328.59,32.03c.22,0,.39.18.38.4,0,.22-.18.39-.4.38s-.39-.18-.38-.4.18-.39.4-.38Z"></path></g></g><g><path class="cls-14" d="m357.64,111.71c-.09,0-.17-14.12-.17-31.53s.08-31.53.17-31.53.17,14.12.17,31.53-.08,31.53-.17,31.53Z"></path><path class="cls-14" d="m359.52,49.2c-.08.04-1.04-1.59-2.14-3.66l.3-.02s-.02.05-.03.08c-.93,2.2-1.75,3.96-1.83,3.93-.09-.04.6-1.85,1.52-4.06.01-.03.02-.05.03-.08l.14-.33.16.31c1.11,2.08,1.93,3.79,1.85,3.83Z"></path><path class="cls-14" d="m357.29,41.21c-.05.07-.57-.27-.99-.9-.41-.63-.52-1.24-.43-1.26.09-.03.33.5.71,1.08.38.58.77,1.01.7,1.08Z"></path><path class="cls-14" d="m356.3,43.02c-.09-.04.33-1.02.8-2.25.47-1.22.82-2.23.92-2.2.09.02-.12,1.09-.6,2.33-.48,1.24-1.04,2.17-1.12,2.13Z"></path><path class="cls-14" d="m353.12,56.96c-.08-.05.41-.84.58-1.94.18-1.1-.05-2,.04-2.02.08-.04.48.89.29,2.07-.18,1.19-.85,1.95-.91,1.89Z"></path><path class="cls-14" d="m353.74,54.32s-.08.28-.48.37c-.19.04-.45.03-.69-.12-.25-.15-.41-.45-.43-.76-.02-.32.12-.63.35-.8.23-.17.48-.2.68-.18.41.06.55.31.51.32-.03.04-.21-.1-.52-.09-.31,0-.72.26-.68.73.01.47.44.69.75.66.31-.01.48-.17.51-.13Z"></path><path class="cls-14" d="m406.73,107.23c0,.09-12.08.17-26.98.17s-26.98-.08-26.98-.17,12.08-.17,26.98-.17,26.98.08,26.98.17Z"></path><path class="cls-14" d="m407.28,107.17c-.03.09-1.03-.23-2.22-.71-1.19-.48-2.13-.93-2.1-1.02.03-.09,1.03.23,2.22.71,1.19.48,2.13.93,2.1,1.02Z"></path><path class="cls-14" d="m407.87,107.37c.03.09-.77.45-1.78.8-1.02.36-1.87.57-1.9.49-.03-.09.77-.45,1.79-.8,1.02-.36,1.87-.57,1.9-.49Z"></path><path class="cls-14" d="m355.1,108.95s.49.29.69,1.12c.1.41.11.93-.11,1.46-.11.26-.27.53-.54.73-.27.21-.71.24-1.02.04-.61-.4-.77-1.09-.78-1.64,0-.57.25-1.09.6-1.35.34-.27.71-.33.95-.31.24.02.35.11.34.12,0,.03-.13-.01-.34,0-.21.01-.52.1-.79.36-.27.24-.46.67-.44,1.17.01.48.2,1.07.64,1.35.21.13.46.12.66-.02.2-.14.35-.36.45-.58.2-.45.22-.92.16-1.3-.13-.77-.51-1.13-.46-1.17Z"></path><path class="cls-14" d="m399.03,109.66s.2-.11.45.11c.12.1.24.29.23.53,0,.24-.12.49-.32.69-.38.42-1.07.58-1.39,1.1-.15.25-.15.6,0,.87.15.27.49.44.82.41.33-.02.61-.27.71-.58.11-.3.02-.62-.17-.86-.19-.25-.45-.42-.71-.57-.26-.14-.58-.34-.65-.66-.07-.3.03-.57.17-.75.14-.18.32-.28.46-.33.29-.11.46-.08.46-.07,0,.03-.16.05-.4.19-.12.07-.26.17-.36.32-.1.15-.16.37-.09.58.1.43.9.49,1.37,1.1.25.28.39.74.24,1.16-.13.41-.52.77-.99.81-.46.05-.93-.18-1.14-.58-.21-.38-.2-.85.02-1.19.22-.34.54-.52.8-.66.27-.15.51-.27.69-.44.17-.16.28-.36.3-.54.02-.18-.05-.33-.13-.43-.18-.2-.36-.17-.36-.2Z"></path><path class="cls-14" d="m398.88,108.39c-.09,0-.17-.67-.17-1.49s.08-1.49.17-1.49.17.67.17,1.49-.08,1.49-.17,1.49Z"></path><path class="cls-14" d="m413.31,107.3s-.35.1-.93.14c-.34.02-.67.04-1.01.06-.05,0-.13.01-.23-.05-.11-.06-.15-.21-.12-.3.04-.17.14-.25.21-.32.15-.15.3-.3.45-.46.32-.3.53-.63.54-.95.01-.32-.19-.59-.42-.63-.23-.05-.45.06-.59.11-.14.06-.23.1-.24.08-.01-.02.05-.09.18-.19.13-.09.34-.26.7-.24.36.03.69.41.69.87,0,.45-.29.88-.6,1.17-.15.15-.3.3-.45.45-.08.08-.14.14-.14.17.02,0-.06,0-.05,0,0,0,0,0,0,0,0,0,.01-.03.02-.04h0s.03,0,.05,0c.34,0,.67,0,1.01.01.58.02.93.05.93.1Z"></path><path class="cls-14" d="m364.82,107.23s-.03-.34-.04-.93c-.01-.63-.03-1.46-.05-2.48-.03-2.1-.07-5-.07-8.31l.16.16c-1.01,0-2.06,0-3.13,0,.33-.34.09-.09.17-.17h0v.44s0,.44,0,.44c0,.29,0,.59,0,.88,0,.58,0,1.15,0,1.71,0,1.11,0,2.18-.01,3.18-.02,1.97-.03,3.7-.05,5.06l-.1-.1c.94.02,1.7.04,2.28.06.54.02.84.03.85.05.01.01-.26.03-.79.05-.6.01-1.38.03-2.34.06h-.1s0-.1,0-.1c-.01-1.37-.03-3.09-.05-5.06,0-1,0-2.07-.01-3.18,0-.56,0-1.13,0-1.71,0-.29,0-.58,0-.88v-.44s0-.22,0-.22v-.2h0v-.02h0c.08-.08-.17.16.17-.17,1.08,0,2.13,0,3.13,0h.16s0,.16,0,.16c0,3.38-.04,6.34-.07,8.43-.02,1-.03,1.82-.05,2.44-.01.56-.03.86-.04.85Z"></path><path class="cls-14" d="m394.66,107.24s-.01-.13-.02-.36c0-.26-.01-.59-.02-.99-.01-.89-.03-2.12-.05-3.62-.03-3.06-.07-7.31-.07-12.12l.17.17c-1.01,0-2.06,0-3.13,0,.33-.34.09-.09.17-.16h0v.33s0,.34,0,.34v.67c0,.44,0,.88,0,1.32,0,.87,0,1.72,0,2.56,0,1.66-.01,3.24-.02,4.71-.02,2.9-.04,5.36-.06,7.16l-.09-.09c.96.02,1.73.04,2.29.05.25,0,.45.02.62.02.14,0,.22.01.22.02.01.01-.26.02-.79.04-.58.01-1.36.03-2.35.05h-.09s0-.09,0-.09c-.01-1.8-.03-4.26-.06-7.16,0-1.47-.01-3.05-.02-4.71,0-.83,0-1.69,0-2.56,0-.44,0-.88,0-1.32v-.67s0-.34,0-.34v-.32h0v-.02c.08-.08-.17.16.17-.17,1.07,0,2.13,0,3.13,0h.17s0,.17,0,.17c0,4.88-.04,9.18-.07,12.24-.02,1.49-.04,2.7-.05,3.58,0,.39-.02.7-.02.95,0,.21-.01.32-.02.32Z"></path><path class="cls-14" d="m372.37,107.23s-.01-.16-.02-.44c0-.31-.01-.72-.02-1.23-.01-1.1-.03-2.63-.05-4.52-.02-3.84-.04-9.12-.07-15.09l.17.17c-1,0-2.06,0-3.13,0,.33-.34.09-.09.17-.16h0v.42s0,.43,0,.43c0,.29,0,.57,0,.85,0,.57,0,1.13,0,1.68,0,1.11,0,2.19,0,3.25,0,2.11-.01,4.1-.02,5.93-.03,3.63-.05,6.64-.06,8.72l-.08-.08c.98.02,1.75.03,2.31.05.25,0,.45.01.61.02.14,0,.21.01.22.02,0,0-.06.01-.19.02-.16,0-.35.01-.59.02-.57.01-1.35.03-2.35.05h-.08s0-.08,0-.08c-.01-2.07-.04-5.08-.06-8.72,0-1.83-.01-3.83-.02-5.93,0-1.06,0-2.14,0-3.25,0-.55,0-1.11,0-1.68,0-.28,0-.57,0-.85v-.43s0-.22,0-.22v-.19h0v-.02c.08-.08-.17.16.17-.17,1.07,0,2.13,0,3.13,0h.17s0,.17,0,.17c-.03,6.02-.05,11.34-.07,15.21-.02,1.87-.04,3.39-.05,4.48,0,.5-.02.89-.02,1.2,0,.27-.01.41-.02.4Z"></path><path class="cls-14" d="m379.75,107.17s0-.06-.01-.18c0-.13,0-.3-.01-.5,0-.46-.01-1.1-.02-1.91-.01-1.68-.03-4.06-.05-7.02-.02-5.94-.04-14.15-.07-23.37l.17.17c-1,0-2.06,0-3.13,0,.33-.34.09-.09.17-.16h0v1.37c0,.46,0,.91,0,1.36,0,.9,0,1.8,0,2.68,0,1.77,0,3.49,0,5.17,0,3.35-.01,6.49-.02,9.34-.03,5.68-.06,10.23-.07,13.05l-.07-.07c.99.02,1.76.03,2.31.04.25,0,.45.01.61.02.14,0,.21,0,.22.01,0,0-.06,0-.19.01-.15,0-.35,0-.59.02-.56,0-1.34.02-2.35.04h-.07s0-.07,0-.07c-.02-2.83-.04-7.37-.07-13.05,0-2.86-.01-6-.02-9.34,0-1.67,0-3.4,0-5.17,0-.88,0-1.78,0-2.68,0-.45,0-.91,0-1.36v-.69s0-.34,0-.34v-.32h0c.08-.09-.17.15.17-.19,1.07,0,2.14,0,3.13,0h.17v.17c-.03,9.26-.05,17.52-.07,23.49-.02,2.94-.04,5.31-.05,6.98,0,.8-.02,1.42-.02,1.87,0,.2,0,.35-.01.48,0,.11,0,.16-.01.16Z"></path><path class="cls-14" d="m387.32,107.17s0-.1-.01-.3c0-.2,0-.49-.01-.85,0-.75-.01-1.84-.02-3.23-.01-2.81-.03-6.87-.05-11.88-.02-10.04-.04-23.93-.07-39.43l.17.17c-.99,0-2.06,0-3.13,0,.33-.34.09-.08.17-.15v1.2s0,1.22,0,1.22c0,.81,0,1.61,0,2.41,0,1.6,0,3.18,0,4.74,0,3.12,0,6.16,0,9.09,0,5.86-.02,11.31-.02,16.18-.04,9.7-.07,17.07-.08,20.82l-.05-.05c1.04.01,1.82.02,2.35.03.25,0,.44,0,.59.01.13,0,.2,0,.2,0,0,0-.06,0-.18.01-.14,0-.33,0-.57.01-.54,0-1.32.02-2.38.03h-.05s0-.05,0-.05c-.01-3.75-.04-11.12-.08-20.82,0-4.87-.02-10.32-.02-16.18,0-2.93,0-5.97,0-9.09,0-1.56,0-3.14,0-4.74,0-.8,0-1.6,0-2.41v-1.22s0-.61,0-.61v-.59c.08-.08-.17.15.17-.18,1.07,0,2.14,0,3.13,0h.17v.17c-.03,15.55-.05,29.48-.07,39.55-.02,5-.04,9.04-.05,11.84-.01,1.38-.02,2.45-.02,3.19,0,.35,0,.62-.01.82,0,.18,0,.28-.01.27Z"></path></g><g><path class="cls-12" d="m51.62,110.49l2.67,46.83,78.35-4.47-81.02-42.36Zm13.09,18.17l33.7,17.96-32.57,1.86-1.13-19.81Z"></path><path class="cls-14" d="m59.4,114.56c.13.07-.43,1.39-1.25,2.95-.82,1.55-1.59,2.75-1.73,2.68-.13-.07.42-1.39,1.25-2.95.82-1.55,1.59-2.75,1.73-2.68Z"></path><path class="cls-14" d="m71.41,120.76c.13.08-.42,1.36-1.23,2.87-.81,1.51-1.58,2.67-1.71,2.59-.13-.08.42-1.36,1.23-2.87.81-1.51,1.58-2.67,1.71-2.59Z"></path><path class="cls-14" d="m83.43,126.97c.12.09-.56,1.31-1.52,2.72-.96,1.41-1.84,2.48-1.97,2.39-.12-.09.56-1.31,1.52-2.72.96-1.41,1.84-2.48,1.97-2.39Z"></path><path class="cls-14" d="m95.25,133.46c.12.09-.56,1.31-1.52,2.72-.96,1.41-1.84,2.48-1.97,2.39s.56-1.31,1.52-2.72c.96-1.41,1.84-2.48,1.97-2.39Z"></path><path class="cls-14" d="m107.59,139.8c.13.08-.49,1.37-1.38,2.89-.89,1.51-1.72,2.68-1.84,2.6-.13-.08.49-1.37,1.38-2.89.89-1.51,1.72-2.68,1.84-2.6Z"></path><path class="cls-14" d="m120.4,146.48c.13.08-.42,1.31-1.22,2.74-.81,1.44-1.57,2.54-1.7,2.46-.13-.08.42-1.31,1.22-2.74.81-1.44,1.57-2.54,1.7-2.46Z"></path><path class="cls-14" d="m63.15,116.52c.13.07-.09.76-.5,1.53-.41.77-.85,1.34-.98,1.26-.13-.07.09-.76.5-1.53.41-.77.85-1.34.98-1.26Z"></path><path class="cls-14" d="m67.08,118.48c.13.07-.09.76-.5,1.53-.41.77-.85,1.34-.98,1.26-.13-.07.09-.76.5-1.53.41-.77.85-1.34.98-1.26Z"></path><path class="cls-14" d="m75.85,123.12c.13.07-.09.76-.5,1.53-.41.77-.85,1.34-.98,1.26-.13-.07.09-.76.5-1.53.41-.77.85-1.34.98-1.26Z"></path><path class="cls-14" d="m79.79,125.08c.13.07-.09.76-.5,1.53-.41.77-.85,1.34-.98,1.26-.13-.07.09-.76.5-1.53.41-.77.85-1.34.98-1.26Z"></path><path class="cls-14" d="m87.72,129.52c.13.07-.09.76-.5,1.53-.41.77-.85,1.34-.98,1.26-.13-.07.09-.76.5-1.53.41-.77.85-1.34.98-1.26Z"></path><path class="cls-14" d="m91.48,131.5c.13.07-.09.76-.5,1.53-.41.77-.85,1.34-.98,1.26-.13-.07.09-.76.5-1.53.41-.77.85-1.34.98-1.26Z"></path><path class="cls-14" d="m99.59,135.71c.13.07-.09.76-.5,1.53-.41.77-.85,1.34-.98,1.26-.13-.07.09-.76.5-1.53.41-.77.85-1.34.98-1.26Z"></path><path class="cls-14" d="m103.95,138.02c.13.07-.09.76-.5,1.53-.41.77-.85,1.34-.98,1.26-.13-.07.09-.76.5-1.53.41-.77.85-1.34.98-1.26Z"></path><path class="cls-14" d="m111.79,142.14c.13.07-.09.76-.5,1.53-.41.77-.85,1.34-.98,1.26-.13-.07.09-.76.5-1.53.41-.77.85-1.34.98-1.26Z"></path><path class="cls-14" d="m116.31,144.47c.13.07-.09.76-.5,1.53-.41.77-.85,1.34-.98,1.26-.13-.07.09-.76.5-1.53.41-.77.85-1.34.98-1.26Z"></path></g><g><path class="cls-12" d="m185.62,45.3s0-.06,0-.17c0-.12,0-.28,0-.49,0-.45,0-1.08-.02-1.91,0-1.68-.02-4.12-.04-7.22-.02-6.2-.04-15.04-.07-25.65l.15.15c-10.3,0-22.46.01-35.44.02h0l.17-.17c0,12.98-.02,25.14-.02,35.44l-.15-.15c10.6.03,19.44.06,25.65.07,3.1.02,5.54.03,7.22.04.83,0,1.47.01,1.91.02.21,0,.37,0,.49,0,.11,0,.17,0,.17,0,0,0-.05,0-.16,0-.12,0-.28,0-.48,0-.44,0-1.07,0-1.88.02-1.67,0-4.1.02-7.18.04-6.23.02-15.1.04-25.74.07h-.15s0-.15,0-.15c0-10.3-.01-22.46-.02-35.44v-.17s.17,0,.17,0h0c12.97,0,25.13.02,35.44.02h.15v.15c-.03,10.64-.06,19.51-.07,25.74-.02,3.08-.03,5.51-.04,7.18,0,.81-.01,1.44-.02,1.88,0,.2,0,.36,0,.48,0,.11,0,.16,0,.16Z"></path><path class="cls-12" d="m185.62,45.3s.09-.07.27-.19c.2-.13.47-.3.81-.52.73-.46,1.79-1.13,3.14-1.98,2.75-1.71,6.69-4.17,11.54-7.19l-.06.11c-.01-9.25-.03-21.5-.04-34.91l.17.17h-.1c-13.41-.02-25.67-.03-34.93-.04l.06-.02c-5,2.82-9.06,5.11-11.89,6.7-1.4.78-2.49,1.39-3.26,1.81-.36.2-.65.35-.85.46-.19.1-.3.15-.3.15,0,0,.09-.07.28-.18.2-.12.48-.28.83-.5.75-.44,1.84-1.07,3.22-1.87,2.82-1.62,6.86-3.94,11.84-6.8l.03-.02h.03c9.26-.01,21.52-.03,34.93-.04h.27v.17c-.02,13.41-.03,25.66-.04,34.91v.07s-.06.04-.06.04c-4.88,2.98-8.84,5.4-11.6,7.09-1.37.83-2.43,1.47-3.17,1.92-.35.21-.63.37-.83.49-.19.11-.29.16-.29.16Z"></path><path class="cls-12" d="m201.44.63c.05.08-3.46,2.21-7.83,4.76-4.37,2.55-7.95,4.55-8,4.47-.05-.08,3.46-2.21,7.83-4.76,4.37-2.55,7.95-4.55,8-4.47Z"></path><g><path class="cls-12" d="m151.86,43.85c.05.08-.29.36-.76.63-.46.27-.88.42-.92.34-.05-.08.29-.36.76-.63.46-.27.88-.42.92-.34Z"></path><path class="cls-12" d="m155.22,41.92c.05.08-.29.36-.76.63-.46.27-.88.42-.92.34-.05-.08.29-.36.76-.63.46-.27.88-.42.92-.34Z"></path><path class="cls-12" d="m158.58,39.99c.05.08-.29.36-.76.63-.46.27-.88.42-.92.34-.05-.08.29-.36.76-.63.46-.27.88-.42.92-.34Z"></path><path class="cls-12" d="m161.94,38.06c.05.08-.29.36-.76.63-.46.27-.88.42-.92.34-.05-.08.29-.36.76-.63.46-.27.88-.42.92-.34Z"></path><path class="cls-12" d="m165.31,36.13c.05.08-.29.36-.76.63-.46.27-.88.42-.92.34-.05-.08.29-.36.76-.63.46-.27.88-.42.92-.34Z"></path><path class="cls-12" d="m166.16,32.73c.09,0,.16.44.16.97,0,.54-.08.97-.18.97-.09,0-.16-.44-.16-.97,0-.54.08-.97.18-.97Z"></path><path class="cls-12" d="m166.19,28.85c.09,0,.16.44.16.97,0,.54-.08.97-.18.97-.09,0-.16-.44-.16-.97,0-.54.08-.97.18-.97Z"></path><path class="cls-12" d="m166.22,24.98c.09,0,.16.44.16.97,0,.54-.08.97-.18.97-.09,0-.16-.44-.16-.97,0-.54.08-.97.18-.97Z"></path><path class="cls-12" d="m166.25,21.1c.09,0,.16.44.16.97,0,.54-.08.97-.18.97-.09,0-.16-.44-.16-.97,0-.54.08-.97.18-.97Z"></path><path class="cls-12" d="m166.28,17.22c.09,0,.16.44.16.97,0,.54-.08.97-.18.97-.09,0-.16-.44-.16-.97,0-.54.08-.97.18-.97Z"></path><path class="cls-12" d="m166.31,13.34c.09,0,.16.44.16.97,0,.54-.08.97-.18.97-.09,0-.16-.44-.16-.97,0-.54.08-.97.18-.97Z"></path><path class="cls-12" d="m166.34,9.47c.09,0,.16.44.16.97,0,.54-.08.97-.18.97-.09,0-.16-.44-.16-.97,0-.54.08-.97.18-.97Z"></path><path class="cls-12" d="m166.37,5.59c.09,0,.16.44.16.97,0,.54-.08.97-.18.97-.09,0-.16-.44-.16-.97,0-.54.08-.97.18-.97Z"></path><path class="cls-12" d="m166.4,1.71c.09,0,.16.44.16.97,0,.54-.08.97-.18.97-.09,0-.16-.44-.16-.97,0-.54.08-.97.18-.97Z"></path></g><g><path class="cls-12" d="m199.5,35.55c0-.09.43-.16.97-.16s.97.07.97.16-.43.16-.97.16-.97-.07-.97-.16Z"></path><path class="cls-12" d="m195.63,35.55c0-.09.43-.16.97-.16s.97.07.97.16-.43.16-.97.16-.97-.07-.97-.16Z"></path><path class="cls-12" d="m191.75,35.55c0-.09.43-.16.97-.16s.97.07.97.16-.43.16-.97.16-.97-.07-.97-.16Z"></path><path class="cls-12" d="m187.87,35.55c0-.09.43-.16.97-.16s.97.07.97.16-.43.16-.97.16-.97-.07-.97-.16Z"></path><path class="cls-12" d="m183.99,35.55c0-.09.43-.16.97-.16s.97.07.97.16-.43.16-.97.16-.97-.07-.97-.16Z"></path><path class="cls-12" d="m180.12,35.55c0-.09.43-.16.97-.16s.97.07.97.16-.43.16-.97.16-.97-.07-.97-.16Z"></path><path class="cls-12" d="m176.24,35.55c0-.09.43-.16.97-.16s.97.07.97.16-.43.16-.97.16-.97-.07-.97-.16Z"></path><path class="cls-12" d="m172.36,35.55c0-.09.43-.16.97-.16s.97.07.97.16-.43.16-.97.16-.97-.07-.97-.16Z"></path><path class="cls-12" d="m168.48,35.55c0-.09.43-.16.97-.16s.97.07.97.16-.43.16-.97.16-.97-.07-.97-.16Z"></path><path class="cls-12" d="m166.14,35.55c0-.09.09-.16.21-.16s.21.07.21.16-.09.16-.21.16-.21-.07-.21-.16Z"></path></g><path class="cls-12" d="m205.73,23.73s.33.07.88-.04c.54-.11,1.36-.5,1.84-1.38.48-.87.52-2.21-.1-3.37-.16-.28-.39-.51-.69-.56-.3-.05-.64.05-.91.24-.54.41-.84,1.16-1.12,1.88-.29.8-.45,1.62-.5,2.41h-.33c-.04-2.57-.06-4.82-.06-6.41,0-.75.01-1.38.02-1.88,0-.44.02-.68.05-.68.02,0,.04.24.07.68.02.5.05,1.13.08,1.88.06,1.6.12,3.84.17,6.41h-.33c.05-.82.21-1.68.51-2.51.14-.38.3-.74.48-1.09.19-.35.43-.69.76-.93.33-.24.75-.37,1.16-.29.42.07.73.4.9.72.66,1.28.58,2.7.04,3.64-.55.95-1.45,1.33-2.02,1.4-.3.04-.53.02-.68-.01-.15-.03-.23-.06-.23-.07Z"></path></g><g><path class="cls-14" d="m107.44,189.69s.14.04.41.12c.27.09.67.21,1.18.42,1.02.41,2.51,1.07,4.26,2.22,1.74,1.15,3.76,2.79,5.59,5.15,1.84,2.33,3.5,5.41,4.19,9.12.68,3.69.28,7.98-1.55,12.01-.91,2.02-2.22,3.94-3.9,5.6-.82.85-1.79,1.57-2.79,2.25-.53.3-1.04.63-1.59.9-.56.25-1.1.55-1.69.76-4.66,1.86-10.03,1.93-15.36,1.42-2.68-.26-5.39-.65-8.13-1.07-2.74-.44-5.52-.98-8.24-1.91-2.71-.91-5.28-2.26-7.37-4.14-1.06-.93-1.92-2.04-2.69-3.18-.7-1.19-1.32-2.42-1.72-3.72-.85-2.58-1.02-5.3-.79-7.89.28-2.59,1.03-5.07,2.17-7.29,2.35-4.42,6.06-7.66,9.92-9.76,3.88-2.12,7.91-3.23,11.62-3.71,3.72-.47,7.13-.35,10.08-.06,2.96.3,5.47.78,7.51,1.23,2.04.45,3.6.88,4.66,1.17.52.15.92.27,1.2.35.27.08.4.13.4.13,0,0-.14-.03-.42-.09-.29-.07-.69-.18-1.21-.31-1.06-.27-2.64-.67-4.68-1.1-2.04-.42-4.55-.88-7.5-1.16-2.94-.27-6.33-.37-10.02.12-3.68.49-7.66,1.61-11.49,3.72-3.81,2.09-7.46,5.3-9.75,9.64-1.11,2.18-1.84,4.62-2.11,7.16-.23,2.54-.06,5.21.78,7.73.39,1.27.99,2.47,1.68,3.63.76,1.11,1.59,2.2,2.62,3.1,2.04,1.83,4.55,3.16,7.23,4.06,2.68.92,5.44,1.45,8.17,1.9,2.74.43,5.44.81,8.1,1.08,5.3.51,10.61.44,15.19-1.37,4.62-1.71,8.01-5.37,9.81-9.31,1.82-3.96,2.23-8.18,1.58-11.82-.66-3.66-2.28-6.71-4.08-9.03-1.8-2.35-3.79-3.99-5.5-5.15-1.73-1.16-3.2-1.85-4.21-2.28-.5-.22-.9-.34-1.16-.45-.26-.1-.39-.16-.39-.16Z"></path><g><path class="cls-14" d="m80.74,215.53s-.29.06-.82.1c-.53.04-1.29.08-2.23.11-.24,0-.48.02-.74.03-.25,0-.52.05-.85-.04-.16-.04-.33-.17-.42-.33-.09-.16-.12-.33-.13-.49-.02-.3-.04-.6-.06-.91-.07-1.25-.15-2.61-.23-4.04-.07-1.44-.17-2.79-.18-4.06.02-.63.12-1.27.42-1.78.3-.52.77-.86,1.22-1.04.93-.35,1.73-.28,2.25-.25.53.05.81.12.81.15,0,.03-.3.01-.82,0-.51.01-1.3,0-2.13.35-.41.18-.8.49-1.05.95-.25.45-.34,1.02-.34,1.63.03,1.22.14,2.6.21,4.03.07,1.43.14,2.79.2,4.04.06.59-.07,1.34.35,1.44.21.07.49.04.74.04.25,0,.5,0,.74,0,.94,0,1.7,0,2.23.01.53.01.82.03.82.06Z"></path><path class="cls-14" d="m79.62,208.98c0,.11-.93.22-2.08.24-1.15.02-2.08-.05-2.09-.16,0-.11.93-.22,2.08-.24,1.15-.02,2.08.05,2.09.16Z"></path><path class="cls-14" d="m90.03,207.13c0,.11-1.42.1-3.16.16-1.74.05-3.15.15-3.17.04-.01-.11,1.39-.38,3.16-.43,1.76-.06,3.18.13,3.18.24Z"></path><path class="cls-14" d="m90.63,211.91c0,.11-1.4.26-3.13.22-1.73-.04-3.13-.26-3.12-.37.01-.11,1.41-.07,3.13-.03,1.72.04,3.12.07,3.12.18Z"></path><path class="cls-14" d="m107.45,214.78s0-.43-.03-1.22c-.04-.78-.15-1.93-.6-3.29-.23-.65-.48-1.48-1.15-1.89-.33-.19-.76-.17-1.1.08-.34.24-.62.61-.83,1.03-.88,1.71-1,3.91-1.02,6.21l-.39-.02c.11-1.47.1-3.02-.06-4.6-.07-.63-.14-1.26-.27-1.85-.13-.58-.39-1.12-.84-1.44-.43-.34-1.01-.33-1.46-.04-.46.28-.75.75-.91,1.26-.16.51-.22,1.06-.29,1.59-.06.53-.1,1.05-.13,1.56-.06,1.01-.05,1.97,0,2.85l-.3.02c-.09-2.24-.16-4.09-.21-5.43-.01-.61-.03-1.1-.03-1.48,0-.34,0-.52.02-.52.02,0,.04.18.07.52.03.39.07.88.12,1.48.08,1.34.2,3.18.34,5.42l-.3.02c-.06-.89-.08-1.86-.04-2.89.02-.51.06-1.04.12-1.58.06-.54.11-1.1.29-1.66.17-.56.51-1.14,1.07-1.48.27-.17.6-.28.94-.28.34,0,.68.13.95.33.56.4.85,1.05.99,1.67.14.63.21,1.26.28,1.9.16,1.6.17,3.18.05,4.67l-.39-.02c.02-2.3.16-4.57,1.1-6.35.23-.45.53-.86.95-1.14.41-.29,1.01-.33,1.42-.07.82.54,1.01,1.41,1.25,2.07.42,1.4.5,2.57.5,3.36,0,.4-.03.7-.05.91-.03.21-.05.31-.06.31Z"></path><path class="cls-14" d="m116.21,214.15s-.14.16-.48.34c-.33.17-.87.35-1.55.38-.68.02-1.52-.13-2.3-.63-.78-.49-1.41-1.37-1.66-2.4-.25-1.03-.09-2.1.38-2.89.46-.8,1.15-1.32,1.76-1.61.62-.29,1.18-.37,1.56-.37.38,0,.58.06.58.08,0,.08-.86-.07-2.01.54-.56.31-1.17.81-1.57,1.54-.41.72-.54,1.68-.31,2.62.23.93.78,1.73,1.48,2.19.69.47,1.46.64,2.1.65,1.3.02,2-.52,2.03-.44Z"></path><path class="cls-14" d="m118.57,202.81c0,.1-1.87-.05-4.45.77l-.67.22.5-.51c.82-.83,1.82-1.78,2.48-3.02.54-1.01.75-2.13.52-3.08-.11-.46-.39-.84-.78-.85-.39-.02-.8.15-1.13.31-.67.33-1.11.78-1.38,1.11-.27.33-.38.54-.41.53-.02,0,.04-.25.29-.62.24-.37.67-.87,1.37-1.27.36-.18.75-.39,1.28-.39.26,0,.55.14.74.35.19.21.3.47.37.73.28,1.06.04,2.28-.53,3.35-.71,1.33-1.75,2.28-2.59,3.09l-.18-.29c1.32-.39,2.48-.51,3.29-.53.81-.01,1.27.05,1.27.09Z"></path></g></g><g><g><polygon class="cls-10" points="185.54 190.99 206.85 186.88 247.73 196.25 268.45 200.57 268.74 228.88 222.53 237.4 191.34 228.16 179.55 210.81 185.54 190.99"></polygon><path class="cls-12" d="m170.4,193.81l20.11-4.74s14.22,43.95,49.31,42.06c28.6-1.54,28.63-30.56,28.63-30.56l20.91,3.7s8.77,53.09-.84,90.32c-8,30.99-15.09,73.49-15.09,73.49h-138.91l35.88-174.27h0Z"></path><path class="cls-12" d="m374.17,329.83s-57.29-100.36-67.6-113.25c-11.28-14.1-20.29-12.47-20.29-12.47l-6.07,67.62,48.71,69.11,11.61,4.19,33.64-15.19Z"></path><path class="cls-12" d="m172.8,193.24s-32.56,2.61-44.24,55.95c-5.28,24.13-11.96,52.41-13.89,71.41-1.4,13.78,7.12,28.12,20.86,29.89l17.26,3.2c9.47,1.75,18.66-4.2,20.92-13.56l5.83-24.13-15.51-5.17,3.59-71.91,5.17-45.67Z"></path><path class="cls-14" d="m292.03,241.58s.07.25.15.74c.08.54.19,1.26.33,2.15.07.47.14.99.22,1.56.06.58.12,1.2.19,1.86.13,1.34.3,2.86.37,4.54.25,3.37.24,7.4.08,11.87-.19,4.47-.7,9.36-1.44,14.46-.75,5.1-1.69,9.93-2.64,14.29-.94,4.37-1.9,8.27-2.71,11.54-.83,3.27-1.52,5.91-2.01,7.73-.24.87-.44,1.57-.58,2.09-.14.48-.22.73-.24.72-.02,0,.03-.26.14-.75.12-.53.28-1.24.49-2.12.45-1.89,1.08-4.53,1.85-7.77.76-3.28,1.69-7.19,2.6-11.56.93-4.36,1.85-9.17,2.6-14.26.74-5.08,1.26-9.96,1.48-14.41.19-4.45.23-8.46.03-11.82-.05-1.68-.18-3.2-.29-4.54-.05-.66-.1-1.28-.15-1.86-.06-.56-.12-1.08-.18-1.56-.1-.9-.17-1.62-.23-2.16-.05-.49-.06-.76-.05-.76Z"></path><path class="cls-14" d="m181.07,318.62s-.07-.14-.17-.44c-.11-.33-.24-.75-.41-1.29-.18-.58-.39-1.27-.64-2.08-.28-.81-.4-1.83-1.15-2.59-.73-.77-1.8-1.37-3.01-1.84-1.21-.48-2.58-.84-4.06-1.14-2.96-.59-6.36-.94-10.03-1.04h-.27s.04-.27.04-.27c.88-5.73,1.88-12.26,2.94-19.17,1.9-12.07,3.61-23,4.87-30.97.64-3.92,1.16-7.11,1.53-9.38.19-1.07.33-1.92.44-2.55.05-.26.09-.48.13-.66.03-.15.05-.22.06-.22,0,0,0,.08,0,.23-.02.18-.05.4-.08.67-.09.63-.2,1.48-.35,2.56-.33,2.27-.8,5.47-1.37,9.4-1.21,7.97-2.88,18.91-4.72,30.99-1.08,6.9-2.1,13.43-2.99,19.16l-.23-.27c3.72.12,7.12.5,10.11,1.13,1.49.32,2.87.7,4.11,1.21,1.23.5,2.32,1.13,3.09,1.96.38.42.64.91.79,1.4.13.47.25.91.37,1.32.22.81.42,1.51.58,2.09.14.54.26.97.34,1.31.07.3.11.45.09.46Z"></path><path class="cls-14" d="m136.22,326.78s.04-.49.26-1.34c.21-.85.61-2.07,1.26-3.51,1.27-2.87,3.79-6.62,7.72-9.48,3.93-2.86,8.27-4.1,11.39-4.43,1.57-.18,2.85-.18,3.73-.12.88.06,1.36.14,1.36.17,0,.11-1.95-.12-5.03.32-3.06.42-7.29,1.69-11.13,4.49-3.84,2.8-6.35,6.43-7.69,9.21-1.37,2.8-1.75,4.72-1.85,4.69Z"></path><path class="cls-14" d="m143.75,300.21s.28-.06.79-.07c.51-.02,1.24,0,2.15.1,1.81.17,4.29.67,6.87,1.73,2.57,1.06,4.7,2.45,6.1,3.6.7.57,1.25,1.07,1.59,1.44.35.37.53.58.51.61-.06.06-.88-.7-2.32-1.76-1.44-1.06-3.55-2.37-6.07-3.42-2.53-1.03-4.95-1.59-6.72-1.85-1.77-.26-2.89-.3-2.89-.39Z"></path><path class="cls-14" d="m177.45,231.13s-.06-.51-.08-1.43c0-.92-.06-2.24-.17-3.87-.22-3.26-.82-7.76-2.17-12.57-1.36-4.8-3.18-8.96-4.69-11.86-.75-1.45-1.4-2.61-1.87-3.4-.46-.79-.7-1.24-.67-1.26s.33.39.85,1.15c.53.76,1.22,1.89,2.02,3.33,1.6,2.87,3.5,7.04,4.87,11.89,1.35,4.85,1.91,9.4,2.03,12.68.07,1.64.06,2.98,0,3.9-.05.92-.09,1.43-.12,1.42Z"></path><g class="cls-9"><path d="m290.53,286.37c8.31-14.07,8.48-32.35,1.24-46.99,2.16,15.59,1.99,31.58-1.48,46.93"></path></g><g class="cls-9"><path d="m216.64,302.28c-6.3,1.85-15.03,2.31-21.17-.03,4.81,6.82,14.08,9.3,22.12,7.07,8.04-2.22,15.46-10.27,16.08-18.59-3.9,5.29-10.72,9.7-17.03,11.55Z"></path></g><path class="cls-14" d="m239.82,279.56s-.03.2-.15.56c-.12.36-.27.91-.54,1.57-.5,1.36-1.37,3.27-2.71,5.49-1.34,2.22-3.22,4.69-5.69,7.08-2.46,2.38-5.55,4.63-9.12,6.37-3.58,1.7-7.27,2.7-10.67,3.14-3.41.44-6.52.36-9.08.02-2.57-.34-4.61-.86-5.98-1.31-.69-.2-1.21-.43-1.57-.56-.35-.14-.54-.22-.53-.24.02-.04.77.21,2.15.61,1.38.39,3.42.86,5.96,1.14,5.06.6,12.4.14,19.49-3.25,7.08-3.41,12.03-8.85,14.72-13.17,1.37-2.17,2.28-4.04,2.84-5.37.56-1.32.83-2.07.87-2.06Z"></path></g><g><g><path class="cls-14" d="m282.52,86.45l4.11-4c5.47,2.38,8.02,8.73,8.93,14.63.92,5.9.8,12.1,3.3,17.52,1.93,4.17,5.41,8.03,5,12.6-.4,4.35-4.33,7.87-4.35,12.24-.02,4.2,3.5,7.44,5.54,11.12,4.14,7.46,6.81,37.93,4.65,46.18-18.17-1.57-50.34-3.51-68.53-7.68,4.81-31.31,24.97-75.51,41.36-102.61Z"></path><g><g><g><g><path class="cls-10" d="m256.83,209.33s-.02.3,0,0h0Z"></path><path class="cls-10" d="m290.65,114.39c1.26-21.29-14.19-40.78-35.75-43.34-22.87-2.72-43.1,13.66-44.99,35.93l-5.36,89.94c-.1,1.74.39,3.46,1.38,4.9,5.28,7.72,14.85,13.76,23.39,14.94,8.28,1.15,16.67-1,23.7-4.91,2.38-1.33,3.84-3.86,3.89-6.58l.37-20.13c0-.08.06-.14.14-.13,1.25.09,4.42.14,5.64-.16,5.33-1.3,18.9-6.52,23.45-26.43,1.51-6.61,3.04-25.36,4.15-44.02Z"></path></g><path class="cls-14" d="m261.07,143.79c0-.2,2.23-.42,5.83-.62.91-.03,1.78-.15,1.97-.74.26-.63-.06-1.62-.43-2.68-.71-2.22-1.46-4.54-2.24-6.97-3.1-9.92-5.28-18.05-4.88-18.16.41-.12,3.25,7.83,6.35,17.75.74,2.44,1.45,4.77,2.13,7,.28,1.04.79,2.23.24,3.53-.29.65-.98,1.09-1.57,1.2-.59.13-1.1.11-1.55.1-3.61-.06-5.84-.2-5.84-.4Z"></path></g><path class="cls-14" d="m284.77,121.92c-.4.43-2.75-1.56-6.14-1.65-3.38-.15-5.9,1.67-6.26,1.2-.18-.2.23-1,1.33-1.82,1.08-.82,2.91-1.59,5.02-1.51,2.11.08,3.87.97,4.88,1.87,1.03.9,1.37,1.72,1.17,1.91Z"></path><path class="cls-14" d="m250.43,122.77c-.46.43-2.92-1.8-6.61-2.12-3.69-.37-6.56,1.37-6.92.87-.18-.22.31-1.03,1.57-1.82,1.23-.79,3.28-1.48,5.59-1.27,2.3.22,4.17,1.27,5.22,2.27,1.06,1.01,1.39,1.88,1.16,2.07Z"></path><path class="cls-8" d="m257.27,184.99s-13.77.15-30.26-11.17c0,0,4.26,18.18,30.15,17.61l.11-6.44Z"></path><path class="cls-8" d="m259.03,152.1c-1.17-1.75-3.35-2.81-5.58-2.73-1.55.06-3.15.68-4.17,1.84-1.02,1.17-1.32,2.9-.55,4.14.87,1.39,2.85,1.84,4.58,1.48,1.72-.36,3.25-1.35,4.71-2.35.4-.28.81-.56,1.08-.96.27-.4.35-.94.08-1.3"></path><path class="cls-14" d="m250.47,145.48c.58,0,.34,3.8,3.47,6.71,3.12,2.93,7.25,2.79,7.25,3.32.04.24-.96.67-2.7.6-1.7-.06-4.15-.77-6.06-2.56-1.91-1.79-2.63-4.05-2.66-5.61-.05-1.59.44-2.5.71-2.46Z"></path><path class="cls-14" d="m250.98,108.84c-.42.92-3.93.2-8.12.38-4.2.1-7.64,1.04-8.13.15-.22-.43.43-1.27,1.85-2.09,1.41-.81,3.62-1.52,6.14-1.61,2.52-.08,4.78.48,6.25,1.2,1.49.72,2.2,1.52,2.02,1.96Z"></path><path class="cls-14" d="m285.5,109.58c-.72.8-3.57-.01-6.99-.04-3.42-.13-6.31.56-6.98-.26-.3-.4.15-1.2,1.41-1.96,1.24-.75,3.32-1.38,5.67-1.33,2.35.05,4.39.76,5.59,1.57,1.22.81,1.62,1.63,1.3,2.01Z"></path><g><path class="cls-14" d="m258.06,66.55c-1.86-3.16-5.31-4.6-9.17-5.19-15.75-2.39-33.34,7.1-42.17,20.36-8.83,13.26-9.3,33.05-2.84,47.61l9.82-6.15c19.73-8.13,33.66-27.14,46.35-46.78,1.73-2.67-.39-7.11-2-9.86Z"></path><path class="cls-14" d="m282.3,75.21c-6.59-7.49-11.38-14.97-25.06-9.76-2.02,3.83,2.04,8.8,5.43,11.71,4.96,4.25,9.3,7.13,12.55,10.17,6.58,6.16,14.06,26.84,14.71,38.14.04.71,1.26-9.69,1.97-9.8.92-.14,4.64-4.68,4.13-10.88-1.74-21.19-7.15-22.07-13.74-29.57Z"></path><path class="cls-14" d="m248.88,61.36c0-.1,1.2-.24,3.07.27,1.84.52,4.29,1.82,6.22,4.08.47.57.91,1.15,1.25,1.78.36.63.55,1.33.72,1.89.37,1.18.68,2.28.81,3.24.27,1.93-.19,3.11-.28,3.07-.16-.02.05-1.18-.38-2.95-.2-.89-.56-1.92-.98-3.08-.22-.61-.38-1.17-.7-1.71-.31-.55-.72-1.09-1.16-1.62-1.8-2.11-4.02-3.42-5.71-4.06-1.71-.64-2.87-.74-2.86-.9Z"></path></g></g><path class="cls-14" d="m281.65,128.42c.08,1.58-1.18,2.95-2.83,3.07-1.64.12-3.05-1.06-3.13-2.64-.08-1.58,1.18-2.96,2.83-3.07,1.65-.12,3.05,1.06,3.14,2.64Z"></path><path class="cls-14" d="m248.71,128.62c.09,1.58-1.18,2.95-2.83,3.07-1.64.12-3.05-1.06-3.13-2.64s1.18-2.96,2.83-3.07c1.65-.12,3.05,1.06,3.14,2.64Z"></path></g><path class="cls-14" d="m158.07,153.66c1.86-3.06,3.96-5.94,7.4-7.21s7.26-2.03,9.93-4.48c4.19-3.84,4.04-10.25,3.62-15.83-.42-5.58-.48-12.01,3.8-15.76,3.57-3.13,9.27-3.41,12.36-6.99,2.07-2.39,2.48-5.69,3.21-8.74,1.96-8.18,6.47-22.44,30.55-30.65l-21.3,80.94c1.58.44,5.39,4.06,5.6,6.51.2,2.29-.79,4.61-.82,6.91-.03,2.81,3.06,4.49,5,6.58,2.46,2.64,3.22,6.46,2.84,10.01-.38,3.55-2.48,10.8-3.85,14.11-19.77-2-48.6-2.65-63.66-15.25-2.75-2.3,1.18-13.34,5.32-20.16Z"></path><g><path class="cls-10" d="m213.71,123.19c-.37-.2-14.92-5.96-15.84,9.35-.92,15.31,14.63,13.08,14.69,12.64.05-.44,1.16-21.99,1.16-21.99Z"></path><path class="cls-8" d="m208.22,139.1c-.06-.05-.28.17-.74.35-.45.17-1.22.27-2-.08-1.58-.69-2.79-3.34-2.7-6.1.05-1.4.42-2.7.98-3.77.54-1.09,1.31-1.83,2.13-1.93.82-.14,1.37.38,1.53.83.18.44.06.74.14.77.04.04.34-.24.26-.88-.04-.31-.2-.68-.54-1-.35-.32-.88-.51-1.45-.48-1.19,0-2.31,1.03-2.93,2.2-.68,1.17-1.13,2.64-1.18,4.21-.09,3.09,1.32,6.07,3.49,6.85,1.06.35,1.98.08,2.46-.26.5-.35.6-.69.55-.72Z"></path></g><g><path class="cls-14" d="m268.16,127.21c.08,0-.03-1.26.49-3.43.51-2.13,1.88-5.28,5.03-7.74,1.56-1.2,3.54-2.24,5.83-2.68,2.27-.42,4.85-.39,7.31.5,1.24.41,2.44,1.04,3.54,1.84,1.12.78,2.13,1.76,2.98,2.9,1.74,2.24,2.75,5.15,2.83,8.15.02,3.01-.89,5.94-2.56,8.24-.81,1.17-1.79,2.18-2.88,3-1.08.84-2.26,1.5-3.48,1.95-2.43.97-5,1.09-7.29.74-2.3-.36-4.31-1.33-5.91-2.49-3.23-2.36-4.7-5.46-5.27-7.58-.58-2.16-.51-3.42-.59-3.42,0,0-.01.08-.01.23,0,.18.01.4.02.67,0,.3.03.66.1,1.09.06.43.13.93.29,1.47.53,2.16,1.96,5.35,5.25,7.82,1.63,1.2,3.68,2.22,6.06,2.62,2.35.38,5.01.28,7.53-.72,1.27-.46,2.49-1.14,3.61-2,1.13-.85,2.16-1.89,3-3.1,1.74-2.38,2.69-5.43,2.67-8.55-.08-3.12-1.13-6.13-2.94-8.45-.88-1.18-1.94-2.19-3.09-3-1.15-.82-2.39-1.47-3.67-1.89-2.55-.91-5.21-.93-7.55-.47-2.36.47-4.38,1.55-5.97,2.81-3.21,2.57-4.54,5.81-5,7.98-.15.55-.19,1.05-.24,1.48-.06.43-.07.8-.07,1.1,0,.27,0,.49,0,.67,0,.15,0,.23.02.23Z"></path><path class="cls-14" d="m229.52,127.83c.08,0-.03-1.26.49-3.43.51-2.13,1.87-5.28,5.03-7.74,1.56-1.2,3.54-2.24,5.83-2.68,2.27-.42,4.85-.39,7.31.5,1.24.41,2.44,1.04,3.54,1.84,1.12.78,2.13,1.76,2.98,2.9,1.74,2.24,2.75,5.15,2.83,8.15.02,3.01-.89,5.94-2.56,8.24-.81,1.17-1.79,2.18-2.88,3-1.08.84-2.26,1.5-3.48,1.95-2.43.97-5,1.09-7.29.74-2.3-.36-4.31-1.33-5.91-2.49-3.23-2.36-4.7-5.46-5.27-7.58-.58-2.16-.51-3.42-.59-3.42,0,0-.01.08-.01.23,0,.18.01.4.02.67,0,.3.03.66.1,1.09.06.43.13.93.29,1.47.53,2.16,1.96,5.35,5.25,7.82,1.63,1.2,3.68,2.22,6.06,2.62,2.35.38,5.01.28,7.53-.72,1.27-.46,2.49-1.14,3.61-2,1.13-.85,2.16-1.89,3-3.1,1.74-2.38,2.69-5.43,2.67-8.55-.08-3.12-1.13-6.13-2.94-8.45-.88-1.18-1.94-2.19-3.09-3-1.15-.82-2.39-1.47-3.67-1.89-2.55-.91-5.21-.93-7.55-.47-2.36.47-4.38,1.55-5.97,2.81-3.21,2.57-4.54,5.81-5,7.98-.15.55-.19,1.05-.24,1.48-.06.43-.07.8-.07,1.1,0,.27,0,.49,0,.67,0,.15,0,.23.02.23Z"></path><path class="cls-14" d="m257.12,126.78c.07.05.48-.6,1.41-1.35.91-.74,2.43-1.54,4.23-1.57,1.8-.03,3.35.71,4.29,1.42.96.71,1.38,1.35,1.45,1.29.05-.02-.28-.75-1.22-1.58-.92-.82-2.57-1.68-4.53-1.65-1.96.04-3.57.96-4.46,1.82-.92.86-1.21,1.6-1.17,1.63Z"></path><path class="cls-14" d="m210.19,122.21c-.01.07,1.07.32,2.83.59,1.76.27,4.21.54,6.92.77,2.62.23,4.98.45,6.92.62,1.77.17,2.86.3,2.88.22.01-.07-1.07-.32-2.83-.59-1.76-.27-4.21-.54-6.92-.77-2.62-.23-4.98-.45-6.92-.62-1.77-.17-2.86-.3-2.88-.22Z"></path></g><path class="cls-1" d="m290.48,135.86c-.13-.11,1.92-1.84,3-4.84,1.13-2.98.7-5.62.87-5.62.06-.01.25.63.3,1.7.05,1.07-.11,2.57-.68,4.11-.57,1.54-1.43,2.78-2.16,3.56-.73.78-1.29,1.14-1.33,1.1Z"></path><path class="cls-1" d="m292.9,120.05c.08-.12.65.17.97.85.33.68.2,1.3.06,1.29-.15,0-.26-.51-.53-1.06-.26-.56-.6-.96-.51-1.08Z"></path><path class="cls-1" d="m255.18,132.83c-.08-.03.2-.81.42-2.1.23-1.29.33-3.11-.03-5.07-.37-1.96-1.12-3.62-1.79-4.74-.67-1.12-1.22-1.74-1.15-1.8.04-.04.68.5,1.46,1.6.78,1.1,1.61,2.81,2,4.84.37,2.04.21,3.93-.12,5.24-.33,1.31-.74,2.04-.79,2.02Z"></path></g><path class="cls-4" d="m202,144.98s-.21.3-.51.85c-.3.55-.64,1.43-.66,2.54-.02,1.1.35,2.47,1.42,3.49,1.03,1.01,2.68,1.67,4.33,1.38,1.65-.31,2.97-1.5,3.57-2.81.64-1.32.51-2.74.11-3.76-.4-1.04-1.03-1.75-1.5-2.16-.48-.41-.8-.58-.78-.62,0-.02.36.08.9.46.53.38,1.24,1.08,1.72,2.18.48,1.07.67,2.63-.02,4.1-.65,1.45-2.07,2.77-3.92,3.12-1.85.32-3.65-.43-4.76-1.56-1.15-1.14-1.52-2.67-1.45-3.84.06-1.2.48-2.1.85-2.64.37-.54.67-.76.69-.75Z"></path><path class="cls-4" d="m286.49,156.77c.02-.1,1.01.62,2.66.17.8-.21,1.7-.7,2.45-1.51.75-.8,1.35-1.9,1.59-3.15.24-1.25.05-2.48-.42-3.48-.46-1-1.14-1.76-1.79-2.29-1.33-1.06-2.44-1.21-2.41-1.3,0-.03.28-.03.76.1.47.13,1.15.39,1.88.91.71.52,1.48,1.31,2,2.38.53,1.06.76,2.43.5,3.78-.25,1.35-.92,2.54-1.75,3.38-.83.86-1.83,1.35-2.71,1.54-.88.19-1.63.07-2.1-.12-.47-.19-.67-.39-.65-.41Z"></path></g><g><g><path class="cls-10" d="m230.97,355.33l14.82,4.39s8.18,3.51,12.16,4.43c4.94,1.13,8.31-.41,8.49-3.15.18-2.74-3.66-3.11-3.66-3.11,0,0-6.21-2.38-9.5-4.39-3.29-2.01-5.3-6.03-5.3-6.03l5.3.73s11.15,8.04,15.35,10.42,5.12-1.83,5.48-3.11c.37-1.28-12.43-14.26-12.43-14.26,0,0,12.25,7.86,14.44,9.83,2.19,1.97,5.48,2.6,6.21,1.32.73-1.28,2.74-1.28,0-6.7-2.74-5.42-24.67-19.98-24.67-19.98l6.03-1.28,6.58,2.92s.37,2.74,2.74,6.26c2.38,3.52,6.58,0,6.58,0l-2.56-13.48-12.98-8.13s-13.52,1.64-15.53,2.56c-2.01.91-4.2,4.74-4.2,4.74l-3.66,1.47c-5.67,1.64-5.48,7.31-7.31,7.49-1.83.18-55.16-10.22-55.16-10.22l-4.83-1.26c-7.96,6.07-11.19,16.1-12.6,24.99,0,0-1.48,4.35,0,6.76l70.2,6.79Z"></path><path class="cls-8" d="m221.23,345.85s-.05-.31-.05-.87c-.01-.28.02-.63.09-1.02.05-.4.12-.85.27-1.33.48-1.97,1.79-4.49,3.72-6.87,1.93-2.39,3.99-4.25,5.52-5.53,1.54-1.28,2.55-1.98,2.59-1.93.05.06-.88.87-2.35,2.21-1.46,1.34-3.46,3.23-5.35,5.58-1.9,2.34-3.22,4.76-3.78,6.65-.59,1.88-.55,3.13-.66,3.13Z"></path><path class="cls-8" d="m244.33,319.32s-.44.23-1.13.78c-.68.55-1.57,1.48-2.43,2.79-.43.66-.87,1.4-1.22,2.25-.38.81-.39,1.82-.58,2.86-.16,1.04-.48,2.2-1.17,3.16-.67.96-1.39,1.86-1.78,2.97-.71,1.91-.65,3.99-.02,5.65l.07.19-.17.11c-2.83,1.8-4.21,4.54-4.71,6.47-.52,1.97-.36,3.2-.45,3.2-.02,0-.07-.3-.1-.86-.02-.56.03-1.39.25-2.41.43-2,1.79-4.89,4.74-6.81l-.1.29c-.69-1.76-.77-3.97,0-6,.41-1.19,1.21-2.17,1.84-3.08.66-.91.95-1.93,1.12-2.96.2-1.01.22-2.05.65-2.95.38-.88.86-1.62,1.31-2.28.92-1.32,1.87-2.24,2.62-2.75.37-.26.68-.42.9-.51.22-.09.34-.12.35-.11Z"></path><path class="cls-8" d="m257.17,325.3c.02.13-1.75.32-3.78-.41-2.03-.71-3.29-1.98-3.19-2.07.1-.12,1.44.91,3.36,1.58,1.92.7,3.61.74,3.61.9Z"></path><path class="cls-8" d="m260.59,340.07c-.06.13-2.57-.83-5.61-2.14-3.04-1.32-5.46-2.49-5.4-2.62.06-.13,2.57.83,5.61,2.14,3.04,1.32,5.46,2.49,5.4,2.62Z"></path><path class="cls-8" d="m248.56,347.37c-.07.13-1.32-.44-2.88-1.08-1.56-.64-2.84-1.12-2.8-1.26.04-.13,1.41.12,3,.78,1.59.65,2.75,1.44,2.68,1.56Z"></path><path class="cls-8" d="m258.75,341.02c.05.14-1.24.6-2.22,1.87-1.01,1.25-1.15,2.62-1.31,2.6-.06,0-.12-.35-.03-.92.09-.56.38-1.32.93-2.01.54-.69,1.21-1.14,1.74-1.36.52-.22.88-.25.9-.19Z"></path><path class="cls-8" d="m264.11,332.9c.07.14-.91.65-1.57,1.76-.69,1.1-.69,2.2-.84,2.21-.13.05-.39-1.21.39-2.48.77-1.27,2-1.63,2.02-1.49Z"></path><path class="cls-8" d="m262.6,318.21c-.06.03-.26-.22-.4-.71-.15-.48-.2-1.2,0-1.96.2-.75.6-1.36.96-1.7.36-.35.66-.47.7-.42.1.12-.82.89-1.16,2.25-.37,1.35.05,2.48-.09,2.53Z"></path></g><g><path class="cls-3" d="m370.71,322.82s-.68-13.12-14.27-15.84c-13.59-2.72-37.39,8.84-37.39,8.84l-66.74,46.51,1.99,5.75,67.72-9.44,6.21,2.38,47.58-31.27,44.9-32.46-4.96-3.91s-12.58,8.67-20.9,12.41c-8.33,3.74-20.39,10.26-24.13,17.03Z"></path><path class="cls-14" d="m251.25,369.98l56.48-35.09,59.71-9.59s3,4.33,8.07,3.27h0l49.1-33.98.92,2.06-95.21,66.87c-3.45,1.07-6.1.26-8.3-1.61l-70.77,8.07Z"></path><path class="cls-14" d="m367.44,325.3s-.15.14-.46.38c-.36.26-.82.59-1.38,1-1.2.86-2.93,2.11-5.04,3.69-4.24,3.15-9.98,7.64-16.22,12.73-6.24,5.1-11.8,9.82-15.81,13.26-1.96,1.69-3.56,3.08-4.73,4.09-.53.45-.96.81-1.3,1.1-.3.25-.46.37-.48.36s.13-.16.4-.44c.32-.31.73-.7,1.23-1.18,1.08-1.01,2.65-2.46,4.63-4.21,3.94-3.52,9.47-8.28,15.72-13.39,6.25-5.09,12.04-9.55,16.33-12.63,2.14-1.55,3.91-2.75,5.15-3.56.58-.37,1.06-.68,1.43-.92.33-.2.51-.31.52-.29Z"></path><path class="cls-4" d="m366.83,318c-5.41-5.81-13.93-7.88-21.85-7.26-7.92.62-15.44,3.57-22.82,6.5l-69.09,47.29.62,1.78,69.46-47.02s15.51-5.02,22.38-5.86c11.51-1.41,21.3,4.57,21.3,4.57Z"></path><path class="cls-4" d="m377.67,324.22l33.22-22.41s-27.22,14.15-33.22,22.41Z"></path><path class="cls-14" d="m253.07,364.52s.09-.08.28-.22c.21-.15.5-.36.85-.62.78-.55,1.89-1.33,3.31-2.33,2.92-2.02,7.09-4.91,12.24-8.48,10.39-7.13,24.7-16.96,40.5-27.81,4.03-2.76,7.97-5.45,11.76-8.04h.02s.02-.02.02-.02c7.25-3.13,14.38-5.38,21.01-6.31,6.66-.84,12.74.29,17.22,2.43,2.25,1.06,4.09,2.37,5.52,3.71,1.42,1.35,2.42,2.72,3.08,3.91.68,1.19.99,2.2,1.2,2.88.07.33.13.59.18.79.04.18.05.27.05.27-.09.03-.22-1.51-1.58-3.85-.68-1.16-1.68-2.5-3.1-3.81-1.42-1.3-3.26-2.57-5.48-3.6-4.43-2.06-10.45-3.14-17.02-2.28-6.56.95-13.66,3.21-20.87,6.34l.04-.02c-3.79,2.6-7.72,5.29-11.75,8.05-15.84,10.8-30.18,20.58-40.59,27.69-5.19,3.51-9.4,6.35-12.34,8.34-1.44.96-2.57,1.72-3.37,2.25-.37.24-.66.43-.88.57-.2.13-.31.19-.31.18Z"></path><path class="cls-14" d="m313.55,328.77s.17-.13.52-.32c.35-.19.87-.48,1.54-.82,1.35-.7,3.32-1.68,5.79-2.8,4.94-2.21,12.01-5.04,20.27-6.21,8.27-1.17,15.93-.01,21.02,1.92,2.56.95,4.52,1.97,5.81,2.78.66.38,1.13.75,1.46.97.33.23.49.36.48.38-.03.04-.73-.42-2.04-1.17-1.31-.75-3.28-1.72-5.83-2.61-5.07-1.83-12.65-2.91-20.83-1.75-8.18,1.16-15.23,3.91-20.19,6.03-2.49,1.07-4.48,2-5.85,2.64-.65.3-1.17.54-1.59.73-.36.16-.56.24-.57.23Z"></path><path class="cls-14" d="m418.92,295.89s-.14.13-.43.33c-.34.23-.77.51-1.29.86-1.2.77-2.82,1.81-4.79,3.08-4.05,2.6-9.65,6.19-15.78,10.23-6.13,4.04-11.65,7.75-15.64,10.45-1.95,1.31-3.55,2.39-4.73,3.18-.52.34-.95.62-1.3.85-.3.19-.46.28-.47.27-.01-.01.13-.14.41-.35.33-.25.74-.55,1.24-.93,1.08-.8,2.67-1.93,4.64-3.32,3.94-2.77,9.42-6.54,15.56-10.58,6.14-4.04,11.77-7.58,15.87-10.1,2.05-1.26,3.72-2.26,4.88-2.95.54-.31.99-.57,1.34-.77.31-.17.48-.25.49-.24Z"></path></g><g><path class="cls-10" d="m388.7,331.85s-1.3,3.1-2.58,4.62c-1.27,1.52-5.46,3.64-5.79,6.53-.33,2.89.36,9.67-4.16,14.82-4.52,5.15-10.71,6.96-10.71,6.96l-17.83-1.74-28.48-11.2s-2.35-.64-1.82-2.99c.32-1.42,1.54-2.45,2.97-2.69l.68-.11s-1.64-1.34.71-3.69c2.02-2.03,6.27-.87,8.47-.14,2.19.73,15.1,6.12,17.42,6.95,2.05.73,3.62,1.38,3.62,1.38,0,0-16.51-11.14-16.74-12.6-.27-1.75-.09-2.55,1.6-3.78,1.98-1.44,5.28.11,8.46,1.44,2.36.99,17.48,8.46,17.48,8.46,0,0,.68-.66.04-2.01-.64-1.35-5.71-7.8-6.49-8.98-.78-1.18-.99-1.88-.22-2.88,1.11-1.44,4.03-2.11,6.67.32,1.7,1.57,7.7,5.6,7.7,5.6l27.74-20.24s3.45-.09,2.25,4.72c-1.2,4.81-10.99,11.23-10.99,11.23Z"></path><path class="cls-8" d="m368.03,348.71c-.03.13-1.55-.26-3-1.49-1.46-1.22-2.11-2.65-1.98-2.7.13-.08.94,1.16,2.32,2.3,1.36,1.16,2.72,1.75,2.66,1.89Z"></path><path class="cls-8" d="m370.3,336.64c0-.06.36-.16.96-.09.6.07,1.42.36,2.14.95.72.6,1.16,1.35,1.34,1.92.18.58.15.96.09.96-.15.04-.43-1.41-1.76-2.48-1.3-1.11-2.78-1.11-2.77-1.26Z"></path><path class="cls-8" d="m371.61,342.22c-.15,0-.23-1.49-.82-3.2-.57-1.72-1.42-2.95-1.29-3.04.1-.09,1.18,1.06,1.79,2.87.62,1.81.46,3.38.33,3.37Z"></path><path class="cls-8" d="m388.04,330.41s-.36-.15-.72-.63c-.36-.47-.72-1.25-.82-2.16-.1-.91.08-1.75.33-2.29.24-.55.51-.81.56-.78.14.07-.58,1.33-.37,3.01.17,1.68,1.14,2.75,1.02,2.85Z"></path></g></g></g><g><g><path class="cls-4" d="m29.74,261.57l21.7,106.53h188.35c2.08,0,3.76-1.68,3.76-3.76h0c0-2.08-1.68-3.76-3.76-3.76h-37.92l-20.12-99.07c-.39-1.9-2.05-3.27-3.99-3.29l-143.95-1.57c-2.62-.03-4.6,2.37-4.08,4.93Z"></path><path class="cls-14" d="m29.74,261.57s-.02-.11-.06-.32c-.03-.21-.06-.54-.02-.97.08-.82.52-2.21,1.99-3.11.36-.22.78-.38,1.24-.49.46-.1.97-.1,1.48-.09,1.03,0,2.16.02,3.39.03,2.45.02,5.28.04,8.47.07,12.78.12,31.32.3,54.43.52,11.56.12,24.26.24,37.94.38,6.84.07,13.94.14,21.26.22,3.66.04,7.38.08,11.15.12,1.89.02,3.79.04,5.7.06.49.01.94,0,1.46.04.5.05,1,.2,1.45.42.91.45,1.66,1.23,2.07,2.17.21.47.3.98.39,1.45l.29,1.43c.19.96.39,1.92.59,2.88.39,1.93.79,3.86,1.18,5.82.79,3.9,1.6,7.85,2.41,11.85,1.63,8,3.29,16.18,4.99,24.53,3.4,16.7,6.93,34.08,10.57,51.98l-.25-.21c7.12,0,14.42,0,21.84,0,3.71,0,7.45,0,11.21,0h2.83s1.42,0,1.42,0c.46,0,.96-.02,1.47.09.99.2,1.89.81,2.47,1.64.58.83.82,1.89.67,2.9-.17,1.23-.97,2.34-2.06,2.93-.54.29-1.16.46-1.77.48h-1.74c-2.3,0-4.6,0-6.89,0-4.58,0-9.14,0-13.66,0-9.05,0-17.98,0-26.78,0-17.59,0-34.64,0-50.99-.01-32.69-.02-62.59-.03-88.43-.04h-.16s-.03-.16-.03-.16c-6.63-32.74-12.03-59.38-15.77-77.84-1.86-9.22-3.3-16.4-4.28-21.28-.48-2.43-.85-4.29-1.1-5.55-.25-1.25-.36-1.9-.36-1.9,0,0,.15.64.41,1.89.26,1.26.65,3.11,1.16,5.54,1.01,4.88,2.49,12.05,4.39,21.26,3.78,18.45,9.23,45.07,15.94,77.8l-.2-.16c25.85-.01,55.74-.03,88.43-.04,16.35,0,33.4,0,50.99-.01,8.8,0,17.73,0,26.78,0,4.52,0,9.08,0,13.66,0,2.29,0,4.59,0,6.89,0h1.72c.54-.03,1.07-.17,1.54-.42.94-.52,1.64-1.48,1.79-2.55.14-.88-.07-1.8-.58-2.52-.5-.73-1.29-1.26-2.15-1.43-.43-.1-.88-.07-1.36-.08h-1.42s-2.83,0-2.83,0c-3.76,0-7.5,0-11.21,0-7.42,0-14.71,0-21.84,0h-.21l-.04-.21c-3.63-17.9-7.16-35.28-10.54-51.98-1.69-8.35-3.35-16.53-4.97-24.53-.81-4-1.61-7.95-2.4-11.85-.4-1.95-.79-3.89-1.18-5.82-.2-.96-.39-1.92-.58-2.88l-.29-1.43c-.1-.49-.18-.94-.36-1.36-.36-.84-1.03-1.54-1.85-1.94-.41-.2-.85-.33-1.3-.38-.44-.04-.94-.02-1.42-.03-1.91-.02-3.81-.04-5.7-.07-3.77-.04-7.49-.09-11.15-.13-7.32-.08-14.41-.17-21.26-.25-13.69-.16-26.39-.31-37.94-.45-23.11-.29-41.65-.51-54.43-.67-3.19-.04-6.02-.08-8.47-.11-1.22-.02-2.36-.03-3.39-.05-.52,0-1.01-.02-1.46.08-.45.1-.86.26-1.22.47-1.44.87-1.9,2.22-1.99,3.04-.09.85.06,1.28.03,1.28Z"></path></g><circle class="cls-1" cx="110.31" cy="310.33" r="6.22"></circle><path class="cls-14" d="m29.92,262.44s.22-.02.65-.02c.45,0,1.08,0,1.9-.01,1.69,0,4.16,0,7.32,0,6.38.03,15.57.08,26.93.13,22.75.16,54.16.38,88.85.63,4.34.03,8.63.07,12.85.1,1.06,0,2.11.02,3.16.03.51.01,1.06-.02,1.61.1.54.11,1.06.32,1.53.62.93.59,1.63,1.53,1.91,2.59.24,1.04.41,2.03.62,3.04,1.59,8.02,3.13,15.77,4.59,23.14,2.91,14.75,5.54,28.03,7.75,39.19,2.18,11.15,3.95,20.17,5.18,26.43.6,3.11,1.06,5.53,1.38,7.19.15.81.27,1.43.35,1.87.08.42.1.64.1.64,0,0-.06-.21-.15-.63-.09-.44-.23-1.06-.4-1.86-.34-1.66-.84-4.07-1.48-7.17-1.26-6.25-3.09-15.26-5.34-26.39-2.24-11.15-4.9-24.43-7.85-39.17-1.47-7.37-3.02-15.11-4.62-23.13-.2-.99-.39-2.03-.61-3-.25-.94-.87-1.77-1.69-2.3-.41-.26-.87-.45-1.35-.55-.47-.11-.98-.08-1.51-.09-1.05,0-2.1-.02-3.16-.02-4.22-.03-8.51-.07-12.85-.1-34.69-.3-66.09-.58-88.85-.78-11.36-.12-20.55-.23-26.93-.3-3.17-.05-5.63-.08-7.32-.11-.82-.02-1.46-.03-1.9-.04-.43-.01-.65-.03-.65-.03Z"></path></g></g></g></g></svg>