<svg xmlns="http://www.w3.org/2000/svg" xmlns:xlink="http://www.w3.org/1999/xlink" id="Layer_2" data-name="Layer 2" viewBox="0 0 487.35 345.54"><defs><style> .cls-1 { fill: #e9e9e9; } .cls-2, .cls-3, .cls-4 { fill: #fff; } .cls-2, .cls-5, .cls-6, .cls-7, .cls-8, .cls-4, .cls-9, .cls-10 { stroke-miterlimit: 10; } .cls-2, .cls-6, .cls-7, .cls-8, .cls-4, .cls-9, .cls-10 { stroke: #263238; } .cls-5 { stroke: #fff; } .cls-5, .cls-6, .cls-8, .cls-10, .cls-11 { fill: none; } .cls-6, .cls-8, .cls-4 { stroke-linecap: round; } .cls-12 { opacity: .2; } .cls-7 { fill: #7a7a7a; } .cls-13 { fill: #a6c479; } .cls-8 { stroke-width: 2px; } .cls-9 { fill: #b8b8b8; } .cls-14 { opacity: .1; } .cls-15 { clip-path: url(#clippath); } .cls-16 { fill: #263238; } </style><clipPath id="clippath"><rect class="cls-11" width="487.35" height="345.54"></rect></clipPath></defs><g id="Bag"><g class="cls-15"><g><path class="cls-1" d="m503.1,83.17c-17.46-26.4-39.39-49.49-67.8-64.83-68.93-37.21-150.58-22.37-207.14,29.48-21.33,19.55-36.28,44.92-56.83,65.23-10.06,9.94-21.54,18.86-35.02,23.57-23.17,8.09-50.35.51-74.44,2.51-36.07,2.99-76.64,16.48-93.97,50.72-18.18,35.94-15.32,83.42,3.06,118.72,2.93,5.62,14.84,28.18,22.48,28.18h527.76c2.1,0,8.5-15.55,9.29-17.18,7.44-15.31,13.37-31.34,17.64-47.81,13.04-50.36-.74-102.74-22.6-148.52-6.59-13.79-13.98-27.31-22.42-40.06Z"></path><g><rect class="cls-12" x="43.16" y="247.62" width="32.45" height="11.16"></rect><rect class="cls-12" x="287.25" y="234.2" width="32.45" height="11.16"></rect><rect class="cls-12" x="155.28" y="234.76" width="32.45" height="11.16"></rect><rect class="cls-12" x="17.33" y="234.76" width="32.45" height="11.16"></rect><rect class="cls-12" x="386.73" y="234.2" width="32.45" height="11.16"></rect><rect class="cls-12" x="312.78" y="169.82" width="32.45" height="11.16"></rect><rect class="cls-12" x="192.26" y="183.61" width="32.45" height="11.16"></rect><rect class="cls-12" x="64.79" y="186.24" width="32.45" height="11.16"></rect><rect class="cls-12" x="101.1" y="186.24" width="32.45" height="11.16"></rect><rect class="cls-12" x="233.21" y="183.61" width="32.45" height="11.16"></rect><rect class="cls-12" x="6.24" y="198.63" width="32.45" height="11.16"></rect><rect class="cls-14" x="366.47" y="249.62" width="32.45" height="11.16"></rect><rect class="cls-14" x="403.55" y="249.62" width="32.45" height="11.16"></rect><rect class="cls-12" x="110.9" y="252.27" width="32.45" height="11.16"></rect><rect class="cls-14" x="90.64" y="267.7" width="32.45" height="11.16"></rect><rect class="cls-14" x="127.72" y="267.7" width="32.45" height="11.16"></rect><rect class="cls-14" x="-30.28" y="267.7" width="32.45" height="11.16"></rect><rect class="cls-12" x="306.16" y="252.27" width="32.45" height="11.16"></rect><rect class="cls-14" x="285.9" y="267.7" width="32.45" height="11.16"></rect><rect class="cls-14" x="322.98" y="267.7" width="32.45" height="11.16"></rect><rect class="cls-12" x="83.65" y="203.76" width="32.45" height="11.16"></rect><rect class="cls-14" x="63.38" y="219.19" width="32.45" height="11.16"></rect><rect class="cls-14" x="100.47" y="219.19" width="32.45" height="11.16"></rect><rect class="cls-14" x="87.97" y="171.47" width="32.45" height="11.16"></rect><rect class="cls-14" x="34.66" y="159.65" width="32.45" height="11.16"></rect><rect class="cls-14" x="248.18" y="150.27" width="32.45" height="11.16"></rect><rect class="cls-14" x="354.5" y="170.15" width="32.45" height="11.16"></rect><rect class="cls-14" x="332.87" y="189.19" width="32.45" height="11.16"></rect><rect class="cls-12" x="191.81" y="67.17" width="32.45" height="11.16"></rect><rect class="cls-14" x="141.35" y="90.04" width="32.45" height="11.16"></rect><rect class="cls-14" x="211.9" y="86.53" width="32.45" height="11.16"></rect><rect class="cls-14" x="212.35" y="170.15" width="32.45" height="11.16"></rect><rect class="cls-12" x="194.58" y="132.41" width="32.45" height="11.16"></rect><rect class="cls-12" x="157.5" y="132.41" width="32.45" height="11.16"></rect><rect class="cls-14" x="176.14" y="119.28" width="32.45" height="11.16"></rect><rect class="cls-12" x="126.99" y="69.82" width="32.45" height="11.16"></rect><rect class="cls-12" x="270.52" y="65.65" width="32.45" height="11.16"></rect><rect class="cls-12" x="233.43" y="65.65" width="32.45" height="11.16"></rect><rect class="cls-14" x="252.08" y="52.52" width="32.45" height="11.16"></rect><rect class="cls-14" x="160.29" y="40" width="32.45" height="11.16"></rect><rect class="cls-14" x="161.36" y="151.44" width="32.45" height="11.16"></rect><rect class="cls-12" x="397.97" y="119.91" width="32.45" height="11.16"></rect><rect class="cls-12" x="360.89" y="119.91" width="32.45" height="11.16"></rect><rect class="cls-14" x="379.53" y="106.78" width="32.45" height="11.16"></rect><rect class="cls-14" x="364.75" y="138.95" width="32.45" height="11.16"></rect><rect class="cls-12" x="444.78" y="147.82" width="32.45" height="11.16"></rect><rect class="cls-14" x="486.5" y="148.15" width="32.45" height="11.16"></rect><rect class="cls-14" x="464.87" y="167.19" width="32.45" height="11.16"></rect><rect class="cls-12" x="373.19" y="64.54" width="32.45" height="11.16"></rect><rect class="cls-12" x="336.1" y="64.54" width="32.45" height="11.16"></rect><rect class="cls-14" x="354.75" y="51.41" width="32.45" height="11.16"></rect><rect class="cls-14" x="339.97" y="83.58" width="32.45" height="11.16"></rect><rect class="cls-12" x="36.19" y="64.54" width="32.45" height="11.16"></rect><rect class="cls-12" x="-.9" y="64.54" width="32.45" height="11.16"></rect><rect class="cls-14" x="17.75" y="51.41" width="32.45" height="11.16"></rect><rect class="cls-14" x="2.97" y="83.58" width="32.45" height="11.16"></rect><rect class="cls-12" x="296.21" y="111.05" width="32.45" height="11.16"></rect><rect class="cls-14" x="311.67" y="128.45" width="32.45" height="11.16"></rect></g><g><circle class="cls-13" cx="40.24" cy="305.54" r="61"></circle><g><line class="cls-10" x1="57.38" y1="273.67" x2="-5.51" y2="336.56"></line><line class="cls-10" x1="73.07" y1="257.98" x2="61.01" y2="270.04"></line><line class="cls-10" x1="52.14" y1="304.33" x2="12.78" y2="343.69"></line><line class="cls-10" x1="86.94" y1="269.54" x2="55.4" y2="301.07"></line></g><path class="cls-3" d="m58.81,256.78c0,3.51-3.74,6.35-8.34,6.35s-8.34-2.84-8.34-6.35,3.74-6.35,8.34-6.35,8.34,2.84,8.34,6.35Z"></path></g><g><g><circle class="cls-7" cx="496.55" cy="255.54" r="29"></circle><circle class="cls-7" cx="496.55" cy="255.54" r="15"></circle></g><g><circle class="cls-7" cx="496.55" cy="323.54" r="29"></circle><circle class="cls-7" cx="496.55" cy="323.54" r="15"></circle></g></g><g><g><path class="cls-13" d="m308.66,239.47l-2.48,6.31s-33.55,13.29-48.19,22.29c-14.64,9.01-15.99,17.11-13.06,23.87,2.93,6.76,30.62,62.15,30.62,62.15l.9,2.7-2.03,5.4s-13.06,6.53-16.66,8.11c-3.6,1.58-6.53,2.7-4.28,5.63,2.25,2.93,12.84,2.7,16.21,2.03,3.38-.68,10.13-1.8,13.74-1.58,3.6.23,10.58,1.35,9.68-4.05s-2.48-11.26-2.93-13.74c-.45-2.48-7.88-27.47-9.01-36.25s-1.92-20.98-5.07-25.7c-3.15-4.73-5.28-7.62-5.28-7.62,0,0,12.52-1.83,23.42-3.6,19.89-3.23,32.88-7.88,32.88-7.88,0,0,17.79-6.08,27.92-6.76,10.13-.68,18.69-4.28,21.62-10.81s1.35-19.14-5.4-25.9-7.66-6.76-7.66-6.76c0,0-11.71,7.21-26.57,8.11-14.86.9-24.54-2.03-24.54-2.03l-3.83,6.08Z"></path><line class="cls-2" x1="319.82" y1="251.37" x2="332.3" y2="260.87"></line></g><path class="cls-2" d="m290.5,187.9s-11.09-8.13-17.33-12.74c-6.24-4.61-10.58-9.49-10.58-9.49l4.88-13.83-15.19.81s-4.34,10.58-1.9,13.02c2.44,2.44,6.78,6.78,6.78,6.78,0,0,18.71,21.15,23.6,25.49,4.88,4.34,14.65,4.61,14.65,4.61l-3.8-14.37-1.11-.28Z"></path><path class="cls-2" d="m292.45,150.75s-8.33,1.8-9.68,6.31c-1.35,4.5,3.6,20.49,5.63,25.22,2.03,4.73,2.48,6.98,2.48,6.98,0,0-.68,10.58,2.25,16.44,2.93,5.85,14.19,7.66,14.19,7.66l4.28,7.43-2.93,18.69s17.56,6.08,33.1,2.7c15.54-3.38,22.74-14.86,22.74-14.86l-12.38-10.81s-.45-25.22-1.13-37.15c-.68-11.93-1.35-22.97-6.3-27.7-4.95-4.73-19.82-2.93-21.17-3.15-1.35-.23-4.73-3.83-6.3-7.43-1.58-3.6-4.73-12.16-4.73-12.16,0,0-4.95,1.35-5.85,4.73-.9,3.38-4.5,8.33-7.43,10.81-2.93,2.48-6.76,6.31-6.76,6.31Z"></path><path class="cls-16" d="m310.3,137s.81,3.25-2.43,9.19-4.87,7.84-4.87,7.84l-4.6-7.03s10.55-8.65,11.9-10.01Z"></path><g><path class="cls-16" d="m351.32,186.59c-2.55,1.11-9.44,3.32-15.19-2.07-7.21-6.76-8.11-25.45-8.11-29.72,0-3.15.12-5.44.19-6.43-1.14.03-2.14.07-2.93.11-.24,4.69-1.4,27.08-2.21,33.12-.9,6.76-9.23,10.13-15.76,8.33-6.53-1.8-10.36-6.31-10.36-13.74s2.7-28.15,2.7-28.15l-2.48.45s-3.6,25.67-5.18,31.07c-.79,2.7-1.24,5.85-1.49,8.33.28.91.37,1.35.37,1.35,0,0-.68,10.58,2.25,16.44,2.93,5.85,14.19,7.66,14.19,7.66l.85,1.47c1.05,1.1,4.74,3.29,17.17,1.91,13.66-1.52,23.14-6.7,26.6-9.65-.14-6-.34-13.85-.6-20.48Z"></path><path class="cls-2" d="m322.67,216.24s2.62,1.75,11.36,3.06"></path><path class="cls-5" d="m320.05,210.56s9.18,3.93,19.22-2.62"></path></g><path class="cls-16" d="m309.11,99.18s4.95-6.98,12.38-3.83,16.66,24.99,15.54,34.45c-1.13,9.46-12.16,11.03-19.14,8.56-6.98-2.48-5.4-13.51-6.53-20.27s-2.25-18.92-2.25-18.92Z"></path><g><path class="cls-2" d="m333.16,151.14s9.95-4.45,16.93,2.53c6.98,6.98,9.91,14.19,9.91,14.19l18.24,23.62s3.83-15.6,2.93-20.56c-.9-4.95-5.85-9.68-6.76-11.93s1.58-11.26,1.58-11.26c0,0,14.41.23,15.09.23s2.7,5.85,2.25,9.91c-.45,4.05-4.28,6.98-4.28,6.98,0,0,2.48,20.49,2.03,34.23-.45,13.74-7.26,14.05-13.93,10.08-12.4-7.38-18.27-16.07-23.22-20.35-4.95-4.28-7.21-7.21-7.21-7.21"></path><line class="cls-10" x1="348.74" y1="180.24" x2="344.46" y2="184.52"></line><line class="cls-10" x1="313.61" y1="160.88" x2="324.2" y2="155.02"></line></g><path class="cls-10" d="m299.2,148.94s4.25,3.94,4.05,11.48"></path><path class="cls-13" d="m365.92,243c-4.1-.8-9.69-1.14-14.47,1.19-8.78,4.28-22.52,21.39-24.99,26.8-2.48,5.4.68,13.74,2.03,16.44,1.35,2.7,21.84,45.04,26.12,52.47,3.04,5.29,4.95,12.51,5.79,16.24-.89.54-1.29,1.1-1.29,1.1l-.45,9.23s-2.7,4.73-6.76,6.76-6.53,6.31-2.7,7.66,16.89,1.13,20.04.23c3.15-.9,6.98-.9,6.98-3.6s0-12.38-.9-15.76c-.9-3.38-2.03-3.38-2.03-3.38h-.99c-.41-3.98-2.11-20.32-3.28-31.53-1.35-12.84-6.08-25.9-10.36-33.33-4.28-7.43-9.01-12.84-9.01-12.84,0,0-2.03-1.58,2.25-3.15,4.28-1.58,21.39-7.43,24.77-15.99,2.96-7.49,1.08-12.22.57-13.28"></path><g><ellipse class="cls-16" cx="210.44" cy="153.09" rx="12.28" ry="17.5"></ellipse><ellipse class="cls-7" cx="212.53" cy="153.09" rx="12.28" ry="17.5"></ellipse><path class="cls-7" d="m214.98,153.09c0,1.93-1.1,3.5-2.46,3.5s-2.46-1.57-2.46-3.5,1.1-3.5,2.46-3.5,2.46,1.57,2.46,3.5Z"></path></g><g><ellipse class="cls-16" cx="219.65" cy="153.09" rx="17.67" ry="25.17"></ellipse><ellipse class="cls-7" cx="222.65" cy="153.09" rx="17.67" ry="25.17"></ellipse></g><path class="cls-16" d="m432.32,154.76h-81.14c-2.25-3.01-6.07-4-4.97-4h86.11c1.1,0,2,.9,2,2s-.9,2-2,2Z"></path><path class="cls-16" d="m290.75,151c.75-.11,1.4-.12,1.98-.05-.25-.12-.53-.18-.83-.18h-70.59c-1.1,0-2,.9-2,2s.9,2,2,2h62.81c1.13-1.23,3.44-3.28,6.62-3.76Z"></path><g><ellipse class="cls-16" cx="439.65" cy="153.09" rx="17.67" ry="25.17"></ellipse><ellipse class="cls-7" cx="442.65" cy="153.09" rx="17.67" ry="25.17"></ellipse></g><g><ellipse class="cls-16" cx="447.44" cy="153.09" rx="12.28" ry="17.5"></ellipse><ellipse class="cls-7" cx="449.53" cy="153.09" rx="12.28" ry="17.5"></ellipse><path class="cls-16" d="m451.98,153.09c0,1.93-1.1,3.5-2.46,3.5s-2.46-1.57-2.46-3.5,1.1-3.5,2.46-3.5,2.46,1.57,2.46,3.5Z"></path></g><path class="cls-2" d="m260.38,146.49s-9.98,2.22-10.23,2.96,0,2.96,1.11,3.94c1.11.99,12.44-.37,13.43-.74.99-.37.49-3.2.37-4.8-.12-1.6-4.68-1.36-4.68-1.36Z"></path><path class="cls-2" d="m262.6,165.67s6.53-11.78,6.53-13.14-7.02-5.17-7.52-6.53c-.49-1.36-2.34,0-1.6,2.46.74,2.46,1.85,3.82,1.85,3.82l1.11,1.23s-6.53,4.44-8.25,7.52c-1.72,3.08,4.56,4.68,4.56,4.68"></path><path class="cls-2" d="m379.14,145.25s11.68,0,12.48,1.35l.81,1.35s0,4.05-1.01,4.28c-1.01.23-10.06.68-12.68.23-2.62-.45-1.01-5.4-1.01-6.76s1.41-.45,1.41-.45Z"></path><path class="cls-2" d="m382.42,157.72s-2.6-4.36-3.5-5.26c-.9-.9-3.6-2.93-3.6-2.93,0,0,5.4-1.35,5.4-2.93s-2.7-1.35-3.83-.45-5.18.68-5.18,2.48-.9,6.31.45,8.11c1.35,1.8,6.76,6.31,6.76,6.31"></path><g><g><path class="cls-4" d="m278.76,100.98c-2.23,3.98-3.13,8.92-2.53,12.83,1.35,8.78,2.25,15.99,2.25,15.99,0,0-.45,4.73,1.58,9.23,2.03,4.5,8.78,11.93,11.48,11.93s6.98-1.8,11.26-4.28c4.28-2.48,8.11-9.23,8.11-10.81v-4.28s4.05-2.93,4.5-5.85c.45-2.93.23-6.98.23-6.98,0,0,1.13-9.68-4.05-18.01s-16.61-8.57-24.77-6.53c-3.51.88-6.23,3.5-8.06,6.76Z"></path><path class="cls-16" d="m286.84,92.15c-3.51.88-6.99,3.5-8.08,8.83-.26,1.27-1.14,2.34-1.56,3.58l.16.02s.23-1.13,2.03-.45c1.8.68,2.48,2.48,8.33,1.58,5.85-.9,11.48-4.73,13.51-3.15s1.35,7.66,1.13,11.48c-.23,3.83,5.18,3.15,5.18,3.15,0,0,.9,5.18,2.7,4.05,1.8-1.13,2.25-5.85,5.4-2.48,0,0,2.6-12.6-2.58-20.94-5.18-8.33-18.06-7.72-26.22-5.68Z"></path><path class="cls-16" d="m297.4,126.31c0,1.05-.55,1.91-1.24,1.91s-1.24-.85-1.24-1.91.55-1.91,1.24-1.91,1.24.85,1.24,1.91Z"></path><path class="cls-16" d="m284.34,126.31c0,1.05-.55,1.91-1.24,1.91s-1.24-.85-1.24-1.91.55-1.91,1.24-1.91,1.24.85,1.24,1.91Z"></path><path class="cls-6" d="m287.04,125.98s0,2.93-.45,5.18c-.45,2.25-2.7,3.38-.9,3.83,1.8.45,3.83.45,3.83.45"></path><path class="cls-16" d="m291.75,141.14c.19,1.04-.3,2-1.1,2.15-.8.15-1.59-.58-1.78-1.62-.19-1.04.3-2,1.1-2.15.8-.15,1.59.58,1.78,1.62Z"></path><path class="cls-6" d="m291.1,122.82s4.73-2.48,8.33-1.13"></path><path class="cls-6" d="m285.69,124.17s-2.48-2.03-5.18-2.03"></path></g><path class="cls-10" d="m268.06,105.7c5.68-3.93,9.15-1.14,9.15-1.14,0,0-10.02,3.32-10.02,9.88"></path><path class="cls-4" d="m273.83,122.06s-5.69-4.35-5.93-1.44c-.18,2.16,5.93,1.44,5.93,1.44Z"></path><path class="cls-4" d="m273.83,125.47s-5.39.18-6.11,2.88c-.72,2.7,6.11-2.88,6.11-2.88Z"></path></g></g><g><g><path class="cls-9" d="m66.22,186.88s-2.33,17.67-3,28.33c-.67,10.67,0,52.33-.33,54.33-.33,2,.67,12.33.67,12.33,0,0-9.33,18.33-10.67,30.67-1.33,12.33-5.33,50-5.33,50l11-.33s12-35.33,18-45.33,15-33.33,17-40c2-6.67,14.33-41,14.33-41,0,0,22,31,26.67,36,4.67,5,11,15.33,11,15.33,0,0-.33,13.67,3.33,24.67,3.67,11,12,22.67,15.67,36.67,1.15,4.39,2.67,14.33,2.67,14.33l12-2s-.9-6.82-1.67-20.33c-2-35.33-9.33-67-10.33-69.67-1-2.67-10.67-38.67-17.67-49.33-7-10.67-11-17-11-17l-7.33-14s-19,2.67-36.33,2.67-28.67-6.33-28.67-6.33Z"></path><path class="cls-16" d="m149.55,221.54c-7-10.67-11-17-11-17l-7.33-14s-19,2.67-36.33,2.67-28.67-6.33-28.67-6.33c0,0-2.33,17.67-3,28.33-.51,8.18-.24,34.61-.23,47.38,7.14,1.52,19.18,3.6,33.94,4.22,4.33-12.48,10.96-30.93,10.96-30.93,0,0,13.49,19,21.58,29.65,10.95-1.39,22.38-3.88,33.76-7.98-3.69-12.19-9.22-29.22-13.68-36.01Z"></path></g><g><path class="cls-13" d="m102.94,82.88s-22.41,8.81-31.47,13.09-14.35,13.85-14.35,20.14,9.32,49.86,9.82,51.62-1.51,22.41-1.51,22.41c0,0,10.83,9.32,33.99,8.31,23.17-1.01,31.73-3.78,33.74-5.04,2.01-1.26.76-14.6,1.01-19.14.25-4.53,13.09-33.49,13.09-33.49,0,0,6.55,10.07,9.32,12.34s4.03,4.28,4.03,4.28c0,0,4.03,14.35,9.06,19.64,5.04,5.29,12.84,21.65,13.09,22.91s-1.26,4.03-1.26,4.78-3.78,6.04-2.77,7.55c1.01,1.51,0,4.53,1.51,5.54s3.27,1.76,3.27,1.76c0,0,2.01,2.27,4.53,2.52s3.27-2.01,3.27-2.01c0,0,6.55-4.03,6.8-7.81s-.25-10.07-3.78-17.37-8.56-32.73-11.33-39.03c-2.77-6.3-8.56-14.6-8.56-14.6l-14.86-27.7s-6.04-13.85-13.35-18.63c-7.3-4.78-19.64-8.31-24.93-9.82s-18.38-2.27-18.38-2.27Z"></path><path class="cls-9" d="m98.66,80.61s-.25,6.55.5,11.83,5.79,9.82,13.35,11.58c7.55,1.76,12.09-3.78,13.85-7.05,1.76-3.27,1.51-9.32,1.51-9.32,0,0-7.05,5.79-15.61,1.26-8.56-4.53-13.6-8.31-13.6-8.31Z"></path><path class="cls-16" d="m122.87,90.11c-2.79.79-6.53.97-10.61-1.19-6.77-3.58-11.32-6.68-12.93-7.83l-.68.18c-.04,1.79-.09,6.89.52,11.18.13.88.38,1.73.73,2.56,2.37,1.39,5.12,2.44,8.24,2.75,12.35,1.23,18.85-5.55,18.85-5.55l-4.12-2.11Z"></path><path class="cls-10" d="m93.62,94.46s3.53,9.82,8.56,13.6"></path><path class="cls-10" d="m130.14,99.75s-1.26,6.8-3.78,12.09"></path><path class="cls-10" d="m156.65,130.53c1.05-1.5,2-3.05,2.69-4.6"></path><path class="cls-10" d="m154.29,124.9c-2.96,7.34-7.04,15.89-7.04,15.89,0,0,3.77-3.23,7.3-7.52"></path><path class="cls-10" d="m156.83,117.88c-.33,1.17-.82,2.57-1.39,4.11"></path><path class="cls-10" d="m152.8,141.04s7.05-4.78,10.58-8.81"></path><path class="cls-9" d="m190.48,183.05c-3.86,2.14-9.09,4.38-13.01,5.95,2.87,5.3,5.16,10.28,5.29,10.95.25,1.26-1.26,4.03-1.26,4.78s-3.78,6.04-2.77,7.55c1.01,1.51,0,4.53,1.51,5.54,1.51,1.01,3.27,1.76,3.27,1.76,0,0,2.01,2.27,4.53,2.52s3.27-2.01,3.27-2.01c0,0,6.55-4.03,6.8-7.81s-.25-10.07-3.78-17.37c-1.17-2.42-2.5-6.83-3.86-11.87Z"></path><path class="cls-10" d="m75.49,140.03s5.79-6.55,9.06-11.33"></path><path class="cls-10" d="m76.25,141.8s5.54-1.26,10.07-5.79"></path><path class="cls-10" d="m68.95,178.81s6.8,4.78,14.6,5.04"></path><path class="cls-10" d="m122.97,181.94c-4.22,2.63-10.18,5.58-17.76,7.44"></path><path class="cls-10" d="m130.39,176.29s-1.43,1.47-4.2,3.49"></path><path class="cls-10" d="m86.83,187.37s11.83.25,23.92-3.27"></path></g><g><path class="cls-9" d="m132.38,63.33s1.75-.5,1.75,2.88-2,7.01-2,7.01l.25-9.89Z"></path><path class="cls-9" d="m94.29,65.87s-4.47-3.76-5.18,2.12c-.71,5.88,4.23,8.47,5.18,8.47h.94s.47,5.88,4.23,9.41c3.76,3.53,12.23,8.7,16.47,9.41,4.23.71,8.7-.47,11.06-3.06,2.35-2.59,5.18-9.64,5.18-13.17s.47-21.41.47-23.99,1.41-10.11-8.23-15.29c-9.64-5.18-26.35.94-29.87,5.88-3.53,4.94-.24,20.23-.24,20.23Z"></path><path class="cls-10" d="m112.59,75.39s-.24,2.12,1.88,2.59c2.12.47,7.06,1.18,8.47-.47,1.41-1.65.71-3.76.71-3.76"></path><path class="cls-16" d="m121.99,82.1s-7.76-.24-8.7,1.65c-.94,1.88,7.76,3.45,10.82.24,1.89-1.99-2.12-1.88-2.12-1.88Z"></path><path class="cls-16" d="m111.76,68.94c0,1.31-.53,2.38-1.19,2.38s-1.19-1.07-1.19-2.38.53-2.38,1.19-2.38,1.19,1.07,1.19,2.38Z"></path><path class="cls-16" d="m125.87,68.34c0,1.31-.53,2.38-1.19,2.38s-1.19-1.07-1.19-2.38.53-2.38,1.19-2.38,1.19,1.07,1.19,2.38Z"></path><path class="cls-8" d="m104.95,62.95s3.13-1.88,6.89.75"></path><path class="cls-8" d="m122.74,63.08s2.5-2.13,5.51-1.25"></path></g><g><path class="cls-16" d="m120.06,154.64s5.29.76,5.79,4.03-3.02,6.29-6.29,8.31-13.35-4.78-14.86-9.06,15.36-3.27,15.36-3.27Z"></path><path class="cls-13" d="m66.93,99.75s-9.06,4.28-13.6,12.09c-4.53,7.81-10.07,33.74-11.83,42.81s-2.27,21.91-.5,22.41,30.97-3.27,39.53-3.78c8.56-.5,18.88-2.01,18.88-2.01,0,0,13.6,3.78,15.61,3.02,2.01-.76,5.29-5.79,5.29-5.79,0,0,5.29-3.27,6.55-5.29s1.01-3.27-1.51-2.27-4.03,1.76-8.06,1.76-8.06-4.53-8.06-4.53l2.77-1.51s4.78.5,6.55,0c1.76-.5,2.01-3.78.5-4.03-1.51-.25-5.79-.25-7.81-.25s-5.79-2.01-8.31-.25-7.55,6.55-7.55,6.55c0,0-13.35,1.76-16.62,1.26s-7.81-1.51-7.81-1.51c0,0,4.78-9.06,5.04-12.34s-.25-6.04.25-13.35"></path><path class="cls-10" d="m70.49,158.62s-8.09-1.59-13.48-2.38"></path><path class="cls-9" d="m125.35,160.93c-2.52,1.01-4.03,1.76-8.06,1.76s-8.06-4.53-8.06-4.53l2.77-1.51s4.78.5,6.55,0c1.76-.5,2.01-3.78.5-4.03-1.51-.25-5.79-.25-7.81-.25s-5.79-2.01-8.31-.25-7.55,6.55-7.55,6.55c0,0-13.35,1.76-16.62,1.26-.18-.03-.37-.06-.56-.09-.79,4.11-1.5,9.38-1.06,13.7,1.32-.12,2.47-.21,3.38-.26,8.56-.5,18.88-2.01,18.88-2.01,0,0,13.6,3.78,15.61,3.02s5.29-5.79,5.29-5.79c0,0,5.29-3.27,6.55-5.29,1.26-2.01,1.01-3.27-1.51-2.27Z"></path></g></g></g></g></g></svg>